#define d03faf_width 334
#define d03faf_height 52
static char d03faf_bits[] = {
   0x00, 0x00, 0x00, 0x00, 0x00, 0x00, 0x00, 0x00, 0x00, 0x00, 0x00, 0x00,
   0x00, 0x00, 0x00, 0x00, 0x00, 0x00, 0x00, 0x00, 0x00, 0x00, 0x00, 0x00,
   0x00, 0x00, 0x00, 0x00, 0x00, 0x00, 0x00, 0x00, 0x00, 0x00, 0x00, 0x00,
   0x00, 0x00, 0x00, 0x00, 0x00, 0xc0, 0x00, 0x00, 0x00, 0x00, 0x00, 0x00,
   0x00, 0x00, 0x00, 0x00, 0x00, 0x00, 0x00, 0x00, 0x00, 0x00, 0x00, 0x00,
   0x00, 0x00, 0x00, 0x00, 0x00, 0x00, 0x00, 0x00, 0x00, 0x00, 0x00, 0x00,
   0x00, 0x00, 0x00, 0x00, 0x00, 0x00, 0x00, 0x00, 0x00, 0x00, 0x00, 0xc0,
   0x00, 0x00, 0xf0, 0x00, 0x00, 0x00, 0x00, 0x00, 0x00, 0x00, 0xe0, 0x01,
   0x00, 0x00, 0x00, 0x00, 0x00, 0x00, 0xc0, 0x03, 0x00, 0x00, 0x00, 0x00,
   0x00, 0x00, 0x00, 0x00, 0x00, 0x00, 0x00, 0x00, 0x00, 0x00, 0x00, 0x00,
   0x00, 0x00, 0x00, 0x00, 0x00, 0xc0, 0x00, 0x00, 0x98, 0x01, 0x00, 0x00,
   0x00, 0x00, 0x00, 0x00, 0x30, 0x03, 0x00, 0x00, 0x00, 0x00, 0x00, 0x00,
   0x60, 0x06, 0x00, 0x00, 0x00, 0x00, 0x00, 0x00, 0x00, 0x00, 0x00, 0x00,
   0x00, 0x00, 0x00, 0x00, 0x00, 0x00, 0x00, 0x00, 0x00, 0x00, 0x00, 0xc0,
   0x00, 0x00, 0x88, 0x01, 0x00, 0x00, 0x00, 0x00, 0x00, 0x00, 0x10, 0x03,
   0x00, 0x00, 0x00, 0x00, 0x00, 0x00, 0x20, 0x06, 0x00, 0x00, 0x00, 0x00,
   0x00, 0x00, 0x00, 0x00, 0x00, 0x00, 0x00, 0x00, 0x00, 0x00, 0x00, 0x00,
   0x00, 0x00, 0x00, 0x00, 0x00, 0xc0, 0x00, 0xf0, 0x80, 0xf1, 0x83, 0x07,
   0x00, 0x00, 0x00, 0xe0, 0x01, 0xe3, 0x07, 0x0f, 0x00, 0x00, 0x00, 0xc0,
   0x03, 0xc6, 0x0f, 0x1e, 0x00, 0x00, 0x00, 0x00, 0x00, 0x00, 0x00, 0x00,
   0x00, 0x00, 0x00, 0x00, 0x00, 0x00, 0x00, 0x00, 0x00, 0x00, 0x00, 0xc0,
   0x00, 0x08, 0xc1, 0xc0, 0x00, 0x01, 0x00, 0x00, 0x00, 0x10, 0x82, 0x81,
   0x01, 0x02, 0x00, 0x00, 0x00, 0x20, 0x04, 0x03, 0x03, 0x04, 0x00, 0x00,
   0x00, 0x00, 0x00, 0x00, 0x00, 0x00, 0x00, 0x00, 0x00, 0x00, 0x00, 0x00,
   0x00, 0x00, 0x00, 0x00, 0x00, 0xc0, 0x00, 0x0c, 0x41, 0xc0, 0x00, 0x01,
   0x00, 0x00, 0x00, 0x18, 0x82, 0x80, 0x01, 0x02, 0x00, 0x00, 0x00, 0x30,
   0x04, 0x01, 0x03, 0x04, 0x00, 0x00, 0x00, 0x00, 0x00, 0x00, 0x00, 0x00,
   0x00, 0x00, 0x00, 0x00, 0x00, 0x00, 0x00, 0x00, 0x00, 0x00, 0x00, 0xc0,
   0x00, 0x00, 0x23, 0xc1, 0x00, 0x01, 0x00, 0x00, 0x00, 0x00, 0x46, 0x82,
   0x01, 0x02, 0x00, 0x00, 0x00, 0x00, 0x8c, 0x04, 0x03, 0x04, 0x00, 0x00,
   0x00, 0x00, 0x00, 0x00, 0x00, 0x00, 0x00, 0x00, 0x00, 0x00, 0x00, 0x00,
   0x00, 0x00, 0x00, 0x00, 0x00, 0xc0, 0x00, 0x00, 0xf3, 0xc1, 0x00, 0x01,
   0x00, 0x00, 0x00, 0x00, 0xe6, 0x83, 0x01, 0x02, 0x00, 0x00, 0x00, 0x00,
   0xcc, 0x07, 0x03, 0x04, 0x00, 0x00, 0x00, 0x00, 0x00, 0x00, 0x00, 0x00,
   0x00, 0x00, 0x00, 0x00, 0x00, 0x00, 0x00, 0x00, 0x00, 0x00, 0x00, 0xc0,
   0x00, 0x30, 0xfb, 0xc0, 0x00, 0x01, 0x00, 0x00, 0x00, 0x60, 0xf6, 0x81,
   0x01, 0x02, 0x00, 0x00, 0x00, 0xc0, 0xec, 0x03, 0x03, 0x04, 0x00, 0x00,
   0x00, 0x00, 0x00, 0x00, 0x00, 0x00, 0x00, 0x00, 0x00, 0x00, 0x00, 0x00,
   0x00, 0x00, 0x00, 0x00, 0x00, 0xc0, 0x00, 0x4c, 0x03, 0xc0, 0x00, 0x01,
   0x00, 0x00, 0x00, 0x98, 0x06, 0x80, 0x01, 0x02, 0x00, 0x00, 0x00, 0x30,
   0x0d, 0x00, 0x03, 0x04, 0x00, 0x00, 0x00, 0x00, 0x00, 0x00, 0x00, 0x00,
   0x00, 0x00, 0x00, 0x00, 0x00, 0x00, 0x00, 0x00, 0x00, 0x00, 0x00, 0xc0,
   0x00, 0x82, 0x01, 0xc0, 0x00, 0x01, 0x00, 0x00, 0x00, 0x04, 0x03, 0x80,
   0x01, 0x02, 0x00, 0x00, 0x00, 0x08, 0x06, 0x00, 0x03, 0x04, 0x00, 0x00,
   0x00, 0x00, 0x00, 0x00, 0x00, 0x00, 0x00, 0x00, 0x00, 0x00, 0x00, 0x00,
   0x00, 0x00, 0x00, 0x00, 0x00, 0xc0, 0x00, 0x83, 0x01, 0xc0, 0x00, 0x01,
   0x00, 0x00, 0x00, 0x06, 0x03, 0x80, 0x01, 0x02, 0x00, 0x00, 0x00, 0x0c,
   0x06, 0x00, 0x03, 0x04, 0x00, 0x00, 0x00, 0x00, 0x00, 0x00, 0x00, 0x00,
   0x00, 0x00, 0x00, 0x00, 0x00, 0x00, 0x00, 0x00, 0x00, 0x00, 0x00, 0xc0,
   0x00, 0x83, 0x00, 0xc0, 0x00, 0x01, 0x00, 0x00, 0x00, 0x06, 0x01, 0x80,
   0x01, 0x02, 0x00, 0x00, 0x00, 0x0c, 0x02, 0x00, 0x03, 0x04, 0x00, 0x00,
   0x00, 0x00, 0x00, 0x00, 0x00, 0x00, 0x00, 0x00, 0x00, 0x00, 0x00, 0x00,
   0x00, 0x00, 0x00, 0x00, 0x00, 0xc0, 0x00, 0xc3, 0x00, 0xc0, 0x00, 0x01,
   0x00, 0x00, 0x00, 0x86, 0x01, 0x80, 0x01, 0x02, 0x00, 0x00, 0x00, 0x0c,
   0x03, 0x00, 0x03, 0x04, 0x00, 0x00, 0x00, 0x00, 0x00, 0x00, 0x00, 0x00,
   0x00, 0x00, 0x00, 0x00, 0x00, 0x00, 0x00, 0x00, 0x00, 0x00, 0x00, 0xc0,
   0x00, 0x43, 0x00, 0xc0, 0x01, 0x01, 0x00, 0x00, 0x00, 0x86, 0x00, 0x80,
   0x03, 0x02, 0x00, 0x00, 0x00, 0x0c, 0x01, 0x00, 0x07, 0x04, 0x00, 0x00,
   0x00, 0x04, 0x00, 0x00, 0x00, 0x00, 0x00, 0x00, 0x00, 0x00, 0x00, 0x00,
   0x00, 0x00, 0x00, 0x00, 0x00, 0xc0, 0x00, 0x63, 0x00, 0x80, 0x83, 0x00,
   0x00, 0x00, 0x00, 0xc6, 0x00, 0x00, 0x07, 0x01, 0x00, 0x00, 0x00, 0x8c,
   0x01, 0x00, 0x0e, 0x02, 0x00, 0x00, 0x00, 0x04, 0x00, 0x00, 0x00, 0x00,
   0x00, 0x00, 0x00, 0x00, 0x00, 0x00, 0x00, 0x00, 0x00, 0x00, 0x00, 0xc0,
   0x00, 0x3e, 0x00, 0x00, 0x7e, 0x00, 0x00, 0x00, 0x00, 0x7c, 0x00, 0x00,
   0xfc, 0x00, 0x00, 0x00, 0x00, 0xf8, 0x00, 0x00, 0xf8, 0x01, 0x00, 0x00,
   0x00, 0x0c, 0xf0, 0x83, 0x07, 0x00, 0x00, 0x00, 0x3c, 0x08, 0x00, 0x00,
   0x00, 0x00, 0x00, 0x00, 0x10, 0xc0, 0x00, 0x00, 0x00, 0x00, 0x00, 0x00,
   0x00, 0x00, 0x00, 0x00, 0x00, 0x00, 0x00, 0x00, 0x00, 0x00, 0x00, 0x00,
   0x00, 0x00, 0x00, 0x00, 0x00, 0x00, 0x00, 0x08, 0xc0, 0x00, 0x01, 0x00,
   0x00, 0x00, 0x76, 0x08, 0x00, 0x00, 0x00, 0x00, 0x00, 0x00, 0x10, 0xc0,
   0x00, 0x00, 0x00, 0x00, 0x00, 0x00, 0x00, 0x00, 0x00, 0x00, 0x00, 0x00,
   0x00, 0x00, 0x00, 0x00, 0x00, 0x00, 0x00, 0x00, 0x00, 0x00, 0x00, 0x00,
   0x00, 0x18, 0xc0, 0x00, 0x01, 0x00, 0x00, 0x00, 0x27, 0x04, 0x00, 0x00,
   0x00, 0x00, 0x00, 0x00, 0x20, 0xc0, 0x00, 0x00, 0x00, 0x00, 0x00, 0x00,
   0x00, 0x04, 0x00, 0x00, 0x00, 0x00, 0x00, 0x00, 0x00, 0x04, 0x00, 0x00,
   0x00, 0x00, 0x00, 0x00, 0x00, 0x08, 0x00, 0x10, 0xc0, 0x00, 0x01, 0x00,
   0x00, 0x00, 0x03, 0x04, 0x00, 0x00, 0x00, 0x00, 0x00, 0x00, 0x20, 0xc0,
   0x00, 0x00, 0x00, 0x00, 0x00, 0x00, 0x00, 0x04, 0x00, 0x00, 0x00, 0x00,
   0x00, 0x00, 0x00, 0x04, 0x00, 0x00, 0x00, 0x00, 0x00, 0x00, 0x00, 0x08,
   0x00, 0x30, 0xc0, 0x00, 0x01, 0x00, 0x00, 0x00, 0x03, 0x04, 0x00, 0x00,
   0x00, 0x00, 0x00, 0x00, 0x20, 0xc0, 0x00, 0x00, 0x00, 0x00, 0x00, 0x00,
   0x00, 0x04, 0x00, 0x00, 0x00, 0x00, 0x00, 0x00, 0x00, 0x04, 0x00, 0x00,
   0x00, 0x00, 0x00, 0x00, 0x00, 0x08, 0x00, 0x20, 0xc0, 0x00, 0x01, 0x00,
   0x00, 0xc0, 0x0f, 0x82, 0xcf, 0x03, 0xf8, 0x38, 0x00, 0xfe, 0x41, 0xc0,
   0x00, 0x00, 0x00, 0x00, 0x00, 0x00, 0x00, 0x04, 0x00, 0x00, 0x00, 0x00,
   0x00, 0x00, 0x00, 0x04, 0x00, 0x00, 0x00, 0x00, 0x00, 0x00, 0x00, 0x08,
   0x00, 0x60, 0xc0, 0x00, 0x01, 0x00, 0x00, 0x00, 0x03, 0x02, 0xce, 0x00,
   0x60, 0x08, 0x00, 0xc2, 0x40, 0xc0, 0x00, 0x00, 0x00, 0x00, 0x00, 0x00,
   0x00, 0x04, 0x00, 0x00, 0x00, 0x00, 0x00, 0x00, 0x00, 0x04, 0x00, 0x00,
   0x00, 0x00, 0x00, 0x00, 0x00, 0x08, 0x00, 0x60, 0xc0, 0x00, 0x01, 0xf8,
   0xff, 0x00, 0x03, 0x02, 0x6c, 0x00, 0xe0, 0x08, 0x00, 0x62, 0x40, 0xc0,
   0x80, 0xff, 0xff, 0xff, 0xff, 0x1f, 0x00, 0x04, 0x00, 0xff, 0xff, 0xff,
   0xff, 0x3f, 0x00, 0x04, 0x00, 0xfe, 0xff, 0xff, 0xff, 0x7f, 0x00, 0x08,
   0x00, 0x60, 0xc0, 0x00, 0x01, 0x00, 0x00, 0x00, 0x03, 0x02, 0x38, 0x00,
   0xc0, 0x04, 0x00, 0x70, 0x40, 0xc0, 0x00, 0x00, 0x00, 0x00, 0x00, 0x00,
   0xf0, 0xff, 0x01, 0x00, 0x00, 0x00, 0x00, 0x00, 0xf0, 0xff, 0x01, 0x00,
   0x00, 0x00, 0x00, 0x00, 0xe0, 0xff, 0x03, 0xd0, 0xc0, 0x00, 0x01, 0x00,
   0x00, 0x00, 0x03, 0x02, 0x38, 0x00, 0xc0, 0x05, 0x00, 0x38, 0x40, 0xc0,
   0x00, 0x00, 0x00, 0x00, 0x00, 0x00, 0x00, 0x04, 0x00, 0x00, 0x00, 0x00,
   0x00, 0x00, 0x00, 0x04, 0x00, 0x00, 0x00, 0x00, 0x00, 0x00, 0x00, 0x08,
   0x00, 0x88, 0xc0, 0x00, 0x01, 0x00, 0x00, 0x00, 0x03, 0x02, 0x78, 0x00,
   0x80, 0x07, 0x00, 0x18, 0x41, 0xc0, 0x00, 0x00, 0x00, 0x00, 0x00, 0x00,
   0x00, 0x04, 0x00, 0x00, 0x00, 0x00, 0x00, 0x00, 0x00, 0x04, 0x00, 0x00,
   0x00, 0x00, 0x00, 0x00, 0x00, 0x08, 0x00, 0x84, 0xc1, 0x01, 0x01, 0xf8,
   0xff, 0x00, 0x03, 0x02, 0x64, 0x00, 0x80, 0x03, 0x00, 0x9c, 0x41, 0xc0,
   0x00, 0x00, 0x00, 0x00, 0x00, 0x00, 0x00, 0x04, 0x00, 0x00, 0x00, 0x00,
   0x00, 0x00, 0x00, 0x04, 0x00, 0x00, 0x00, 0x00, 0x00, 0x00, 0x00, 0x08,
   0x00, 0x02, 0x83, 0x83, 0x00, 0x00, 0x00, 0x00, 0x03, 0x02, 0xc6, 0x60,
   0x80, 0x03, 0x0c, 0x8e, 0x40, 0xc0, 0x00, 0x00, 0x00, 0x0f, 0x00, 0x00,
   0x00, 0x04, 0x00, 0x00, 0x00, 0x0f, 0x00, 0x00, 0x00, 0x04, 0x00, 0x00,
   0x00, 0x3c, 0x00, 0x00, 0x00, 0x08, 0x00, 0x01, 0x06, 0x7e, 0x00, 0x00,
   0x00, 0x80, 0x07, 0x84, 0xe7, 0x63, 0x00, 0x01, 0x0c, 0xfe, 0x20, 0xc0,
   0x00, 0x80, 0x87, 0x19, 0x00, 0x00, 0x00, 0x04, 0x00, 0x80, 0x87, 0x19,
   0x00, 0x00, 0x00, 0x04, 0x00, 0x00, 0x1e, 0x66, 0x00, 0x00, 0x00, 0x08,
   0x00, 0x00, 0x00, 0x00, 0x00, 0x00, 0x00, 0x00, 0x00, 0x04, 0x00, 0x40,
   0x00, 0x01, 0x08, 0x00, 0x20, 0xc0, 0x00, 0x40, 0x88, 0x18, 0x00, 0x00,
   0x00, 0x04, 0x00, 0x40, 0x88, 0x18, 0x00, 0x00, 0x00, 0x04, 0x00, 0x00,
   0x21, 0x62, 0x00, 0x00, 0x00, 0x08, 0x00, 0x00, 0x00, 0x00, 0x00, 0x00,
   0x00, 0x00, 0x00, 0x04, 0x00, 0x20, 0x90, 0x00, 0x04, 0x00, 0x20, 0xc0,
   0x00, 0x60, 0x08, 0x18, 0x00, 0x00, 0x00, 0x00, 0x00, 0x60, 0x08, 0x18,
   0x00, 0x00, 0x00, 0x00, 0x00, 0x80, 0x21, 0x60, 0x00, 0x00, 0x00, 0x00,
   0x00, 0x00, 0x00, 0x00, 0x00, 0x00, 0x00, 0x00, 0x00, 0x08, 0x00, 0x00,
   0xb8, 0x00, 0x00, 0x00, 0x10, 0xc0, 0x00, 0x00, 0x18, 0x0c, 0x00, 0x00,
   0x00, 0x00, 0x00, 0x00, 0x18, 0x0c, 0x00, 0x00, 0x00, 0x00, 0x00, 0x00,
   0x60, 0x30, 0x00, 0x00, 0x00, 0x00, 0x00, 0x00, 0x00, 0x00, 0x00, 0x00,
   0x00, 0x00, 0x00, 0x08, 0x00, 0x00, 0x70, 0x00, 0x00, 0x00, 0x10, 0xc0,
   0x00, 0x00, 0x18, 0x04, 0x00, 0x00, 0x00, 0x00, 0x00, 0x00, 0x18, 0x04,
   0x00, 0x00, 0x00, 0x00, 0x00, 0x00, 0x60, 0x10, 0x00, 0x00, 0x00, 0x00,
   0x00, 0x00, 0x00, 0x00, 0x00, 0x00, 0x00, 0x00, 0x00, 0x00, 0x00, 0x00,
   0x00, 0x00, 0x00, 0x00, 0x00, 0xc0, 0x00, 0x80, 0x19, 0xd2, 0xe7, 0x01,
   0x00, 0x00, 0x00, 0x80, 0x19, 0x92, 0x8f, 0x03, 0x00, 0x00, 0x00, 0x00,
   0x66, 0x48, 0xfe, 0x01, 0x00, 0x00, 0x00, 0x00, 0x00, 0x00, 0x00, 0x00,
   0x00, 0x00, 0x00, 0x00, 0x00, 0x00, 0x00, 0x00, 0x00, 0x00, 0x00, 0xc0,
   0x00, 0x60, 0x1a, 0x1f, 0x67, 0x00, 0x00, 0x00, 0x00, 0x60, 0x1a, 0x1f,
   0x86, 0x00, 0x00, 0x00, 0x00, 0x80, 0x69, 0x7c, 0xc2, 0x00, 0x00, 0x00,
   0x00, 0x00, 0x00, 0x00, 0x00, 0x00, 0x00, 0x00, 0x00, 0x00, 0x00, 0x00,
   0x00, 0x00, 0x00, 0x00, 0x00, 0xc0, 0x00, 0x10, 0x8c, 0x0f, 0x36, 0x00,
   0x00, 0x00, 0x00, 0x10, 0x8c, 0x0f, 0x8e, 0x00, 0x00, 0x00, 0x00, 0x40,
   0x30, 0x3e, 0x62, 0x00, 0x00, 0x00, 0x00, 0x00, 0x00, 0x00, 0x00, 0x00,
   0x00, 0x00, 0x00, 0x00, 0x00, 0x00, 0x00, 0x00, 0x00, 0x00, 0x00, 0xc0,
   0x00, 0x18, 0x0c, 0x00, 0x1c, 0x00, 0x00, 0x00, 0x00, 0x18, 0x0c, 0x00,
   0x4c, 0x00, 0x00, 0x00, 0x00, 0x60, 0x30, 0x00, 0x70, 0x00, 0x00, 0x00,
   0x00, 0x00, 0x00, 0x00, 0x00, 0x00, 0x00, 0x00, 0x00, 0x00, 0x00, 0x00,
   0x00, 0x00, 0x00, 0x00, 0x00, 0xc0, 0x00, 0x18, 0x04, 0x00, 0x1c, 0x00,
   0x00, 0x00, 0x00, 0x18, 0x04, 0x00, 0x5c, 0x00, 0x00, 0x00, 0x00, 0x60,
   0x10, 0x00, 0x38, 0x00, 0x00, 0x00, 0x00, 0x00, 0x00, 0x00, 0x00, 0x00,
   0x00, 0x00, 0x00, 0x00, 0x00, 0x00, 0x00, 0x00, 0x00, 0x00, 0x00, 0xc0,
   0x00, 0x18, 0x06, 0x00, 0x3c, 0x00, 0x00, 0x00, 0x00, 0x18, 0x06, 0x00,
   0x78, 0x00, 0x00, 0x00, 0x00, 0x60, 0x18, 0x00, 0x18, 0x01, 0x00, 0x00,
   0x00, 0x00, 0x00, 0x00, 0x00, 0x00, 0x00, 0x00, 0x00, 0x00, 0x00, 0x00,
   0x00, 0x00, 0x00, 0x00, 0x00, 0xc0, 0x00, 0x18, 0x02, 0x00, 0x32, 0x00,
   0x00, 0x00, 0x00, 0x18, 0x02, 0x00, 0x38, 0x00, 0x00, 0x00, 0x00, 0x60,
   0x08, 0x00, 0x8c, 0x00, 0x00, 0x00, 0x00, 0x00, 0x00, 0x00, 0x00, 0x00,
   0x00, 0x00, 0x00, 0x00, 0x00, 0x00, 0x00, 0x00, 0x00, 0x00, 0x00, 0xc0,
   0x00, 0x18, 0x03, 0x00, 0x63, 0x00, 0x00, 0x00, 0x00, 0x18, 0x03, 0x00,
   0x38, 0x00, 0x00, 0x00, 0x00, 0x60, 0x0c, 0x00, 0x8e, 0x00, 0x00, 0x00,
   0x00, 0x00, 0x00, 0x00, 0x00, 0x00, 0x00, 0x00, 0x00, 0x00, 0x00, 0x00,
   0x00, 0x00, 0x00, 0x00, 0x00, 0xc0, 0x00, 0xf0, 0x01, 0xc0, 0xf3, 0x01,
   0x00, 0x00, 0x00, 0xf0, 0x01, 0x00, 0x10, 0x00, 0x00, 0x00, 0x00, 0xc0,
   0x07, 0x00, 0xfe, 0x00, 0x00, 0x00, 0x00, 0x00, 0x00, 0x00, 0x00, 0x00,
   0x00, 0x00, 0x00, 0x00, 0x00, 0x00, 0x00, 0x00, 0x00, 0x00, 0x00, 0xc0,
   0x00, 0x00, 0x00, 0x00, 0x00, 0x00, 0x00, 0x00, 0x00, 0x00, 0x00, 0x00,
   0x10, 0x00, 0x00, 0x00, 0x00, 0x00, 0x00, 0x00, 0x00, 0x00, 0x00, 0x00,
   0x00, 0x00, 0x00, 0x00, 0x00, 0x00, 0x00, 0x00, 0x00, 0x00, 0x00, 0x00,
   0x00, 0x00, 0x00, 0x00, 0x00, 0xc0, 0x00, 0x00, 0x00, 0x00, 0x00, 0x00,
   0x00, 0x00, 0x00, 0x00, 0x00, 0x00, 0x09, 0x00, 0x00, 0x00, 0x00, 0x00,
   0x00, 0x00, 0x00, 0x00, 0x00, 0x00, 0x00, 0x00, 0x00, 0x00, 0x00, 0x00,
   0x00, 0x00, 0x00, 0x00, 0x00, 0x00, 0x00, 0x00, 0x00, 0x00, 0x00, 0xc0,
   0x00, 0x00, 0x00, 0x00, 0x00, 0x00, 0x00, 0x00, 0x00, 0x00, 0x00, 0x80,
   0x0b, 0x00, 0x00, 0x00, 0x00, 0x00, 0x00, 0x00, 0x00, 0x00, 0x00, 0x00,
   0x00, 0x00, 0x00, 0x00, 0x00, 0x00, 0x00, 0x00, 0x00, 0x00, 0x00, 0x00,
   0x00, 0x00, 0x00, 0x00, 0x00, 0xc0, 0x00, 0x00, 0x00, 0x00, 0x00, 0x00,
   0x00, 0x00, 0x00, 0x00, 0x00, 0x00, 0x07, 0x00, 0x00, 0x00, 0x00, 0x00,
   0x00, 0x00, 0x00, 0x00, 0x00, 0x00, 0x00, 0x00, 0x00, 0x00, 0x00, 0x00,
   0x00, 0x00, 0x00, 0x00, 0x00, 0x00, 0x00, 0x00, 0x00, 0x00, 0x00, 0xc0,
   0x00, 0x00, 0x00, 0x00, 0x00, 0x00, 0x00, 0x00, 0x00, 0x00, 0x00, 0x00,
   0x00, 0x00, 0x00, 0x00, 0x00, 0x00, 0x00, 0x00, 0x00, 0x00, 0x00, 0x00,
   0x00, 0x00, 0x00, 0x00, 0x00, 0x00, 0x00, 0x00, 0x00, 0x00, 0x00, 0x00,
   0x00, 0x00, 0x00, 0x00, 0x00, 0xc0, 0x00, 0x00, 0x00, 0x00, 0x00, 0x00,
   0x00, 0x00, 0x00, 0x00, 0x00, 0x00, 0x00, 0x00, 0x00, 0x00, 0x00, 0x00,
   0x00, 0x00, 0x00, 0x00, 0x00, 0x00, 0x00, 0x00, 0x00, 0x00, 0x00, 0x00,
   0x00, 0x00, 0x00, 0x00, 0x00, 0x00, 0x00, 0x00, 0x00, 0x00, 0x00, 0xc0};
