#define gamma_width 15
#define gamma_height 20
static char gamma_bits[] = {
   0x00, 0x00, 0x00, 0x00, 0x18, 0x20, 0x34, 0x10, 0x22, 0x08, 0x60, 0x04,
   0x40, 0x02, 0x40, 0x01, 0xc0, 0x00, 0xc0, 0x00, 0xc0, 0x00, 0x60, 0x00,
   0x60, 0x00, 0x20, 0x00, 0x30, 0x00, 0x30, 0x00, 0x00, 0x00, 0x00, 0x00,
   0x00, 0x00, 0x00, 0x00};
