#define int2_width 96
#define int2_height 46
static char int2_bits[] = {
   0x00, 0x00, 0x00, 0x00, 0x00, 0x00, 0x00, 0x00, 0x00, 0x00, 0x00, 0x00,
   0x00, 0x00, 0x00, 0x00, 0x00, 0x00, 0x00, 0x00, 0x00, 0x00, 0x00, 0x00,
   0x00, 0x00, 0x0c, 0x00, 0x00, 0x00, 0x00, 0x00, 0x00, 0x00, 0x00, 0x00,
   0x00, 0x00, 0x8a, 0xe3, 0x00, 0x00, 0x00, 0x00, 0x00, 0x00, 0x00, 0x00,
   0x00, 0x00, 0x43, 0x14, 0x01, 0x00, 0x00, 0x9c, 0x01, 0x00, 0x00, 0x00,
   0x00, 0x00, 0x41, 0x1c, 0x01, 0x00, 0x00, 0x58, 0x00, 0x00, 0x00, 0x00,
   0x00, 0x00, 0x41, 0x14, 0x01, 0x00, 0xfc, 0x50, 0x00, 0x00, 0x00, 0x00,
   0x00, 0x00, 0x81, 0xe3, 0x00, 0x00, 0x00, 0x30, 0x00, 0x00, 0x00, 0x00,
   0x00, 0x80, 0x01, 0x00, 0x00, 0x7c, 0x00, 0x20, 0x00, 0x00, 0x00, 0x00,
   0x00, 0x80, 0x01, 0x00, 0x00, 0x46, 0x00, 0x20, 0x00, 0x00, 0x00, 0x00,
   0x00, 0x80, 0x00, 0x00, 0x00, 0xe6, 0x00, 0x18, 0x00, 0x00, 0x00, 0x00,
   0x00, 0x80, 0x00, 0x00, 0x00, 0x3e, 0x00, 0x00, 0x00, 0x00, 0x00, 0x00,
   0x00, 0xc0, 0x00, 0x00, 0x00, 0x06, 0x00, 0x00, 0x00, 0x00, 0x00, 0x00,
   0x00, 0xc0, 0x00, 0x00, 0x00, 0x06, 0x00, 0x00, 0x00, 0x00, 0x00, 0x00,
   0x00, 0xc0, 0x00, 0x00, 0x00, 0x7c, 0x00, 0x00, 0x00, 0xc0, 0x00, 0x00,
   0x00, 0xc0, 0x00, 0x00, 0x00, 0x00, 0x00, 0x00, 0x00, 0x80, 0x00, 0x00,
   0x00, 0x60, 0x00, 0x00, 0x00, 0x00, 0x00, 0x00, 0x00, 0x80, 0x00, 0x00,
   0x00, 0x60, 0x00, 0x00, 0x00, 0x00, 0x00, 0x00, 0x00, 0x80, 0x00, 0x00,
   0x00, 0x60, 0x00, 0x00, 0x00, 0x00, 0x00, 0x00, 0x00, 0x80, 0x00, 0x00,
   0x00, 0x60, 0x00, 0x00, 0x00, 0x00, 0x00, 0x00, 0x00, 0xfc, 0x71, 0x0c,
   0x00, 0x60, 0x00, 0x00, 0x00, 0x00, 0x00, 0x00, 0x00, 0x86, 0x60, 0x04,
   0x00, 0x30, 0x00, 0x00, 0x00, 0xff, 0xff, 0xff, 0x03, 0x86, 0x60, 0x02,
   0x00, 0x30, 0x00, 0x00, 0x00, 0x00, 0x00, 0x00, 0x00, 0x86, 0x40, 0x02,
   0x00, 0x30, 0x00, 0x00, 0x00, 0x00, 0x00, 0x00, 0x00, 0x86, 0xc0, 0x01,
   0x00, 0x30, 0x00, 0x00, 0x00, 0x00, 0x00, 0x00, 0x00, 0xc6, 0x80, 0x01,
   0x00, 0x30, 0x00, 0x00, 0x00, 0x00, 0x00, 0x00, 0x00, 0xfc, 0x81, 0x00,
   0x00, 0x10, 0x00, 0x00, 0x00, 0x00, 0x80, 0xff, 0x03, 0x00, 0x80, 0x00,
   0x00, 0x18, 0x00, 0x00, 0x00, 0x00, 0x40, 0x00, 0x00, 0x00, 0x98, 0x00,
   0x00, 0x18, 0x00, 0x00, 0x00, 0x00, 0x40, 0x00, 0x00, 0x00, 0x70, 0x00,
   0x00, 0x18, 0x00, 0x00, 0x00, 0x00, 0x20, 0x00, 0x00, 0x00, 0x00, 0x00,
   0x00, 0x08, 0x00, 0x00, 0x00, 0x00, 0x20, 0xc7, 0x00, 0x00, 0x00, 0x00,
   0x00, 0x08, 0x00, 0x00, 0x00, 0x00, 0x10, 0x46, 0x00, 0x00, 0x00, 0x00,
   0x00, 0x08, 0x00, 0x00, 0x00, 0x00, 0x10, 0x26, 0x00, 0x00, 0x00, 0x00,
   0x00, 0x0c, 0x00, 0x00, 0x00, 0x00, 0x08, 0x24, 0x00, 0x00, 0x00, 0x00,
   0x00, 0x04, 0x0a, 0x00, 0x00, 0x00, 0x08, 0x1c, 0x00, 0x00, 0x00, 0x00,
   0x00, 0x04, 0x09, 0x00, 0x00, 0x18, 0x04, 0x18, 0x00, 0x00, 0x00, 0x00,
   0x00, 0x04, 0x19, 0x00, 0x00, 0x10, 0x04, 0x08, 0x00, 0x00, 0x00, 0x00,
   0xc0, 0x02, 0x11, 0x00, 0x00, 0x10, 0x02, 0x08, 0x00, 0x00, 0x00, 0x00,
   0x80, 0x01, 0x19, 0x00, 0x00, 0x30, 0x82, 0x09, 0x00, 0x00, 0x00, 0x00,
   0x00, 0x00, 0x09, 0x00, 0x00, 0x20, 0x01, 0x07, 0x00, 0x00, 0x00, 0x00,
   0x00, 0x00, 0x0a, 0x00, 0x00, 0x60, 0x01, 0x00, 0x00, 0x00, 0x00, 0x00,
   0x00, 0x00, 0x00, 0x00, 0x00, 0xc0, 0x00, 0x00, 0x00, 0x00, 0x00, 0x00,
   0x00, 0x00, 0x00, 0x00, 0x00, 0x80, 0x00, 0x00, 0x00, 0x00, 0x00, 0x00,
   0x00, 0x00, 0x00, 0x00, 0x00, 0x00, 0x00, 0x00, 0x00, 0x00, 0x00, 0x00,
   0x00, 0x00, 0x00, 0x00, 0x00, 0x00, 0x00, 0x00, 0x00, 0x00, 0x00, 0x00,
   0x00, 0x00, 0x00, 0x00, 0x00, 0x00, 0x00, 0x00, 0x00, 0x00, 0x00, 0x00};
