#define opt1_width 280
#define opt1_height 24
static char opt1_bits[] = {
   0x00, 0x00, 0x00, 0x00, 0x00, 0x00, 0x00, 0x00, 0x00, 0x00, 0x00, 0x00,
   0x00, 0x00, 0x00, 0x00, 0x00, 0x00, 0x00, 0x00, 0x00, 0x00, 0x00, 0x00,
   0x00, 0x00, 0x00, 0x00, 0x00, 0x00, 0x00, 0x00, 0x00, 0x00, 0x00, 0x00,
   0x00, 0x00, 0x00, 0x00, 0x00, 0x00, 0x00, 0x00, 0x00, 0x00, 0x00, 0x00,
   0x00, 0x00, 0x00, 0x00, 0x00, 0x00, 0x00, 0x00, 0x00, 0x00, 0x00, 0x00,
   0x00, 0x00, 0x00, 0x00, 0x00, 0x00, 0x00, 0x00, 0x00, 0x00, 0x00, 0x00,
   0x00, 0x00, 0x00, 0x00, 0x00, 0x00, 0x00, 0x00, 0x00, 0x00, 0x00, 0x00,
   0x00, 0x00, 0x00, 0x00, 0x00, 0x00, 0x00, 0x00, 0x00, 0x00, 0x00, 0x00,
   0x00, 0x00, 0x00, 0x00, 0x00, 0x00, 0x00, 0x00, 0x00, 0x00, 0xe0, 0x1c,
   0x00, 0x00, 0x00, 0x00, 0x00, 0x00, 0x00, 0x00, 0x00, 0x00, 0x00, 0x00,
   0x00, 0x00, 0x00, 0x00, 0x00, 0x00, 0x00, 0x00, 0x00, 0x00, 0x00, 0x00,
   0x00, 0x00, 0x00, 0x00, 0x00, 0x00, 0x00, 0x00, 0x00, 0xc0, 0x04, 0x00,
   0x00, 0x00, 0x00, 0xc0, 0x01, 0x00, 0x00, 0x00, 0x00, 0x00, 0x07, 0x00,
   0x00, 0x00, 0x00, 0x00, 0x00, 0x00, 0x00, 0x00, 0x00, 0x00, 0x00, 0x00,
   0x00, 0x00, 0x00, 0x00, 0x00, 0x00, 0x00, 0x00, 0x80, 0x03, 0x00, 0x02,
   0x00, 0x00, 0x20, 0x03, 0x00, 0x00, 0x00, 0x00, 0x80, 0x0c, 0x00, 0x00,
   0x00, 0x00, 0x00, 0x00, 0x00, 0x00, 0x00, 0x00, 0x00, 0x00, 0x00, 0x00,
   0x00, 0x00, 0x00, 0x00, 0x00, 0x00, 0x00, 0x00, 0x03, 0x00, 0x02, 0x00,
   0x00, 0x00, 0x03, 0x00, 0x00, 0x00, 0x00, 0x00, 0x0c, 0x00, 0x00, 0x00,
   0x00, 0x00, 0x00, 0x00, 0x00, 0x00, 0x00, 0x00, 0x00, 0x00, 0x00, 0x00,
   0x00, 0x00, 0x00, 0x00, 0x02, 0x00, 0x00, 0x03, 0x02, 0x01, 0x86, 0xc7,
   0x80, 0x01, 0x00, 0x00, 0x1e, 0x3c, 0x06, 0x06, 0x00, 0x00, 0x80, 0xe1,
   0x31, 0x00, 0x78, 0x0c, 0x00, 0x00, 0x00, 0xf0, 0xc0, 0x63, 0x00, 0x00,
   0x00, 0x00, 0x00, 0x02, 0x00, 0x80, 0x06, 0x03, 0x01, 0x07, 0x47, 0xc0,
   0x00, 0x00, 0x00, 0x33, 0x38, 0x02, 0x03, 0x00, 0x00, 0xc0, 0xc1, 0x11,
   0x00, 0x70, 0x04, 0x00, 0x00, 0x00, 0x98, 0x81, 0x23, 0x00, 0x00, 0x00,
   0x00, 0x06, 0x04, 0x00, 0x40, 0x0c, 0x02, 0x01, 0x07, 0x26, 0x60, 0x02,
   0x00, 0x00, 0x63, 0x30, 0x81, 0x09, 0x00, 0x00, 0xe0, 0x81, 0x09, 0x00,
   0x60, 0x02, 0x00, 0x00, 0x00, 0x18, 0x03, 0x13, 0x00, 0x00, 0x00, 0x00,
   0x07, 0x04, 0x00, 0x60, 0x1c, 0x82, 0x80, 0x07, 0x1e, 0xe0, 0x01, 0x20,
   0x00, 0x60, 0xf0, 0x80, 0x07, 0x00, 0x01, 0xa0, 0x81, 0x07, 0x00, 0xe0,
   0x01, 0x00, 0x00, 0x01, 0x00, 0x03, 0x0f, 0x00, 0x00, 0x08, 0x00, 0x06,
   0x04, 0xc0, 0x03, 0x00, 0x87, 0xc0, 0x06, 0x1c, 0x00, 0x00, 0x20, 0x00,
   0x60, 0xe0, 0x00, 0x00, 0x00, 0x01, 0xb0, 0x01, 0x07, 0x00, 0xc0, 0x01,
   0x00, 0x00, 0x01, 0x00, 0x03, 0x0e, 0x00, 0x00, 0x08, 0x00, 0x06, 0x08,
   0x60, 0x04, 0x00, 0x80, 0x40, 0x06, 0x18, 0x00, 0x00, 0x20, 0x00, 0x30,
   0xc0, 0x00, 0x00, 0x00, 0x01, 0x98, 0x01, 0x06, 0x00, 0x80, 0x01, 0x00,
   0x00, 0x01, 0x80, 0x01, 0x0c, 0x00, 0x00, 0x08, 0x00, 0x06, 0x08, 0x60,
   0x04, 0x00, 0x80, 0x20, 0x06, 0x3c, 0x00, 0x00, 0x20, 0x00, 0x18, 0xe0,
   0x01, 0x00, 0x00, 0x01, 0x88, 0x01, 0x0f, 0x10, 0xc0, 0x03, 0x0e, 0x00,
   0x01, 0xc0, 0x00, 0x1e, 0x70, 0x00, 0x08, 0x00, 0x06, 0x08, 0xe0, 0x03,
   0x00, 0x80, 0xe0, 0x0f, 0x72, 0x00, 0x00, 0xfe, 0x03, 0x0c, 0x90, 0x03,
   0x00, 0xf0, 0x1f, 0xf8, 0x83, 0x1c, 0x18, 0x20, 0x07, 0x19, 0xf0, 0x1f,
   0x40, 0x00, 0x39, 0xc8, 0x80, 0xff, 0x00, 0x06, 0x08, 0x60, 0x00, 0x00,
   0x80, 0x00, 0x06, 0x61, 0x80, 0x00, 0x20, 0x00, 0x46, 0x08, 0x03, 0x07,
   0x00, 0x01, 0x80, 0x41, 0x18, 0x10, 0x10, 0x06, 0x18, 0x00, 0x01, 0x20,
   0x82, 0x30, 0xc0, 0x00, 0x08, 0x00, 0x06, 0x08, 0x60, 0x04, 0x00, 0x80,
   0x00, 0x86, 0xe1, 0xc0, 0x00, 0x20, 0x00, 0x7f, 0x0c, 0x87, 0x0c, 0x00,
   0x01, 0x80, 0x61, 0x38, 0x10, 0x18, 0x0e, 0x0c, 0x00, 0x01, 0xf0, 0xc3,
   0x70, 0x60, 0x00, 0x08, 0x00, 0x06, 0x08, 0xc0, 0x03, 0x00, 0x00, 0x01,
   0xcf, 0xe3, 0x83, 0x00, 0x20, 0x00, 0x7f, 0x1e, 0x0f, 0x0c, 0x00, 0x01,
   0xc0, 0xf3, 0xf8, 0x10, 0x3c, 0x1e, 0x06, 0x00, 0x01, 0xf8, 0xe3, 0xf1,
   0x30, 0x00, 0x08, 0x00, 0x0f, 0x04, 0x00, 0x00, 0x00, 0x00, 0x01, 0x00,
   0x00, 0x80, 0x00, 0x20, 0x00, 0x00, 0x00, 0x00, 0x06, 0x00, 0x01, 0x00,
   0x00, 0x00, 0x10, 0x00, 0x00, 0x13, 0x00, 0x01, 0x00, 0x00, 0x00, 0x98,
   0x00, 0x08, 0x00, 0x00, 0x04, 0x00, 0x00, 0x00, 0x00, 0x01, 0x00, 0x00,
   0x80, 0x00, 0x00, 0x00, 0x00, 0x00, 0x00, 0x03, 0x00, 0x00, 0x00, 0x00,
   0x00, 0x38, 0x00, 0x00, 0x0f, 0x00, 0x00, 0x00, 0x00, 0x00, 0x78, 0x00,
   0x00, 0x00, 0x00, 0x04, 0x00, 0x00, 0x00, 0x00, 0x02, 0x00, 0x00, 0x80,
   0x00, 0x00, 0x00, 0x00, 0x00, 0x80, 0x09, 0x00, 0x00, 0x00, 0x00, 0x00,
   0x00, 0x00, 0x00, 0x00, 0x00, 0x00, 0x00, 0x00, 0x00, 0x00, 0x00, 0x00,
   0x00, 0x00, 0x02, 0x00, 0x00, 0x00, 0x00, 0x02, 0x00, 0x00, 0xc0, 0x01,
   0x00, 0x00, 0x00, 0x00, 0x80, 0x07, 0x00, 0x00, 0x00, 0x00, 0x00, 0x00,
   0x00, 0x00, 0x00, 0x00, 0x00, 0x00, 0x00, 0x00, 0x00, 0x00, 0x00, 0x00,
   0x00, 0x02, 0x00, 0x00, 0x00, 0x00, 0x00, 0x00, 0x00, 0x00, 0x00, 0x00,
   0x00, 0x00, 0x00, 0x00, 0x00, 0x00, 0x00, 0x00, 0x00, 0x00, 0x00, 0x00,
   0x00, 0x00, 0x00, 0x00, 0x00, 0x00, 0x00, 0x00, 0x00, 0x00, 0x00, 0x00,
   0x00, 0x00, 0x00, 0x00, 0x00, 0x00, 0x00, 0x00, 0x00, 0x00, 0x00, 0x00,
   0x00, 0x00, 0x00, 0x00, 0x00, 0x00, 0x00, 0x00, 0x00, 0x00, 0x00, 0x00,
   0x00, 0x00, 0x00, 0x00, 0x00, 0x00, 0x00, 0x00, 0x00, 0x00, 0x00, 0x00};
