#define opt2c_width 125
#define opt2c_height 107
static char opt2c_bits[] = {
   0x00, 0x00, 0x00, 0x00, 0x00, 0x00, 0x00, 0x00, 0x00, 0x00, 0x00, 0x00,
   0x00, 0x00, 0x00, 0xe0, 0x00, 0x00, 0x00, 0x00, 0x00, 0x00, 0x00, 0x00,
   0x00, 0x00, 0x00, 0x00, 0x00, 0x00, 0x00, 0xe0, 0x00, 0x00, 0x00, 0x00,
   0x00, 0x00, 0x00, 0x00, 0x00, 0x00, 0x00, 0x00, 0x00, 0x00, 0x00, 0xe0,
   0x00, 0x00, 0x00, 0x00, 0x00, 0x00, 0x00, 0x00, 0x00, 0x00, 0x00, 0x00,
   0x00, 0x00, 0x00, 0xe0, 0x00, 0x00, 0x00, 0x60, 0x00, 0x00, 0x00, 0x3c,
   0x06, 0x00, 0x00, 0x00, 0x60, 0x00, 0x00, 0xe0, 0x00, 0x00, 0x00, 0x78,
   0x00, 0x00, 0x03, 0x38, 0x02, 0x00, 0x00, 0x0c, 0x90, 0x01, 0x00, 0xe0,
   0x00, 0x00, 0x00, 0x60, 0x00, 0xc0, 0x00, 0x30, 0x01, 0x00, 0x00, 0x03,
   0x38, 0x03, 0x00, 0xe0, 0x00, 0x00, 0x00, 0x60, 0x00, 0x30, 0x00, 0xf0,
   0x00, 0x00, 0xc0, 0x00, 0x90, 0x01, 0x00, 0xe0, 0x00, 0x00, 0x00, 0x60,
   0x00, 0x0c, 0x00, 0xe0, 0x00, 0x00, 0x30, 0x00, 0x80, 0x01, 0x00, 0xe0,
   0x00, 0x00, 0x00, 0x60, 0x00, 0x02, 0x00, 0xc0, 0x00, 0x00, 0x08, 0x00,
   0xe0, 0x00, 0x00, 0xe0, 0x00, 0x00, 0x00, 0x60, 0x00, 0x02, 0x00, 0xe0,
   0x01, 0x00, 0x08, 0x00, 0x00, 0x03, 0x00, 0xe0, 0x00, 0x00, 0x00, 0x60,
   0x00, 0x0c, 0x00, 0x90, 0x03, 0x01, 0x30, 0x00, 0x08, 0x03, 0x00, 0xe0,
   0x00, 0x00, 0x00, 0x60, 0x00, 0x30, 0x00, 0x08, 0x83, 0x01, 0xc0, 0x00,
   0x18, 0x03, 0x00, 0xe0, 0x00, 0x00, 0x00, 0x60, 0x00, 0xc0, 0x00, 0x0c,
   0x07, 0x01, 0x00, 0x03, 0x18, 0x03, 0x00, 0xe0, 0x00, 0x00, 0x00, 0xf8,
   0x00, 0x00, 0x03, 0x1e, 0x1f, 0x01, 0x00, 0x0c, 0xf0, 0x00, 0x00, 0xe0,
   0x00, 0x00, 0x00, 0x00, 0x00, 0x00, 0x00, 0x00, 0x00, 0x01, 0x00, 0x00,
   0x00, 0x00, 0x00, 0xe0, 0x00, 0x00, 0x00, 0x00, 0x00, 0x00, 0x00, 0x00,
   0x00, 0x01, 0x00, 0x00, 0x00, 0x00, 0x00, 0xe0, 0x00, 0x00, 0x00, 0x00,
   0x00, 0x00, 0x00, 0x00, 0x80, 0x03, 0x00, 0x00, 0x00, 0x00, 0x00, 0xe0,
   0x00, 0x00, 0x00, 0x00, 0x00, 0x00, 0x00, 0x00, 0x00, 0x00, 0x00, 0x00,
   0x00, 0x00, 0x00, 0xe0, 0x00, 0x00, 0x00, 0x00, 0x00, 0x00, 0x00, 0x00,
   0x00, 0x00, 0x00, 0x00, 0x00, 0x00, 0x00, 0xe0, 0x00, 0x00, 0x00, 0x00,
   0x00, 0x00, 0x00, 0x00, 0x00, 0x00, 0x00, 0x00, 0x00, 0x00, 0x00, 0xe0,
   0x00, 0x00, 0x00, 0x00, 0x00, 0x00, 0x00, 0x00, 0x00, 0x00, 0x00, 0x00,
   0x00, 0x00, 0x00, 0xe0, 0x00, 0x00, 0x00, 0x00, 0x00, 0x00, 0x00, 0x00,
   0x00, 0x00, 0x00, 0x00, 0x00, 0x00, 0x00, 0xe0, 0x00, 0x00, 0x00, 0x00,
   0x00, 0x00, 0x00, 0x00, 0x00, 0x00, 0x00, 0x00, 0x00, 0x00, 0x00, 0xe0,
   0x00, 0x00, 0x00, 0x00, 0x00, 0x00, 0x00, 0x00, 0x00, 0x00, 0x00, 0x00,
   0x00, 0x00, 0x00, 0xe0, 0x00, 0x00, 0x00, 0x00, 0x00, 0x00, 0x00, 0x00,
   0x00, 0x00, 0x00, 0x00, 0x00, 0x00, 0x00, 0xe0, 0x00, 0x00, 0x00, 0x00,
   0x00, 0x00, 0x00, 0x00, 0x00, 0x00, 0x00, 0x00, 0x00, 0x00, 0x00, 0xe0,
   0x00, 0x00, 0x00, 0x00, 0x00, 0x00, 0x00, 0x00, 0x00, 0x00, 0x00, 0x00,
   0x00, 0x00, 0x00, 0xe0, 0x00, 0x00, 0x00, 0x00, 0x00, 0x00, 0x00, 0x00,
   0x00, 0x00, 0x00, 0x00, 0x00, 0x00, 0x00, 0xe0, 0x00, 0x00, 0x00, 0x00,
   0x00, 0x00, 0x00, 0x00, 0x00, 0x00, 0x00, 0x00, 0x00, 0x00, 0x00, 0xe0,
   0x00, 0x00, 0x00, 0x00, 0x00, 0x00, 0x00, 0x00, 0x00, 0x00, 0x00, 0x00,
   0x00, 0x00, 0x00, 0xe0, 0x00, 0x00, 0x00, 0x00, 0x00, 0x00, 0x00, 0x00,
   0x00, 0x00, 0x00, 0x00, 0x00, 0x00, 0x00, 0xe0, 0x00, 0x00, 0x00, 0x30,
   0x00, 0x00, 0x00, 0x3c, 0x06, 0x00, 0x00, 0x00, 0xc0, 0x01, 0x00, 0xe0,
   0x00, 0x00, 0x00, 0xcc, 0x00, 0x00, 0x03, 0x38, 0x02, 0x00, 0x00, 0x18,
   0x20, 0x02, 0x00, 0xe0, 0x00, 0x00, 0x00, 0x8c, 0x01, 0xc0, 0x00, 0x30,
   0x01, 0x00, 0x00, 0x06, 0x30, 0x06, 0x00, 0xe0, 0x00, 0x00, 0x00, 0x80,
   0x01, 0x30, 0x00, 0xf0, 0x00, 0x00, 0x80, 0x01, 0x30, 0x06, 0x00, 0xe0,
   0x00, 0x00, 0x00, 0x80, 0x01, 0x0c, 0x00, 0xe0, 0x00, 0x00, 0x60, 0x00,
   0x30, 0x06, 0x00, 0xe0, 0x00, 0x00, 0x00, 0xc0, 0x00, 0x02, 0x00, 0xc0,
   0x00, 0x00, 0x10, 0x00, 0x30, 0x06, 0x00, 0xe0, 0x00, 0x00, 0x00, 0x60,
   0x00, 0x02, 0x00, 0xe0, 0x01, 0x06, 0x10, 0x00, 0x30, 0x06, 0x00, 0xe0,
   0x00, 0x80, 0x3f, 0x30, 0x00, 0x0c, 0x00, 0x90, 0x03, 0x09, 0x60, 0x00,
   0x30, 0x06, 0x00, 0xe0, 0x00, 0x00, 0x00, 0x18, 0x01, 0x30, 0x00, 0x08,
   0x03, 0x18, 0x80, 0x01, 0x30, 0x06, 0x00, 0xe0, 0x00, 0x00, 0x00, 0xfc,
   0x01, 0xc0, 0x00, 0x0c, 0x07, 0x08, 0x00, 0x06, 0x20, 0x02, 0x00, 0xe0,
   0x00, 0x00, 0x00, 0xfc, 0x01, 0x00, 0x03, 0x1e, 0x1f, 0x04, 0x00, 0x18,
   0xc0, 0x01, 0x00, 0xe0, 0x00, 0x00, 0x00, 0x00, 0x00, 0x00, 0x00, 0x00,
   0x00, 0x12, 0x00, 0x00, 0x00, 0x00, 0x00, 0xe0, 0x00, 0x00, 0x00, 0x00,
   0x00, 0x00, 0x00, 0x00, 0x00, 0x0f, 0x00, 0x00, 0x00, 0x00, 0x00, 0xe0,
   0x00, 0x00, 0x00, 0x00, 0x00, 0x00, 0x00, 0x00, 0x00, 0x00, 0x00, 0x00,
   0x00, 0x00, 0x00, 0xe0, 0x00, 0x00, 0x00, 0x00, 0x00, 0x00, 0x00, 0x00,
   0x00, 0x00, 0x00, 0x00, 0x00, 0x00, 0x00, 0xe0, 0x00, 0x00, 0x00, 0x00,
   0x00, 0x00, 0x00, 0x00, 0x00, 0x00, 0x00, 0x00, 0x00, 0x00, 0x00, 0xe0,
   0x00, 0x00, 0x00, 0x00, 0x00, 0x00, 0x00, 0x00, 0x00, 0x00, 0x00, 0x00,
   0x00, 0x00, 0x00, 0xe0, 0x00, 0x00, 0x00, 0x00, 0x00, 0x00, 0x00, 0x00,
   0x00, 0x00, 0x00, 0x00, 0x00, 0x00, 0x00, 0xe0, 0x00, 0x00, 0x00, 0x00,
   0x00, 0x00, 0x00, 0x00, 0x00, 0x00, 0x00, 0x00, 0x00, 0x00, 0x00, 0xe0,
   0x00, 0x00, 0x00, 0x00, 0x00, 0x00, 0x00, 0x00, 0x00, 0x00, 0x00, 0x00,
   0x00, 0x00, 0x00, 0xe0, 0x00, 0x00, 0x00, 0x00, 0x00, 0x00, 0x00, 0x00,
   0x00, 0x00, 0x00, 0x00, 0x00, 0x00, 0x00, 0xe0, 0x00, 0x00, 0x00, 0x00,
   0x00, 0x00, 0x00, 0x00, 0x00, 0x00, 0x00, 0x00, 0x00, 0x00, 0x00, 0xe0,
   0x00, 0x00, 0x00, 0x00, 0x00, 0x00, 0x00, 0x00, 0x00, 0x00, 0x00, 0x00,
   0x00, 0x00, 0x00, 0xe0, 0x00, 0x00, 0x00, 0x00, 0x00, 0x00, 0x00, 0x00,
   0x00, 0x00, 0x00, 0x00, 0x00, 0x00, 0x00, 0xe0, 0x00, 0x00, 0x00, 0x00,
   0x00, 0x00, 0x00, 0x00, 0x00, 0x00, 0x00, 0x00, 0x00, 0x00, 0x00, 0xe0,
   0x00, 0x00, 0x00, 0x00, 0x00, 0x00, 0x00, 0x00, 0x00, 0x00, 0x00, 0x00,
   0x00, 0x00, 0x00, 0xe0, 0x00, 0x00, 0x00, 0x00, 0x00, 0x00, 0x00, 0x00,
   0x00, 0x00, 0x00, 0x00, 0x00, 0x00, 0x00, 0xe0, 0x00, 0x00, 0x00, 0x00,
   0x00, 0x00, 0x00, 0x3c, 0x06, 0x00, 0x00, 0x00, 0x00, 0x00, 0x00, 0xe0,
   0x00, 0x00, 0x00, 0x00, 0x00, 0x00, 0x03, 0x38, 0x02, 0x00, 0x00, 0x18,
   0x00, 0x00, 0x00, 0xe0, 0x00, 0x00, 0x00, 0xe0, 0x00, 0xc0, 0x00, 0x30,
   0x01, 0x00, 0x00, 0x06, 0x00, 0x00, 0x00, 0xe0, 0x00, 0x00, 0x00, 0xb0,
   0x01, 0x30, 0x00, 0xf0, 0x00, 0x00, 0x80, 0x01, 0xe0, 0xe1, 0x01, 0xe0,
   0x00, 0x00, 0x00, 0x18, 0x00, 0x0c, 0x00, 0xe0, 0x00, 0x00, 0x60, 0x00,
   0x10, 0x33, 0x02, 0xe0, 0x00, 0x00, 0x00, 0x18, 0x00, 0x02, 0x00, 0xc0,
   0x00, 0x00, 0x10, 0x00, 0x08, 0x1e, 0x04, 0xe0, 0x00, 0x00, 0x7f, 0xf8,
   0x00, 0x02, 0x00, 0xe0, 0x01, 0x00, 0x10, 0x00, 0x08, 0x0c, 0x04, 0xe0,
   0x00, 0x00, 0x00, 0x18, 0x00, 0x0c, 0x00, 0x90, 0x03, 0x06, 0x60, 0x00,
   0x08, 0x1e, 0x04, 0xe0, 0x00, 0x00, 0x00, 0x18, 0x00, 0x30, 0x00, 0x08,
   0x03, 0x09, 0x80, 0x01, 0x10, 0x33, 0x02, 0xe0, 0x00, 0x00, 0x00, 0xb0,
   0x01, 0xc0, 0x00, 0x0c, 0x07, 0x08, 0x00, 0x06, 0xe0, 0xe1, 0x01, 0xe0,
   0x00, 0x00, 0x00, 0xe0, 0x00, 0x00, 0x03, 0x1e, 0x1f, 0x06, 0x00, 0x18,
   0x00, 0x00, 0x00, 0xe0, 0x00, 0x00, 0x00, 0x00, 0x00, 0x00, 0x00, 0x00,
   0x00, 0x08, 0x00, 0x00, 0x00, 0x00, 0x00, 0xe0, 0x00, 0x00, 0x00, 0x00,
   0x00, 0x00, 0x00, 0x00, 0x00, 0x09, 0x00, 0x00, 0x00, 0x00, 0x00, 0xe0,
   0x00, 0x00, 0x00, 0x00, 0x00, 0x00, 0x00, 0x00, 0x00, 0x06, 0x00, 0x00,
   0x00, 0x00, 0x00, 0xe0, 0x00, 0x00, 0x00, 0x00, 0x00, 0x00, 0x00, 0x00,
   0x00, 0x00, 0x00, 0x00, 0x00, 0x00, 0x00, 0xe0, 0x00, 0x00, 0x00, 0x00,
   0x00, 0x00, 0x00, 0x00, 0x00, 0x00, 0x00, 0x00, 0x00, 0x00, 0x00, 0xe0,
   0x00, 0x00, 0x00, 0x00, 0x00, 0x00, 0x00, 0x00, 0x00, 0x00, 0x00, 0x00,
   0x00, 0x00, 0x00, 0xe0, 0x00, 0x00, 0x00, 0x00, 0x00, 0x00, 0x00, 0x00,
   0x00, 0x00, 0x00, 0x00, 0x00, 0x00, 0x00, 0xe0, 0x00, 0x00, 0x00, 0x00,
   0x00, 0x00, 0x00, 0x00, 0x00, 0x00, 0x00, 0x00, 0x00, 0x00, 0x00, 0xe0,
   0x00, 0x00, 0x00, 0x00, 0x00, 0x00, 0x00, 0x00, 0x00, 0x00, 0x00, 0x00,
   0x00, 0x00, 0x00, 0xe0, 0x00, 0x00, 0x00, 0x00, 0x00, 0x00, 0x00, 0x00,
   0x00, 0x00, 0x00, 0x00, 0x00, 0x00, 0x00, 0xe0, 0x00, 0x00, 0x00, 0x00,
   0x00, 0x00, 0x00, 0x00, 0x00, 0x00, 0x00, 0x00, 0x00, 0x00, 0x00, 0xe0,
   0x00, 0x00, 0x00, 0x00, 0x00, 0x00, 0x00, 0x00, 0x00, 0x00, 0x00, 0x00,
   0x00, 0x00, 0x00, 0xe0, 0x00, 0x00, 0x00, 0x00, 0x00, 0x00, 0x00, 0x00,
   0x00, 0x00, 0x00, 0x00, 0x00, 0x00, 0x00, 0xe0, 0x00, 0x00, 0x00, 0x00,
   0x00, 0x00, 0x00, 0x00, 0x00, 0x00, 0x00, 0x00, 0x00, 0x00, 0x00, 0xe0,
   0x00, 0x00, 0x00, 0x00, 0x00, 0x00, 0x00, 0x00, 0x00, 0x00, 0x00, 0x00,
   0x00, 0x00, 0x00, 0xe0, 0x00, 0x00, 0x00, 0x00, 0x00, 0x00, 0x00, 0x00,
   0x00, 0x00, 0x00, 0x00, 0x00, 0x00, 0x00, 0xe0, 0x00, 0x00, 0x00, 0x00,
   0x00, 0x00, 0x00, 0x00, 0x00, 0x00, 0x00, 0x00, 0x00, 0x00, 0x00, 0xe0,
   0x00, 0x00, 0x00, 0x60, 0x00, 0x00, 0x00, 0x3c, 0x06, 0x00, 0x00, 0x00,
   0xc0, 0x00, 0x00, 0xe0, 0x00, 0x00, 0x00, 0x78, 0x00, 0x00, 0x03, 0x38,
   0x02, 0x00, 0x00, 0x18, 0x20, 0x03, 0x00, 0xe0, 0x00, 0x00, 0x00, 0x60,
   0x00, 0xc0, 0x00, 0x30, 0x01, 0x00, 0x00, 0x06, 0x70, 0x06, 0x00, 0xe0,
   0x00, 0x00, 0x00, 0x60, 0x00, 0x30, 0x00, 0xf0, 0x00, 0x00, 0x80, 0x01,
   0x20, 0x03, 0x00, 0xe0, 0x00, 0x00, 0x00, 0x60, 0x00, 0x0c, 0x00, 0xe0,
   0x00, 0x00, 0x60, 0x00, 0x00, 0x03, 0x00, 0xe0, 0x00, 0x00, 0x00, 0x60,
   0x00, 0x02, 0x00, 0xc0, 0x00, 0x00, 0x10, 0x00, 0xc0, 0x01, 0x00, 0xe0,
   0x00, 0x00, 0x00, 0x60, 0x00, 0x02, 0x00, 0xe0, 0x01, 0x00, 0x10, 0x00,
   0x00, 0x06, 0x00, 0xe0, 0x00, 0x00, 0x00, 0x60, 0x00, 0x0c, 0x00, 0x90,
   0x03, 0x04, 0x60, 0x00, 0x10, 0x06, 0x00, 0xe0, 0x00, 0x00, 0x00, 0x60,
   0x00, 0x30, 0x00, 0x08, 0x03, 0x06, 0x80, 0x01, 0x30, 0x06, 0x00, 0xe0,
   0x00, 0x00, 0x00, 0x60, 0x00, 0xc0, 0x00, 0x0c, 0x07, 0x05, 0x00, 0x06,
   0x30, 0x06, 0x00, 0xe0, 0x00, 0x00, 0x00, 0xf8, 0x00, 0x00, 0x03, 0x1e,
   0x9f, 0x04, 0x00, 0x18, 0xe0, 0x01, 0x00, 0xe0, 0x00, 0x00, 0x00, 0x00,
   0x00, 0x00, 0x00, 0x00, 0x80, 0x0f, 0x00, 0x00, 0x00, 0x00, 0x00, 0xe0,
   0x00, 0x00, 0x00, 0x00, 0x00, 0x00, 0x00, 0x00, 0x00, 0x04, 0x00, 0x00,
   0x00, 0x00, 0x00, 0xe0, 0x00, 0x00, 0x00, 0x00, 0x00, 0x00, 0x00, 0x00,
   0x00, 0x0e, 0x00, 0x00, 0x00, 0x00, 0x00, 0xe0, 0x00, 0x00, 0x00, 0x00,
   0x00, 0x00, 0x00, 0x00, 0x00, 0x00, 0x00, 0x00, 0x00, 0x00, 0x00, 0xe0,
   0x00, 0x00, 0x00, 0x00, 0x00, 0x00, 0x00, 0x00, 0x00, 0x00, 0x00, 0x00,
   0x00, 0x00, 0x00, 0xe0, 0x00, 0x00, 0x00, 0x00, 0x00, 0x00, 0x00, 0x00,
   0x00, 0x00, 0x00, 0x00, 0x00, 0x00, 0x00, 0xe0, 0x00, 0x00, 0x00, 0x00,
   0x00, 0x00, 0x00, 0x00, 0x00, 0x00, 0x00, 0x00, 0x00, 0x00, 0x00, 0xe0,
   0x00, 0x00, 0x00, 0x00, 0x00, 0x00, 0x00, 0x00, 0x00, 0x00, 0x00, 0x00,
   0x00, 0x00, 0x00, 0xe0, 0x00, 0x00, 0x00, 0x00, 0x00, 0x00, 0x00, 0x00,
   0x00, 0x00, 0x00, 0x00, 0x00, 0x00, 0x00, 0xe0};
