#define opt3c2_width 263
#define opt3c2_height 76
static char opt3c2_bits[] = {
   0x00, 0x00, 0x00, 0x00, 0x00, 0x00, 0x00, 0x00, 0x00, 0x00, 0x00, 0x00,
   0x00, 0x00, 0x00, 0x00, 0x00, 0x00, 0x00, 0x00, 0x00, 0x00, 0x00, 0x00,
   0x00, 0x00, 0x00, 0x00, 0x00, 0x00, 0x00, 0x00, 0x80, 0x00, 0x00, 0x00,
   0x00, 0x00, 0x00, 0x00, 0x00, 0x00, 0x00, 0x00, 0x00, 0x00, 0x00, 0x00,
   0x00, 0x00, 0x00, 0x00, 0x00, 0x00, 0x00, 0x00, 0x00, 0x00, 0x00, 0x00,
   0x00, 0x00, 0x00, 0x00, 0x00, 0x80, 0x00, 0x00, 0x00, 0x00, 0x00, 0x00,
   0x00, 0x00, 0x00, 0x00, 0x00, 0x00, 0x00, 0x00, 0x00, 0x00, 0x00, 0x00,
   0x00, 0x00, 0x00, 0x00, 0x00, 0x00, 0x00, 0x00, 0x00, 0x00, 0x00, 0x00,
   0x00, 0x00, 0x80, 0x00, 0x00, 0x00, 0x00, 0x00, 0x00, 0x00, 0x1e, 0x03,
   0x00, 0x00, 0x00, 0x78, 0x0c, 0x00, 0x00, 0x00, 0xf0, 0x18, 0x00, 0x00,
   0x00, 0xc0, 0x63, 0x00, 0x00, 0x00, 0x00, 0x0c, 0x70, 0x00, 0x1c, 0x80,
   0x00, 0x00, 0x00, 0x00, 0x00, 0x80, 0x01, 0x1c, 0x01, 0x00, 0x00, 0x00,
   0x70, 0x04, 0x00, 0x00, 0x00, 0xe0, 0x08, 0x00, 0x00, 0x00, 0x80, 0x23,
   0x00, 0x00, 0x80, 0x01, 0x33, 0x88, 0x00, 0x22, 0x80, 0x00, 0x00, 0x00,
   0x00, 0x00, 0x60, 0x00, 0x98, 0x00, 0x00, 0x00, 0x00, 0x60, 0x02, 0x00,
   0x00, 0x00, 0xc0, 0x04, 0x00, 0x00, 0x00, 0x00, 0x13, 0x00, 0x00, 0x60,
   0x00, 0x63, 0x8c, 0x01, 0x63, 0x80, 0x00, 0x00, 0x78, 0x78, 0x00, 0x18,
   0x00, 0x78, 0x00, 0x00, 0x40, 0x00, 0xe0, 0x01, 0x00, 0x00, 0x01, 0xc0,
   0x03, 0x00, 0x00, 0x04, 0x00, 0x0f, 0x00, 0x00, 0x18, 0x00, 0x60, 0x8c,
   0x01, 0x63, 0x80, 0x00, 0x00, 0xc4, 0x8c, 0x00, 0x06, 0x00, 0x70, 0x00,
   0x00, 0x40, 0x00, 0xc0, 0x01, 0x00, 0x00, 0x01, 0x80, 0x03, 0x00, 0x00,
   0x04, 0x00, 0x0e, 0x00, 0x00, 0x06, 0x00, 0x60, 0x8c, 0x01, 0x63, 0x80,
   0x00, 0x00, 0x82, 0x07, 0x01, 0x01, 0x00, 0x60, 0x00, 0x00, 0x40, 0x00,
   0x80, 0x01, 0x00, 0x00, 0x01, 0x00, 0x03, 0x00, 0x00, 0x04, 0x00, 0x0c,
   0x00, 0x00, 0x01, 0x00, 0x30, 0x8c, 0x01, 0x63, 0x80, 0x00, 0x00, 0x02,
   0x03, 0x01, 0x01, 0x00, 0xf0, 0x80, 0x00, 0x40, 0x00, 0xc0, 0x03, 0x06,
   0x00, 0x01, 0x80, 0x07, 0x0c, 0x00, 0x04, 0x00, 0x1e, 0x40, 0x00, 0x01,
   0x00, 0x18, 0x8c, 0x01, 0x63, 0x80, 0x80, 0x3f, 0x82, 0x07, 0x01, 0x06,
   0x00, 0xc8, 0xc1, 0x00, 0xfc, 0x07, 0x20, 0x07, 0x09, 0xf0, 0x1f, 0x40,
   0x0e, 0x12, 0xc0, 0x7f, 0x00, 0x39, 0x60, 0x00, 0x06, 0x00, 0x0c, 0x8c,
   0x01, 0x63, 0x80, 0x00, 0x00, 0xc4, 0x8c, 0x00, 0x18, 0x00, 0x84, 0x81,
   0x00, 0x40, 0x00, 0x10, 0x06, 0x18, 0x00, 0x01, 0x20, 0x0c, 0x10, 0x00,
   0x04, 0x80, 0x30, 0x50, 0x00, 0x18, 0x00, 0x46, 0x8c, 0x01, 0x63, 0x80,
   0x00, 0x00, 0x78, 0x78, 0x00, 0x60, 0x00, 0x86, 0x83, 0x00, 0x40, 0x00,
   0x18, 0x0e, 0x08, 0x00, 0x01, 0x30, 0x1c, 0x0c, 0x00, 0x04, 0xc0, 0x70,
   0x48, 0x00, 0x60, 0x00, 0x7f, 0x88, 0x18, 0x22, 0x80, 0x00, 0x00, 0x00,
   0x00, 0x00, 0x80, 0x01, 0x8f, 0x8f, 0x00, 0x40, 0x00, 0x3c, 0x3e, 0x04,
   0x00, 0x01, 0x78, 0x7c, 0x10, 0x00, 0x04, 0xe0, 0xf1, 0xf9, 0x00, 0x80,
   0x01, 0x7f, 0x70, 0x18, 0x1c, 0x80, 0x00, 0x00, 0x00, 0x00, 0x00, 0x00,
   0x00, 0x00, 0x80, 0x00, 0x40, 0x00, 0x00, 0x00, 0x12, 0x00, 0x01, 0x00,
   0x00, 0x12, 0x00, 0x04, 0x00, 0x00, 0x40, 0x00, 0x00, 0x00, 0x00, 0x00,
   0x00, 0x00, 0x80, 0x00, 0x00, 0x00, 0x00, 0x00, 0x00, 0x00, 0x00, 0xc0,
   0x01, 0x00, 0x00, 0x00, 0x00, 0x0f, 0x00, 0x00, 0x00, 0x00, 0x0c, 0x00,
   0x00, 0x00, 0x00, 0xe0, 0x00, 0x00, 0x00, 0x00, 0x00, 0x00, 0x00, 0x80,
   0x00, 0x00, 0x00, 0x00, 0x00, 0x00, 0x00, 0x00, 0x00, 0x00, 0x00, 0x00,
   0x00, 0x00, 0x00, 0x00, 0x00, 0x00, 0x00, 0x00, 0x00, 0x00, 0x00, 0x00,
   0x00, 0x00, 0x00, 0x00, 0x00, 0x00, 0x00, 0x00, 0x80, 0x00, 0x00, 0x00,
   0x00, 0x00, 0x00, 0x00, 0x00, 0x00, 0x00, 0x00, 0x00, 0x00, 0x00, 0x00,
   0x00, 0x00, 0x00, 0x00, 0x00, 0x00, 0x00, 0x00, 0x00, 0x00, 0x00, 0x00,
   0x00, 0x00, 0x00, 0x00, 0x00, 0x80, 0x00, 0x00, 0x00, 0x00, 0x00, 0x00,
   0x00, 0x00, 0x00, 0x00, 0x00, 0x00, 0x00, 0x00, 0x00, 0x00, 0x00, 0x00,
   0x00, 0x00, 0x00, 0x00, 0x00, 0x00, 0x00, 0x00, 0x00, 0x00, 0x00, 0x00,
   0x00, 0x00, 0x80, 0x00, 0x00, 0x00, 0x00, 0x00, 0x00, 0x00, 0x00, 0x00,
   0x00, 0x00, 0x00, 0x00, 0x00, 0x00, 0x00, 0x00, 0x00, 0x00, 0x00, 0x00,
   0x00, 0x00, 0x00, 0x00, 0x00, 0x00, 0x00, 0x00, 0x00, 0x00, 0x00, 0x80,
   0x00, 0x00, 0x00, 0x00, 0x00, 0x00, 0x00, 0x00, 0x00, 0x00, 0x00, 0x00,
   0x00, 0x00, 0x00, 0x00, 0x00, 0x00, 0x00, 0x00, 0x00, 0x00, 0x00, 0x00,
   0x00, 0x00, 0x00, 0x00, 0x00, 0x00, 0x00, 0x00, 0x80, 0x00, 0x00, 0x00,
   0x00, 0x00, 0x00, 0x00, 0x00, 0x00, 0x00, 0x00, 0x00, 0x00, 0x00, 0x00,
   0x00, 0x00, 0x00, 0x00, 0x00, 0x00, 0x00, 0x00, 0x00, 0x00, 0x00, 0x00,
   0x00, 0x00, 0x00, 0x00, 0x00, 0x80, 0x00, 0x00, 0x00, 0x00, 0x00, 0x00,
   0x00, 0x00, 0x00, 0x00, 0x00, 0x00, 0x00, 0x00, 0x00, 0x00, 0x00, 0x00,
   0x00, 0x00, 0x00, 0x00, 0x00, 0x00, 0x00, 0x00, 0x00, 0x00, 0x00, 0x00,
   0x00, 0x00, 0x80, 0x00, 0x00, 0x00, 0x00, 0x00, 0x00, 0x00, 0x00, 0x00,
   0x00, 0x00, 0x00, 0x00, 0x00, 0x00, 0x00, 0x00, 0x00, 0x00, 0x00, 0x00,
   0x00, 0x00, 0x00, 0x00, 0x00, 0x00, 0x00, 0x00, 0x00, 0x00, 0x00, 0x80,
   0x00, 0x00, 0x00, 0x00, 0x00, 0x00, 0x00, 0x00, 0x00, 0x00, 0x00, 0x00,
   0x00, 0x00, 0x00, 0x00, 0x00, 0x00, 0x00, 0x00, 0x00, 0x00, 0x00, 0x00,
   0x00, 0x00, 0x00, 0x00, 0x00, 0x00, 0x00, 0x00, 0x80, 0x00, 0x00, 0x00,
   0x00, 0x00, 0x00, 0x00, 0x00, 0x00, 0x00, 0x00, 0x00, 0x00, 0x00, 0x00,
   0x00, 0x00, 0x00, 0x00, 0x00, 0x00, 0x00, 0x00, 0x00, 0x00, 0x00, 0x00,
   0x00, 0x00, 0x00, 0x00, 0x00, 0x80, 0x00, 0x00, 0x00, 0x00, 0x00, 0x00,
   0x00, 0x00, 0x00, 0x00, 0x00, 0x00, 0x00, 0x00, 0x00, 0x00, 0x00, 0x00,
   0x00, 0x00, 0x00, 0x00, 0x00, 0x00, 0x00, 0x00, 0x00, 0x00, 0x00, 0x00,
   0x00, 0x00, 0x80, 0x00, 0x00, 0x00, 0x00, 0x00, 0x00, 0x00, 0x00, 0x00,
   0x00, 0x00, 0x00, 0x00, 0x00, 0x00, 0x00, 0x00, 0x00, 0x00, 0x00, 0x00,
   0x00, 0x00, 0x00, 0x00, 0x00, 0x00, 0x00, 0x00, 0x00, 0x00, 0x00, 0x80,
   0x00, 0x00, 0x00, 0x00, 0x00, 0x00, 0x00, 0x00, 0x80, 0x01, 0x00, 0x00,
   0x00, 0x00, 0x06, 0x00, 0x00, 0x00, 0x00, 0x0c, 0x00, 0x00, 0x00, 0x00,
   0x30, 0x00, 0x00, 0x00, 0x00, 0x00, 0x00, 0x00, 0x80, 0x00, 0x00, 0x00,
   0x00, 0x00, 0x00, 0x00, 0x00, 0x40, 0x02, 0x00, 0x00, 0x00, 0x00, 0x09,
   0x00, 0x00, 0x00, 0x00, 0x12, 0x00, 0x00, 0x00, 0x00, 0x48, 0x00, 0x00,
   0x00, 0x00, 0x00, 0x00, 0x00, 0x80, 0x00, 0x00, 0x00, 0x00, 0x00, 0x00,
   0x00, 0x1e, 0x03, 0x06, 0x00, 0x00, 0x78, 0x0c, 0x18, 0x00, 0x00, 0xf0,
   0x18, 0x30, 0x00, 0x00, 0xc0, 0x63, 0xc0, 0x00, 0x00, 0x00, 0x20, 0x70,
   0x00, 0x1c, 0x80, 0x00, 0x00, 0x00, 0x00, 0x00, 0x80, 0x01, 0x1c, 0x01,
   0x02, 0x00, 0x00, 0x70, 0x04, 0x08, 0x00, 0x00, 0xe0, 0x08, 0x10, 0x00,
   0x00, 0x80, 0x23, 0x40, 0x00, 0x80, 0x01, 0x30, 0x88, 0x00, 0x22, 0x80,
   0x00, 0x00, 0x00, 0x00, 0x00, 0x60, 0x00, 0x98, 0x00, 0x01, 0x00, 0x00,
   0x60, 0x02, 0x04, 0x00, 0x00, 0xc0, 0x04, 0x08, 0x00, 0x00, 0x00, 0x13,
   0x20, 0x00, 0x60, 0x00, 0x38, 0x8c, 0x01, 0x63, 0x80, 0x00, 0x00, 0xf0,
   0xf0, 0x00, 0x18, 0x00, 0x78, 0x80, 0x04, 0x40, 0x00, 0xe0, 0x01, 0x12,
   0x00, 0x01, 0xc0, 0x03, 0x24, 0x00, 0x04, 0x00, 0x0f, 0x90, 0x00, 0x18,
   0x00, 0x3c, 0x8c, 0x01, 0x63, 0x80, 0x00, 0x00, 0x88, 0x19, 0x01, 0x06,
   0x00, 0x70, 0xc0, 0x03, 0x40, 0x00, 0xc0, 0x01, 0x0f, 0x00, 0x01, 0x80,
   0x03, 0x1e, 0x00, 0x04, 0x00, 0x0e, 0x78, 0x00, 0x06, 0x00, 0x36, 0x8c,
   0x01, 0x63, 0x80, 0x00, 0x00, 0x04, 0x0f, 0x02, 0x01, 0x00, 0x60, 0x00,
   0x00, 0x40, 0x00, 0x80, 0x01, 0x00, 0x00, 0x01, 0x00, 0x03, 0x00, 0x00,
   0x04, 0x00, 0x0c, 0x00, 0x00, 0x01, 0x00, 0x33, 0x8c, 0x01, 0x63, 0x80,
   0x00, 0x00, 0x04, 0x06, 0x02, 0x01, 0x00, 0xf0, 0x00, 0x00, 0x40, 0x00,
   0xc0, 0x03, 0x00, 0x00, 0x01, 0x80, 0x07, 0x00, 0x00, 0x04, 0x00, 0x1e,
   0x00, 0x00, 0x01, 0x00, 0x31, 0x8c, 0x01, 0x63, 0x80, 0x80, 0x3f, 0x04,
   0x0f, 0x02, 0x06, 0x00, 0xc8, 0x01, 0x00, 0xfc, 0x07, 0x20, 0x07, 0x00,
   0xf0, 0x1f, 0x40, 0x0e, 0x00, 0xc0, 0x7f, 0x00, 0x39, 0x00, 0x00, 0x06,
   0x00, 0x7f, 0x8c, 0x01, 0x63, 0x80, 0x00, 0x00, 0x88, 0x19, 0x01, 0x18,
   0x00, 0x84, 0x01, 0x00, 0x40, 0x00, 0x10, 0x06, 0x00, 0x00, 0x01, 0x00,
   0x0c, 0x00, 0x00, 0x04, 0x80, 0x30, 0x00, 0x00, 0x18, 0x00, 0x30, 0x8c,
   0x01, 0x63, 0x80, 0x00, 0x00, 0xf0, 0xf0, 0x00, 0x60, 0x00, 0x86, 0x83,
   0x00, 0x40, 0x00, 0x18, 0x0e, 0x06, 0x00, 0x01, 0x20, 0x1c, 0x0c, 0x00,
   0x04, 0xc0, 0x70, 0x40, 0x00, 0x60, 0x00, 0x30, 0x88, 0x18, 0x22, 0x80,
   0x00, 0x00, 0x00, 0x00, 0x00, 0x80, 0x01, 0x8f, 0xcf, 0x00, 0x40, 0x00,
   0x3c, 0x3e, 0x09, 0x00, 0x01, 0x78, 0x7c, 0x12, 0x00, 0x04, 0xe0, 0xf1,
   0x61, 0x00, 0x80, 0x01, 0x78, 0x70, 0x18, 0x1c, 0x80, 0x00, 0x00, 0x00,
   0x00, 0x00, 0x00, 0x00, 0x00, 0x80, 0x00, 0x40, 0x00, 0x00, 0x00, 0x18,
   0x00, 0x01, 0x00, 0x00, 0x10, 0x00, 0x04, 0x00, 0x00, 0x50, 0x00, 0x00,
   0x00, 0x00, 0x00, 0x00, 0x00, 0x80, 0x00, 0x00, 0x00, 0x00, 0x00, 0x00,
   0x00, 0x00, 0x80, 0x00, 0x00, 0x00, 0x00, 0x00, 0x08, 0x00, 0x00, 0x00,
   0x00, 0x0c, 0x00, 0x00, 0x00, 0x00, 0x48, 0x00, 0x00, 0x00, 0x00, 0x00,
   0x00, 0x00, 0x80, 0x00, 0x00, 0x00, 0x00, 0x00, 0x00, 0x00, 0x00, 0x80,
   0x00, 0x00, 0x00, 0x00, 0x00, 0x04, 0x00, 0x00, 0x00, 0x00, 0x10, 0x00,
   0x00, 0x00, 0x00, 0xf8, 0x00, 0x00, 0x00, 0x00, 0x00, 0x00, 0x00, 0x80,
   0x00, 0x00, 0x00, 0x00, 0x00, 0x00, 0x00, 0x00, 0x80, 0x00, 0x00, 0x00,
   0x00, 0x00, 0x12, 0x00, 0x00, 0x00, 0x00, 0x12, 0x00, 0x00, 0x00, 0x00,
   0x40, 0x00, 0x00, 0x00, 0x00, 0x00, 0x00, 0x00, 0x80, 0x00, 0x00, 0x00,
   0x00, 0x00, 0x00, 0x00, 0x00, 0xc0, 0x01, 0x00, 0x00, 0x00, 0x00, 0x0f,
   0x00, 0x00, 0x00, 0x00, 0x0c, 0x00, 0x00, 0x00, 0x00, 0xe0, 0x00, 0x00,
   0x00, 0x00, 0x00, 0x00, 0x00, 0x80, 0x00, 0x00, 0x00, 0x00, 0x00, 0x00,
   0x00, 0x00, 0x00, 0x00, 0x00, 0x00, 0x00, 0x00, 0x00, 0x00, 0x00, 0x00,
   0x00, 0x00, 0x00, 0x00, 0x00, 0x00, 0x00, 0x00, 0x00, 0x00, 0x00, 0x00,
   0x00, 0x00, 0x80, 0x00, 0x00, 0x00, 0x00, 0x00, 0x00, 0x00, 0x00, 0x00,
   0x00, 0x00, 0x00, 0x00, 0x00, 0x00, 0x00, 0x00, 0x00, 0x00, 0x00, 0x00,
   0x00, 0x00, 0x00, 0x00, 0x00, 0x00, 0x00, 0x00, 0x00, 0x00, 0x00, 0x80,
   0x00, 0x00, 0x00, 0x00, 0x00, 0x00, 0x00, 0x00, 0x00, 0x00, 0x00, 0x00,
   0x00, 0x00, 0x00, 0x00, 0x00, 0x00, 0x00, 0x00, 0x00, 0x00, 0x00, 0x00,
   0x00, 0x00, 0x00, 0x00, 0x00, 0x00, 0x00, 0x00, 0x80, 0x00, 0x00, 0x00,
   0x00, 0x00, 0x00, 0x00, 0x00, 0x00, 0x00, 0x00, 0x00, 0x00, 0x00, 0x00,
   0x00, 0x00, 0x00, 0x00, 0x00, 0x00, 0x00, 0x00, 0x00, 0x00, 0x00, 0x00,
   0x00, 0x00, 0x00, 0x00, 0x00, 0x80, 0x00, 0x00, 0x00, 0x00, 0x00, 0x00,
   0x00, 0x00, 0x00, 0x00, 0x00, 0x00, 0x00, 0x00, 0x00, 0x00, 0x00, 0x00,
   0x00, 0x00, 0x00, 0x00, 0x00, 0x00, 0x00, 0x00, 0x00, 0x00, 0x00, 0x00,
   0x00, 0x00, 0x80, 0x00, 0x00, 0x00, 0x00, 0x00, 0x00, 0x00, 0x00, 0x00,
   0x00, 0x00, 0x00, 0x00, 0x00, 0x00, 0x00, 0x00, 0x00, 0x00, 0x00, 0x00,
   0x00, 0x00, 0x00, 0x00, 0x00, 0x00, 0x00, 0x00, 0x00, 0x00, 0x00, 0x80,
   0x00, 0x00, 0x00, 0x00, 0x00, 0x00, 0x00, 0x00, 0x00, 0x00, 0x00, 0x00,
   0x00, 0x00, 0x00, 0x00, 0x00, 0x00, 0x00, 0x00, 0x00, 0x00, 0x00, 0x00,
   0x00, 0x00, 0x00, 0x00, 0x00, 0x00, 0x00, 0x00, 0x80, 0x00, 0x00, 0x00,
   0x00, 0x00, 0x00, 0x00, 0x00, 0x00, 0x00, 0x00, 0x00, 0x00, 0x00, 0x00,
   0x00, 0x00, 0x00, 0x00, 0x00, 0x00, 0x00, 0x00, 0x00, 0x00, 0x00, 0x00,
   0x00, 0x00, 0x00, 0x00, 0x00, 0x80, 0x00, 0x00, 0x00, 0x00, 0x00, 0x00,
   0x00, 0x00, 0x00, 0x00, 0x00, 0x00, 0x00, 0x00, 0x00, 0x00, 0x00, 0x00,
   0x00, 0x00, 0x00, 0x00, 0x00, 0x00, 0x00, 0x00, 0x00, 0x00, 0x00, 0x00,
   0x00, 0x00, 0x80, 0x00, 0x00, 0x00, 0x00, 0x00, 0x00, 0x00, 0x00, 0x00,
   0x00, 0x00, 0x00, 0x00, 0x00, 0x00, 0x00, 0x00, 0x00, 0x00, 0x00, 0x00,
   0x00, 0x00, 0x00, 0x00, 0x00, 0x00, 0x00, 0x00, 0x00, 0x00, 0x00, 0x80,
   0x00, 0x00, 0x00, 0x00, 0x00, 0x00, 0x00, 0x00, 0x00, 0x00, 0x00, 0x00,
   0x00, 0x00, 0x00, 0x00, 0x00, 0x00, 0x00, 0x00, 0x00, 0x00, 0x00, 0x00,
   0x00, 0x00, 0x00, 0x00, 0x00, 0x00, 0x00, 0x00, 0x80, 0x00, 0x00, 0x00,
   0x00, 0x00, 0x00, 0x00, 0x00, 0x00, 0x00, 0x00, 0x00, 0x00, 0x00, 0x00,
   0x00, 0x00, 0x00, 0x00, 0x00, 0x00, 0x00, 0x00, 0x00, 0x00, 0x00, 0x00,
   0x00, 0x00, 0x00, 0x00, 0x00, 0x80, 0x00, 0x00, 0x00, 0x00, 0x00, 0x18,
   0x00, 0x00, 0x1c, 0x00, 0x00, 0x00, 0x1e, 0x03, 0xc0, 0x63, 0x00, 0xf0,
   0x18, 0x00, 0x1e, 0x03, 0x00, 0x00, 0x00, 0x00, 0x00, 0x00, 0x00, 0x00,
   0x00, 0x00, 0x80, 0x00, 0x00, 0x00, 0x00, 0x00, 0x66, 0xf8, 0x00, 0x22,
   0x00, 0xc0, 0x00, 0x1c, 0x01, 0x80, 0x23, 0x00, 0xe0, 0x08, 0x00, 0x1c,
   0x01, 0x00, 0x00, 0x0c, 0x00, 0x00, 0x00, 0x00, 0x00, 0x00, 0x00, 0x80,
   0x00, 0x00, 0x00, 0x00, 0x00, 0xc6, 0x78, 0x00, 0x63, 0x00, 0x30, 0x00,
   0x98, 0x00, 0x00, 0x13, 0x00, 0xc0, 0x04, 0x00, 0x98, 0x00, 0x00, 0x00,
   0x03, 0x00, 0x00, 0x00, 0x00, 0x00, 0x00, 0x00, 0x80, 0x00, 0x00, 0x00,
   0x00, 0x00, 0xc0, 0x08, 0x00, 0x63, 0x00, 0x0c, 0x00, 0x78, 0x00, 0x00,
   0x0f, 0x00, 0xc0, 0x03, 0x00, 0x78, 0x00, 0x00, 0xc0, 0x00, 0xe0, 0xe1,
   0x01, 0x00, 0x00, 0x00, 0x00, 0x80, 0x00, 0x00, 0x00, 0x00, 0x00, 0xc0,
   0x38, 0x00, 0x63, 0x00, 0x03, 0x00, 0x70, 0x00, 0x00, 0x0e, 0x00, 0x80,
   0x03, 0x00, 0x70, 0x00, 0x00, 0x30, 0x00, 0x10, 0x33, 0x02, 0x00, 0x00,
   0x00, 0x00, 0x80, 0x00, 0x00, 0x00, 0x00, 0x00, 0x60, 0xc8, 0x00, 0x63,
   0x80, 0x00, 0x00, 0x60, 0x00, 0x00, 0x0c, 0x00, 0x00, 0x03, 0x00, 0x60,
   0x00, 0x00, 0x08, 0x00, 0x08, 0x1e, 0x04, 0x00, 0x00, 0x00, 0x00, 0x80,
   0x00, 0x00, 0x00, 0x00, 0x00, 0x30, 0x80, 0x01, 0x63, 0x80, 0x00, 0x00,
   0xf0, 0x00, 0x00, 0x1e, 0x00, 0x80, 0x07, 0x00, 0xf0, 0x00, 0x00, 0x08,
   0x00, 0x08, 0x0c, 0x04, 0x00, 0x00, 0x00, 0x00, 0x80, 0x00, 0x00, 0x00,
   0x00, 0x00, 0x18, 0x88, 0x01, 0x63, 0x00, 0x03, 0x00, 0xc8, 0x81, 0x00,
   0x39, 0x30, 0x40, 0x0e, 0x0c, 0xc8, 0x01, 0x02, 0x30, 0x00, 0x08, 0x1e,
   0x04, 0x00, 0x00, 0x00, 0x00, 0x80, 0x00, 0x00, 0x00, 0x00, 0x00, 0x8c,
   0x8c, 0x01, 0x63, 0x00, 0x0c, 0x00, 0x84, 0xc1, 0x80, 0x30, 0x48, 0x20,
   0x0c, 0x12, 0x84, 0x01, 0x03, 0xc0, 0x00, 0x10, 0x33, 0x02, 0x00, 0x00,
   0x00, 0x00, 0x80, 0x00, 0x00, 0x00, 0x00, 0x00, 0xfe, 0xc4, 0x30, 0x22,
   0x00, 0x30, 0x00, 0x86, 0x83, 0xc0, 0x70, 0xc0, 0x30, 0x1c, 0x10, 0x86,
   0x83, 0x02, 0x00, 0x03, 0xe0, 0xe1, 0x01, 0x00, 0x00, 0x00, 0x00, 0x80,
   0x00, 0x00, 0x00, 0x00, 0x00, 0xfe, 0x78, 0x30, 0x1c, 0x00, 0xc0, 0x00,
   0x8f, 0x8f, 0xe0, 0xf1, 0x41, 0x78, 0x7c, 0x0c, 0x8f, 0x4f, 0x02, 0x00,
   0x0c, 0x00, 0x00, 0x00, 0x00, 0x00, 0x00, 0x00, 0x80, 0x00, 0x00, 0x00,
   0x00, 0x00, 0x00, 0x00, 0x00, 0x00, 0x00, 0x00, 0x00, 0x00, 0x80, 0x00,
   0x00, 0x20, 0x00, 0x00, 0x10, 0x00, 0xc0, 0x07, 0x00, 0x00, 0x00, 0x00,
   0x00, 0x00, 0x00, 0x00, 0x00, 0x80, 0x00, 0x00, 0x00, 0x00, 0x00, 0x00,
   0x00, 0x00, 0x00, 0x00, 0x00, 0x00, 0x00, 0x80, 0x00, 0x00, 0x90, 0x00,
   0x00, 0x12, 0x00, 0x00, 0x02, 0x00, 0x00, 0x00, 0x00, 0x00, 0x00, 0x00,
   0x00, 0x00, 0x80, 0x00, 0x00, 0x00, 0x00, 0x00, 0x00, 0x00, 0x00, 0x00,
   0x00, 0x00, 0x00, 0x00, 0xc0, 0x01, 0x00, 0x78, 0x00, 0x00, 0x0c, 0x00,
   0x00, 0x07, 0x00, 0x00, 0x00, 0x00, 0x00, 0x00, 0x00, 0x00, 0x00, 0x80,
   0x00, 0x00, 0x00, 0x00, 0x00, 0x00, 0x00, 0x00, 0x00, 0x00, 0x00, 0x00,
   0x00, 0x00, 0x00, 0x00, 0x00, 0x00, 0x00, 0x00, 0x00, 0x00, 0x00, 0x00,
   0x00, 0x00, 0x00, 0x00, 0x00, 0x00, 0x00, 0x00, 0x80, 0x00, 0x00, 0x00,
   0x00, 0x00, 0x00, 0x00, 0x00, 0x00, 0x00, 0x00, 0x00, 0x00, 0x00, 0x00,
   0x00, 0x00, 0x00, 0x00, 0x00, 0x00, 0x00, 0x00, 0x00, 0x00, 0x00, 0x00,
   0x00, 0x00, 0x00, 0x00, 0x00, 0x80, 0x00, 0x00, 0x00, 0x00, 0x00, 0x00,
   0x00, 0x00, 0x00, 0x00, 0x00, 0x00, 0x00, 0x00, 0x00, 0x00, 0x00, 0x00,
   0x00, 0x00, 0x00, 0x00, 0x00, 0x00, 0x00, 0x00, 0x00, 0x00, 0x00, 0x00,
   0x00, 0x00, 0x80, 0x00, 0x00, 0x00, 0x00, 0x00, 0x00, 0x00, 0x00, 0x00,
   0x00, 0x00, 0x00, 0x00, 0x00, 0x00, 0x00, 0x00, 0x00, 0x00, 0x00, 0x00,
   0x00, 0x00, 0x00, 0x00, 0x00, 0x00, 0x00, 0x00, 0x00, 0x00, 0x00, 0x80};
