#define opt4_width 382
#define opt4_height 23
static char opt4_bits[] = {
   0x00, 0x00, 0x00, 0x00, 0x00, 0x00, 0x00, 0x00, 0x00, 0x00, 0x00, 0x00,
   0x00, 0x00, 0x00, 0x00, 0x00, 0x00, 0x00, 0x00, 0x00, 0x00, 0x00, 0x00,
   0x00, 0x00, 0x00, 0x00, 0x00, 0x00, 0x00, 0x00, 0x00, 0x00, 0x00, 0x00,
   0x00, 0x00, 0x00, 0x00, 0x00, 0x00, 0x00, 0x00, 0x00, 0x00, 0x00, 0xc0,
   0x00, 0x00, 0x00, 0x00, 0x00, 0x00, 0x00, 0x00, 0x00, 0x00, 0x00, 0x00,
   0x00, 0x00, 0x00, 0x00, 0x00, 0x00, 0x00, 0x00, 0x00, 0x00, 0x00, 0x00,
   0x00, 0x00, 0x00, 0x00, 0x00, 0x00, 0x00, 0x00, 0x00, 0x00, 0x00, 0x00,
   0x00, 0x00, 0x00, 0x00, 0x00, 0x00, 0x00, 0x00, 0x00, 0x00, 0x00, 0xc0,
   0x00, 0x00, 0x00, 0x00, 0x00, 0x00, 0x00, 0x00, 0x00, 0x00, 0x00, 0x00,
   0x00, 0x00, 0x00, 0x00, 0x00, 0x00, 0x00, 0x00, 0x00, 0x00, 0x00, 0x00,
   0x00, 0x00, 0x00, 0x00, 0x00, 0x00, 0x00, 0x00, 0x00, 0x00, 0x00, 0x00,
   0x00, 0x00, 0x00, 0x00, 0x00, 0x00, 0x00, 0x00, 0x00, 0x00, 0x00, 0xc0,
   0x00, 0x00, 0x00, 0x00, 0x00, 0x01, 0x00, 0x00, 0x00, 0x00, 0x00, 0x00,
   0x00, 0x00, 0x00, 0x00, 0x00, 0x00, 0x00, 0x00, 0x00, 0x00, 0x00, 0x00,
   0x00, 0x00, 0x00, 0x00, 0x00, 0x00, 0x00, 0x00, 0x00, 0x00, 0x00, 0x00,
   0x00, 0x20, 0x00, 0x00, 0x00, 0x00, 0x00, 0x00, 0x00, 0x00, 0x04, 0xc1,
   0x00, 0x00, 0x0e, 0xc0, 0x03, 0x81, 0x03, 0x60, 0xe0, 0x71, 0x00, 0x00,
   0x00, 0xc0, 0xe3, 0x00, 0x00, 0x00, 0x00, 0x8f, 0x03, 0x00, 0x00, 0x00,
   0x3c, 0x0e, 0x00, 0x00, 0x00, 0x78, 0x1c, 0x00, 0x00, 0x00, 0xc0, 0x01,
   0x70, 0x20, 0x78, 0x1c, 0x00, 0x00, 0x00, 0xf0, 0x38, 0x00, 0x04, 0xc1,
   0x00, 0x00, 0x11, 0x60, 0x86, 0x40, 0x04, 0x70, 0xc0, 0x11, 0x00, 0x00,
   0x00, 0x80, 0x23, 0x00, 0x00, 0x00, 0x00, 0x8e, 0x00, 0x00, 0x00, 0x00,
   0x38, 0x02, 0x00, 0x00, 0x00, 0x70, 0x04, 0x00, 0x00, 0x00, 0x20, 0x02,
   0xcc, 0x10, 0x70, 0x04, 0x00, 0x00, 0x00, 0xe0, 0x08, 0x00, 0x08, 0xc2,
   0x00, 0x80, 0x31, 0x60, 0x8c, 0x60, 0x0c, 0x68, 0x80, 0x09, 0x00, 0x00,
   0x00, 0x00, 0x13, 0x00, 0x00, 0x00, 0x00, 0x4c, 0x00, 0x00, 0x00, 0x00,
   0x30, 0x01, 0x00, 0x00, 0x00, 0x60, 0x02, 0x00, 0x00, 0x00, 0x30, 0x06,
   0x8c, 0x11, 0x60, 0x02, 0x00, 0x00, 0x00, 0xc0, 0x04, 0x00, 0x08, 0xc2,
   0x00, 0x80, 0x31, 0x00, 0x8c, 0x60, 0x0c, 0x60, 0x80, 0x07, 0x00, 0x00,
   0x04, 0x00, 0x0f, 0x00, 0x00, 0x10, 0x00, 0x3c, 0x00, 0x00, 0x20, 0x00,
   0xf0, 0x00, 0x00, 0x80, 0x00, 0xe0, 0x01, 0x00, 0x00, 0x00, 0x30, 0x06,
   0x80, 0x11, 0xe0, 0x01, 0x00, 0x00, 0x01, 0xc0, 0x03, 0x00, 0x08, 0xc2,
   0x00, 0x80, 0x31, 0x00, 0x4c, 0x60, 0x0c, 0x60, 0x00, 0x07, 0x00, 0x00,
   0x04, 0x00, 0x0e, 0x00, 0x00, 0x10, 0x00, 0x38, 0x00, 0x00, 0x20, 0x00,
   0xe0, 0x00, 0x00, 0x80, 0x00, 0xc0, 0x01, 0x00, 0x00, 0x00, 0x30, 0x06,
   0x80, 0x09, 0xc0, 0x01, 0x00, 0x00, 0x01, 0x80, 0x03, 0x00, 0x10, 0xc4,
   0x00, 0x80, 0x31, 0x00, 0x46, 0x60, 0x0c, 0x60, 0x00, 0x06, 0x00, 0x00,
   0x04, 0x00, 0x0c, 0x00, 0x00, 0x10, 0x00, 0x30, 0x00, 0x00, 0x20, 0x00,
   0xc0, 0x00, 0x00, 0x80, 0x00, 0x80, 0x01, 0x00, 0x00, 0x00, 0x30, 0x06,
   0xc0, 0x08, 0x80, 0x01, 0x00, 0x00, 0x01, 0x00, 0x03, 0x00, 0x10, 0xc4,
   0x00, 0x80, 0x31, 0x00, 0x43, 0x60, 0x0c, 0x60, 0x00, 0x0f, 0x00, 0x00,
   0x04, 0x00, 0x1e, 0x00, 0x00, 0x10, 0x00, 0x78, 0x00, 0x00, 0x20, 0x00,
   0xe0, 0x01, 0x00, 0x80, 0x00, 0xc0, 0x03, 0x00, 0x00, 0x00, 0x30, 0x06,
   0x60, 0x08, 0xc0, 0x03, 0x00, 0x00, 0x01, 0x80, 0x07, 0x00, 0x10, 0xc4,
   0xe0, 0x87, 0x31, 0x80, 0x41, 0x60, 0x0c, 0x60, 0x80, 0x1c, 0x10, 0xc0,
   0x7f, 0x00, 0x39, 0x70, 0x00, 0xff, 0x01, 0xe4, 0xc0, 0x00, 0xfe, 0x03,
   0x90, 0x03, 0x04, 0xf8, 0x0f, 0x20, 0x07, 0x0f, 0xc0, 0x0f, 0x30, 0x06,
   0x30, 0x08, 0x20, 0x07, 0x06, 0xf0, 0x1f, 0x40, 0x0e, 0x3e, 0x10, 0xc4,
   0x00, 0x80, 0x31, 0xc0, 0x48, 0x60, 0x0c, 0x60, 0x40, 0x18, 0x18, 0x00,
   0x04, 0x80, 0x30, 0xc8, 0x00, 0x10, 0x00, 0xc2, 0x20, 0x01, 0x20, 0x00,
   0x08, 0x03, 0x06, 0x80, 0x00, 0x10, 0x06, 0x01, 0x00, 0x00, 0x30, 0x06,
   0x18, 0x09, 0x10, 0x06, 0x09, 0x00, 0x01, 0x20, 0x0c, 0x12, 0x10, 0xc4,
   0x00, 0x00, 0x11, 0xe3, 0x8f, 0x40, 0xc4, 0x60, 0x60, 0x38, 0x10, 0x00,
   0x04, 0xc0, 0x70, 0xc0, 0x00, 0x10, 0x00, 0xc3, 0x01, 0x01, 0x20, 0x00,
   0x0c, 0x07, 0x05, 0x80, 0x00, 0x18, 0x0e, 0x0f, 0x00, 0x00, 0x20, 0x62,
   0xfc, 0x11, 0x18, 0x0e, 0x01, 0x00, 0x01, 0x30, 0x1c, 0x08, 0x10, 0xc4,
   0x00, 0x00, 0x0e, 0xe3, 0x8f, 0x80, 0xc3, 0xf8, 0xf0, 0x78, 0x10, 0x00,
   0x04, 0xe0, 0xf1, 0x60, 0x00, 0x10, 0x80, 0xc7, 0xc3, 0x01, 0x20, 0x00,
   0x1e, 0x8f, 0x04, 0x80, 0x00, 0x3c, 0x1e, 0x19, 0x00, 0x00, 0xc0, 0x61,
   0xfc, 0x11, 0x3c, 0x1e, 0x07, 0x00, 0x01, 0x78, 0x3c, 0x08, 0x08, 0xc2,
   0x00, 0x00, 0x00, 0x00, 0x80, 0x00, 0x00, 0x00, 0x00, 0x00, 0x10, 0x00,
   0x04, 0x00, 0x00, 0x30, 0x00, 0x10, 0x00, 0x00, 0x00, 0x01, 0x20, 0x00,
   0x00, 0x80, 0x0f, 0x80, 0x00, 0x00, 0x00, 0x18, 0x00, 0x00, 0x00, 0x00,
   0x00, 0x10, 0x00, 0x00, 0x09, 0x00, 0x01, 0x00, 0x00, 0x08, 0x08, 0xc2,
   0x00, 0x00, 0x00, 0x00, 0x00, 0x01, 0x00, 0x00, 0x00, 0x00, 0x10, 0x00,
   0x00, 0x00, 0x00, 0x98, 0x00, 0x00, 0x00, 0x00, 0x20, 0x01, 0x00, 0x00,
   0x00, 0x00, 0x04, 0x00, 0x00, 0x00, 0x00, 0x19, 0x00, 0x00, 0x00, 0x00,
   0x00, 0x20, 0x00, 0x00, 0x09, 0x00, 0x00, 0x00, 0x00, 0x08, 0x08, 0xc2,
   0x00, 0x00, 0x00, 0x00, 0x00, 0x01, 0x00, 0x00, 0x00, 0x00, 0x38, 0x00,
   0x00, 0x00, 0x00, 0x78, 0x00, 0x00, 0x00, 0x00, 0xc0, 0x00, 0x00, 0x00,
   0x00, 0x00, 0x0e, 0x00, 0x00, 0x00, 0x00, 0x0f, 0x00, 0x00, 0x00, 0x00,
   0x00, 0x20, 0x00, 0x00, 0x06, 0x00, 0x00, 0x00, 0x00, 0x00, 0x04, 0xc1,
   0x00, 0x00, 0x00, 0x00, 0x00, 0x00, 0x00, 0x00, 0x00, 0x00, 0x00, 0x00,
   0x00, 0x00, 0x00, 0x00, 0x00, 0x00, 0x00, 0x00, 0x00, 0x00, 0x00, 0x00,
   0x00, 0x00, 0x00, 0x00, 0x00, 0x00, 0x00, 0x00, 0x00, 0x00, 0x00, 0x00,
   0x00, 0x00, 0x00, 0x00, 0x00, 0x00, 0x00, 0x00, 0x00, 0x00, 0x04, 0xc1,
   0x00, 0x00, 0x00, 0x00, 0x00, 0x00, 0x00, 0x00, 0x00, 0x00, 0x00, 0x00,
   0x00, 0x00, 0x00, 0x00, 0x00, 0x00, 0x00, 0x00, 0x00, 0x00, 0x00, 0x00,
   0x00, 0x00, 0x00, 0x00, 0x00, 0x00, 0x00, 0x00, 0x00, 0x00, 0x00, 0x00,
   0x00, 0x00, 0x00, 0x00, 0x00, 0x00, 0x00, 0x00, 0x00, 0x00, 0x00, 0xc0,
   0x00, 0x00, 0x00, 0x00, 0x00, 0x00, 0x00, 0x00, 0x00, 0x00, 0x00, 0x00,
   0x00, 0x00, 0x00, 0x00, 0x00, 0x00, 0x00, 0x00, 0x00, 0x00, 0x00, 0x00,
   0x00, 0x00, 0x00, 0x00, 0x00, 0x00, 0x00, 0x00, 0x00, 0x00, 0x00, 0x00,
   0x00, 0x00, 0x00, 0x00, 0x00, 0x00, 0x00, 0x00, 0x00, 0x00, 0x00, 0xc0,
   0x00, 0x00, 0x00, 0x00, 0x00, 0x00, 0x00, 0x00, 0x00, 0x00, 0x00, 0x00,
   0x00, 0x00, 0x00, 0x00, 0x00, 0x00, 0x00, 0x00, 0x00, 0x00, 0x00, 0x00,
   0x00, 0x00, 0x00, 0x00, 0x00, 0x00, 0x00, 0x00, 0x00, 0x00, 0x00, 0x00,
   0x00, 0x00, 0x00, 0x00, 0x00, 0x00, 0x00, 0x00, 0x00, 0x00, 0x00, 0xc0,
   0x00, 0x00, 0x00, 0x00, 0x00, 0x00, 0x00, 0x00, 0x00, 0x00, 0x00, 0x00,
   0x00, 0x00, 0x00, 0x00, 0x00, 0x00, 0x00, 0x00, 0x00, 0x00, 0x00, 0x00,
   0x00, 0x00, 0x00, 0x00, 0x00, 0x00, 0x00, 0x00, 0x00, 0x00, 0x00, 0x00,
   0x00, 0x00, 0x00, 0x00, 0x00, 0x00, 0x00, 0x00, 0x00, 0x00, 0x00, 0xc0};
