#define opt5_width 522
#define opt5_height 44
static char opt5_bits[] = {
   0x00, 0x00, 0x00, 0x00, 0x00, 0x00, 0x00, 0x00, 0x00, 0x00, 0x00, 0x00,
   0x00, 0x00, 0x00, 0x00, 0x00, 0x00, 0x00, 0x00, 0x00, 0x00, 0x00, 0x00,
   0x00, 0x00, 0x00, 0x00, 0x00, 0x00, 0x00, 0x00, 0x00, 0x00, 0x00, 0x00,
   0x00, 0x00, 0x00, 0x00, 0x00, 0x00, 0x00, 0x00, 0x00, 0x00, 0x00, 0x00,
   0x00, 0x00, 0x00, 0x00, 0x00, 0x00, 0x00, 0x00, 0x00, 0x00, 0x00, 0x00,
   0x00, 0x00, 0x00, 0x00, 0x00, 0xfc, 0x00, 0x00, 0x00, 0x00, 0x00, 0x00,
   0x00, 0x00, 0x00, 0x00, 0x00, 0x00, 0x00, 0x00, 0x00, 0x00, 0x00, 0x00,
   0x00, 0x00, 0x00, 0x00, 0x00, 0x00, 0x00, 0x00, 0x00, 0x00, 0x00, 0x00,
   0x00, 0x00, 0x00, 0x00, 0x00, 0x00, 0x00, 0x00, 0x00, 0x00, 0x00, 0x00,
   0x00, 0x00, 0x00, 0x00, 0x00, 0x00, 0x00, 0x00, 0x00, 0x00, 0x00, 0x00,
   0x00, 0x00, 0x00, 0x00, 0x00, 0x00, 0x00, 0x00, 0x00, 0x00, 0x00, 0xfc,
   0x00, 0x00, 0x00, 0x00, 0x00, 0x00, 0x00, 0x00, 0x00, 0x00, 0x00, 0x00,
   0x00, 0x00, 0x00, 0x00, 0x00, 0x00, 0x00, 0x00, 0x00, 0x00, 0x00, 0x00,
   0x00, 0x00, 0x00, 0x00, 0x00, 0x00, 0x00, 0x00, 0x00, 0x00, 0x00, 0x00,
   0x00, 0x00, 0x00, 0x00, 0x00, 0x00, 0x00, 0x00, 0x00, 0x00, 0x00, 0x00,
   0x00, 0x00, 0x00, 0x00, 0x00, 0x00, 0x00, 0x00, 0x00, 0x00, 0x00, 0x00,
   0x00, 0x00, 0x00, 0x00, 0x00, 0xfc, 0x40, 0x00, 0x00, 0x00, 0x00, 0x00,
   0x00, 0x00, 0x00, 0x00, 0x40, 0x00, 0x00, 0x00, 0x00, 0x00, 0x00, 0x00,
   0x00, 0x00, 0x00, 0x00, 0x00, 0x00, 0x00, 0x20, 0x00, 0x00, 0x00, 0x00,
   0x00, 0x40, 0x00, 0x00, 0x00, 0x00, 0x00, 0x00, 0x00, 0x00, 0x20, 0x00,
   0x00, 0x00, 0x00, 0x00, 0x20, 0x00, 0x00, 0x00, 0x00, 0x00, 0x00, 0x00,
   0x00, 0x00, 0x00, 0x00, 0x00, 0x00, 0x00, 0x80, 0x00, 0x00, 0x00, 0xfc,
   0x40, 0x78, 0x1c, 0x00, 0x00, 0x00, 0xc0, 0x01, 0x70, 0xc0, 0x41, 0xf0,
   0x38, 0x00, 0x00, 0x00, 0x80, 0xf0, 0x38, 0x00, 0x00, 0x00, 0x80, 0x01,
   0x60, 0x20, 0xf0, 0x38, 0x00, 0x00, 0x00, 0x40, 0x78, 0x1c, 0x00, 0x00,
   0x00, 0xc0, 0x01, 0x70, 0x20, 0x78, 0x1c, 0x00, 0x00, 0x00, 0x20, 0x78,
   0x1c, 0x00, 0x00, 0x00, 0xe0, 0xc0, 0xe3, 0x00, 0x00, 0x00, 0x00, 0x0e,
   0xc0, 0x81, 0xe0, 0x71, 0x00, 0xfc, 0x20, 0x70, 0x04, 0x00, 0x00, 0x00,
   0x20, 0x02, 0x88, 0x30, 0x83, 0xe0, 0x08, 0x00, 0x00, 0x00, 0x00, 0xe0,
   0x08, 0x00, 0x00, 0x00, 0x40, 0x04, 0x98, 0x41, 0xe0, 0x08, 0x00, 0x00,
   0x00, 0x20, 0x70, 0x04, 0x00, 0x00, 0x00, 0x20, 0x02, 0xcc, 0x40, 0x70,
   0x04, 0x00, 0x00, 0x00, 0x10, 0x70, 0x04, 0x00, 0x00, 0x00, 0x98, 0x81,
   0x23, 0x00, 0x00, 0x00, 0x00, 0x11, 0x30, 0x03, 0xc1, 0x11, 0x00, 0xfc,
   0x20, 0x60, 0x02, 0x00, 0x00, 0x00, 0x30, 0x06, 0x8c, 0x31, 0x86, 0xc0,
   0x04, 0x00, 0x00, 0x00, 0x40, 0xc0, 0x04, 0x00, 0x00, 0x00, 0x60, 0x0c,
   0x18, 0x43, 0xc0, 0x04, 0x00, 0x00, 0x00, 0x20, 0x60, 0x02, 0x00, 0x00,
   0x00, 0x30, 0x06, 0x8c, 0x41, 0x60, 0x02, 0x00, 0x00, 0x00, 0x10, 0x60,
   0x02, 0x00, 0x00, 0x00, 0x18, 0x03, 0x13, 0x00, 0x00, 0x00, 0x80, 0x31,
   0x30, 0x06, 0x81, 0x09, 0x00, 0xfc, 0x20, 0xe0, 0x01, 0x00, 0x00, 0x00,
   0x30, 0x06, 0x8c, 0x01, 0x86, 0xc0, 0x03, 0x00, 0x00, 0x02, 0x40, 0xc0,
   0x03, 0x00, 0x00, 0x00, 0x60, 0x0c, 0x18, 0x43, 0xc0, 0x03, 0x00, 0x00,
   0x02, 0x20, 0xe0, 0x01, 0x00, 0x00, 0x00, 0x30, 0x06, 0x80, 0x41, 0xe0,
   0x01, 0x00, 0x00, 0x01, 0x10, 0xe0, 0x01, 0x00, 0x00, 0x01, 0x00, 0x03,
   0x0f, 0x00, 0x00, 0x00, 0x80, 0x31, 0x00, 0x06, 0x81, 0x07, 0x00, 0xfc,
   0x10, 0xc0, 0x01, 0x00, 0x00, 0x00, 0x30, 0x06, 0x8c, 0x01, 0x06, 0x81,
   0x03, 0x00, 0x00, 0x02, 0x00, 0x80, 0x03, 0x00, 0x00, 0x00, 0x60, 0x0c,
   0x00, 0x83, 0x80, 0x03, 0x00, 0x00, 0x02, 0x10, 0xc0, 0x01, 0x00, 0x00,
   0x00, 0x30, 0x06, 0x80, 0x81, 0xc0, 0x01, 0x00, 0x00, 0x01, 0x08, 0xc0,
   0x01, 0x00, 0x00, 0x01, 0x00, 0x03, 0x0e, 0x00, 0x00, 0x00, 0x80, 0x31,
   0x00, 0x06, 0x02, 0x07, 0x00, 0xfc, 0x10, 0x80, 0x01, 0x00, 0x00, 0x00,
   0x30, 0x06, 0x8c, 0x01, 0x03, 0x01, 0x03, 0x00, 0x00, 0x02, 0x20, 0x00,
   0x03, 0x00, 0x00, 0x00, 0x60, 0x0c, 0x80, 0x81, 0x00, 0x03, 0x00, 0x00,
   0x02, 0x10, 0x80, 0x01, 0x00, 0x00, 0x00, 0x30, 0x06, 0xc0, 0x80, 0x80,
   0x01, 0x00, 0x00, 0x01, 0x08, 0x80, 0x01, 0x00, 0x00, 0x01, 0x80, 0x01,
   0x0c, 0x00, 0x00, 0x00, 0x80, 0x31, 0x00, 0x03, 0x02, 0x06, 0x00, 0xfc,
   0x10, 0xc0, 0x03, 0x00, 0x00, 0x00, 0x30, 0x06, 0x8c, 0x81, 0x01, 0x81,
   0x07, 0x00, 0x00, 0x02, 0x20, 0x80, 0x07, 0x00, 0x00, 0x00, 0x60, 0x0c,
   0xc0, 0x80, 0x80, 0x07, 0x00, 0x00, 0x02, 0x10, 0xc0, 0x03, 0x00, 0x00,
   0x00, 0x30, 0x06, 0x60, 0x80, 0xc0, 0x03, 0x00, 0x00, 0x01, 0x08, 0xc0,
   0x03, 0x00, 0x00, 0x01, 0xc0, 0x00, 0x1e, 0x00, 0x00, 0x00, 0x80, 0x31,
   0x80, 0x01, 0x02, 0x0f, 0x00, 0xfc, 0x10, 0x20, 0x07, 0x08, 0xc0, 0x1f,
   0x30, 0x06, 0x8c, 0xc1, 0x00, 0x41, 0x0e, 0x08, 0xe0, 0x3f, 0x20, 0x40,
   0x0e, 0x0c, 0xc0, 0x1f, 0x60, 0x0c, 0x40, 0x80, 0x40, 0x0e, 0x1c, 0xe0,
   0x3f, 0x10, 0x20, 0x07, 0x0c, 0xc0, 0x1f, 0x30, 0x06, 0x30, 0x80, 0x20,
   0x07, 0x06, 0xf0, 0x1f, 0x08, 0x20, 0x07, 0x08, 0xf0, 0x0f, 0x60, 0x00,
   0x39, 0x30, 0x00, 0x7f, 0x80, 0x31, 0xc0, 0x00, 0x82, 0x1c, 0x20, 0xfc,
   0x10, 0x10, 0x06, 0x0c, 0x00, 0x00, 0x30, 0x06, 0x8c, 0x61, 0x04, 0x61,
   0x0c, 0x0c, 0x00, 0x02, 0x20, 0x20, 0x0c, 0x12, 0x00, 0x00, 0x60, 0x0c,
   0x20, 0x82, 0x20, 0x0c, 0x32, 0x00, 0x02, 0x10, 0x10, 0x06, 0x12, 0x00,
   0x00, 0x30, 0x06, 0x18, 0x81, 0x10, 0x06, 0x09, 0x00, 0x01, 0x08, 0x10,
   0x06, 0x0c, 0x00, 0x01, 0x30, 0x82, 0x30, 0x48, 0x00, 0x00, 0x80, 0x31,
   0x60, 0x04, 0x82, 0x18, 0x30, 0xfc, 0x10, 0x18, 0x0e, 0x08, 0x00, 0x00,
   0x20, 0xc2, 0x88, 0xf0, 0x07, 0x31, 0x1c, 0x08, 0x00, 0x02, 0x00, 0x30,
   0x1c, 0x30, 0x00, 0x00, 0x60, 0x84, 0xf0, 0x83, 0x30, 0x1c, 0x30, 0x00,
   0x02, 0x10, 0x18, 0x0e, 0x10, 0x00, 0x00, 0x20, 0xc2, 0xfc, 0x81, 0x18,
   0x0e, 0x08, 0x00, 0x01, 0x08, 0x18, 0x0e, 0x0a, 0x00, 0x01, 0xf8, 0xc3,
   0x70, 0x40, 0x00, 0x00, 0x00, 0x11, 0xf3, 0x07, 0x42, 0x38, 0x28, 0xfc,
   0x20, 0x3c, 0x1e, 0x08, 0x00, 0x00, 0xc0, 0xc1, 0x70, 0xf0, 0x87, 0x78,
   0x3c, 0x08, 0x00, 0x02, 0x40, 0x78, 0x3c, 0x18, 0x00, 0x00, 0x80, 0xc3,
   0xf8, 0x43, 0x78, 0x3c, 0x18, 0x00, 0x02, 0x20, 0x3c, 0x1e, 0x0c, 0x00,
   0x00, 0xc0, 0xc1, 0xfc, 0x41, 0x3c, 0x1e, 0x06, 0x00, 0x01, 0x18, 0x3c,
   0x1e, 0x09, 0x00, 0x01, 0xf8, 0xe3, 0xf1, 0x30, 0x00, 0x00, 0x00, 0x0e,
   0xf3, 0x07, 0xf1, 0xf8, 0x24, 0xfc, 0x20, 0x00, 0x00, 0x08, 0x00, 0x00,
   0x00, 0x00, 0x00, 0x00, 0x80, 0x00, 0x00, 0x08, 0x00, 0x02, 0x40, 0x00,
   0x00, 0x0c, 0x00, 0x00, 0x00, 0x00, 0x00, 0x40, 0x00, 0x00, 0x0c, 0x00,
   0x02, 0x20, 0x00, 0x00, 0x10, 0x00, 0x00, 0x00, 0x00, 0x00, 0x40, 0x00,
   0x00, 0x08, 0x00, 0x01, 0x10, 0x00, 0x00, 0x1f, 0x00, 0x01, 0x00, 0x00,
   0x00, 0x40, 0x00, 0x00, 0x00, 0x00, 0x00, 0x00, 0x01, 0x00, 0x7c, 0xfc,
   0x20, 0x00, 0x00, 0x08, 0x00, 0x00, 0x00, 0x00, 0x00, 0x00, 0x80, 0x00,
   0x00, 0x08, 0x00, 0x00, 0x00, 0x00, 0x00, 0x26, 0x00, 0x00, 0x00, 0x00,
   0x00, 0x40, 0x00, 0x00, 0x26, 0x00, 0x00, 0x20, 0x00, 0x00, 0x12, 0x00,
   0x00, 0x00, 0x00, 0x00, 0x40, 0x00, 0x00, 0x09, 0x00, 0x00, 0x10, 0x00,
   0x00, 0x08, 0x00, 0x00, 0x00, 0x00, 0x00, 0x48, 0x00, 0x00, 0x00, 0x00,
   0x00, 0x80, 0x00, 0x00, 0x20, 0xfc, 0x40, 0x00, 0x00, 0x1c, 0x00, 0x00,
   0x00, 0x00, 0x00, 0x00, 0x40, 0x00, 0x00, 0x1c, 0x00, 0x00, 0x80, 0x00,
   0x00, 0x1e, 0x00, 0x00, 0x00, 0x00, 0x00, 0x20, 0x00, 0x00, 0x1e, 0x00,
   0x00, 0x40, 0x00, 0x00, 0x0c, 0x00, 0x00, 0x00, 0x00, 0x00, 0x20, 0x00,
   0x00, 0x06, 0x00, 0x00, 0x20, 0x00, 0x00, 0x1c, 0x00, 0x00, 0x00, 0x00,
   0x00, 0x30, 0x00, 0x00, 0x00, 0x00, 0x00, 0x80, 0x00, 0x00, 0x70, 0xfc,
   0x40, 0x00, 0x00, 0x00, 0x00, 0x00, 0x00, 0x00, 0x00, 0x00, 0x40, 0x00,
   0x00, 0x00, 0x00, 0x00, 0x00, 0x00, 0x00, 0x00, 0x00, 0x00, 0x00, 0x00,
   0x00, 0x20, 0x00, 0x00, 0x00, 0x00, 0x00, 0x40, 0x00, 0x00, 0x00, 0x00,
   0x00, 0x00, 0x00, 0x00, 0x20, 0x00, 0x00, 0x00, 0x00, 0x00, 0x20, 0x00,
   0x00, 0x00, 0x00, 0x00, 0x00, 0x00, 0x00, 0x00, 0x00, 0x00, 0x00, 0x00,
   0x00, 0x00, 0x00, 0x00, 0x00, 0xfc, 0x00, 0x00, 0x00, 0x00, 0x00, 0x00,
   0x00, 0x00, 0x00, 0x00, 0x00, 0x00, 0x00, 0x00, 0x00, 0x00, 0x00, 0x00,
   0x00, 0x00, 0x00, 0x00, 0x00, 0x00, 0x00, 0x00, 0x00, 0x00, 0x00, 0x00,
   0x00, 0x00, 0x00, 0x00, 0x00, 0x00, 0x00, 0x00, 0x00, 0x00, 0x00, 0x00,
   0x00, 0x00, 0x00, 0x00, 0x00, 0x00, 0x00, 0x00, 0x00, 0x00, 0x00, 0x00,
   0x00, 0x00, 0x00, 0x00, 0x00, 0x00, 0x00, 0x00, 0x00, 0x00, 0x00, 0xfc,
   0x00, 0x00, 0x00, 0x00, 0x00, 0x00, 0x00, 0x00, 0x00, 0x00, 0x00, 0x00,
   0x00, 0x00, 0x00, 0x00, 0x00, 0x00, 0x00, 0x00, 0x00, 0x00, 0x00, 0x00,
   0x00, 0x00, 0x00, 0x00, 0x00, 0x00, 0x00, 0x00, 0x00, 0x00, 0x00, 0x00,
   0x00, 0x00, 0x00, 0x00, 0x00, 0x00, 0x00, 0x00, 0x00, 0x00, 0x00, 0x00,
   0x00, 0x00, 0x00, 0x00, 0x00, 0x00, 0x00, 0x00, 0x00, 0x00, 0x00, 0x00,
   0x00, 0x00, 0x00, 0x00, 0x00, 0xfc, 0x00, 0x00, 0x00, 0x00, 0x00, 0x00,
   0x00, 0x00, 0x00, 0x00, 0x00, 0x00, 0x00, 0x00, 0x00, 0x00, 0x00, 0x00,
   0x00, 0x00, 0x00, 0x00, 0x00, 0x00, 0x00, 0x00, 0x00, 0x00, 0x00, 0x00,
   0x00, 0x00, 0x00, 0x00, 0x00, 0x00, 0x00, 0x00, 0x00, 0x00, 0x00, 0x00,
   0x00, 0x00, 0x00, 0x00, 0x00, 0x00, 0x00, 0x00, 0x00, 0x00, 0x00, 0x00,
   0x00, 0x00, 0x00, 0x00, 0x00, 0x00, 0x00, 0x00, 0x00, 0x00, 0x00, 0xfc,
   0x00, 0x00, 0x00, 0x00, 0x00, 0x00, 0x00, 0x00, 0x00, 0x00, 0x00, 0x00,
   0x00, 0x00, 0x00, 0x00, 0x00, 0x00, 0x00, 0x00, 0x00, 0x00, 0x00, 0x00,
   0x00, 0x00, 0x00, 0x00, 0x00, 0x00, 0x00, 0x00, 0x00, 0x00, 0x00, 0x00,
   0x00, 0x00, 0x00, 0x00, 0x00, 0x00, 0x00, 0x00, 0x00, 0x00, 0x00, 0x00,
   0x00, 0x00, 0x00, 0x00, 0x00, 0x00, 0x00, 0x00, 0x00, 0x00, 0x00, 0x00,
   0x00, 0x00, 0x00, 0x00, 0x00, 0xfc, 0x00, 0x00, 0x00, 0x00, 0x00, 0x00,
   0x00, 0x00, 0x00, 0x00, 0x00, 0x00, 0x00, 0x00, 0x00, 0x00, 0x00, 0x00,
   0x00, 0x00, 0x00, 0x00, 0x00, 0x00, 0x00, 0x00, 0x00, 0x00, 0x00, 0x00,
   0x00, 0x00, 0x00, 0x00, 0x00, 0x00, 0x00, 0x00, 0x00, 0x00, 0x00, 0x00,
   0x00, 0x00, 0x00, 0x00, 0x00, 0x00, 0x00, 0x00, 0x00, 0x00, 0x00, 0x00,
   0x00, 0x00, 0x00, 0x00, 0x00, 0x00, 0x00, 0x00, 0x00, 0x00, 0x00, 0xfc,
   0x00, 0x00, 0x00, 0x00, 0x00, 0x00, 0x00, 0x00, 0x00, 0x00, 0x00, 0x00,
   0x00, 0x00, 0x00, 0x00, 0x00, 0x00, 0x00, 0x00, 0x00, 0x00, 0x00, 0x00,
   0x00, 0x00, 0x00, 0x00, 0x00, 0x00, 0x00, 0x00, 0x00, 0x00, 0x00, 0x00,
   0x00, 0x00, 0x00, 0x00, 0x00, 0x00, 0x00, 0x00, 0x00, 0x00, 0x00, 0x00,
   0x00, 0x00, 0x00, 0x00, 0x00, 0x00, 0x00, 0x00, 0x00, 0x00, 0x00, 0x00,
   0x00, 0x00, 0x00, 0x00, 0x00, 0xfc, 0x00, 0x00, 0x00, 0x00, 0x00, 0x00,
   0x00, 0x00, 0x00, 0x00, 0x00, 0x00, 0x00, 0x00, 0x00, 0x00, 0x00, 0x00,
   0x00, 0x00, 0x00, 0x00, 0x00, 0x00, 0x00, 0x00, 0x00, 0x00, 0x00, 0x00,
   0x00, 0x00, 0x00, 0x00, 0x00, 0x00, 0x00, 0x00, 0x00, 0x00, 0x00, 0x00,
   0x00, 0x00, 0x00, 0x00, 0x00, 0x00, 0x00, 0x00, 0x00, 0x00, 0x00, 0x00,
   0x00, 0x00, 0x00, 0x00, 0x00, 0x00, 0x00, 0x00, 0x00, 0x00, 0x00, 0xfc,
   0x00, 0x00, 0x00, 0x00, 0x00, 0x00, 0x00, 0x00, 0x00, 0x00, 0x00, 0x00,
   0x00, 0x00, 0x00, 0x00, 0x00, 0x00, 0x00, 0x00, 0x00, 0x00, 0x00, 0x00,
   0x00, 0x00, 0x00, 0x00, 0x00, 0x00, 0x00, 0x00, 0x00, 0x00, 0x00, 0x00,
   0x00, 0x00, 0x00, 0x00, 0x00, 0x00, 0x00, 0x00, 0x00, 0x00, 0x00, 0x00,
   0x00, 0x00, 0x00, 0x00, 0x00, 0x00, 0x00, 0x00, 0x00, 0x00, 0x00, 0x00,
   0x00, 0x00, 0x00, 0x00, 0x00, 0xfc, 0x00, 0x00, 0x00, 0x00, 0x00, 0x00,
   0x00, 0x00, 0x00, 0x10, 0x00, 0x00, 0x00, 0x00, 0x00, 0x00, 0x00, 0x00,
   0x08, 0x00, 0x00, 0x00, 0x00, 0x00, 0x10, 0x00, 0x00, 0x00, 0x00, 0x00,
   0x00, 0x00, 0x00, 0x00, 0x00, 0x00, 0x00, 0x00, 0x00, 0x00, 0x10, 0x00,
   0x00, 0x00, 0x00, 0x00, 0x00, 0x00, 0x00, 0x00, 0x00, 0x00, 0x00, 0x00,
   0x00, 0x00, 0x00, 0x00, 0x00, 0x00, 0x00, 0x00, 0x00, 0x00, 0x00, 0xfc,
   0x00, 0x00, 0x00, 0x00, 0x00, 0x00, 0x00, 0x00, 0x00, 0x10, 0x3c, 0x0e,
   0x00, 0x00, 0x00, 0xe0, 0x00, 0x38, 0x08, 0x1e, 0x07, 0x00, 0x00, 0x00,
   0x10, 0x1c, 0x00, 0x07, 0x10, 0x00, 0x00, 0xc0, 0xe3, 0x00, 0x10, 0x3c,
   0x0e, 0x00, 0x00, 0x00, 0x10, 0x38, 0x00, 0x0e, 0x20, 0x00, 0x00, 0x00,
   0x07, 0x8f, 0x03, 0x00, 0x00, 0x00, 0x3c, 0x0e, 0x80, 0xc0, 0xe3, 0x00,
   0x00, 0x00, 0x00, 0x00, 0x00, 0xfc, 0x00, 0x00, 0x00, 0x00, 0x00, 0x00,
   0x00, 0x00, 0x00, 0x08, 0x38, 0x02, 0x00, 0x00, 0x00, 0x10, 0x01, 0x66,
   0x10, 0x1c, 0x01, 0x00, 0x00, 0x00, 0x08, 0x22, 0x80, 0x0c, 0x18, 0x00,
   0x00, 0x80, 0x23, 0x00, 0x00, 0x38, 0x02, 0x00, 0x00, 0x00, 0x08, 0x44,
   0x00, 0x11, 0x30, 0x00, 0x00, 0xc0, 0x0c, 0x8e, 0x00, 0x00, 0x00, 0x00,
   0x38, 0x02, 0x00, 0x80, 0x23, 0x00, 0x00, 0x00, 0x00, 0x00, 0x00, 0xfc,
   0x00, 0x00, 0x00, 0x00, 0x00, 0x00, 0x00, 0x00, 0x00, 0x08, 0x30, 0x01,
   0x00, 0x00, 0x00, 0x18, 0x03, 0xc6, 0x10, 0x98, 0x00, 0x00, 0x00, 0x00,
   0x08, 0x63, 0xc0, 0x18, 0x1c, 0x00, 0x00, 0x00, 0x13, 0x00, 0x20, 0x30,
   0x01, 0x00, 0x00, 0x00, 0x08, 0xc6, 0x80, 0x31, 0x38, 0x00, 0x00, 0xc0,
   0x18, 0x4c, 0x00, 0x00, 0x00, 0x00, 0x30, 0x01, 0x00, 0x01, 0x13, 0x00,
   0x00, 0x00, 0x00, 0x00, 0x00, 0xfc, 0x00, 0x00, 0x00, 0x00, 0x00, 0x00,
   0x00, 0x00, 0x08, 0x08, 0xf0, 0x00, 0x00, 0x00, 0x00, 0x18, 0x03, 0xc0,
   0x10, 0x78, 0x00, 0x00, 0x40, 0x00, 0x0c, 0x63, 0xc0, 0x18, 0x1a, 0x00,
   0x00, 0x00, 0x0f, 0x00, 0x20, 0xf0, 0x00, 0x00, 0x80, 0x00, 0x08, 0xc6,
   0x80, 0x31, 0x34, 0x00, 0x00, 0x00, 0x18, 0x3c, 0x00, 0x00, 0x00, 0x00,
   0xf0, 0x00, 0x00, 0x01, 0x0f, 0x00, 0x00, 0x00, 0x00, 0x00, 0x00, 0xfc,
   0x00, 0x00, 0x00, 0x00, 0x00, 0x00, 0x00, 0x00, 0x08, 0x04, 0xe0, 0x00,
   0x00, 0x00, 0x00, 0x18, 0x03, 0xc0, 0x20, 0x70, 0x00, 0x00, 0x40, 0x00,
   0x04, 0x63, 0xc0, 0x18, 0x1b, 0x00, 0x00, 0x00, 0x0e, 0x00, 0x00, 0xe0,
   0x00, 0x00, 0x80, 0x00, 0x04, 0xc6, 0x80, 0x31, 0x36, 0x00, 0x00, 0x00,
   0x18, 0x38, 0x00, 0x00, 0x00, 0x00, 0xe0, 0x00, 0x00, 0x00, 0x0e, 0x00,
   0x00, 0x00, 0x00, 0x00, 0x00, 0xfc, 0x00, 0x00, 0x00, 0x00, 0x00, 0x00,
   0x00, 0x00, 0x08, 0x04, 0xc0, 0x00, 0x00, 0x00, 0x00, 0x18, 0x03, 0x60,
   0x20, 0x60, 0x00, 0x00, 0x40, 0x00, 0x04, 0x63, 0xc0, 0x98, 0x19, 0x00,
   0x00, 0x00, 0x0c, 0x00, 0x40, 0xc0, 0x00, 0x00, 0x80, 0x00, 0x04, 0xc6,
   0x80, 0x31, 0x33, 0x00, 0x00, 0x00, 0x0c, 0x30, 0x00, 0x00, 0x00, 0x00,
   0xc0, 0x00, 0x00, 0x02, 0x0c, 0x00, 0x00, 0x00, 0x00, 0x00, 0x00, 0xfc,
   0x00, 0x00, 0x00, 0x00, 0x00, 0x00, 0x00, 0x00, 0x08, 0x04, 0xe0, 0x81,
   0x07, 0x00, 0x00, 0x18, 0x03, 0x30, 0x20, 0xf0, 0xc0, 0x03, 0x40, 0x00,
   0x04, 0x63, 0xc0, 0x98, 0x18, 0x00, 0x00, 0x00, 0x1e, 0x30, 0x40, 0xe0,
   0x01, 0x03, 0x80, 0x00, 0x04, 0xc6, 0x80, 0x31, 0x31, 0x00, 0x00, 0x00,
   0x06, 0x78, 0xc0, 0x00, 0x00, 0x00, 0xe0, 0x81, 0x0f, 0x02, 0x1e, 0xf8,
   0x00, 0x00, 0x00, 0x00, 0x00, 0xfc, 0x00, 0x00, 0x00, 0x00, 0x00, 0x00,
   0x00, 0x80, 0xff, 0x04, 0x90, 0x83, 0x00, 0xf0, 0x07, 0x18, 0x03, 0x18,
   0x20, 0xc8, 0x41, 0x00, 0xfc, 0x07, 0x04, 0x63, 0xc0, 0x98, 0x3f, 0xc0,
   0x1f, 0x00, 0x39, 0x48, 0x40, 0x90, 0x83, 0x04, 0xf8, 0x0f, 0x04, 0xc6,
   0x80, 0x31, 0x7f, 0x80, 0x3f, 0x00, 0x03, 0xe4, 0x20, 0x01, 0xfc, 0x01,
   0x90, 0x83, 0x04, 0x02, 0x39, 0x48, 0x00, 0x00, 0x00, 0x00, 0x00, 0xfc,
   0x00, 0x00, 0x00, 0x00, 0x00, 0x00, 0x00, 0x00, 0x08, 0x04, 0x18, 0x83,
   0x03, 0x00, 0x00, 0x18, 0x03, 0x8c, 0x20, 0x84, 0xc1, 0x01, 0x40, 0x00,
   0x04, 0x63, 0xc0, 0x18, 0x18, 0x00, 0x00, 0x80, 0x30, 0x08, 0x40, 0x08,
   0x83, 0x00, 0x80, 0x00, 0x04, 0xc6, 0x80, 0x31, 0x30, 0x00, 0x00, 0x80,
   0x11, 0xc2, 0x20, 0x00, 0x00, 0x00, 0x08, 0x03, 0x02, 0x82, 0x30, 0x20,
   0x00, 0x00, 0x00, 0x00, 0x00, 0xfc, 0x00, 0x00, 0x00, 0x00, 0x00, 0x00,
   0x00, 0x00, 0x08, 0x04, 0x0c, 0x87, 0x04, 0x00, 0x00, 0x10, 0x31, 0xfc,
   0x20, 0x86, 0x43, 0x02, 0x40, 0x00, 0x04, 0x22, 0x86, 0x08, 0x18, 0x00,
   0x00, 0xc0, 0x70, 0x38, 0x40, 0x0c, 0x87, 0x03, 0x80, 0x00, 0x08, 0x44,
   0x0c, 0x11, 0x30, 0x00, 0x00, 0xc0, 0x1f, 0xc3, 0xe1, 0x00, 0x00, 0x00,
   0x0c, 0x07, 0x02, 0xc2, 0x70, 0x20, 0x00, 0x00, 0x00, 0x00, 0x00, 0xfc,
   0x00, 0x00, 0x00, 0x00, 0x00, 0x00, 0x00, 0x00, 0x08, 0x08, 0x1e, 0x1f,
   0x0c, 0x00, 0x00, 0xe0, 0x30, 0xfe, 0x10, 0x8f, 0x07, 0x06, 0x40, 0x00,
   0x08, 0x1c, 0x06, 0x07, 0x3c, 0x00, 0x00, 0xe0, 0xf1, 0x48, 0x20, 0x1e,
   0x8f, 0x04, 0x80, 0x00, 0x08, 0x38, 0x0c, 0x0e, 0x78, 0x00, 0x00, 0xc0,
   0x9f, 0xc7, 0x23, 0x01, 0x00, 0x00, 0x1e, 0x1f, 0x03, 0xe1, 0xf1, 0x30,
   0x00, 0x00, 0x00, 0x00, 0x00, 0xfc, 0x00, 0x00, 0x00, 0x00, 0x00, 0x00,
   0x00, 0x00, 0x08, 0x08, 0x00, 0x80, 0x04, 0x00, 0x00, 0x00, 0x00, 0x00,
   0x10, 0x00, 0x40, 0x02, 0x40, 0x00, 0x08, 0x00, 0x00, 0x00, 0x00, 0x00,
   0x00, 0x00, 0x00, 0x48, 0x20, 0x00, 0x80, 0x04, 0x80, 0x00, 0x08, 0x00,
   0x00, 0x00, 0x00, 0x00, 0x00, 0x00, 0x00, 0x00, 0x20, 0x01, 0x00, 0x00,
   0x00, 0x00, 0x01, 0x01, 0x00, 0x10, 0x00, 0x00, 0x00, 0x00, 0x00, 0xfc,
   0x00, 0x00, 0x00, 0x00, 0x00, 0x00, 0x00, 0x00, 0x00, 0x08, 0x00, 0x00,
   0x03, 0x00, 0x00, 0x00, 0x00, 0x00, 0x10, 0x00, 0x80, 0x01, 0x00, 0x00,
   0x08, 0x00, 0x00, 0x00, 0x00, 0x00, 0x00, 0x00, 0x00, 0x30, 0x00, 0x00,
   0x00, 0x03, 0x00, 0x00, 0x10, 0x00, 0x00, 0x00, 0x00, 0x00, 0x00, 0x00,
   0x00, 0x00, 0xc0, 0x00, 0x00, 0x00, 0x00, 0x00, 0x01, 0x00, 0x00, 0x10,
   0x00, 0x00, 0x00, 0x00, 0x00, 0xfc, 0x00, 0x00, 0x00, 0x00, 0x00, 0x00,
   0x00, 0x00, 0x00, 0x10, 0x00, 0x00, 0x00, 0x00, 0x00, 0x00, 0x00, 0x00,
   0x08, 0x00, 0x00, 0x00, 0x00, 0x00, 0x10, 0x00, 0x00, 0x00, 0x00, 0x00,
   0x00, 0x00, 0x00, 0x00, 0x10, 0x00, 0x00, 0x00, 0x00, 0x00, 0x10, 0x00,
   0x00, 0x00, 0x00, 0x00, 0x00, 0x00, 0x00, 0x00, 0x00, 0x00, 0x00, 0x00,
   0x00, 0x00, 0x80, 0x00, 0x00, 0x00, 0x00, 0x00, 0x00, 0x00, 0x00, 0xfc,
   0x00, 0x00, 0x00, 0x00, 0x00, 0x00, 0x00, 0x00, 0x00, 0x10, 0x00, 0x00,
   0x00, 0x00, 0x00, 0x00, 0x00, 0x00, 0x08, 0x00, 0x00, 0x00, 0x00, 0x00,
   0x10, 0x00, 0x00, 0x00, 0x00, 0x00, 0x00, 0x00, 0x00, 0x00, 0x00, 0x00,
   0x00, 0x00, 0x00, 0x00, 0x00, 0x00, 0x00, 0x00, 0x00, 0x00, 0x00, 0x00,
   0x00, 0x00, 0x00, 0x00, 0x00, 0x00, 0x00, 0x00, 0x00, 0x00, 0x00, 0x00,
   0x00, 0x00, 0x00, 0x00, 0x00, 0xfc, 0x00, 0x00, 0x00, 0x00, 0x00, 0x00,
   0x00, 0x00, 0x00, 0x00, 0x00, 0x00, 0x00, 0x00, 0x00, 0x00, 0x00, 0x00,
   0x00, 0x00, 0x00, 0x00, 0x00, 0x00, 0x00, 0x00, 0x00, 0x00, 0x00, 0x00,
   0x00, 0x00, 0x00, 0x00, 0x00, 0x00, 0x00, 0x00, 0x00, 0x00, 0x00, 0x00,
   0x00, 0x00, 0x00, 0x00, 0x00, 0x00, 0x00, 0x00, 0x00, 0x00, 0x00, 0x00,
   0x00, 0x00, 0x00, 0x00, 0x00, 0x00, 0x00, 0x00, 0x00, 0x00, 0x00, 0xfc};
