#define opt5c3_width 251
#define opt5c3_height 117
static char opt5c3_bits[] = {
   0x00, 0x00, 0x00, 0x00, 0x00, 0x00, 0x00, 0x00, 0x00, 0x00, 0x00, 0x00,
   0x00, 0x00, 0x00, 0x00, 0x00, 0x00, 0x00, 0x00, 0x00, 0x00, 0x00, 0x00,
   0x00, 0x00, 0x00, 0x00, 0x00, 0x00, 0x00, 0xf8, 0x00, 0x00, 0x00, 0x00,
   0x00, 0x00, 0x00, 0x00, 0x00, 0x00, 0x00, 0x00, 0x00, 0x00, 0x00, 0x00,
   0x00, 0x00, 0x00, 0x00, 0x00, 0x00, 0x00, 0x00, 0x00, 0x00, 0x00, 0x00,
   0x00, 0x00, 0x00, 0xf8, 0x00, 0x00, 0x00, 0x00, 0x00, 0x00, 0x00, 0x00,
   0x00, 0x00, 0x00, 0x00, 0x00, 0x00, 0x00, 0x00, 0x01, 0x00, 0x00, 0x00,
   0x00, 0x00, 0x00, 0x00, 0x00, 0x00, 0x00, 0x00, 0x00, 0x00, 0x00, 0xf8,
   0x00, 0x00, 0x00, 0x01, 0x00, 0x00, 0x00, 0x00, 0x00, 0x00, 0x00, 0x00,
   0x00, 0x80, 0x00, 0x80, 0x01, 0x00, 0x00, 0x00, 0x00, 0x00, 0x00, 0x00,
   0x00, 0x00, 0x00, 0x00, 0x00, 0x00, 0x00, 0xf8, 0xc0, 0x00, 0x03, 0x01,
   0x80, 0xc7, 0x00, 0x00, 0x00, 0x00, 0x00, 0x3c, 0x06, 0x80, 0x00, 0x00,
   0x01, 0x00, 0x00, 0x00, 0x00, 0x80, 0xc7, 0x00, 0x00, 0x00, 0x00, 0x0e,
   0xe0, 0x0f, 0x06, 0xf8, 0xf0, 0xc0, 0x83, 0xe0, 0x03, 0x47, 0x00, 0x00,
   0x00, 0x00, 0x1f, 0x38, 0x02, 0x00, 0x01, 0x00, 0x01, 0x00, 0x00, 0x00,
   0x00, 0x00, 0x47, 0x00, 0x00, 0x00, 0x00, 0x11, 0xe0, 0x0f, 0x19, 0xf8,
   0xc0, 0x00, 0x83, 0xe0, 0x00, 0x26, 0x00, 0x00, 0x00, 0x00, 0x0f, 0x30,
   0x01, 0x00, 0xe1, 0x07, 0x01, 0x00, 0x00, 0x01, 0x00, 0x00, 0x26, 0x00,
   0x00, 0x00, 0x80, 0x31, 0x20, 0x84, 0x33, 0xf8, 0xc0, 0x00, 0x83, 0x20,
   0x00, 0x1e, 0x00, 0x00, 0x10, 0x00, 0x01, 0xf0, 0x00, 0x00, 0x01, 0x00,
   0x01, 0x00, 0x00, 0x01, 0x00, 0x00, 0x1e, 0x00, 0x00, 0x00, 0x80, 0x31,
   0x20, 0x02, 0x19, 0xf8, 0xc0, 0x00, 0x43, 0xe0, 0x01, 0x1c, 0x00, 0x00,
   0x10, 0x00, 0x07, 0xe0, 0x00, 0x00, 0x02, 0x80, 0x03, 0x00, 0x00, 0x01,
   0x00, 0x00, 0x1c, 0x00, 0x00, 0x00, 0x80, 0x31, 0x00, 0x02, 0x18, 0xf8,
   0xc0, 0x00, 0x43, 0x20, 0x02, 0x18, 0x00, 0x00, 0x10, 0x00, 0x19, 0xc0,
   0x00, 0x00, 0x02, 0x00, 0x00, 0x00, 0x00, 0x01, 0x00, 0x00, 0x18, 0x00,
   0x00, 0x00, 0x80, 0x31, 0x00, 0x01, 0x0e, 0xf8, 0xc0, 0x00, 0x43, 0x00,
   0x06, 0x3c, 0x00, 0x00, 0x10, 0x00, 0x30, 0xe0, 0x01, 0x00, 0x02, 0x00,
   0x00, 0x00, 0x00, 0x01, 0x00, 0x00, 0x3c, 0x00, 0x00, 0x00, 0x80, 0x31,
   0x00, 0x01, 0x30, 0xf8, 0xc0, 0x00, 0x43, 0x20, 0x06, 0x72, 0x60, 0x00,
   0xff, 0x01, 0x31, 0x90, 0x03, 0x03, 0x02, 0x00, 0x00, 0x00, 0xf0, 0x1f,
   0x00, 0x00, 0x72, 0x40, 0x00, 0xfe, 0x80, 0x31, 0x80, 0x81, 0x30, 0xf8,
   0xc0, 0x00, 0x43, 0x30, 0x06, 0x61, 0x90, 0x00, 0x10, 0x80, 0x31, 0x08,
   0x83, 0x04, 0x02, 0x00, 0x00, 0x00, 0x00, 0x01, 0x00, 0x00, 0x61, 0x60,
   0x00, 0x00, 0x80, 0x31, 0x80, 0x81, 0x31, 0xf8, 0xc0, 0x00, 0x43, 0x10,
   0x83, 0xe1, 0x80, 0x00, 0x10, 0x80, 0x18, 0x0c, 0x07, 0x0c, 0x02, 0x00,
   0x00, 0x00, 0x00, 0x01, 0x00, 0x80, 0xe1, 0x40, 0x00, 0x00, 0x00, 0x11,
   0x86, 0x81, 0x31, 0xf8, 0xf0, 0xc1, 0x87, 0xe0, 0xc1, 0xe3, 0x63, 0x00,
   0x10, 0x00, 0x0f, 0x1e, 0x1f, 0x04, 0x01, 0x00, 0x00, 0x00, 0x00, 0x01,
   0x00, 0xc0, 0xe3, 0x43, 0x00, 0x00, 0x00, 0x0e, 0x86, 0x01, 0x1f, 0xf8,
   0x00, 0x00, 0x80, 0x00, 0x00, 0x00, 0x80, 0x00, 0x10, 0x00, 0x00, 0x00,
   0x00, 0x02, 0x01, 0x00, 0x00, 0x00, 0x00, 0x01, 0x00, 0x00, 0x00, 0x40,
   0x00, 0x00, 0x00, 0x00, 0x00, 0x00, 0x00, 0xf8, 0x00, 0x00, 0x80, 0x00,
   0x00, 0x00, 0x90, 0x00, 0x00, 0x00, 0x00, 0x00, 0x00, 0x09, 0x01, 0x00,
   0x00, 0x00, 0x00, 0x00, 0x00, 0x00, 0x00, 0x40, 0x00, 0x00, 0x00, 0x00,
   0x00, 0x00, 0x00, 0xf8, 0x00, 0x00, 0x00, 0x01, 0x00, 0x00, 0x60, 0x00,
   0x00, 0x00, 0x00, 0x00, 0x80, 0x87, 0x00, 0x00, 0x00, 0x00, 0x00, 0x00,
   0x00, 0x00, 0x00, 0xe0, 0x00, 0x00, 0x00, 0x00, 0x00, 0x00, 0x00, 0xf8,
   0x00, 0x00, 0x00, 0x01, 0x00, 0x00, 0x00, 0x00, 0x00, 0x00, 0x00, 0x00,
   0x00, 0x80, 0x00, 0x00, 0x00, 0x00, 0x00, 0x00, 0x00, 0x00, 0x00, 0x00,
   0x00, 0x00, 0x00, 0x00, 0x00, 0x00, 0x00, 0xf8, 0x00, 0x00, 0x00, 0x00,
   0x00, 0x00, 0x00, 0x00, 0x00, 0x00, 0x00, 0x00, 0x00, 0x00, 0x00, 0x00,
   0x00, 0x00, 0x00, 0x00, 0x00, 0x00, 0x00, 0x00, 0x00, 0x00, 0x00, 0x00,
   0x00, 0x00, 0x00, 0xf8, 0x00, 0x00, 0x00, 0x00, 0x00, 0x00, 0x00, 0x00,
   0x00, 0x00, 0x00, 0x00, 0x00, 0x00, 0x00, 0x00, 0x00, 0x00, 0x00, 0x00,
   0x00, 0x00, 0x00, 0x00, 0x00, 0x00, 0x00, 0x00, 0x00, 0x00, 0x00, 0xf8,
   0x00, 0x00, 0x00, 0x00, 0x00, 0x00, 0x00, 0x00, 0x00, 0x00, 0x00, 0x00,
   0x00, 0x00, 0x00, 0x00, 0x00, 0x00, 0x00, 0x00, 0x00, 0x00, 0x00, 0x00,
   0x00, 0x00, 0x00, 0x00, 0x00, 0x00, 0x00, 0xf8, 0x00, 0x00, 0x00, 0x00,
   0x00, 0x00, 0x00, 0x00, 0x00, 0x00, 0x00, 0x00, 0x00, 0x00, 0x00, 0x00,
   0x00, 0x00, 0x00, 0x00, 0x00, 0x00, 0x00, 0x00, 0x00, 0x00, 0x00, 0x00,
   0x00, 0x00, 0x00, 0xf8, 0x00, 0x00, 0x00, 0x00, 0x00, 0x00, 0x00, 0x00,
   0x00, 0x00, 0x00, 0x00, 0x00, 0x00, 0x00, 0x00, 0x00, 0x00, 0x00, 0x00,
   0x00, 0x00, 0x00, 0x00, 0x00, 0x00, 0x00, 0x00, 0x00, 0x00, 0x00, 0xf8,
   0x00, 0x00, 0x00, 0x00, 0x00, 0x00, 0x00, 0x00, 0x00, 0x00, 0x00, 0x00,
   0x00, 0x00, 0x00, 0x00, 0x00, 0x00, 0x00, 0x00, 0x00, 0x00, 0x00, 0x00,
   0x00, 0x00, 0x00, 0x00, 0x00, 0x00, 0x00, 0xf8, 0x00, 0x00, 0x00, 0x00,
   0x00, 0x00, 0x00, 0x00, 0x00, 0x00, 0x00, 0x00, 0x00, 0x00, 0x00, 0x00,
   0x01, 0x00, 0x00, 0x00, 0x00, 0x00, 0x00, 0x00, 0x00, 0x00, 0x00, 0x00,
   0x00, 0x00, 0x00, 0xf8, 0x00, 0x00, 0x00, 0x00, 0x00, 0x00, 0x00, 0x00,
   0x00, 0x00, 0x00, 0x00, 0x00, 0x00, 0x00, 0x80, 0x01, 0x00, 0x00, 0x00,
   0x00, 0x00, 0x00, 0x00, 0x00, 0x00, 0x00, 0x00, 0x00, 0x00, 0x00, 0xf8,
   0x00, 0x00, 0x00, 0x01, 0x00, 0x00, 0x00, 0x00, 0x00, 0x00, 0x00, 0x00,
   0x00, 0x80, 0x00, 0x00, 0x01, 0x00, 0x00, 0x00, 0x00, 0x00, 0x00, 0x00,
   0x00, 0x00, 0x00, 0x00, 0x00, 0x00, 0x00, 0xf8, 0xc0, 0x80, 0x01, 0x01,
   0x82, 0xc7, 0x00, 0x00, 0x00, 0x00, 0x10, 0x3c, 0x06, 0x80, 0x00, 0x00,
   0x01, 0x00, 0x00, 0x00, 0x00, 0x80, 0xc7, 0x00, 0x00, 0x00, 0x00, 0x0e,
   0x80, 0x03, 0x0c, 0xf8, 0xf0, 0x60, 0x86, 0x00, 0x03, 0x47, 0x00, 0x00,
   0x00, 0x00, 0x18, 0x38, 0x02, 0x00, 0xe1, 0x07, 0x01, 0x00, 0x00, 0x00,
   0x00, 0x00, 0x47, 0x00, 0x00, 0x00, 0x00, 0x11, 0x40, 0x04, 0x33, 0xf8,
   0xc0, 0x60, 0x8c, 0x80, 0x03, 0x26, 0x00, 0x00, 0x00, 0x00, 0x1c, 0x30,
   0x01, 0x00, 0x01, 0x00, 0x01, 0x00, 0x00, 0x00, 0x00, 0x00, 0x26, 0x00,
   0x00, 0x00, 0x80, 0x31, 0x60, 0x8c, 0x31, 0xf8, 0xc0, 0x00, 0x8c, 0xc0,
   0x03, 0x1e, 0x00, 0x00, 0x10, 0x00, 0x1e, 0xf0, 0x00, 0x00, 0x01, 0x80,
   0x03, 0x00, 0x00, 0x01, 0x00, 0x00, 0x1e, 0x00, 0x00, 0x00, 0x80, 0x31,
   0x60, 0x8c, 0x01, 0xf8, 0xc0, 0x00, 0x4c, 0x60, 0x03, 0x1c, 0x00, 0x00,
   0x10, 0x00, 0x1b, 0xe0, 0x00, 0x00, 0x02, 0x00, 0x00, 0x00, 0x00, 0x01,
   0x00, 0x00, 0x1c, 0x00, 0x00, 0x00, 0x80, 0x31, 0x60, 0x8c, 0x0d, 0xf8,
   0xc0, 0x00, 0x46, 0x30, 0x03, 0x18, 0x00, 0x00, 0x10, 0x80, 0x19, 0xc0,
   0x00, 0x00, 0x02, 0x00, 0x00, 0x00, 0x00, 0x01, 0x00, 0x00, 0x18, 0x00,
   0x00, 0x00, 0x80, 0x31, 0x60, 0x8c, 0x33, 0xf8, 0xc0, 0x00, 0x43, 0x10,
   0x03, 0x3c, 0x60, 0x00, 0x10, 0x80, 0x18, 0xe0, 0x01, 0x03, 0x02, 0x00,
   0x00, 0x00, 0x00, 0x01, 0x00, 0x00, 0x3c, 0x40, 0x00, 0x00, 0x80, 0x31,
   0xc0, 0x8f, 0x31, 0xf8, 0xc0, 0x80, 0x41, 0xf0, 0x07, 0x72, 0x90, 0x00,
   0xff, 0x81, 0x3f, 0x90, 0x83, 0x04, 0x02, 0x00, 0x00, 0x00, 0xf0, 0x1f,
   0x00, 0x00, 0x72, 0x60, 0x00, 0xfe, 0x80, 0x31, 0x00, 0x8c, 0x31, 0xf8,
   0xc0, 0xc0, 0x48, 0x00, 0x03, 0x61, 0x80, 0x00, 0x10, 0x00, 0x18, 0x08,
   0x03, 0x0c, 0x02, 0x00, 0x00, 0x00, 0x00, 0x01, 0x00, 0x00, 0x61, 0x40,
   0x00, 0x00, 0x80, 0x31, 0x20, 0x8c, 0x31, 0xf8, 0xc0, 0xe0, 0x4f, 0x00,
   0x83, 0xe1, 0x60, 0x00, 0x10, 0x00, 0x18, 0x0c, 0x07, 0x04, 0x02, 0x00,
   0x00, 0x00, 0x00, 0x01, 0x00, 0x80, 0xe1, 0x40, 0x00, 0x00, 0x00, 0x11,
   0x66, 0x04, 0x31, 0xf8, 0xf0, 0xe1, 0x8f, 0x80, 0xc7, 0xe3, 0x83, 0x00,
   0x10, 0x00, 0x3c, 0x1e, 0x1f, 0x02, 0x01, 0x00, 0x00, 0x00, 0x00, 0x01,
   0x00, 0xc0, 0xe3, 0x43, 0x00, 0x00, 0x00, 0x0e, 0xc6, 0x03, 0x0e, 0xf8,
   0x00, 0x00, 0x80, 0x00, 0x00, 0x00, 0x90, 0x00, 0x10, 0x00, 0x00, 0x00,
   0x00, 0x09, 0x01, 0x00, 0x00, 0x00, 0x00, 0x01, 0x00, 0x00, 0x00, 0x40,
   0x00, 0x00, 0x00, 0x00, 0x00, 0x00, 0x00, 0xf8, 0x00, 0x00, 0x80, 0x00,
   0x00, 0x00, 0x60, 0x00, 0x00, 0x00, 0x00, 0x00, 0x80, 0x07, 0x01, 0x00,
   0x00, 0x00, 0x00, 0x00, 0x00, 0x00, 0x00, 0xe0, 0x00, 0x00, 0x00, 0x00,
   0x00, 0x00, 0x00, 0xf8, 0x00, 0x00, 0x00, 0x01, 0x00, 0x00, 0x00, 0x00,
   0x00, 0x00, 0x00, 0x00, 0x00, 0x80, 0x00, 0x00, 0x00, 0x00, 0x00, 0x00,
   0x00, 0x00, 0x00, 0x00, 0x00, 0x00, 0x00, 0x00, 0x00, 0x00, 0x00, 0xf8,
   0x00, 0x00, 0x00, 0x01, 0x00, 0x00, 0x00, 0x00, 0x00, 0x00, 0x00, 0x00,
   0x00, 0x80, 0x00, 0x00, 0x00, 0x00, 0x00, 0x00, 0x00, 0x00, 0x00, 0x00,
   0x00, 0x00, 0x00, 0x00, 0x00, 0x00, 0x00, 0xf8, 0x00, 0x00, 0x00, 0x00,
   0x00, 0x00, 0x00, 0x00, 0x00, 0x00, 0x00, 0x00, 0x00, 0x00, 0x00, 0x00,
   0x00, 0x00, 0x00, 0x00, 0x00, 0x00, 0x00, 0x00, 0x00, 0x00, 0x00, 0x00,
   0x00, 0x00, 0x00, 0xf8, 0x00, 0x00, 0x00, 0x00, 0x00, 0x00, 0x00, 0x00,
   0x00, 0x00, 0x00, 0x00, 0x00, 0x00, 0x00, 0x00, 0x00, 0x00, 0x00, 0x00,
   0x00, 0x00, 0x00, 0x00, 0x00, 0x00, 0x00, 0x00, 0x00, 0x00, 0x00, 0xf8,
   0x00, 0x00, 0x00, 0x00, 0x00, 0x00, 0x00, 0x00, 0x00, 0x00, 0x00, 0x00,
   0x00, 0x00, 0x00, 0x00, 0x00, 0x00, 0x00, 0x00, 0x00, 0x00, 0x00, 0x00,
   0x00, 0x00, 0x00, 0x00, 0x00, 0x00, 0x00, 0xf8, 0x00, 0x00, 0x00, 0x00,
   0x00, 0x00, 0x00, 0x00, 0x00, 0x00, 0x00, 0x00, 0x00, 0x00, 0x00, 0x00,
   0x00, 0x00, 0x00, 0x00, 0x00, 0x00, 0x00, 0x00, 0x00, 0x00, 0x00, 0x00,
   0x00, 0x00, 0x00, 0xf8, 0x00, 0x00, 0x00, 0x00, 0x00, 0x00, 0x00, 0x00,
   0x00, 0x00, 0x00, 0x00, 0x00, 0x00, 0x00, 0x00, 0x00, 0x00, 0x00, 0x00,
   0x00, 0x00, 0x00, 0x00, 0x00, 0x00, 0x00, 0x00, 0x00, 0x00, 0x00, 0xf8,
   0x00, 0x00, 0x00, 0x00, 0x00, 0x00, 0x00, 0x00, 0x00, 0x00, 0x00, 0x00,
   0x00, 0x00, 0x00, 0x00, 0x00, 0x00, 0x00, 0x00, 0x00, 0x00, 0x00, 0x00,
   0x00, 0x00, 0x00, 0x00, 0x00, 0x00, 0x00, 0xf8, 0x00, 0x00, 0x00, 0x00,
   0x00, 0x00, 0x00, 0x00, 0x00, 0x00, 0x00, 0x00, 0x00, 0x00, 0x00, 0x00,
   0x01, 0x00, 0x00, 0x00, 0x00, 0x00, 0x00, 0x00, 0x00, 0x00, 0x00, 0x00,
   0x00, 0x00, 0x00, 0xf8, 0x00, 0x00, 0x00, 0x00, 0x00, 0x00, 0x00, 0x00,
   0x00, 0x00, 0x00, 0x00, 0x00, 0x00, 0x00, 0x80, 0x01, 0x00, 0x00, 0x00,
   0x00, 0x00, 0x00, 0x00, 0x00, 0x00, 0x00, 0x00, 0x00, 0x00, 0x00, 0xf8,
   0x00, 0x00, 0x00, 0x01, 0x00, 0x00, 0x00, 0x00, 0x00, 0x00, 0x00, 0x00,
   0x00, 0x80, 0x00, 0x00, 0x01, 0x00, 0x00, 0x00, 0x00, 0x00, 0x00, 0x00,
   0x00, 0x00, 0x00, 0x00, 0x00, 0x00, 0x00, 0xf8, 0xc0, 0x80, 0x01, 0xc1,
   0x80, 0xc7, 0x00, 0x00, 0x00, 0x00, 0x06, 0x3c, 0x06, 0x80, 0x00, 0x00,
   0x01, 0x00, 0x00, 0x00, 0x00, 0x80, 0xc7, 0x00, 0x00, 0x00, 0x00, 0x0c,
   0x80, 0x01, 0x10, 0xf8, 0xf0, 0x40, 0x86, 0x20, 0x03, 0x47, 0x00, 0x00,
   0x00, 0x00, 0x19, 0x38, 0x02, 0x00, 0xe1, 0x07, 0x01, 0x00, 0x00, 0x00,
   0x00, 0x00, 0x47, 0x00, 0x00, 0x00, 0x00, 0x0f, 0x40, 0x06, 0x18, 0xf8,
   0xc0, 0xe0, 0x8c, 0x70, 0x06, 0x26, 0x00, 0x00, 0x00, 0x80, 0x33, 0x30,
   0x01, 0x00, 0x01, 0x00, 0x01, 0x00, 0x00, 0x00, 0x00, 0x00, 0x26, 0x00,
   0x00, 0x00, 0x00, 0x0c, 0xe0, 0x0c, 0x1c, 0xf8, 0xc0, 0x40, 0x86, 0x20,
   0x03, 0x1e, 0x00, 0x00, 0x10, 0x00, 0x19, 0xf0, 0x00, 0x00, 0x01, 0x80,
   0x03, 0x00, 0x00, 0x01, 0x00, 0x00, 0x1e, 0x00, 0x00, 0x00, 0x00, 0x0c,
   0x40, 0x06, 0x1e, 0xf8, 0xc0, 0x00, 0x46, 0x00, 0x03, 0x1c, 0x00, 0x00,
   0x10, 0x00, 0x18, 0xe0, 0x00, 0x00, 0x02, 0x00, 0x00, 0x00, 0x00, 0x01,
   0x00, 0x00, 0x1c, 0x00, 0x00, 0x00, 0x00, 0x0c, 0x00, 0x06, 0x1b, 0xf8,
   0xc0, 0x80, 0x43, 0xc0, 0x01, 0x18, 0x00, 0x00, 0x10, 0x00, 0x0e, 0xc0,
   0x00, 0x00, 0x02, 0x00, 0x00, 0x00, 0x00, 0x01, 0x00, 0x00, 0x18, 0x00,
   0x00, 0x00, 0x00, 0x0c, 0x80, 0x83, 0x19, 0xf8, 0xc0, 0x00, 0x4c, 0x00,
   0x06, 0x3c, 0x60, 0x00, 0x10, 0x00, 0x30, 0xe0, 0x01, 0x03, 0x02, 0x00,
   0x00, 0x00, 0x00, 0x01, 0x00, 0x00, 0x3c, 0x40, 0x00, 0x00, 0x00, 0x0c,
   0x00, 0x8c, 0x18, 0xf8, 0xc0, 0x20, 0x4c, 0x10, 0x06, 0x72, 0x90, 0x00,
   0xff, 0x81, 0x30, 0x90, 0x83, 0x04, 0x02, 0x00, 0x00, 0x00, 0xf0, 0x1f,
   0x00, 0x00, 0x72, 0x60, 0x00, 0xfe, 0x00, 0x0c, 0x20, 0x8c, 0x3f, 0xf8,
   0xc0, 0x60, 0x4c, 0x30, 0x06, 0x61, 0x80, 0x00, 0x10, 0x80, 0x31, 0x08,
   0x03, 0x0c, 0x02, 0x00, 0x00, 0x00, 0x00, 0x01, 0x00, 0x00, 0x61, 0x40,
   0x00, 0x00, 0x00, 0x0c, 0x60, 0x0c, 0x18, 0xf8, 0xc0, 0x60, 0x4c, 0x30,
   0x86, 0xe1, 0x60, 0x00, 0x10, 0x80, 0x31, 0x0c, 0x07, 0x04, 0x02, 0x00,
   0x00, 0x00, 0x00, 0x01, 0x00, 0x80, 0xe1, 0x40, 0x00, 0x00, 0x00, 0x0c,
   0x66, 0x0c, 0x18, 0xf8, 0xf0, 0xc1, 0x83, 0xe0, 0xc1, 0xe3, 0x83, 0x00,
   0x10, 0x00, 0x0f, 0x1e, 0x1f, 0x02, 0x01, 0x00, 0x00, 0x00, 0x00, 0x01,
   0x00, 0xc0, 0xe3, 0x43, 0x00, 0x00, 0x00, 0x1f, 0xc6, 0x03, 0x3c, 0xf8,
   0x00, 0x00, 0x80, 0x00, 0x00, 0x00, 0x90, 0x00, 0x10, 0x00, 0x00, 0x00,
   0x00, 0x09, 0x01, 0x00, 0x00, 0x00, 0x00, 0x01, 0x00, 0x00, 0x00, 0x40,
   0x00, 0x00, 0x00, 0x00, 0x00, 0x00, 0x00, 0xf8, 0x00, 0x00, 0x80, 0x00,
   0x00, 0x00, 0x60, 0x00, 0x00, 0x00, 0x00, 0x00, 0x80, 0x07, 0x01, 0x00,
   0x00, 0x00, 0x00, 0x00, 0x00, 0x00, 0x00, 0xe0, 0x00, 0x00, 0x00, 0x00,
   0x00, 0x00, 0x00, 0xf8, 0x00, 0x00, 0x00, 0x01, 0x00, 0x00, 0x00, 0x00,
   0x00, 0x00, 0x00, 0x00, 0x00, 0x80, 0x00, 0x00, 0x00, 0x00, 0x00, 0x00,
   0x00, 0x00, 0x00, 0x00, 0x00, 0x00, 0x00, 0x00, 0x00, 0x00, 0x00, 0xf8,
   0x00, 0x00, 0x00, 0x01, 0x00, 0x00, 0x00, 0x00, 0x00, 0x00, 0x00, 0x00,
   0x00, 0x80, 0x00, 0x00, 0x00, 0x00, 0x00, 0x00, 0x00, 0x00, 0x00, 0x00,
   0x00, 0x00, 0x00, 0x00, 0x00, 0x00, 0x00, 0xf8, 0x00, 0x00, 0x00, 0x00,
   0x00, 0x00, 0x00, 0x00, 0x00, 0x00, 0x00, 0x00, 0x00, 0x00, 0x00, 0x00,
   0x00, 0x00, 0x00, 0x00, 0x00, 0x00, 0x00, 0x00, 0x00, 0x00, 0x00, 0x00,
   0x00, 0x00, 0x00, 0xf8, 0x00, 0x00, 0x00, 0x00, 0x00, 0x00, 0x00, 0x00,
   0x00, 0x00, 0x00, 0x00, 0x00, 0x00, 0x00, 0x00, 0x00, 0x00, 0x00, 0x00,
   0x00, 0x00, 0x00, 0x00, 0x00, 0x00, 0x00, 0x00, 0x00, 0x00, 0x00, 0xf8,
   0x00, 0x00, 0x00, 0x00, 0x00, 0x00, 0x00, 0x00, 0x00, 0x00, 0x00, 0x00,
   0x00, 0x00, 0x00, 0x00, 0x00, 0x00, 0x00, 0x00, 0x00, 0x00, 0x00, 0x00,
   0x00, 0x00, 0x00, 0x00, 0x00, 0x00, 0x00, 0xf8, 0x00, 0x00, 0x00, 0x00,
   0x00, 0x00, 0x00, 0x00, 0x00, 0x00, 0x00, 0x00, 0x00, 0x00, 0x00, 0x00,
   0x00, 0x00, 0x00, 0x00, 0x00, 0x00, 0x00, 0x00, 0x00, 0x00, 0x00, 0x00,
   0x00, 0x00, 0x00, 0xf8, 0x00, 0x00, 0x00, 0x00, 0x00, 0x00, 0x00, 0x00,
   0x00, 0x00, 0x00, 0x00, 0x00, 0x00, 0x00, 0x00, 0x00, 0x00, 0x00, 0x00,
   0x00, 0x00, 0x00, 0x00, 0x00, 0x00, 0x00, 0x00, 0x00, 0x00, 0x00, 0xf8,
   0x00, 0x00, 0x00, 0x00, 0x00, 0x00, 0x00, 0x00, 0x00, 0x00, 0x00, 0x00,
   0x00, 0x00, 0x00, 0x00, 0x01, 0x00, 0x00, 0x00, 0x00, 0x00, 0x00, 0x00,
   0x00, 0x00, 0x00, 0x00, 0x00, 0x00, 0x00, 0xf8, 0x00, 0x00, 0x00, 0x00,
   0x00, 0x00, 0x00, 0x00, 0x00, 0x00, 0x00, 0x00, 0x00, 0x00, 0x00, 0x80,
   0x01, 0x00, 0x00, 0x00, 0x00, 0x00, 0x00, 0x00, 0x00, 0x00, 0x00, 0x00,
   0x00, 0x00, 0x00, 0xf8, 0x00, 0x00, 0x00, 0x01, 0x00, 0x00, 0x00, 0x00,
   0x00, 0x00, 0x00, 0x00, 0x00, 0x80, 0x00, 0x00, 0x01, 0x00, 0x00, 0x00,
   0x00, 0x00, 0x00, 0x00, 0x00, 0x00, 0x00, 0x00, 0x00, 0x00, 0x00, 0xf8,
   0xc0, 0x00, 0x04, 0xc1, 0x80, 0xc7, 0x00, 0x00, 0x00, 0x00, 0x06, 0x3c,
   0x06, 0x80, 0x00, 0x00, 0x01, 0x00, 0x00, 0x00, 0x00, 0x80, 0xc7, 0x00,
   0x00, 0x00, 0x00, 0x06, 0x00, 0x03, 0x00, 0xf8, 0xf0, 0x00, 0x86, 0x30,
   0x03, 0x47, 0x00, 0x00, 0x00, 0x80, 0x19, 0x38, 0x02, 0x00, 0xe1, 0x07,
   0x01, 0x00, 0x00, 0x00, 0x00, 0x00, 0x47, 0x00, 0x00, 0x00, 0x80, 0x19,
   0xc0, 0x03, 0x00, 0xf8, 0xc0, 0x00, 0x87, 0x30, 0x06, 0x26, 0x00, 0x00,
   0x00, 0x80, 0x31, 0x30, 0x01, 0x00, 0x01, 0x00, 0x01, 0x00, 0x00, 0x00,
   0x00, 0x00, 0x26, 0x00, 0x00, 0x00, 0x80, 0x31, 0x00, 0x03, 0x00, 0xf8,
   0xc0, 0x80, 0x87, 0x00, 0x06, 0x1e, 0x00, 0x00, 0x10, 0x00, 0x30, 0xf0,
   0x00, 0x00, 0x01, 0x80, 0x03, 0x00, 0x00, 0x01, 0x00, 0x00, 0x1e, 0x00,
   0x00, 0x00, 0x00, 0x30, 0x00, 0x03, 0x00, 0xf8, 0xc0, 0xc0, 0x46, 0x00,
   0x06, 0x1c, 0x00, 0x00, 0x10, 0x00, 0x30, 0xe0, 0x00, 0x00, 0x02, 0x00,
   0x00, 0x00, 0x00, 0x01, 0x00, 0x00, 0x1c, 0x00, 0x00, 0x00, 0x00, 0x30,
   0x00, 0x03, 0x00, 0xf8, 0xc0, 0x60, 0x46, 0x00, 0x03, 0x18, 0x00, 0x00,
   0x10, 0x00, 0x18, 0xc0, 0x00, 0x00, 0x02, 0x00, 0x00, 0x00, 0x00, 0x01,
   0x00, 0x00, 0x18, 0x00, 0x00, 0x00, 0x00, 0x18, 0x00, 0x03, 0x00, 0xf8,
   0xc0, 0x20, 0x46, 0x80, 0x01, 0x3c, 0x00, 0x00, 0x10, 0x00, 0x0c, 0xe0,
   0x01, 0x00, 0x02, 0x00, 0x00, 0x00, 0x00, 0x01, 0x00, 0x00, 0x3c, 0x00,
   0x00, 0x00, 0x00, 0x0c, 0x00, 0x03, 0x00, 0xf8, 0xc0, 0xe0, 0x4f, 0xc0,
   0x00, 0x72, 0x60, 0x00, 0xff, 0x01, 0x06, 0x90, 0x03, 0x03, 0x02, 0x00,
   0x00, 0x00, 0xf0, 0x1f, 0x00, 0x00, 0x72, 0x40, 0x00, 0xfe, 0x00, 0x06,
   0x00, 0x03, 0x00, 0xf8, 0xc0, 0x00, 0x46, 0x60, 0x04, 0x61, 0x90, 0x00,
   0x10, 0x00, 0x23, 0x08, 0x83, 0x04, 0x02, 0x00, 0x00, 0x00, 0x00, 0x01,
   0x00, 0x00, 0x61, 0x60, 0x00, 0x00, 0x00, 0x23, 0x00, 0x03, 0x00, 0xf8,
   0xc0, 0x00, 0x46, 0xf0, 0x87, 0xe1, 0x80, 0x00, 0x10, 0x80, 0x3f, 0x0c,
   0x07, 0x0c, 0x02, 0x00, 0x00, 0x00, 0x00, 0x01, 0x00, 0x80, 0xe1, 0x40,
   0x00, 0x00, 0x80, 0x3f, 0x06, 0x03, 0x00, 0xf8, 0xf0, 0x01, 0x8f, 0xf0,
   0xc7, 0xe3, 0x63, 0x00, 0x10, 0x80, 0x3f, 0x1e, 0x1f, 0x04, 0x01, 0x00,
   0x00, 0x00, 0x00, 0x01, 0x00, 0xc0, 0xe3, 0x43, 0x00, 0x00, 0x80, 0x3f,
   0xc6, 0x07, 0x00, 0xf8, 0x00, 0x00, 0x80, 0x00, 0x00, 0x00, 0x80, 0x00,
   0x10, 0x00, 0x00, 0x00, 0x00, 0x02, 0x01, 0x00, 0x00, 0x00, 0x00, 0x01,
   0x00, 0x00, 0x00, 0x40, 0x00, 0x00, 0x00, 0x00, 0x00, 0x00, 0x00, 0xf8,
   0x00, 0x00, 0x80, 0x00, 0x00, 0x00, 0x90, 0x00, 0x00, 0x00, 0x00, 0x00,
   0x00, 0x09, 0x01, 0x00, 0x00, 0x00, 0x00, 0x00, 0x00, 0x00, 0x00, 0x40,
   0x00, 0x00, 0x00, 0x00, 0x00, 0x00, 0x00, 0xf8, 0x00, 0x00, 0x00, 0x01,
   0x00, 0x00, 0x60, 0x00, 0x00, 0x00, 0x00, 0x00, 0x80, 0x87, 0x00, 0x00,
   0x00, 0x00, 0x00, 0x00, 0x00, 0x00, 0x00, 0xe0, 0x00, 0x00, 0x00, 0x00,
   0x00, 0x00, 0x00, 0xf8, 0x00, 0x00, 0x00, 0x01, 0x00, 0x00, 0x00, 0x00,
   0x00, 0x00, 0x00, 0x00, 0x00, 0x80, 0x00, 0x00, 0x00, 0x00, 0x00, 0x00,
   0x00, 0x00, 0x00, 0x00, 0x00, 0x00, 0x00, 0x00, 0x00, 0x00, 0x00, 0xf8,
   0x00, 0x00, 0x00, 0x00, 0x00, 0x00, 0x00, 0x00, 0x00, 0x00, 0x00, 0x00,
   0x00, 0x00, 0x00, 0x00, 0x00, 0x00, 0x00, 0x00, 0x00, 0x00, 0x00, 0x00,
   0x00, 0x00, 0x00, 0x00, 0x00, 0x00, 0x00, 0xf8, 0x00, 0x00, 0x00, 0x00,
   0x00, 0x00, 0x00, 0x00, 0x00, 0x00, 0x00, 0x00, 0x00, 0x00, 0x00, 0x00,
   0x00, 0x00, 0x00, 0x00, 0x00, 0x00, 0x00, 0x00, 0x00, 0x00, 0x00, 0x00,
   0x00, 0x00, 0x00, 0xf8, 0x00, 0x00, 0x00, 0x00, 0x00, 0x00, 0x00, 0x00,
   0x00, 0x00, 0x00, 0x00, 0x00, 0x00, 0x00, 0x00, 0x00, 0x00, 0x00, 0x00,
   0x00, 0x00, 0x00, 0x00, 0x00, 0x00, 0x00, 0x00, 0x00, 0x00, 0x00, 0xf8,
   0x00, 0x00, 0x00, 0x00, 0x00, 0x00, 0x00, 0x00, 0x00, 0x00, 0x00, 0x00,
   0x00, 0x00, 0x00, 0x00, 0x00, 0x00, 0x00, 0x00, 0x00, 0x00, 0x00, 0x00,
   0x00, 0x00, 0x00, 0x00, 0x00, 0x00, 0x00, 0xf8, 0x00, 0x00, 0x00, 0x00,
   0x00, 0x00, 0x00, 0x00, 0x00, 0x00, 0x00, 0x00, 0x00, 0x00, 0x00, 0x00,
   0x00, 0x00, 0x00, 0x00, 0x00, 0x00, 0x00, 0x00, 0x00, 0x00, 0x00, 0x00,
   0x00, 0x00, 0x00, 0xf8, 0x00, 0x00, 0x00, 0x00, 0x00, 0x00, 0x00, 0x00,
   0x00, 0x00, 0x00, 0x00, 0x00, 0x00, 0x00, 0x00, 0x00, 0x00, 0x00, 0x00,
   0x00, 0x00, 0x00, 0x00, 0x00, 0x00, 0x00, 0x00, 0x00, 0x00, 0x00, 0xf8,
   0x00, 0x00, 0x00, 0x00, 0x00, 0x00, 0x00, 0x00, 0x00, 0x00, 0x00, 0x00,
   0x00, 0x00, 0x00, 0x00, 0x01, 0x00, 0x00, 0x00, 0x00, 0x00, 0x00, 0x00,
   0x00, 0x00, 0x00, 0x00, 0x00, 0x00, 0x00, 0xf8, 0x00, 0x00, 0x00, 0x00,
   0x00, 0x00, 0x00, 0x00, 0x00, 0x00, 0x00, 0x00, 0x00, 0x00, 0x00, 0x80,
   0x01, 0x00, 0x00, 0x00, 0x00, 0x00, 0x00, 0x00, 0x00, 0x00, 0x00, 0x00,
   0x00, 0x00, 0x00, 0xf8, 0x00, 0x00, 0x00, 0x01, 0x00, 0x00, 0x00, 0x00,
   0x00, 0x00, 0x00, 0x00, 0x00, 0x80, 0x00, 0x00, 0x01, 0x00, 0x00, 0x00,
   0x00, 0x00, 0x00, 0x00, 0x00, 0x00, 0x00, 0x00, 0x00, 0x00, 0x00, 0xf8,
   0xc0, 0x00, 0x00, 0x01, 0x80, 0xc7, 0x00, 0x00, 0x00, 0x00, 0x00, 0x3c,
   0x06, 0x80, 0x00, 0x00, 0x01, 0x00, 0x00, 0x00, 0x00, 0x80, 0xc7, 0x00,
   0x00, 0x00, 0x00, 0x10, 0x80, 0x01, 0x0e, 0xf8, 0xf0, 0xc0, 0x87, 0x00,
   0x00, 0x47, 0x00, 0x00, 0x00, 0x00, 0x00, 0x38, 0x02, 0x00, 0xe1, 0x07,
   0x01, 0x00, 0x00, 0x00, 0x00, 0x00, 0x47, 0x00, 0x00, 0x00, 0x00, 0x18,
   0x40, 0x06, 0x11, 0xf8, 0xc0, 0xc0, 0x83, 0x00, 0x00, 0x26, 0x00, 0x00,
   0x00, 0x00, 0x00, 0x30, 0x01, 0x00, 0x01, 0x00, 0x01, 0x00, 0x00, 0x00,
   0x00, 0x00, 0x26, 0x00, 0x00, 0x00, 0x00, 0x1c, 0xe0, 0x8c, 0x31, 0xf8,
   0xc0, 0x40, 0x80, 0x00, 0x00, 0x1e, 0x00, 0x00, 0x10, 0x00, 0x00, 0xf0,
   0x00, 0x00, 0x01, 0x80, 0x03, 0x00, 0x00, 0x01, 0x00, 0x00, 0x1e, 0x00,
   0x00, 0x00, 0x00, 0x1e, 0x40, 0x86, 0x31, 0xf8, 0xc0, 0xc0, 0x41, 0x00,
   0x00, 0x1c, 0x00, 0x00, 0x10, 0x00, 0x00, 0xe0, 0x00, 0x00, 0x02, 0x00,
   0x00, 0x00, 0x00, 0x01, 0x00, 0x00, 0x1c, 0x00, 0x00, 0x00, 0x00, 0x1b,
   0x00, 0x86, 0x31, 0xf8, 0xc0, 0x40, 0x46, 0x00, 0x00, 0x18, 0x00, 0x00,
   0x10, 0x00, 0x00, 0xc0, 0x00, 0x00, 0x02, 0x00, 0x00, 0x00, 0x00, 0x01,
   0x00, 0x00, 0x18, 0x00, 0x00, 0x00, 0x80, 0x19, 0x80, 0x83, 0x31, 0xf8,
   0xc0, 0x00, 0x4c, 0x00, 0x00, 0x3c, 0x60, 0x00, 0x10, 0x00, 0x00, 0xe0,
   0x01, 0x03, 0x02, 0x00, 0x00, 0x00, 0x00, 0x01, 0x00, 0x00, 0x3c, 0x40,
   0x00, 0x00, 0x80, 0x18, 0x00, 0x0c, 0x3f, 0xf8, 0xc0, 0x40, 0x4c, 0x00,
   0x00, 0x72, 0x90, 0x00, 0xff, 0x01, 0x00, 0x90, 0x83, 0x04, 0x02, 0x00,
   0x00, 0x00, 0xf0, 0x1f, 0x00, 0x00, 0x72, 0x60, 0x00, 0xfe, 0x80, 0x3f,
   0x20, 0x0c, 0x30, 0xf8, 0xc0, 0x60, 0x4c, 0x00, 0x00, 0x61, 0x80, 0x00,
   0x10, 0x00, 0x00, 0x08, 0x03, 0x0c, 0x02, 0x00, 0x00, 0x00, 0x00, 0x01,
   0x00, 0x00, 0x61, 0x40, 0x00, 0x00, 0x00, 0x18, 0x60, 0x8c, 0x30, 0xf8,
   0xc0, 0x20, 0x46, 0x00, 0x80, 0xe1, 0x60, 0x00, 0x10, 0x00, 0x00, 0x0c,
   0x07, 0x04, 0x02, 0x00, 0x00, 0x00, 0x00, 0x01, 0x00, 0x80, 0xe1, 0x40,
   0x00, 0x00, 0x00, 0x18, 0x66, 0x8c, 0x11, 0xf8, 0xf0, 0xc1, 0x83, 0x00,
   0xc0, 0xe3, 0x83, 0x00, 0x10, 0x00, 0x00, 0x1e, 0x1f, 0x02, 0x01, 0x00,
   0x00, 0x00, 0x00, 0x01, 0x00, 0xc0, 0xe3, 0x43, 0x00, 0x00, 0x00, 0x3c,
   0xc6, 0x03, 0x0f, 0xf8, 0x00, 0x00, 0x80, 0x00, 0x00, 0x00, 0x90, 0x00,
   0x10, 0x00, 0x00, 0x00, 0x00, 0x09, 0x01, 0x00, 0x00, 0x00, 0x00, 0x01,
   0x00, 0x00, 0x00, 0x40, 0x00, 0x00, 0x00, 0x00, 0x00, 0x00, 0x00, 0xf8,
   0x00, 0x00, 0x80, 0x00, 0x00, 0x00, 0x60, 0x00, 0x00, 0x00, 0x00, 0x00,
   0x80, 0x07, 0x01, 0x00, 0x00, 0x00, 0x00, 0x00, 0x00, 0x00, 0x00, 0xe0,
   0x00, 0x00, 0x00, 0x00, 0x00, 0x00, 0x00, 0xf8, 0x00, 0x00, 0x00, 0x01,
   0x00, 0x00, 0x00, 0x00, 0x00, 0x00, 0x00, 0x00, 0x00, 0x80, 0x00, 0x00,
   0x00, 0x00, 0x00, 0x00, 0x00, 0x00, 0x00, 0x00, 0x00, 0x00, 0x00, 0x00,
   0x00, 0x00, 0x00, 0xf8, 0x00, 0x00, 0x00, 0x01, 0x00, 0x00, 0x00, 0x00,
   0x00, 0x00, 0x00, 0x00, 0x00, 0x80, 0x00, 0x00, 0x00, 0x00, 0x00, 0x00,
   0x00, 0x00, 0x00, 0x00, 0x00, 0x00, 0x00, 0x00, 0x00, 0x00, 0x00, 0xf8,
   0x00, 0x00, 0x00, 0x00, 0x00, 0x00, 0x00, 0x00, 0x00, 0x00, 0x00, 0x00,
   0x00, 0x00, 0x00, 0x00, 0x00, 0x00, 0x00, 0x00, 0x00, 0x00, 0x00, 0x00,
   0x00, 0x00, 0x00, 0x00, 0x00, 0x00, 0x00, 0xf8, 0x00, 0x00, 0x00, 0x00,
   0x00, 0x00, 0x00, 0x00, 0x00, 0x00, 0x00, 0x00, 0x00, 0x00, 0x00, 0x00,
   0x00, 0x00, 0x00, 0x00, 0x00, 0x00, 0x00, 0x00, 0x00, 0x00, 0x00, 0x00,
   0x00, 0x00, 0x00, 0xf8, 0x00, 0x00, 0x00, 0x00, 0x00, 0x00, 0x00, 0x00,
   0x00, 0x00, 0x00, 0x00, 0x00, 0x00, 0x00, 0x00, 0x00, 0x00, 0x00, 0x00,
   0x00, 0x00, 0x00, 0x00, 0x00, 0x00, 0x00, 0x00, 0x00, 0x00, 0x00, 0xf8};
