#define opt5c1_width 248
#define opt5c1_height 114
static char opt5c1_bits[] = {
   0x00, 0x00, 0x00, 0x00, 0x00, 0x00, 0x00, 0x00, 0x00, 0x00, 0x00, 0x00,
   0x00, 0x00, 0x00, 0x80, 0x00, 0x00, 0x00, 0x00, 0x00, 0x00, 0x00, 0x00,
   0x00, 0x00, 0x00, 0x00, 0x00, 0x00, 0x00, 0x00, 0x00, 0x00, 0x00, 0x00,
   0x00, 0x00, 0x00, 0x00, 0x00, 0x00, 0x00, 0x00, 0x00, 0x00, 0xc0, 0x00,
   0x00, 0x00, 0x00, 0x00, 0x00, 0x00, 0x00, 0x00, 0x00, 0x00, 0x00, 0x00,
   0x00, 0x00, 0x00, 0x00, 0x80, 0x00, 0x00, 0x00, 0x00, 0x00, 0x00, 0x00,
   0x00, 0x00, 0x00, 0x40, 0x00, 0x80, 0x00, 0x00, 0x00, 0x00, 0x00, 0x00,
   0x00, 0x00, 0x00, 0x00, 0x00, 0x00, 0x00, 0x00, 0x00, 0x00, 0x00, 0x80,
   0xf0, 0x18, 0x00, 0x00, 0x00, 0x00, 0x03, 0x00, 0x1e, 0x03, 0x40, 0x00,
   0x80, 0x00, 0x00, 0x00, 0x00, 0x00, 0xc0, 0x63, 0x00, 0x00, 0x00, 0x00,
   0x07, 0x80, 0x01, 0x08, 0x00, 0x00, 0x40, 0xe0, 0x08, 0x00, 0x00, 0x00,
   0xc0, 0x83, 0x0f, 0x1c, 0x01, 0x80, 0xf0, 0x83, 0x00, 0x00, 0x00, 0x00,
   0x00, 0x80, 0x23, 0x00, 0x00, 0x00, 0x80, 0x08, 0xe0, 0x01, 0x0c, 0x00,
   0x00, 0x40, 0xc0, 0x04, 0x00, 0x00, 0x00, 0x00, 0x83, 0x07, 0x98, 0x00,
   0x80, 0x00, 0x80, 0x00, 0x00, 0x00, 0x00, 0x00, 0x00, 0x13, 0x00, 0x00,
   0x00, 0xc0, 0x18, 0x80, 0x01, 0x0e, 0x00, 0x00, 0x40, 0xc0, 0x03, 0x00,
   0x00, 0x04, 0x00, 0x83, 0x00, 0x78, 0x00, 0x80, 0x00, 0xc0, 0x01, 0x00,
   0x80, 0x00, 0x00, 0x00, 0x0f, 0x00, 0x00, 0x00, 0xc0, 0x18, 0x80, 0x01,
   0x0f, 0x00, 0x00, 0x20, 0x80, 0x03, 0x00, 0x00, 0x04, 0x00, 0x83, 0x03,
   0x70, 0x00, 0x00, 0x01, 0x00, 0x00, 0x00, 0x80, 0x00, 0x00, 0x00, 0x0e,
   0x00, 0x00, 0x00, 0xc0, 0x18, 0x80, 0x81, 0x0d, 0x00, 0x00, 0x20, 0x00,
   0x03, 0x00, 0x00, 0x04, 0x00, 0x83, 0x0c, 0x60, 0x00, 0x00, 0x01, 0x00,
   0x00, 0x00, 0x80, 0x00, 0x00, 0x00, 0x0c, 0x00, 0x00, 0x00, 0xc0, 0x18,
   0x80, 0xc1, 0x0c, 0x00, 0x00, 0x20, 0x80, 0x07, 0x00, 0x00, 0x04, 0x00,
   0x03, 0x18, 0xf0, 0x00, 0x00, 0x01, 0x00, 0x00, 0x00, 0x80, 0x00, 0x00,
   0x00, 0x1e, 0x00, 0x00, 0x00, 0xc0, 0x18, 0x80, 0x41, 0x0c, 0x00, 0x00,
   0x20, 0x40, 0x0e, 0x18, 0xc0, 0x7f, 0x00, 0x83, 0x18, 0xc8, 0x81, 0x01,
   0x01, 0x00, 0x00, 0x00, 0xf8, 0x0f, 0x00, 0x00, 0x39, 0x20, 0x00, 0x7f,
   0xc0, 0x18, 0x80, 0xc1, 0x1f, 0x00, 0x00, 0x20, 0x20, 0x0c, 0x24, 0x00,
   0x04, 0x00, 0xc3, 0x18, 0x84, 0x41, 0x02, 0x01, 0x00, 0x00, 0x00, 0x80,
   0x00, 0x00, 0x80, 0x30, 0x30, 0x00, 0x00, 0xc0, 0x18, 0x80, 0x01, 0x0c,
   0x00, 0x00, 0x40, 0x30, 0x1c, 0x20, 0x00, 0x04, 0x00, 0x43, 0x0c, 0x86,
   0x03, 0x06, 0x01, 0x00, 0x00, 0x00, 0x80, 0x00, 0x00, 0xc0, 0x70, 0x20,
   0x00, 0x00, 0x80, 0x08, 0x83, 0x01, 0x0c, 0x00, 0x00, 0x40, 0x78, 0x7c,
   0x18, 0x00, 0x04, 0xc0, 0x87, 0x07, 0x8f, 0x0f, 0x82, 0x00, 0x00, 0x00,
   0x00, 0x80, 0x00, 0x00, 0xe0, 0xf1, 0x21, 0x00, 0x00, 0x00, 0x07, 0xe3,
   0x03, 0x1e, 0x00, 0x00, 0x40, 0x00, 0x00, 0x20, 0x00, 0x04, 0x00, 0x00,
   0x00, 0x00, 0x00, 0x81, 0x00, 0x00, 0x00, 0x00, 0x80, 0x00, 0x00, 0x00,
   0x00, 0x20, 0x00, 0x00, 0x00, 0x00, 0x00, 0x00, 0x00, 0x00, 0x00, 0x80,
   0x00, 0x00, 0x24, 0x00, 0x00, 0x00, 0x00, 0x00, 0x00, 0x80, 0x84, 0x00,
   0x00, 0x00, 0x00, 0x00, 0x00, 0x00, 0x00, 0x00, 0x20, 0x00, 0x00, 0x00,
   0x00, 0x00, 0x00, 0x00, 0x00, 0x00, 0x80, 0x00, 0x00, 0x18, 0x00, 0x00,
   0x00, 0x00, 0x00, 0x00, 0xc0, 0x43, 0x00, 0x00, 0x00, 0x00, 0x00, 0x00,
   0x00, 0x00, 0x00, 0x70, 0x00, 0x00, 0x00, 0x00, 0x00, 0x00, 0x00, 0x00,
   0x00, 0x00, 0x00, 0x00, 0x00, 0x00, 0x00, 0x00, 0x00, 0x00, 0x00, 0x00,
   0x40, 0x00, 0x00, 0x00, 0x00, 0x00, 0x00, 0x00, 0x00, 0x00, 0x00, 0x00,
   0x00, 0x00, 0x00, 0x00, 0x00, 0x00, 0x00, 0x00, 0x00, 0x00, 0x00, 0x00,
   0x00, 0x00, 0x00, 0x00, 0x00, 0x00, 0x00, 0x00, 0x00, 0x00, 0x00, 0x00,
   0x00, 0x00, 0x00, 0x00, 0x00, 0x00, 0x00, 0x00, 0x00, 0x00, 0x00, 0x00,
   0x00, 0x00, 0x00, 0x00, 0x00, 0x00, 0x00, 0x00, 0x00, 0x00, 0x00, 0x00,
   0x00, 0x00, 0x00, 0x00, 0x00, 0x00, 0x00, 0x00, 0x00, 0x00, 0x00, 0x00,
   0x00, 0x00, 0x00, 0x00, 0x00, 0x00, 0x00, 0x00, 0x00, 0x00, 0x00, 0x00,
   0x00, 0x00, 0x00, 0x00, 0x00, 0x00, 0x00, 0x00, 0x00, 0x00, 0x00, 0x00,
   0x00, 0x00, 0x00, 0x00, 0x00, 0x00, 0x00, 0x00, 0x00, 0x00, 0x00, 0x00,
   0x00, 0x00, 0x00, 0x00, 0x00, 0x00, 0x00, 0x00, 0x00, 0x00, 0x00, 0x00,
   0x00, 0x00, 0x00, 0x00, 0x00, 0x00, 0x00, 0x00, 0x00, 0x00, 0x00, 0x00,
   0x00, 0x00, 0x00, 0x00, 0x00, 0x00, 0x00, 0x00, 0x00, 0x00, 0x00, 0x00,
   0x00, 0x00, 0x00, 0x00, 0x00, 0x00, 0x00, 0x00, 0x00, 0x00, 0x00, 0x00,
   0x00, 0x00, 0x00, 0x00, 0x00, 0x00, 0x00, 0x00, 0x00, 0x00, 0x00, 0x00,
   0x00, 0x00, 0x00, 0x00, 0x00, 0x00, 0x00, 0x00, 0x00, 0x00, 0x00, 0x00,
   0x00, 0x00, 0x00, 0x00, 0x00, 0x00, 0x00, 0x00, 0x00, 0x00, 0x00, 0x00,
   0x00, 0x00, 0x00, 0x00, 0x00, 0x00, 0x00, 0x00, 0x00, 0x00, 0x00, 0x00,
   0x00, 0x00, 0x00, 0x00, 0x00, 0x00, 0x00, 0x00, 0x00, 0x00, 0x00, 0x00,
   0x00, 0x00, 0x00, 0x80, 0x00, 0x00, 0x00, 0x00, 0x00, 0x00, 0x00, 0x00,
   0x00, 0x00, 0x00, 0x00, 0x00, 0x00, 0x00, 0x00, 0x00, 0x00, 0x00, 0x00,
   0x00, 0x00, 0x00, 0x00, 0x00, 0x00, 0x00, 0x00, 0x00, 0x00, 0xc0, 0x00,
   0x00, 0x00, 0x00, 0x00, 0x00, 0x00, 0x00, 0x00, 0x00, 0x00, 0x00, 0x00,
   0x00, 0x00, 0x00, 0x40, 0x00, 0x00, 0x00, 0x00, 0x00, 0x00, 0x00, 0x00,
   0x00, 0x00, 0x00, 0x40, 0x00, 0x80, 0x00, 0x00, 0x00, 0x00, 0x00, 0x00,
   0x00, 0x00, 0x00, 0x00, 0x00, 0x00, 0x00, 0x00, 0x00, 0x30, 0x40, 0x30,
   0xf0, 0x18, 0x00, 0x00, 0x00, 0x00, 0x03, 0x08, 0x1e, 0x03, 0x40, 0x00,
   0x80, 0x00, 0x00, 0x00, 0x00, 0x00, 0xc0, 0x63, 0x00, 0x00, 0x00, 0x00,
   0x07, 0x80, 0x01, 0x07, 0xcc, 0x20, 0xcc, 0xe0, 0x08, 0x00, 0x00, 0x00,
   0xc0, 0x03, 0x0c, 0x1c, 0x01, 0x80, 0xf0, 0x83, 0x00, 0x00, 0x00, 0x00,
   0x00, 0x80, 0x23, 0x00, 0x00, 0x00, 0x80, 0x08, 0xe0, 0x81, 0x08, 0x8c,
   0x21, 0x8c, 0xc1, 0x04, 0x00, 0x00, 0x00, 0x00, 0x03, 0x0e, 0x98, 0x00,
   0x80, 0x00, 0x80, 0x00, 0x00, 0x00, 0x00, 0x00, 0x00, 0x13, 0x00, 0x00,
   0x00, 0xc0, 0x18, 0x80, 0xc1, 0x18, 0x80, 0x21, 0x80, 0xc1, 0x03, 0x00,
   0x00, 0x04, 0x00, 0x03, 0x0f, 0x78, 0x00, 0x80, 0x00, 0xc0, 0x01, 0x00,
   0x80, 0x00, 0x00, 0x00, 0x0f, 0x00, 0x00, 0x00, 0xc0, 0x18, 0x80, 0xc1,
   0x09, 0x80, 0x11, 0x80, 0x81, 0x03, 0x00, 0x00, 0x04, 0x00, 0x83, 0x0d,
   0x70, 0x00, 0x00, 0x01, 0x00, 0x00, 0x00, 0x80, 0x00, 0x00, 0x00, 0x0e,
   0x00, 0x00, 0x00, 0xc0, 0x18, 0x80, 0x81, 0x0f, 0xc0, 0x10, 0xc0, 0x00,
   0x03, 0x00, 0x00, 0x04, 0x00, 0xc3, 0x0c, 0x60, 0x00, 0x00, 0x01, 0x00,
   0x00, 0x00, 0x80, 0x00, 0x00, 0x00, 0x0c, 0x00, 0x00, 0x00, 0xc0, 0x18,
   0x80, 0x01, 0x0f, 0x60, 0x10, 0x60, 0x80, 0x07, 0x18, 0x00, 0x04, 0x00,
   0x43, 0x0c, 0xf0, 0x80, 0x01, 0x01, 0x00, 0x00, 0x00, 0x80, 0x00, 0x00,
   0x00, 0x1e, 0x20, 0x00, 0x00, 0xc0, 0x18, 0x80, 0xc1, 0x1c, 0x30, 0x10,
   0x30, 0x40, 0x0e, 0x24, 0xc0, 0x7f, 0x00, 0xc3, 0x1f, 0xc8, 0x41, 0x02,
   0x01, 0x00, 0x00, 0x00, 0xf8, 0x0f, 0x00, 0x00, 0x39, 0x30, 0x00, 0x7f,
   0xc0, 0x18, 0x80, 0x41, 0x18, 0x18, 0x11, 0x18, 0x21, 0x0c, 0x20, 0x00,
   0x04, 0x00, 0x03, 0x0c, 0x84, 0x01, 0x06, 0x01, 0x00, 0x00, 0x00, 0x80,
   0x00, 0x00, 0x80, 0x30, 0x20, 0x00, 0x00, 0xc0, 0x18, 0x80, 0x41, 0x10,
   0xfc, 0x21, 0xfc, 0x31, 0x1c, 0x18, 0x00, 0x04, 0x00, 0x03, 0x0c, 0x86,
   0x03, 0x02, 0x01, 0x00, 0x00, 0x00, 0x80, 0x00, 0x00, 0xc0, 0x70, 0x20,
   0x00, 0x00, 0x80, 0x08, 0x83, 0x41, 0x10, 0xfc, 0x21, 0xfc, 0x79, 0x7c,
   0x20, 0x00, 0x04, 0xc0, 0x07, 0x1e, 0x8f, 0x0f, 0x81, 0x00, 0x00, 0x00,
   0x00, 0x80, 0x00, 0x00, 0xe0, 0xf1, 0x21, 0x00, 0x00, 0x00, 0x07, 0xe3,
   0x83, 0x0f, 0x00, 0x20, 0x00, 0x00, 0x00, 0x24, 0x00, 0x04, 0x00, 0x00,
   0x00, 0x00, 0x80, 0x84, 0x00, 0x00, 0x00, 0x00, 0x80, 0x00, 0x00, 0x00,
   0x00, 0x20, 0x00, 0x00, 0x00, 0x00, 0x00, 0x00, 0x00, 0x00, 0x40, 0x00,
   0x00, 0x00, 0x18, 0x00, 0x00, 0x00, 0x00, 0x00, 0x00, 0xc0, 0x83, 0x00,
   0x00, 0x00, 0x00, 0x00, 0x00, 0x00, 0x00, 0x00, 0x70, 0x00, 0x00, 0x00,
   0x00, 0x00, 0x00, 0x00, 0x00, 0x40, 0x00, 0x00, 0x00, 0x00, 0x00, 0x00,
   0x00, 0x00, 0x00, 0x00, 0x00, 0x40, 0x00, 0x00, 0x00, 0x00, 0x00, 0x00,
   0x00, 0x00, 0x00, 0x00, 0x00, 0x00, 0x00, 0x00, 0x00, 0x00, 0x00, 0x00,
   0x00, 0x00, 0x00, 0x00, 0x00, 0x00, 0x00, 0x00, 0x00, 0x00, 0x00, 0x00,
   0x40, 0x00, 0x00, 0x00, 0x00, 0x00, 0x00, 0x00, 0x00, 0x00, 0x00, 0x00,
   0x00, 0x00, 0x00, 0x00, 0x00, 0x00, 0x00, 0x00, 0x00, 0x00, 0x00, 0x00,
   0x00, 0x00, 0x00, 0x00, 0x00, 0x00, 0x00, 0x00, 0x00, 0x00, 0x00, 0x00,
   0x00, 0x00, 0x00, 0x00, 0x00, 0x00, 0x00, 0x00, 0x00, 0x00, 0x00, 0x00,
   0x00, 0x00, 0x00, 0x00, 0x00, 0x00, 0x00, 0x00, 0x00, 0x00, 0x00, 0x00,
   0x00, 0x00, 0x00, 0x00, 0x00, 0x00, 0x00, 0x00, 0x00, 0x00, 0x00, 0x00,
   0x00, 0x00, 0x00, 0x00, 0x00, 0x00, 0x00, 0x00, 0x00, 0x00, 0x00, 0x00,
   0x00, 0x00, 0x00, 0x00, 0x00, 0x00, 0x00, 0x00, 0x00, 0x00, 0x00, 0x00,
   0x00, 0x00, 0x00, 0x00, 0x00, 0x00, 0x00, 0x00, 0x00, 0x00, 0x00, 0x00,
   0x00, 0x00, 0x00, 0x00, 0x00, 0x00, 0x00, 0x00, 0x00, 0x00, 0x00, 0x00,
   0x00, 0x00, 0x00, 0x00, 0x00, 0x00, 0x00, 0x00, 0x00, 0x00, 0x00, 0x00,
   0x00, 0x00, 0x00, 0x00, 0x00, 0x00, 0x00, 0x00, 0x00, 0x00, 0x00, 0x00,
   0x00, 0x00, 0x00, 0x00, 0x00, 0x00, 0x00, 0x00, 0x00, 0x00, 0x00, 0x00,
   0x00, 0x00, 0x00, 0x00, 0x00, 0x00, 0x00, 0x00, 0x00, 0x00, 0x00, 0x00,
   0x00, 0x00, 0x00, 0x00, 0x00, 0x00, 0x00, 0x00, 0x00, 0x00, 0x00, 0x00,
   0x00, 0x00, 0x00, 0x00, 0x00, 0x00, 0x00, 0x00, 0x80, 0x00, 0x00, 0x00,
   0x00, 0x00, 0x00, 0x00, 0x00, 0x00, 0x00, 0x00, 0x00, 0x00, 0x00, 0x00,
   0x00, 0x00, 0x00, 0x00, 0x00, 0x00, 0x00, 0x00, 0x00, 0x00, 0x00, 0x00,
   0x00, 0x00, 0x00, 0xc0, 0x00, 0x00, 0x00, 0x00, 0x00, 0x00, 0x00, 0x00,
   0x00, 0x00, 0x00, 0x00, 0x00, 0x00, 0x00, 0x00, 0x40, 0x00, 0x00, 0x00,
   0x00, 0x00, 0x00, 0x00, 0x00, 0x00, 0x00, 0x00, 0x40, 0x00, 0x80, 0x00,
   0x00, 0x00, 0x00, 0x00, 0x00, 0x00, 0x00, 0x00, 0x00, 0x00, 0x00, 0x00,
   0x00, 0x00, 0x30, 0x40, 0x30, 0xf0, 0x18, 0x00, 0x00, 0x00, 0x00, 0x03,
   0x03, 0x1e, 0x03, 0x40, 0x00, 0x80, 0x00, 0x00, 0x00, 0x00, 0x00, 0xc0,
   0x63, 0x00, 0x00, 0x00, 0x00, 0x07, 0xc0, 0x00, 0x03, 0xc8, 0x20, 0xc8,
   0xe0, 0x08, 0x00, 0x00, 0x00, 0xc0, 0x83, 0x0c, 0x1c, 0x01, 0x80, 0xf0,
   0x83, 0x00, 0x00, 0x00, 0x00, 0x00, 0x80, 0x23, 0x00, 0x00, 0x00, 0x80,
   0x08, 0x30, 0xc3, 0x0c, 0x9c, 0x21, 0x9c, 0xc1, 0x04, 0x00, 0x00, 0x00,
   0x00, 0xc3, 0x19, 0x98, 0x00, 0x80, 0x00, 0x80, 0x00, 0x00, 0x00, 0x00,
   0x00, 0x00, 0x13, 0x00, 0x00, 0x00, 0xc0, 0x18, 0x30, 0xc6, 0x18, 0xc8,
   0x20, 0xc8, 0xc0, 0x03, 0x00, 0x00, 0x04, 0x00, 0x83, 0x0c, 0x78, 0x00,
   0x80, 0x00, 0xc0, 0x01, 0x00, 0x80, 0x00, 0x00, 0x00, 0x0f, 0x00, 0x00,
   0x00, 0xc0, 0x18, 0x00, 0x06, 0x18, 0xc0, 0x10, 0xc0, 0x80, 0x03, 0x00,
   0x00, 0x04, 0x00, 0x03, 0x0c, 0x70, 0x00, 0x00, 0x01, 0x00, 0x00, 0x00,
   0x80, 0x00, 0x00, 0x00, 0x0e, 0x00, 0x00, 0x00, 0xc0, 0x18, 0x00, 0x06,
   0x18, 0x70, 0x10, 0x70, 0x00, 0x03, 0x00, 0x00, 0x04, 0x00, 0x03, 0x07,
   0x60, 0x00, 0x00, 0x01, 0x00, 0x00, 0x00, 0x80, 0x00, 0x00, 0x00, 0x0c,
   0x00, 0x00, 0x00, 0xc0, 0x18, 0x00, 0x03, 0x0c, 0x80, 0x11, 0x80, 0x81,
   0x07, 0x00, 0x00, 0x04, 0x00, 0x03, 0x18, 0xf0, 0x00, 0x00, 0x01, 0x00,
   0x00, 0x00, 0x80, 0x00, 0x00, 0x00, 0x1e, 0x00, 0x00, 0x00, 0xc0, 0x18,
   0x80, 0x01, 0x06, 0x84, 0x11, 0x84, 0x41, 0x0e, 0x18, 0xc0, 0x7f, 0x00,
   0x43, 0x18, 0xc8, 0x81, 0x01, 0x01, 0x00, 0x00, 0x00, 0xf8, 0x0f, 0x00,
   0x00, 0x39, 0x20, 0x00, 0x7f, 0xc0, 0x18, 0xc0, 0x00, 0x03, 0x8c, 0x11,
   0x8c, 0x21, 0x0c, 0x24, 0x00, 0x04, 0x00, 0xc3, 0x18, 0x84, 0x41, 0x02,
   0x01, 0x00, 0x00, 0x00, 0x80, 0x00, 0x00, 0x80, 0x30, 0x30, 0x00, 0x00,
   0xc0, 0x18, 0x60, 0x84, 0x11, 0x8c, 0x21, 0x8c, 0x31, 0x1c, 0x20, 0x00,
   0x04, 0x00, 0xc3, 0x18, 0x86, 0x03, 0x06, 0x01, 0x00, 0x00, 0x00, 0x80,
   0x00, 0x00, 0xc0, 0x70, 0x20, 0x00, 0x00, 0x80, 0x08, 0xf3, 0xc7, 0x1f,
   0x78, 0x20, 0x78, 0x78, 0x7c, 0x18, 0x00, 0x04, 0xc0, 0x87, 0x07, 0x8f,
   0x0f, 0x82, 0x00, 0x00, 0x00, 0x00, 0x80, 0x00, 0x00, 0xe0, 0xf1, 0x21,
   0x00, 0x00, 0x00, 0x07, 0xf3, 0xc7, 0x1f, 0x00, 0x20, 0x00, 0x00, 0x00,
   0x20, 0x00, 0x04, 0x00, 0x00, 0x00, 0x00, 0x00, 0x81, 0x00, 0x00, 0x00,
   0x00, 0x80, 0x00, 0x00, 0x00, 0x00, 0x20, 0x00, 0x00, 0x00, 0x00, 0x00,
   0x00, 0x00, 0x00, 0x40, 0x00, 0x00, 0x00, 0x24, 0x00, 0x00, 0x00, 0x00,
   0x00, 0x00, 0x80, 0x84, 0x00, 0x00, 0x00, 0x00, 0x00, 0x00, 0x00, 0x00,
   0x00, 0x20, 0x00, 0x00, 0x00, 0x00, 0x00, 0x00, 0x00, 0x00, 0x40, 0x00,
   0x00, 0x00, 0x18, 0x00, 0x00, 0x00, 0x00, 0x00, 0x00, 0xc0, 0x43, 0x00,
   0x00, 0x00, 0x00, 0x00, 0x00, 0x00, 0x00, 0x00, 0x70, 0x00, 0x00, 0x00,
   0x00, 0x00, 0x00, 0x00, 0x00, 0x00, 0x00, 0x00, 0x00, 0x00, 0x00, 0x00,
   0x00, 0x00, 0x00, 0x00, 0x00, 0x40, 0x00, 0x00, 0x00, 0x00, 0x00, 0x00,
   0x00, 0x00, 0x00, 0x00, 0x00, 0x00, 0x00, 0x00, 0x00, 0x00, 0x00, 0x00,
   0x00, 0x00, 0x00, 0x00, 0x00, 0x00, 0x00, 0x00, 0x00, 0x00, 0x00, 0x00,
   0x00, 0x00, 0x00, 0x00, 0x00, 0x00, 0x00, 0x00, 0x00, 0x00, 0x00, 0x00,
   0x00, 0x00, 0x00, 0x00, 0x00, 0x00, 0x00, 0x00, 0x00, 0x00, 0x00, 0x00,
   0x00, 0x00, 0x00, 0x00, 0x00, 0x00, 0x00, 0x00, 0x00, 0x00, 0x00, 0x00,
   0x00, 0x00, 0x00, 0x00, 0x00, 0x00, 0x00, 0x00, 0x00, 0x00, 0x00, 0x00,
   0x00, 0x00, 0x00, 0x00, 0x00, 0x00, 0x00, 0x00, 0x00, 0x00, 0x00, 0x00,
   0x00, 0x00, 0x00, 0x00, 0x00, 0x00, 0x00, 0x00, 0x00, 0x00, 0x00, 0x00,
   0x00, 0x00, 0x00, 0x00, 0x00, 0x00, 0x00, 0x00, 0x00, 0x00, 0x00, 0x00,
   0x00, 0x00, 0x00, 0x00, 0x00, 0x00, 0x00, 0x00, 0x00, 0x00, 0x00, 0x00,
   0x00, 0x00, 0x00, 0x00, 0x00, 0x00, 0x00, 0x00, 0x00, 0x00, 0x00, 0x00,
   0x00, 0x00, 0x00, 0x00, 0x00, 0x00, 0x00, 0x00, 0x00, 0x00, 0x00, 0x00,
   0x00, 0x00, 0x00, 0x00, 0x00, 0x00, 0x00, 0x00, 0x00, 0x00, 0x00, 0x00,
   0x00, 0x00, 0x00, 0x00, 0x00, 0x00, 0x00, 0x00, 0x00, 0x00, 0x00, 0x00,
   0x00, 0x00, 0x00, 0x00, 0x00, 0x00, 0x00, 0x00, 0x00, 0x00, 0x00, 0x00,
   0x00, 0x00, 0x00, 0x00, 0x00, 0x00, 0x00, 0x00, 0x00, 0x00, 0x00, 0x00,
   0x00, 0x00, 0x00, 0x00, 0x00, 0x00, 0x00, 0x00, 0x00, 0x00, 0x00, 0x00,
   0x00, 0x00, 0x00, 0x00, 0x00, 0x00, 0x00, 0x00, 0x80, 0x00, 0x00, 0x00,
   0x00, 0x00, 0x00, 0x00, 0x00, 0x00, 0x00, 0x00, 0x00, 0x00, 0x00, 0x00,
   0x00, 0x00, 0x00, 0x00, 0x00, 0x00, 0x00, 0x00, 0x00, 0x00, 0x00, 0x00,
   0x00, 0x00, 0x00, 0xc0, 0x00, 0x00, 0x00, 0x00, 0x00, 0x00, 0x00, 0x00,
   0x00, 0x00, 0x00, 0x00, 0x00, 0x00, 0x00, 0x00, 0x40, 0x00, 0x00, 0x00,
   0x00, 0x00, 0x00, 0x00, 0x00, 0x00, 0x00, 0x00, 0x40, 0x00, 0x80, 0x00,
   0x00, 0x00, 0x00, 0x00, 0x00, 0x00, 0x00, 0x00, 0x00, 0x00, 0x00, 0x00,
   0x00, 0x00, 0x80, 0x40, 0x80, 0xf0, 0x18, 0x00, 0x00, 0x00, 0x00, 0x03,
   0x03, 0x1e, 0x03, 0x40, 0x00, 0x80, 0x00, 0x00, 0x00, 0x00, 0x00, 0xc0,
   0x63, 0x00, 0x00, 0x00, 0x00, 0x07, 0xc0, 0x00, 0x00, 0xc0, 0x20, 0xc0,
   0xe0, 0x08, 0x00, 0x00, 0x00, 0xc0, 0xc3, 0x0c, 0x1c, 0x01, 0x80, 0xf0,
   0x83, 0x00, 0x00, 0x00, 0x00, 0x00, 0x80, 0x23, 0x00, 0x00, 0x00, 0x80,
   0x08, 0x30, 0x83, 0x0f, 0xe0, 0x20, 0xe0, 0xc0, 0x04, 0x00, 0x00, 0x00,
   0x00, 0xc3, 0x18, 0x98, 0x00, 0x80, 0x00, 0x80, 0x00, 0x00, 0x00, 0x00,
   0x00, 0x00, 0x13, 0x00, 0x00, 0x00, 0xc0, 0x18, 0x30, 0x86, 0x07, 0xf0,
   0x20, 0xf0, 0xc0, 0x03, 0x00, 0x00, 0x04, 0x00, 0x03, 0x18, 0x78, 0x00,
   0x80, 0x00, 0xc0, 0x01, 0x00, 0x80, 0x00, 0x00, 0x00, 0x0f, 0x00, 0x00,
   0x00, 0xc0, 0x18, 0x00, 0x86, 0x00, 0xd8, 0x10, 0xd8, 0x80, 0x03, 0x00,
   0x00, 0x04, 0x00, 0x03, 0x18, 0x70, 0x00, 0x00, 0x01, 0x00, 0x00, 0x00,
   0x80, 0x00, 0x00, 0x00, 0x0e, 0x00, 0x00, 0x00, 0xc0, 0x18, 0x00, 0x86,
   0x03, 0xcc, 0x10, 0xcc, 0x00, 0x03, 0x00, 0x00, 0x04, 0x00, 0x03, 0x0c,
   0x60, 0x00, 0x00, 0x01, 0x00, 0x00, 0x00, 0x80, 0x00, 0x00, 0x00, 0x0c,
   0x00, 0x00, 0x00, 0xc0, 0x18, 0x00, 0x83, 0x0c, 0xc4, 0x10, 0xc4, 0x80,
   0x07, 0x18, 0x00, 0x04, 0x00, 0x03, 0x06, 0xf0, 0x80, 0x01, 0x01, 0x00,
   0x00, 0x00, 0x80, 0x00, 0x00, 0x00, 0x1e, 0x20, 0x00, 0x00, 0xc0, 0x18,
   0x80, 0x01, 0x18, 0xfc, 0x11, 0xfc, 0x41, 0x0e, 0x24, 0xc0, 0x7f, 0x00,
   0x03, 0x03, 0xc8, 0x41, 0x02, 0x01, 0x00, 0x00, 0x00, 0xf8, 0x0f, 0x00,
   0x00, 0x39, 0x30, 0x00, 0x7f, 0xc0, 0x18, 0xc0, 0x80, 0x18, 0xc0, 0x10,
   0xc0, 0x20, 0x0c, 0x20, 0x00, 0x04, 0x00, 0x83, 0x11, 0x84, 0x01, 0x06,
   0x01, 0x00, 0x00, 0x00, 0x80, 0x00, 0x00, 0x80, 0x30, 0x20, 0x00, 0x00,
   0xc0, 0x18, 0x60, 0xc4, 0x18, 0xc0, 0x20, 0xc0, 0x30, 0x1c, 0x18, 0x00,
   0x04, 0x00, 0xc3, 0x1f, 0x86, 0x03, 0x02, 0x01, 0x00, 0x00, 0x00, 0x80,
   0x00, 0x00, 0xc0, 0x70, 0x20, 0x00, 0x00, 0x80, 0x08, 0xf3, 0x47, 0x0c,
   0xe0, 0x21, 0xe0, 0x79, 0x7c, 0x20, 0x00, 0x04, 0xc0, 0xc7, 0x1f, 0x8f,
   0x0f, 0x81, 0x00, 0x00, 0x00, 0x00, 0x80, 0x00, 0x00, 0xe0, 0xf1, 0x21,
   0x00, 0x00, 0x00, 0x07, 0xf3, 0x87, 0x07, 0x00, 0x20, 0x00, 0x00, 0x00,
   0x24, 0x00, 0x04, 0x00, 0x00, 0x00, 0x00, 0x80, 0x84, 0x00, 0x00, 0x00,
   0x00, 0x80, 0x00, 0x00, 0x00, 0x00, 0x20, 0x00, 0x00, 0x00, 0x00, 0x00,
   0x00, 0x00, 0x00, 0x40, 0x00, 0x00, 0x00, 0x18, 0x00, 0x00, 0x00, 0x00,
   0x00, 0x00, 0xc0, 0x83, 0x00, 0x00, 0x00, 0x00, 0x00, 0x00, 0x00, 0x00,
   0x00, 0x70, 0x00, 0x00, 0x00, 0x00, 0x00, 0x00, 0x00, 0x00, 0x40, 0x00,
   0x00, 0x00, 0x00, 0x00, 0x00, 0x00, 0x00, 0x00, 0x00, 0x00, 0x40, 0x00,
   0x00, 0x00, 0x00, 0x00, 0x00, 0x00, 0x00, 0x00, 0x00, 0x00, 0x00, 0x00,
   0x00, 0x00, 0x00, 0x00, 0x00, 0x00, 0x00, 0x00, 0x00, 0x00, 0x00, 0x00,
   0x00, 0x00, 0x00, 0x00, 0x00, 0x40, 0x00, 0x00, 0x00, 0x00, 0x00, 0x00,
   0x00, 0x00, 0x00, 0x00, 0x00, 0x00, 0x00, 0x00, 0x00, 0x00, 0x00, 0x00,
   0x00, 0x00, 0x00, 0x00, 0x00, 0x00, 0x00, 0x00, 0x00, 0x00, 0x00, 0x00,
   0x00, 0x00, 0x00, 0x00, 0x00, 0x00, 0x00, 0x00, 0x00, 0x00, 0x00, 0x00,
   0x00, 0x00, 0x00, 0x00, 0x00, 0x00, 0x00, 0x00, 0x00, 0x00, 0x00, 0x00,
   0x00, 0x00, 0x00, 0x00, 0x00, 0x00, 0x00, 0x00, 0x00, 0x00, 0x00, 0x00,
   0x00, 0x00, 0x00, 0x00, 0x00, 0x00, 0x00, 0x00, 0x00, 0x00, 0x00, 0x00,
   0x00, 0x00, 0x00, 0x00, 0x00, 0x00, 0x00, 0x00, 0x00, 0x00, 0x00, 0x00,
   0x00, 0x00, 0x00, 0x00, 0x00, 0x00, 0x00, 0x00, 0x00, 0x00, 0x00, 0x00,
   0x00, 0x00, 0x00, 0x00, 0x00, 0x00, 0x00, 0x00, 0x00, 0x00, 0x00, 0x00,
   0x00, 0x00, 0x00, 0x00, 0x00, 0x00, 0x00, 0x00, 0x00, 0x00, 0x00, 0x00,
   0x00, 0x00, 0x00, 0x00, 0x00, 0x00, 0x00, 0x00, 0x00, 0x00, 0x00, 0x00,
   0x00, 0x00, 0x00, 0x00, 0x00, 0x00, 0x00, 0x00, 0x00, 0x00, 0x00, 0x00,
   0x00, 0x00, 0x00, 0x00, 0x00, 0x00, 0x00, 0x00, 0x00, 0x00, 0x00, 0x00,
   0x00, 0x00, 0x00, 0x00, 0x00, 0x00, 0x00, 0x00, 0x00, 0x00, 0x00, 0x00,
   0x00, 0x00, 0x00, 0x00, 0x00, 0x00, 0x00, 0x00, 0x00, 0x00, 0x00, 0x00,
   0x00, 0x80, 0x00, 0x00, 0x00, 0x00, 0x00, 0x00, 0x00, 0x00, 0x00, 0x00,
   0x00, 0x00, 0x00, 0x00, 0x00, 0x00, 0x00, 0x00, 0x00, 0x00, 0x00, 0x00,
   0x00, 0x00, 0x00, 0x00, 0x00, 0x00, 0x00, 0x00, 0xc0, 0x00, 0x00, 0x00,
   0x00, 0x00, 0x00, 0x00, 0x00, 0x00, 0x00, 0x00, 0x00, 0x00, 0x00, 0x00,
   0x00, 0x40, 0x00, 0x00, 0x00, 0x00, 0x00, 0x00, 0x00, 0x00, 0x00, 0x00,
   0x00, 0x40, 0x00, 0x80, 0x00, 0x00, 0x00, 0x00, 0x00, 0x00, 0x00, 0x00,
   0x00, 0x00, 0x00, 0x00, 0x00, 0x00, 0x00, 0x00, 0x40, 0x00, 0xf0, 0x18,
   0x00, 0x00, 0x00, 0x00, 0x03, 0x06, 0x1e, 0x03, 0x40, 0x00, 0x80, 0x00,
   0x00, 0x00, 0x00, 0x00, 0xc0, 0x63, 0x00, 0x00, 0x00, 0x00, 0x07, 0xc0,
   0x00, 0x07, 0xf8, 0x20, 0xf8, 0xe0, 0x08, 0x00, 0x00, 0x00, 0xc0, 0x83,
   0x07, 0x1c, 0x01, 0x80, 0xf0, 0x83, 0x00, 0x00, 0x00, 0x00, 0x00, 0x80,
   0x23, 0x00, 0x00, 0x00, 0x80, 0x08, 0x30, 0x83, 0x08, 0x78, 0x20, 0x38,
   0xc0, 0x04, 0x00, 0x00, 0x00, 0x00, 0x03, 0x06, 0x98, 0x00, 0x80, 0x00,
   0x80, 0x00, 0x00, 0x00, 0x00, 0x00, 0x00, 0x13, 0x00, 0x00, 0x00, 0xc0,
   0x18, 0x30, 0xc6, 0x18, 0x08, 0x20, 0x08, 0xc0, 0x03, 0x00, 0x00, 0x04,
   0x00, 0x03, 0x06, 0x78, 0x00, 0x80, 0x00, 0xc0, 0x01, 0x00, 0x80, 0x00,
   0x00, 0x00, 0x0f, 0x00, 0x00, 0x00, 0xc0, 0x18, 0x00, 0xc6, 0x18, 0x38,
   0x10, 0x78, 0x80, 0x03, 0x00, 0x00, 0x04, 0x00, 0x03, 0x06, 0x70, 0x00,
   0x00, 0x01, 0x00, 0x00, 0x00, 0x80, 0x00, 0x00, 0x00, 0x0e, 0x00, 0x00,
   0x00, 0xc0, 0x18, 0x00, 0xc6, 0x18, 0xc8, 0x10, 0x88, 0x00, 0x03, 0x00,
   0x00, 0x04, 0x00, 0x03, 0x06, 0x60, 0x00, 0x00, 0x01, 0x00, 0x00, 0x00,
   0x80, 0x00, 0x00, 0x00, 0x0c, 0x00, 0x00, 0x00, 0xc0, 0x18, 0x00, 0xc3,
   0x18, 0x80, 0x11, 0x80, 0x81, 0x07, 0x00, 0x00, 0x04, 0x00, 0x03, 0x06,
   0xf0, 0x00, 0x00, 0x01, 0x00, 0x00, 0x00, 0x80, 0x00, 0x00, 0x00, 0x1e,
   0x00, 0x00, 0x00, 0xc0, 0x18, 0x80, 0x81, 0x1f, 0x88, 0x11, 0x88, 0x41,
   0x0e, 0x18, 0xc0, 0x7f, 0x00, 0x03, 0x06, 0xc8, 0x81, 0x01, 0x01, 0x00,
   0x00, 0x00, 0xf8, 0x0f, 0x00, 0x00, 0x39, 0x20, 0x00, 0x7f, 0xc0, 0x18,
   0xc0, 0x00, 0x18, 0x8c, 0x11, 0x8c, 0x21, 0x0c, 0x24, 0x00, 0x04, 0x00,
   0x03, 0x06, 0x84, 0x41, 0x02, 0x01, 0x00, 0x00, 0x00, 0x80, 0x00, 0x00,
   0x80, 0x30, 0x30, 0x00, 0x00, 0xc0, 0x18, 0x61, 0x44, 0x18, 0xc4, 0x20,
   0xc4, 0x30, 0x1c, 0x20, 0x00, 0x04, 0x00, 0x03, 0x06, 0x86, 0x03, 0x06,
   0x01, 0x00, 0x00, 0x00, 0x80, 0x00, 0x00, 0xc0, 0x70, 0x20, 0x00, 0x00,
   0x80, 0x08, 0xf3, 0xc7, 0x08, 0x78, 0x20, 0x78, 0x78, 0x7c, 0x18, 0x00,
   0x04, 0xc0, 0x87, 0x0f, 0x8f, 0x0f, 0x82, 0x00, 0x00, 0x00, 0x00, 0x80,
   0x00, 0x00, 0xe0, 0xf1, 0x21, 0x00, 0x00, 0x00, 0x07, 0xf3, 0x87, 0x07,
   0x00, 0x20, 0x00, 0x00, 0x00, 0x20, 0x00, 0x04, 0x00, 0x00, 0x00, 0x00,
   0x00, 0x81, 0x00, 0x00, 0x00, 0x00, 0x80, 0x00, 0x00, 0x00, 0x00, 0x20,
   0x00, 0x00, 0x00, 0x00, 0x00, 0x00, 0x00, 0x00, 0x40, 0x00, 0x00, 0x00,
   0x24, 0x00, 0x00, 0x00, 0x00, 0x00, 0x00, 0x80, 0x84, 0x00, 0x00, 0x00,
   0x00, 0x00, 0x00, 0x00, 0x00, 0x00, 0x20, 0x00, 0x00, 0x00, 0x00, 0x00,
   0x00, 0x00, 0x00, 0x40, 0x00, 0x00, 0x00, 0x18, 0x00, 0x00, 0x00, 0x00,
   0x00, 0x00, 0xc0, 0x43, 0x00, 0x00, 0x00, 0x00, 0x00, 0x00, 0x00, 0x00,
   0x00, 0x70, 0x00, 0x00, 0x00, 0x00, 0x00, 0x00, 0x00, 0x00, 0x00, 0x00,
   0x00, 0x00, 0x00, 0x00, 0x00, 0x00, 0x00, 0x00, 0x00, 0x00, 0x40, 0x00,
   0x00, 0x00, 0x00, 0x00, 0x00, 0x00, 0x00, 0x00, 0x00, 0x00, 0x00, 0x00,
   0x00, 0x00, 0x00, 0x00, 0x00, 0x00, 0x00, 0x00, 0x00, 0x00, 0x00, 0x00,
   0x00, 0x00, 0x00, 0x00, 0x00, 0x00, 0x00, 0x00, 0x00, 0x00, 0x00, 0x00,
   0x00, 0x00, 0x00, 0x00, 0x00, 0x00, 0x00, 0x00, 0x00, 0x00, 0x00, 0x00,
   0x00, 0x00, 0x00, 0x00, 0x00, 0x00, 0x00, 0x00, 0x00, 0x00, 0x00, 0x00,
   0x00, 0x00, 0x00, 0x00, 0x00, 0x00, 0x00, 0x00, 0x00, 0x00, 0x00, 0x00,
   0x00, 0x00, 0x00, 0x00, 0x00, 0x00};
