#define x1_width 81
#define x1_height 22
static char x1_bits[] = {
   0x00, 0x00, 0x00, 0x00, 0x00, 0x00, 0x00, 0x00, 0x00, 0x00, 0xfe, 0x00,
   0x00, 0x00, 0x00, 0x00, 0x00, 0x00, 0x00, 0x00, 0x00, 0xfe, 0x00, 0x00,
   0x00, 0x00, 0x70, 0x00, 0x00, 0x00, 0x00, 0x70, 0xfe, 0x00, 0x00, 0x00,
   0x00, 0x10, 0x00, 0x00, 0x00, 0x00, 0x40, 0xfe, 0x00, 0x00, 0x00, 0x00,
   0x10, 0x1c, 0x00, 0xc0, 0xc0, 0x41, 0xfe, 0x00, 0x00, 0x00, 0x00, 0x10,
   0x22, 0x00, 0xf0, 0x20, 0x42, 0xfe, 0x00, 0x00, 0x00, 0x00, 0x10, 0x63,
   0x00, 0xc0, 0x30, 0x46, 0xfe, 0x00, 0x00, 0x00, 0x00, 0x10, 0x63, 0x00,
   0xc0, 0x30, 0x46, 0xfe, 0x70, 0x06, 0x00, 0x00, 0x10, 0x63, 0x00, 0xc0,
   0x30, 0x46, 0xfe, 0x60, 0x02, 0xf8, 0x1f, 0x10, 0x63, 0x00, 0xc0, 0x30,
   0x46, 0xfe, 0xc0, 0x01, 0x00, 0x00, 0x10, 0x63, 0x00, 0xc0, 0x30, 0x46,
   0xfe, 0x80, 0x01, 0x00, 0x00, 0x10, 0x63, 0x00, 0xc0, 0x30, 0x46, 0xfe,
   0x40, 0x03, 0xf8, 0x1f, 0x10, 0x63, 0x00, 0xc0, 0x30, 0x46, 0xfe, 0x20,
   0x06, 0x00, 0x00, 0x10, 0x22, 0xcc, 0xc0, 0x20, 0x42, 0xfe, 0x30, 0x0e,
   0x00, 0x00, 0x10, 0x1c, 0xcc, 0xf0, 0xc1, 0x41, 0xfe, 0x00, 0x00, 0x00,
   0x00, 0x10, 0x00, 0x00, 0x00, 0x00, 0x40, 0xfe, 0x00, 0x00, 0x00, 0x00,
   0x10, 0x00, 0x00, 0x00, 0x00, 0x40, 0xfe, 0x00, 0x00, 0x00, 0x00, 0x70,
   0x00, 0x00, 0x00, 0x00, 0x70, 0xfe, 0x00, 0x00, 0x00, 0x00, 0x00, 0x00,
   0x00, 0x00, 0x00, 0x00, 0xfe, 0x00, 0x00, 0x00, 0x00, 0x00, 0x00, 0x00,
   0x00, 0x00, 0x00, 0xfe, 0x00, 0x00, 0x00, 0x00, 0x00, 0x00, 0x00, 0x00,
   0x00, 0x00, 0xfe, 0x00, 0x00, 0x00, 0x00, 0x00, 0x00, 0x00, 0x00, 0x00,
   0x00, 0xfe};
