#define y1_width 114
#define y1_height 64
static char y1_bits[] = {
   0x00, 0x00, 0x00, 0x00, 0x00, 0x00, 0x00, 0x00, 0x00, 0x00, 0x00, 0x00,
   0x00, 0x00, 0xfc, 0x00, 0x00, 0x00, 0x00, 0x00, 0x00, 0x00, 0x00, 0x00,
   0x00, 0x00, 0x00, 0x00, 0x00, 0xfc, 0xfc, 0x00, 0x00, 0x00, 0x80, 0x0f,
   0x00, 0x00, 0x00, 0xe0, 0x07, 0x00, 0x00, 0x7c, 0xfc, 0x04, 0x00, 0x00,
   0x00, 0x00, 0x08, 0x00, 0x00, 0x00, 0x20, 0x00, 0x00, 0x00, 0x40, 0xfc,
   0x04, 0x00, 0x00, 0x00, 0x00, 0x08, 0x00, 0x00, 0x00, 0x20, 0x00, 0x00,
   0x00, 0x40, 0xfc, 0x04, 0x00, 0x00, 0x00, 0x00, 0x08, 0x00, 0x00, 0x00,
   0x20, 0x00, 0xc0, 0x00, 0x40, 0xfc, 0x04, 0x00, 0x00, 0x00, 0x00, 0x08,
   0x00, 0x00, 0x00, 0x20, 0x00, 0xf0, 0x00, 0x40, 0xfc, 0x04, 0x00, 0x00,
   0x00, 0x00, 0x08, 0x00, 0x00, 0x00, 0x20, 0x00, 0xc0, 0x00, 0x40, 0xfc,
   0x04, 0x00, 0x00, 0x00, 0x00, 0x08, 0x00, 0x00, 0x00, 0x20, 0x00, 0xc0,
   0x00, 0x40, 0xfc, 0x04, 0x00, 0xc7, 0x00, 0x00, 0x08, 0x00, 0x00, 0x00,
   0x20, 0x00, 0xc0, 0x00, 0x40, 0xfc, 0x04, 0x00, 0x46, 0x00, 0x00, 0x08,
   0x00, 0x00, 0x00, 0x20, 0x00, 0xc0, 0x00, 0x40, 0xfc, 0x04, 0x00, 0x26,
   0x10, 0x00, 0x08, 0x00, 0x00, 0x00, 0x20, 0x00, 0xc0, 0x00, 0x40, 0xfc,
   0x04, 0x00, 0x24, 0x18, 0x00, 0x08, 0x00, 0x00, 0x00, 0x20, 0x00, 0xc0,
   0x00, 0x40, 0xfc, 0x04, 0x00, 0x1c, 0x10, 0x00, 0x08, 0x00, 0x00, 0x00,
   0x20, 0x00, 0xc0, 0x00, 0x40, 0xfc, 0x04, 0x00, 0x18, 0x10, 0x00, 0x08,
   0x00, 0x00, 0x00, 0x20, 0x00, 0xc0, 0x00, 0x40, 0xfc, 0x04, 0x00, 0x08,
   0x10, 0x00, 0x08, 0x00, 0x00, 0x00, 0x20, 0x00, 0xf0, 0x01, 0x40, 0xfc,
   0x04, 0x00, 0x08, 0x10, 0x00, 0x08, 0x00, 0x00, 0x00, 0x20, 0x00, 0x00,
   0x00, 0x40, 0xfc, 0x04, 0x80, 0x09, 0x3c, 0x00, 0x08, 0x00, 0x00, 0x00,
   0x20, 0x00, 0x00, 0x00, 0x40, 0xfc, 0x04, 0x00, 0x07, 0x00, 0x00, 0x08,
   0x00, 0x00, 0x00, 0x20, 0x00, 0x00, 0x00, 0x40, 0xfc, 0x04, 0x00, 0x00,
   0x00, 0x00, 0x08, 0x00, 0x00, 0x00, 0x20, 0x00, 0x00, 0x00, 0x40, 0xfc,
   0x04, 0x00, 0x00, 0x00, 0x00, 0x08, 0x00, 0x00, 0x00, 0x20, 0x00, 0x00,
   0x00, 0x40, 0xfc, 0x04, 0x00, 0x00, 0x00, 0x00, 0x08, 0x00, 0x00, 0x00,
   0x20, 0x00, 0x00, 0x00, 0x40, 0xfc, 0x04, 0x00, 0x00, 0x00, 0x00, 0x08,
   0x00, 0x00, 0x00, 0x20, 0x00, 0x00, 0x00, 0x40, 0xfc, 0x04, 0x00, 0x00,
   0x00, 0x00, 0x08, 0x00, 0x00, 0x00, 0x20, 0x00, 0x00, 0x00, 0x40, 0xfc,
   0x04, 0x00, 0x00, 0x00, 0x00, 0x08, 0x00, 0x00, 0x00, 0x20, 0x00, 0x00,
   0x00, 0x40, 0xfc, 0x04, 0x00, 0x00, 0x00, 0x00, 0x08, 0x00, 0x00, 0x00,
   0x20, 0x00, 0xe0, 0x00, 0x40, 0xfc, 0x04, 0x00, 0x00, 0x00, 0x00, 0x08,
   0x00, 0x00, 0x00, 0x20, 0x00, 0x10, 0x01, 0x40, 0xfc, 0x04, 0x00, 0x00,
   0x00, 0x00, 0x08, 0x00, 0x00, 0x00, 0x20, 0x00, 0x18, 0x03, 0x40, 0xfc,
   0x04, 0x00, 0x00, 0x00, 0x00, 0x08, 0x00, 0x00, 0x00, 0x20, 0x00, 0x18,
   0x03, 0x40, 0xfc, 0x04, 0x00, 0xc7, 0x00, 0x00, 0x08, 0x00, 0x00, 0x00,
   0x20, 0x00, 0x18, 0x03, 0x40, 0xfc, 0x04, 0x00, 0x46, 0x00, 0x00, 0x08,
   0x00, 0xff, 0x03, 0x20, 0x00, 0x18, 0x03, 0x40, 0xfc, 0x04, 0x00, 0x26,
   0x38, 0x00, 0x08, 0x00, 0x00, 0x00, 0x20, 0x00, 0x18, 0x03, 0x40, 0xfc,
   0x04, 0x00, 0x24, 0x64, 0x00, 0x08, 0x00, 0x00, 0x00, 0x20, 0x00, 0x18,
   0x03, 0x40, 0xfc, 0x04, 0x00, 0x1c, 0x20, 0x00, 0x08, 0x00, 0xff, 0x03,
   0x20, 0x00, 0x18, 0x03, 0x40, 0xfc, 0x04, 0x00, 0x18, 0x20, 0x00, 0x08,
   0x00, 0x00, 0x00, 0x20, 0x00, 0x10, 0x01, 0x40, 0xfc, 0x04, 0x00, 0x08,
   0x10, 0x00, 0x08, 0x00, 0x00, 0x00, 0x20, 0x00, 0xe0, 0x00, 0x40, 0xfc,
   0x04, 0x00, 0x08, 0x48, 0x00, 0x08, 0x00, 0x00, 0x00, 0x20, 0x00, 0x00,
   0x00, 0x40, 0xfc, 0x04, 0x80, 0x09, 0x3c, 0x00, 0x08, 0x00, 0x00, 0x00,
   0x20, 0x00, 0x00, 0x00, 0x40, 0xfc, 0x04, 0x00, 0x07, 0x00, 0x00, 0x08,
   0x00, 0x00, 0x00, 0x20, 0x00, 0x00, 0x00, 0x40, 0xfc, 0x04, 0x00, 0x00,
   0x00, 0x00, 0x08, 0x00, 0x00, 0x00, 0x20, 0x00, 0x00, 0x00, 0x40, 0xfc,
   0x04, 0x00, 0x00, 0x00, 0x00, 0x08, 0x00, 0x00, 0x00, 0x20, 0x00, 0x00,
   0x00, 0x40, 0xfc, 0x04, 0x00, 0x00, 0x00, 0x00, 0x08, 0x00, 0x00, 0x00,
   0x20, 0x00, 0x00, 0x00, 0x40, 0xfc, 0x04, 0x00, 0x00, 0x00, 0x00, 0x08,
   0x00, 0x00, 0x00, 0x20, 0x00, 0x00, 0x00, 0x40, 0xfc, 0x04, 0x00, 0x00,
   0x00, 0x00, 0x08, 0x00, 0x00, 0x00, 0x20, 0x00, 0x00, 0x00, 0x40, 0xfc,
   0x04, 0x00, 0x00, 0x00, 0x00, 0x08, 0x00, 0x00, 0x00, 0x20, 0x00, 0x00,
   0x00, 0x40, 0xfc, 0x04, 0x00, 0x00, 0x00, 0x00, 0x08, 0x00, 0x00, 0x00,
   0x20, 0x00, 0xe0, 0x00, 0x40, 0xfc, 0x04, 0x00, 0x00, 0x00, 0x00, 0x08,
   0x00, 0x00, 0x00, 0x20, 0x00, 0x10, 0x01, 0x40, 0xfc, 0x04, 0x00, 0x00,
   0x00, 0x00, 0x08, 0x00, 0x00, 0x00, 0x20, 0x00, 0x18, 0x03, 0x40, 0xfc,
   0x04, 0x00, 0x00, 0x00, 0x00, 0x08, 0x00, 0x00, 0x00, 0x20, 0x00, 0x18,
   0x03, 0x40, 0xfc, 0x04, 0x00, 0xc7, 0x00, 0x00, 0x08, 0x00, 0x00, 0x00,
   0x20, 0x00, 0x18, 0x03, 0x40, 0xfc, 0x04, 0x00, 0x46, 0x00, 0x00, 0x08,
   0x00, 0x00, 0x00, 0x20, 0x00, 0x18, 0x03, 0x40, 0xfc, 0x04, 0x00, 0x26,
   0x38, 0x00, 0x08, 0x00, 0x00, 0x00, 0x20, 0x00, 0x18, 0x03, 0x40, 0xfc,
   0x04, 0x00, 0x24, 0x24, 0x00, 0x08, 0x00, 0x00, 0x00, 0x20, 0x00, 0x18,
   0x03, 0x40, 0xfc, 0x04, 0x00, 0x1c, 0x20, 0x00, 0x08, 0x00, 0x00, 0x00,
   0x20, 0x00, 0x18, 0x03, 0x40, 0xfc, 0x04, 0x00, 0x18, 0x38, 0x00, 0x08,
   0x00, 0x00, 0x00, 0x20, 0x00, 0x10, 0x01, 0x40, 0xfc, 0x04, 0x00, 0x08,
   0x20, 0x00, 0x08, 0x00, 0x00, 0x00, 0x20, 0x00, 0xe0, 0x00, 0x40, 0xfc,
   0x04, 0x00, 0x08, 0x24, 0x00, 0x08, 0x00, 0x00, 0x00, 0x20, 0x00, 0x00,
   0x00, 0x40, 0xfc, 0x04, 0x80, 0x09, 0x3c, 0x00, 0x08, 0x00, 0x00, 0x00,
   0x20, 0x00, 0x00, 0x00, 0x40, 0xfc, 0x04, 0x00, 0x07, 0x00, 0x00, 0x08,
   0x00, 0x00, 0x00, 0x20, 0x00, 0x00, 0x00, 0x40, 0xfc, 0x04, 0x00, 0x00,
   0x00, 0x00, 0x08, 0x00, 0x00, 0x00, 0x20, 0x00, 0x00, 0x00, 0x40, 0xfc,
   0xfc, 0x00, 0x00, 0x00, 0x80, 0x0f, 0x00, 0x00, 0x00, 0xe0, 0x07, 0x00,
   0x00, 0x7c, 0xfc, 0x00, 0x00, 0x00, 0x00, 0x00, 0x00, 0x00, 0x00, 0x00,
   0x00, 0x00, 0x00, 0x00, 0x00, 0xfc, 0x00, 0x00, 0x00, 0x00, 0x00, 0x00,
   0x00, 0x00, 0x00, 0x00, 0x00, 0x00, 0x00, 0x00, 0xfc, 0x00, 0x00, 0x00,
   0x00, 0x00, 0x00, 0x00, 0x00, 0x00, 0x00, 0x00, 0x00, 0x00, 0x00, 0xfc};
