#define y2_width 138
#define y2_height 64
static char y2_bits[] = {
   0x00, 0x00, 0x00, 0x00, 0x00, 0x00, 0x00, 0x00, 0x00, 0x00, 0x00, 0x00,
   0x00, 0x00, 0x00, 0x00, 0x00, 0xfc, 0x00, 0x00, 0x00, 0x00, 0x00, 0x00,
   0x00, 0x00, 0x00, 0x00, 0x00, 0x00, 0x00, 0x00, 0x00, 0x00, 0x00, 0xfc,
   0xf8, 0x01, 0x00, 0x80, 0x0f, 0x00, 0x00, 0xe0, 0x07, 0x00, 0x00, 0x00,
   0x80, 0x0f, 0x00, 0x00, 0x00, 0xfc, 0x08, 0x00, 0x00, 0x00, 0x08, 0x00,
   0x00, 0x20, 0x00, 0x00, 0x00, 0x00, 0x00, 0x08, 0x00, 0x00, 0x00, 0xfc,
   0x08, 0x00, 0x00, 0x00, 0x08, 0x00, 0x00, 0x20, 0x00, 0x70, 0x00, 0x7e,
   0x00, 0x08, 0x00, 0x00, 0x00, 0xfc, 0x08, 0x00, 0x00, 0x00, 0x08, 0x00,
   0x00, 0x20, 0x00, 0x88, 0x00, 0x3e, 0x00, 0x08, 0x00, 0x00, 0x00, 0xfc,
   0x08, 0x00, 0x00, 0x00, 0x08, 0x00, 0x00, 0x20, 0x00, 0x8c, 0x01, 0x02,
   0x00, 0x08, 0x00, 0x00, 0x00, 0xfc, 0x08, 0x00, 0x00, 0x00, 0x08, 0x00,
   0x00, 0x20, 0x00, 0x8c, 0x01, 0x02, 0x00, 0x08, 0x00, 0x00, 0x00, 0xfc,
   0x08, 0xe0, 0x18, 0x00, 0x08, 0x00, 0x00, 0x20, 0x00, 0x8c, 0x01, 0x1e,
   0x00, 0x08, 0x00, 0x00, 0x00, 0xfc, 0x08, 0xc0, 0x08, 0x00, 0x08, 0x00,
   0x00, 0x20, 0x00, 0x8c, 0x01, 0x30, 0x00, 0x08, 0x00, 0x00, 0x00, 0xfc,
   0x08, 0xc0, 0x04, 0x00, 0x08, 0x00, 0x00, 0x20, 0x00, 0x8c, 0x01, 0x60,
   0x00, 0x08, 0x00, 0x00, 0x00, 0xfc, 0x08, 0x80, 0x04, 0x02, 0x08, 0x00,
   0x00, 0x20, 0x00, 0x8c, 0x01, 0x62, 0x00, 0x08, 0x00, 0x00, 0x00, 0xfc,
   0x08, 0x80, 0x03, 0x03, 0x08, 0x00, 0x00, 0x20, 0x00, 0x8c, 0x01, 0x63,
   0x00, 0x08, 0x00, 0x00, 0x00, 0xfc, 0x08, 0x00, 0x03, 0x02, 0x08, 0x00,
   0x00, 0x20, 0x00, 0x88, 0x30, 0x33, 0x00, 0x08, 0x00, 0x00, 0x00, 0xfc,
   0x08, 0x00, 0x01, 0x02, 0x08, 0x00, 0x00, 0x20, 0x00, 0x70, 0x30, 0x1e,
   0x00, 0x08, 0x00, 0x00, 0x00, 0xfc, 0x08, 0x00, 0x01, 0x02, 0x08, 0x00,
   0x00, 0x20, 0x00, 0x00, 0x00, 0x00, 0x00, 0x08, 0x00, 0x00, 0x00, 0xfc,
   0x08, 0x30, 0x01, 0x02, 0x08, 0x00, 0x00, 0x20, 0x00, 0x00, 0x00, 0x00,
   0x00, 0x08, 0x00, 0x00, 0x00, 0xfc, 0x08, 0xe0, 0x80, 0x07, 0x08, 0x00,
   0x00, 0x20, 0x00, 0x00, 0x00, 0x00, 0x00, 0x08, 0x00, 0x00, 0x00, 0xfc,
   0x08, 0x00, 0x00, 0x00, 0x08, 0x00, 0x00, 0x20, 0x00, 0x00, 0x00, 0x00,
   0x00, 0x08, 0x00, 0x00, 0x00, 0xfc, 0x08, 0x00, 0x00, 0x00, 0x08, 0x00,
   0x00, 0x20, 0x00, 0x00, 0x00, 0x00, 0x00, 0x08, 0x00, 0x00, 0x00, 0xfc,
   0x08, 0x00, 0x00, 0x00, 0x08, 0x00, 0x00, 0x20, 0x00, 0x00, 0x00, 0x00,
   0x00, 0x08, 0x00, 0x00, 0x00, 0xfc, 0x08, 0x00, 0x00, 0x00, 0x08, 0x00,
   0x00, 0x20, 0x00, 0x00, 0x00, 0x00, 0x00, 0x08, 0x00, 0x00, 0x00, 0xfc,
   0x08, 0x00, 0x00, 0x00, 0x08, 0x00, 0x00, 0x20, 0x00, 0x00, 0x00, 0x00,
   0x00, 0x08, 0x00, 0x00, 0x00, 0xfc, 0x08, 0x00, 0x00, 0x00, 0x08, 0x00,
   0x00, 0x20, 0x00, 0x00, 0x00, 0x00, 0x00, 0x08, 0x00, 0x00, 0x00, 0xfc,
   0x08, 0x00, 0x00, 0x00, 0x08, 0x00, 0x00, 0x20, 0x00, 0x70, 0x00, 0x7e,
   0x00, 0x08, 0x00, 0x00, 0x00, 0xfc, 0x08, 0x00, 0x00, 0x00, 0x08, 0x00,
   0x00, 0x20, 0x00, 0x88, 0x00, 0x3e, 0x00, 0x08, 0x00, 0x00, 0x00, 0xfc,
   0x08, 0x00, 0x00, 0x00, 0x08, 0x00, 0x00, 0x20, 0x00, 0x8c, 0x01, 0x02,
   0x00, 0x08, 0x00, 0x00, 0x00, 0xfc, 0x08, 0x00, 0x00, 0x00, 0x08, 0x00,
   0x00, 0x20, 0x00, 0x8c, 0x01, 0x02, 0x00, 0x08, 0x00, 0x00, 0x00, 0xfc,
   0x08, 0xe0, 0x18, 0x00, 0x08, 0x00, 0x00, 0x20, 0x00, 0x8c, 0x01, 0x1e,
   0x00, 0x08, 0x00, 0x00, 0x00, 0xfc, 0x08, 0xc0, 0x08, 0x00, 0x08, 0xf0,
   0x3f, 0x20, 0x00, 0x8c, 0x01, 0x30, 0x00, 0x08, 0x00, 0x00, 0x00, 0xfc,
   0x08, 0xc0, 0x04, 0x00, 0x08, 0x00, 0x00, 0x20, 0x00, 0x8c, 0x01, 0x60,
   0x00, 0x08, 0x00, 0x00, 0x00, 0xfc, 0x08, 0x80, 0x04, 0x07, 0x08, 0x00,
   0x00, 0x20, 0x00, 0x8c, 0x01, 0x62, 0x00, 0x08, 0x00, 0x00, 0x00, 0xfc,
   0x08, 0x80, 0x83, 0x0c, 0x08, 0xf0, 0x3f, 0x20, 0x00, 0x8c, 0x01, 0x63,
   0x00, 0x08, 0x00, 0x00, 0x00, 0xfc, 0x08, 0x00, 0x03, 0x04, 0x08, 0x00,
   0x00, 0x20, 0x00, 0x88, 0x30, 0x33, 0x00, 0x08, 0x00, 0x00, 0x00, 0xfc,
   0x08, 0x00, 0x01, 0x04, 0x08, 0x00, 0x00, 0x20, 0x00, 0x70, 0x30, 0x1e,
   0x00, 0x08, 0x00, 0x00, 0x00, 0xfc, 0x08, 0x00, 0x01, 0x02, 0x08, 0x00,
   0x00, 0x20, 0x00, 0x00, 0x00, 0x00, 0x00, 0x08, 0x00, 0x00, 0x00, 0xfc,
   0x08, 0x30, 0x01, 0x09, 0x08, 0x00, 0x00, 0x20, 0x00, 0x00, 0x00, 0x00,
   0x00, 0x08, 0x00, 0x00, 0x00, 0xfc, 0x08, 0xe0, 0x80, 0x07, 0x08, 0x00,
   0x00, 0x20, 0x00, 0x00, 0x00, 0x00, 0x00, 0x08, 0x00, 0x00, 0x00, 0xfc,
   0x08, 0x00, 0x00, 0x00, 0x08, 0x00, 0x00, 0x20, 0x00, 0x00, 0x00, 0x00,
   0x00, 0x08, 0x00, 0x00, 0x00, 0xfc, 0x08, 0x00, 0x00, 0x00, 0x08, 0x00,
   0x00, 0x20, 0x00, 0x00, 0x00, 0x00, 0x00, 0x08, 0x00, 0x00, 0x00, 0xfc,
   0x08, 0x00, 0x00, 0x00, 0x08, 0x00, 0x00, 0x20, 0x00, 0x00, 0x00, 0x00,
   0x00, 0x08, 0x00, 0x00, 0x00, 0xfc, 0x08, 0x00, 0x00, 0x00, 0x08, 0x00,
   0x00, 0x20, 0x00, 0x00, 0x00, 0x00, 0x00, 0x08, 0x00, 0x00, 0x00, 0xfc,
   0x08, 0x00, 0x00, 0x00, 0x08, 0x00, 0x00, 0x20, 0x00, 0x00, 0x00, 0x00,
   0x00, 0x08, 0x00, 0x00, 0x00, 0xfc, 0x08, 0x00, 0x00, 0x00, 0x08, 0x00,
   0x00, 0x20, 0x00, 0x00, 0x00, 0x00, 0x00, 0x08, 0x00, 0x00, 0x00, 0xfc,
   0x08, 0x00, 0x00, 0x00, 0x08, 0x00, 0x00, 0x20, 0x80, 0x03, 0xe0, 0x00,
   0x00, 0x08, 0x00, 0x00, 0x00, 0xfc, 0x08, 0x00, 0x00, 0x00, 0x08, 0x00,
   0x00, 0x20, 0x40, 0x04, 0x90, 0x01, 0x00, 0x08, 0x00, 0x00, 0x00, 0xfc,
   0x08, 0x00, 0x00, 0x00, 0x08, 0x00, 0x00, 0x20, 0x60, 0x0c, 0x18, 0x03,
   0x00, 0x08, 0x00, 0x00, 0x00, 0xfc, 0x08, 0x00, 0x00, 0x00, 0x08, 0x00,
   0x00, 0x20, 0x60, 0x0c, 0x18, 0x03, 0x00, 0x08, 0x00, 0x00, 0x00, 0xfc,
   0x08, 0xe0, 0x18, 0x00, 0x08, 0x00, 0x00, 0x20, 0x60, 0x0c, 0x00, 0xe3,
   0x0f, 0x08, 0x00, 0x00, 0x00, 0xfc, 0x08, 0xc0, 0x08, 0x00, 0x08, 0x00,
   0x00, 0x20, 0x60, 0x0c, 0x80, 0xc1, 0x06, 0x08, 0x00, 0x00, 0x00, 0xfc,
   0x08, 0xc0, 0x04, 0x00, 0x08, 0x00, 0x00, 0x20, 0x60, 0x0c, 0xc0, 0xc0,
   0x06, 0x08, 0x00, 0x00, 0x00, 0xfc, 0x08, 0x80, 0x04, 0x07, 0x08, 0x00,
   0x00, 0x20, 0x60, 0x0c, 0x40, 0x62, 0x06, 0x08, 0x00, 0x00, 0x00, 0xfc,
   0x08, 0x80, 0x83, 0x04, 0x08, 0x00, 0x00, 0x20, 0x60, 0x0c, 0x20, 0x62,
   0x06, 0x08, 0x00, 0x00, 0x00, 0xfc, 0x08, 0x00, 0x03, 0x04, 0x08, 0x00,
   0x00, 0x20, 0x40, 0x84, 0xf1, 0x33, 0x06, 0x08, 0x00, 0x00, 0x00, 0xfc,
   0x08, 0x00, 0x01, 0x07, 0x08, 0x00, 0x00, 0x20, 0x80, 0x83, 0xf9, 0x33,
   0x06, 0x08, 0x00, 0x00, 0x00, 0xfc, 0x08, 0x00, 0x01, 0x04, 0x08, 0x00,
   0x00, 0x20, 0x00, 0x00, 0x00, 0x00, 0x00, 0x08, 0x00, 0x00, 0x00, 0xfc,
   0x08, 0x30, 0x81, 0x04, 0x08, 0x00, 0x00, 0x20, 0x00, 0x00, 0x00, 0x00,
   0x00, 0x08, 0x00, 0x00, 0x00, 0xfc, 0x08, 0xe0, 0x80, 0x07, 0x08, 0x00,
   0x00, 0x20, 0x00, 0x00, 0x00, 0x00, 0x00, 0x08, 0x00, 0x00, 0x00, 0xfc,
   0x08, 0x00, 0x00, 0x00, 0x08, 0x00, 0x00, 0x20, 0x00, 0x00, 0x00, 0x00,
   0x00, 0x08, 0x00, 0x00, 0x00, 0xfc, 0x08, 0x00, 0x00, 0x00, 0x08, 0x00,
   0x00, 0x20, 0x00, 0x00, 0x00, 0x00, 0x00, 0x08, 0x00, 0x00, 0x00, 0xfc,
   0xf8, 0x01, 0x00, 0x80, 0x0f, 0x00, 0x00, 0xe0, 0x07, 0x00, 0x00, 0x00,
   0x80, 0x0f, 0x00, 0x00, 0x00, 0xfc, 0x00, 0x00, 0x00, 0x00, 0x00, 0x00,
   0x00, 0x00, 0x00, 0x00, 0x00, 0x00, 0x00, 0x00, 0x00, 0x00, 0x00, 0xfc,
   0x00, 0x00, 0x00, 0x00, 0x00, 0x00, 0x00, 0x00, 0x00, 0x00, 0x00, 0x00,
   0x00, 0x00, 0x00, 0x00, 0x00, 0xfc, 0x00, 0x00, 0x00, 0x00, 0x00, 0x00,
   0x00, 0x00, 0x00, 0x00, 0x00, 0x00, 0x00, 0x00, 0x00, 0x00, 0x00, 0xfc};
