#define int4_width 114
#define int4_height 45
static char int4_bits[] = {
   0x00, 0x00, 0x00, 0x00, 0x00, 0x00, 0x00, 0x00, 0x00, 0x00, 0x00, 0x00,
   0x00, 0x00, 0xfc, 0x00, 0x00, 0x00, 0x00, 0x00, 0x00, 0x00, 0x00, 0x00,
   0x00, 0x00, 0x00, 0x00, 0x00, 0xfc, 0x00, 0x00, 0x00, 0x0e, 0x00, 0x00,
   0x00, 0x00, 0x00, 0x00, 0x00, 0x00, 0x00, 0x00, 0xfc, 0x00, 0x00, 0x18,
   0x19, 0x00, 0x00, 0x00, 0x00, 0x00, 0x00, 0x00, 0x00, 0x00, 0x00, 0xfc,
   0x00, 0x00, 0x14, 0x08, 0x00, 0x00, 0x00, 0x00, 0x00, 0x00, 0x00, 0x00,
   0x00, 0x00, 0xfc, 0x00, 0x00, 0x06, 0x08, 0x00, 0x00, 0x00, 0x00, 0x00,
   0x00, 0x00, 0x00, 0x00, 0x00, 0xfc, 0x00, 0x00, 0x02, 0x04, 0x00, 0x00,
   0x00, 0x1e, 0x00, 0x00, 0x00, 0x00, 0x00, 0x00, 0xfc, 0x00, 0x00, 0x02,
   0x12, 0x00, 0x00, 0x00, 0x18, 0x00, 0x00, 0x00, 0x00, 0x00, 0x00, 0xfc,
   0x00, 0x00, 0x02, 0x0f, 0x00, 0x00, 0x00, 0x18, 0x00, 0x00, 0x00, 0x00,
   0x00, 0x00, 0xfc, 0x00, 0x00, 0x03, 0x00, 0x00, 0x00, 0x00, 0x18, 0x00,
   0x00, 0x00, 0x00, 0x00, 0x00, 0xfc, 0x00, 0x00, 0x03, 0x00, 0x00, 0x00,
   0x00, 0x18, 0x00, 0x00, 0x00, 0x00, 0x00, 0x00, 0xfc, 0x00, 0x00, 0x01,
   0x00, 0x00, 0x00, 0x00, 0x18, 0x00, 0x00, 0x00, 0x00, 0x00, 0x00, 0xfc,
   0x00, 0x00, 0x01, 0x00, 0x00, 0x00, 0x00, 0x18, 0x00, 0x00, 0x00, 0x00,
   0x00, 0x00, 0xfc, 0x00, 0x80, 0x01, 0x00, 0x00, 0x00, 0x00, 0x18, 0x00,
   0x00, 0x00, 0x00, 0x00, 0x00, 0xfc, 0x00, 0x80, 0x01, 0x00, 0x00, 0x00,
   0x00, 0x18, 0x00, 0x00, 0x00, 0x00, 0x00, 0x00, 0xfc, 0x00, 0x80, 0x01,
   0x00, 0x00, 0x00, 0x00, 0x3e, 0x00, 0x00, 0x00, 0x80, 0x01, 0x00, 0xfc,
   0x00, 0x80, 0x01, 0x00, 0x00, 0x00, 0x00, 0x00, 0x00, 0x00, 0x00, 0x00,
   0x01, 0x00, 0xfc, 0x00, 0xc0, 0x00, 0x00, 0x00, 0x00, 0x00, 0x00, 0x00,
   0x00, 0x00, 0x00, 0x01, 0x00, 0xfc, 0x00, 0xc0, 0x00, 0x00, 0x00, 0x00,
   0x00, 0x00, 0x00, 0x00, 0x00, 0x00, 0x01, 0x00, 0xfc, 0x00, 0xc0, 0x00,
   0x00, 0x00, 0x00, 0x00, 0x00, 0x00, 0x00, 0x00, 0x00, 0x01, 0x00, 0xfc,
   0x00, 0xc0, 0x00, 0x00, 0x00, 0x00, 0x00, 0x00, 0x00, 0x00, 0x00, 0xf8,
   0xe3, 0x1c, 0xfc, 0x00, 0xc0, 0x00, 0x00, 0x00, 0x00, 0x00, 0x00, 0x00,
   0x00, 0x00, 0x0c, 0xc1, 0x04, 0xfc, 0x00, 0x60, 0x00, 0x00, 0xf0, 0xff,
   0xff, 0xff, 0xff, 0xff, 0x07, 0x0c, 0x81, 0x03, 0xfc, 0x00, 0x60, 0x00,
   0x00, 0x00, 0x00, 0x00, 0x00, 0x00, 0x00, 0x00, 0x0c, 0x01, 0x03, 0xfc,
   0x00, 0x60, 0x00, 0x00, 0x00, 0x00, 0x00, 0x00, 0x00, 0x00, 0x00, 0x0c,
   0x81, 0x06, 0xfc, 0x00, 0x60, 0x00, 0x00, 0x00, 0x00, 0x00, 0x00, 0x00,
   0x00, 0x00, 0x8c, 0x41, 0x0c, 0xfc, 0x00, 0x60, 0x00, 0x00, 0x00, 0x00,
   0x07, 0x00, 0x00, 0x00, 0x00, 0x70, 0x63, 0x1c, 0xfc, 0x00, 0x20, 0x00,
   0x00, 0x00, 0x80, 0x05, 0x00, 0x00, 0x00, 0x00, 0x00, 0x00, 0x00, 0xfc,
   0x00, 0x30, 0x00, 0x00, 0x00, 0x80, 0x00, 0x00, 0x00, 0xf0, 0x00, 0x00,
   0x00, 0x00, 0xfc, 0x00, 0x30, 0x00, 0x00, 0x00, 0x80, 0x07, 0x00, 0x00,
   0xc0, 0x00, 0x00, 0x00, 0x00, 0xfc, 0x00, 0x30, 0x00, 0x00, 0x00, 0x80,
   0x04, 0x00, 0x00, 0xc0, 0x00, 0x00, 0x00, 0x00, 0xfc, 0x00, 0x10, 0x00,
   0x00, 0xe0, 0x9c, 0x04, 0x00, 0x00, 0xc0, 0x00, 0x00, 0x00, 0x00, 0xfc,
   0x00, 0x10, 0x00, 0x00, 0xc0, 0x04, 0x07, 0x00, 0x00, 0xc0, 0x00, 0x00,
   0x00, 0x00, 0xfc, 0x00, 0x10, 0x00, 0x00, 0x80, 0x03, 0x00, 0x00, 0x00,
   0xc0, 0x00, 0x00, 0x00, 0x00, 0xfc, 0x00, 0x18, 0x00, 0x00, 0x00, 0x03,
   0x00, 0xf0, 0x07, 0xc0, 0x00, 0x00, 0x00, 0x00, 0xfc, 0x00, 0x08, 0x06,
   0x00, 0x80, 0x06, 0x00, 0x00, 0x00, 0xc0, 0x00, 0x00, 0x00, 0x00, 0xfc,
   0x00, 0x08, 0x09, 0x00, 0x40, 0x0c, 0x00, 0x00, 0x00, 0xc0, 0x00, 0x00,
   0x00, 0x00, 0xfc, 0x00, 0x08, 0x09, 0x00, 0x60, 0x1c, 0x00, 0x00, 0x00,
   0xf0, 0x01, 0x00, 0x00, 0x00, 0xfc, 0x80, 0x07, 0x09, 0x00, 0x00, 0x00,
   0x00, 0x00, 0x00, 0x00, 0x00, 0x00, 0x00, 0x00, 0xfc, 0x00, 0x03, 0x09,
   0x00, 0x00, 0x00, 0x00, 0x00, 0x00, 0x00, 0x00, 0x00, 0x00, 0x00, 0xfc,
   0x00, 0x00, 0x09, 0x00, 0x00, 0x00, 0x00, 0x00, 0x00, 0x00, 0x00, 0x00,
   0x00, 0x00, 0xfc, 0x00, 0x00, 0x06, 0x00, 0x00, 0x00, 0x00, 0x00, 0x00,
   0x00, 0x00, 0x00, 0x00, 0x00, 0xfc, 0x00, 0x00, 0x00, 0x00, 0x00, 0x00,
   0x00, 0x00, 0x00, 0x00, 0x00, 0x00, 0x00, 0x00, 0xfc, 0x00, 0x00, 0x00,
   0x00, 0x00, 0x00, 0x00, 0x00, 0x00, 0x00, 0x00, 0x00, 0x00, 0x00, 0xfc,
   0x00, 0x00, 0x00, 0x00, 0x00, 0x00, 0x00, 0x00, 0x00, 0x00, 0x00, 0x00,
   0x00, 0x00, 0xfc};
