#define int6_width 165
#define int6_height 54
static char int6_bits[] = {
   0x00, 0x00, 0x00, 0x00, 0x00, 0x00, 0x00, 0x00, 0x00, 0x00, 0x00, 0x00,
   0x00, 0x00, 0x00, 0x00, 0x00, 0x00, 0x00, 0x00, 0xe0, 0x00, 0x00, 0x00,
   0x00, 0x00, 0x00, 0x00, 0x00, 0x00, 0x00, 0x00, 0x00, 0x00, 0x00, 0x00,
   0x00, 0x00, 0x00, 0x00, 0x00, 0xe0, 0x00, 0x00, 0x00, 0x00, 0x00, 0x00,
   0x00, 0x00, 0x00, 0x00, 0x00, 0x00, 0x00, 0x00, 0x00, 0x00, 0x00, 0x00,
   0x00, 0x00, 0xe0, 0x00, 0x00, 0x00, 0x00, 0x00, 0x00, 0x00, 0x08, 0x00,
   0x00, 0x00, 0x00, 0x00, 0x00, 0x00, 0x00, 0x00, 0x00, 0x00, 0x00, 0xe0,
   0x00, 0x00, 0x00, 0x00, 0x00, 0x00, 0x00, 0x0c, 0x00, 0x00, 0x00, 0x00,
   0x00, 0x00, 0x00, 0x00, 0x00, 0x00, 0x00, 0x00, 0xe0, 0x00, 0x00, 0x00,
   0x00, 0x00, 0x00, 0x00, 0x0e, 0x00, 0x00, 0x00, 0x00, 0x00, 0x00, 0x00,
   0x00, 0x00, 0x00, 0x00, 0x00, 0xe0, 0x00, 0x00, 0x20, 0x00, 0x00, 0x00,
   0x00, 0x09, 0x00, 0x00, 0x00, 0x00, 0x00, 0x00, 0x00, 0x00, 0x00, 0x00,
   0x00, 0x00, 0xe0, 0x00, 0x00, 0x30, 0x00, 0x00, 0x00, 0x80, 0x1f, 0x00,
   0x00, 0x00, 0x00, 0x00, 0x00, 0x00, 0x00, 0x00, 0x00, 0x00, 0x00, 0xe0,
   0x00, 0xc0, 0x20, 0x00, 0x00, 0x00, 0x00, 0x0c, 0x00, 0x00, 0x00, 0x00,
   0x00, 0x00, 0x18, 0x00, 0x00, 0x00, 0x00, 0x00, 0xe0, 0x00, 0xa0, 0x20,
   0x00, 0x00, 0x00, 0x00, 0x1c, 0x00, 0x00, 0x00, 0x00, 0x00, 0x00, 0x18,
   0x00, 0x00, 0x00, 0x00, 0x00, 0xe0, 0x00, 0x30, 0x20, 0x00, 0x00, 0x00,
   0x00, 0x00, 0x00, 0x00, 0x00, 0x00, 0x00, 0x00, 0x00, 0x00, 0x00, 0x00,
   0x00, 0x00, 0xe0, 0x00, 0x10, 0x20, 0x00, 0x00, 0x00, 0x00, 0x00, 0x00,
   0x00, 0x00, 0x00, 0x00, 0x00, 0x00, 0x00, 0x00, 0x00, 0x00, 0x00, 0xe0,
   0x00, 0x10, 0x78, 0x00, 0x00, 0x00, 0x00, 0x00, 0x00, 0x00, 0x00, 0x00,
   0x00, 0x00, 0x00, 0x00, 0x00, 0x00, 0x00, 0x00, 0xe0, 0x00, 0x10, 0x00,
   0x00, 0x00, 0x00, 0x00, 0x00, 0x00, 0x00, 0x00, 0x00, 0x00, 0x00, 0x18,
   0x00, 0x00, 0x00, 0x00, 0x00, 0xe0, 0x00, 0x18, 0x00, 0x00, 0x00, 0x00,
   0xfe, 0xff, 0x0f, 0x00, 0x00, 0x00, 0x00, 0x00, 0x10, 0x00, 0x00, 0x00,
   0x00, 0x00, 0xe0, 0x00, 0x18, 0x00, 0x00, 0x00, 0x00, 0x38, 0x80, 0x03,
   0x00, 0x00, 0x00, 0x00, 0x00, 0x10, 0x00, 0x00, 0x00, 0x00, 0x00, 0xe0,
   0x00, 0x08, 0x00, 0x00, 0x00, 0x00, 0x30, 0x80, 0x01, 0x00, 0x00, 0x00,
   0x00, 0x00, 0x10, 0x00, 0x00, 0x00, 0x00, 0x00, 0xe0, 0x00, 0x08, 0x00,
   0x00, 0x00, 0x00, 0x30, 0x80, 0x01, 0x00, 0x00, 0x00, 0x00, 0x00, 0x10,
   0x00, 0x00, 0x00, 0x00, 0x00, 0xe0, 0x00, 0x0c, 0x00, 0x00, 0x00, 0x00,
   0x30, 0x80, 0x01, 0x00, 0x00, 0x00, 0x00, 0x00, 0x10, 0x00, 0x00, 0x00,
   0x00, 0x00, 0xe0, 0x00, 0x0c, 0x00, 0x00, 0x00, 0x00, 0x30, 0x80, 0x01,
   0x00, 0x00, 0x00, 0x00, 0x00, 0x38, 0x00, 0x00, 0x00, 0x03, 0x00, 0xe0,
   0x00, 0x0c, 0x00, 0x00, 0x00, 0x00, 0x30, 0x80, 0x01, 0x10, 0x00, 0x00,
   0x00, 0x00, 0x00, 0x00, 0x04, 0x00, 0x02, 0x00, 0xe0, 0x00, 0x04, 0x00,
   0x00, 0x00, 0x00, 0x30, 0x80, 0x01, 0x10, 0x00, 0x00, 0x00, 0x00, 0x00,
   0x00, 0x04, 0x00, 0x02, 0x00, 0xe0, 0x00, 0x06, 0x00, 0x00, 0x00, 0x00,
   0x30, 0x80, 0x01, 0x08, 0x00, 0x00, 0x00, 0x00, 0x00, 0x00, 0x08, 0x00,
   0x02, 0x00, 0xe0, 0x00, 0x06, 0x00, 0x00, 0x00, 0x00, 0x30, 0x80, 0x01,
   0x08, 0x00, 0x00, 0x00, 0x00, 0x00, 0x00, 0x08, 0x00, 0x02, 0x00, 0xe0,
   0x00, 0x06, 0x00, 0x00, 0xce, 0x01, 0x30, 0x80, 0x01, 0x08, 0xe7, 0x00,
   0x00, 0x00, 0x00, 0x00, 0x08, 0xf0, 0xc3, 0x19, 0xe0, 0x00, 0x06, 0x00,
   0x00, 0x4c, 0x00, 0x30, 0x80, 0x01, 0x04, 0x26, 0x00, 0x00, 0x00, 0x00,
   0x00, 0x10, 0x18, 0x82, 0x09, 0xe0, 0x00, 0x06, 0x00, 0x00, 0x38, 0x00,
   0x30, 0x80, 0x01, 0x04, 0x1c, 0x00, 0x00, 0xf8, 0xff, 0x3f, 0x10, 0x18,
   0x02, 0x07, 0xe0, 0x00, 0x03, 0x00, 0x00, 0x30, 0x00, 0x30, 0x80, 0x01,
   0x04, 0x18, 0x00, 0x3f, 0x00, 0x00, 0x00, 0x10, 0x18, 0x02, 0x06, 0xe0,
   0x00, 0x03, 0x00, 0x00, 0x68, 0x00, 0x30, 0x80, 0x01, 0x04, 0x34, 0x00,
   0x00, 0x00, 0x00, 0x00, 0x10, 0x18, 0x02, 0x0d, 0xe0, 0x00, 0x03, 0x00,
   0x00, 0xc4, 0x00, 0x30, 0x80, 0x01, 0x04, 0x62, 0x00, 0x00, 0x00, 0x00,
   0x00, 0x08, 0x18, 0x83, 0x18, 0xe0, 0x00, 0x03, 0x00, 0x00, 0xc6, 0x01,
   0x30, 0x80, 0x01, 0x08, 0xe3, 0x00, 0x00, 0x00, 0x00, 0x00, 0x08, 0xe0,
   0xc6, 0x38, 0xe0, 0x00, 0x03, 0x00, 0x00, 0x00, 0x00, 0x30, 0x80, 0x01,
   0x08, 0x00, 0x00, 0x00, 0x00, 0x00, 0x00, 0x08, 0x00, 0x00, 0x00, 0xe0,
   0x00, 0x01, 0x00, 0x00, 0x00, 0x00, 0x30, 0x80, 0x01, 0x08, 0x00, 0x00,
   0x00, 0x00, 0x00, 0x07, 0x04, 0x00, 0x00, 0x00, 0xe0, 0x80, 0x01, 0x00,
   0x00, 0x00, 0x00, 0x30, 0x80, 0x01, 0x10, 0x00, 0x00, 0x00, 0x80, 0x81,
   0x08, 0x04, 0x00, 0x00, 0x00, 0xe0, 0x80, 0x01, 0x00, 0x00, 0x00, 0x00,
   0x30, 0x80, 0x01, 0x10, 0x00, 0x00, 0x00, 0xc0, 0xc1, 0x18, 0x00, 0x00,
   0x00, 0x00, 0xe0, 0x80, 0x01, 0x00, 0x00, 0x00, 0x00, 0x78, 0xc0, 0x03,
   0x00, 0x00, 0x00, 0x00, 0x80, 0xc1, 0x18, 0x00, 0x00, 0x00, 0x00, 0xe0,
   0x80, 0x00, 0x00, 0x00, 0x00, 0x00, 0xfe, 0xf1, 0x0f, 0x00, 0x00, 0x00,
   0x00, 0x80, 0xc1, 0x18, 0x00, 0x00, 0x00, 0x00, 0xe0, 0x80, 0x00, 0x00,
   0x00, 0x00, 0x00, 0x00, 0x00, 0x00, 0x00, 0x00, 0x00, 0x00, 0x80, 0xc1,
   0x18, 0x00, 0x00, 0x00, 0x00, 0xe0, 0x80, 0x00, 0x00, 0x00, 0x00, 0x00,
   0x00, 0x00, 0x00, 0x00, 0x00, 0x00, 0x00, 0x80, 0xc1, 0x18, 0x00, 0x00,
   0x00, 0x00, 0xe0, 0xc0, 0x00, 0x10, 0x00, 0x00, 0x00, 0x00, 0x00, 0x00,
   0x00, 0x00, 0x00, 0x00, 0x80, 0xc1, 0x18, 0x00, 0x00, 0x00, 0x00, 0xe0,
   0x40, 0x00, 0x18, 0x00, 0x00, 0x00, 0x00, 0x00, 0x00, 0x00, 0x00, 0x00,
   0x00, 0x80, 0xc1, 0x18, 0x00, 0x00, 0x00, 0x00, 0xe0, 0x40, 0x00, 0x10,
   0x00, 0x00, 0x00, 0x00, 0x00, 0x00, 0x00, 0x00, 0x00, 0x00, 0x80, 0x81,
   0x08, 0x00, 0x00, 0x00, 0x00, 0xe0, 0x40, 0xf0, 0x10, 0x00, 0x00, 0x00,
   0x00, 0x00, 0x00, 0x00, 0x00, 0x00, 0x00, 0xe0, 0x07, 0x07, 0x00, 0x00,
   0x00, 0x00, 0xe0, 0x2c, 0x00, 0x10, 0x00, 0x00, 0x00, 0x00, 0x00, 0x00,
   0x00, 0x00, 0x00, 0x00, 0x00, 0x00, 0x00, 0x00, 0x00, 0x00, 0x00, 0xe0,
   0x18, 0x00, 0x10, 0x00, 0x00, 0x30, 0x00, 0x00, 0x40, 0x00, 0x00, 0x00,
   0x00, 0x00, 0x00, 0x00, 0x00, 0x00, 0x00, 0x00, 0xe0, 0x00, 0x00, 0x3c,
   0x00, 0x00, 0x00, 0x00, 0x00, 0x60, 0x00, 0x00, 0x00, 0x00, 0x00, 0x00,
   0x00, 0x00, 0x00, 0x00, 0x00, 0xe0, 0x00, 0x00, 0x00, 0x00, 0x00, 0x30,
   0x00, 0x00, 0x70, 0x00, 0x00, 0x00, 0x00, 0x00, 0x00, 0x00, 0x00, 0x00,
   0x00, 0x00, 0xe0, 0x00, 0x00, 0x00, 0x00, 0x00, 0x20, 0x7c, 0x00, 0x48,
   0x00, 0x00, 0x00, 0x00, 0x00, 0x00, 0x00, 0x00, 0x00, 0x00, 0x00, 0xe0,
   0x00, 0x00, 0x00, 0x00, 0x00, 0x20, 0x00, 0xfc, 0xfc, 0x00, 0x00, 0x00,
   0x00, 0x00, 0x00, 0x00, 0x00, 0x00, 0x00, 0x00, 0xe0, 0x00, 0x00, 0x00,
   0x00, 0x00, 0x20, 0x7c, 0x00, 0x60, 0x00, 0x00, 0x00, 0x00, 0x00, 0x00,
   0x00, 0x00, 0x00, 0x00, 0x00, 0xe0, 0x00, 0x00, 0x00, 0x00, 0x00, 0x20,
   0x00, 0x00, 0xe0, 0x00, 0x00, 0x00, 0x00, 0x00, 0x00, 0x00, 0x00, 0x00,
   0x00, 0x00, 0xe0, 0x00, 0x00, 0x00, 0x00, 0x00, 0x00, 0x00, 0x00, 0x00,
   0x00, 0x00, 0x00, 0x00, 0x00, 0x00, 0x00, 0x00, 0x00, 0x00, 0x00, 0xe0,
   0x00, 0x00, 0x00, 0x00, 0x00, 0x00, 0x00, 0x00, 0x00, 0x00, 0x00, 0x00,
   0x00, 0x00, 0x00, 0x00, 0x00, 0x00, 0x00, 0x00, 0xe0, 0x00, 0x00, 0x00,
   0x00, 0x00, 0x00, 0x00, 0x00, 0x00, 0x00, 0x00, 0x00, 0x00, 0x00, 0x00,
   0x00, 0x00, 0x00, 0x00, 0x00, 0xe0};
