#define int8_width 176
#define int8_height 48
static char int8_bits[] = {
   0x00, 0x00, 0x00, 0x00, 0x00, 0x00, 0x00, 0x00, 0x00, 0x00, 0x00, 0x00,
   0x00, 0x00, 0x00, 0x00, 0x00, 0x00, 0x00, 0x00, 0x00, 0x00, 0x00, 0x00,
   0x80, 0x03, 0x00, 0x00, 0x00, 0x00, 0x00, 0x00, 0x00, 0x00, 0x00, 0x00,
   0x00, 0x00, 0x00, 0x00, 0x00, 0x00, 0x00, 0x00, 0x00, 0x00, 0x40, 0x06,
   0x00, 0x00, 0x00, 0x00, 0x00, 0x00, 0x00, 0x00, 0x00, 0x00, 0x00, 0x00,
   0x00, 0x00, 0x00, 0x00, 0x00, 0x00, 0x00, 0x00, 0x18, 0x02, 0x10, 0x00,
   0x00, 0x00, 0x00, 0x01, 0x00, 0x00, 0x00, 0x00, 0x00, 0x00, 0x00, 0x00,
   0x00, 0x00, 0x00, 0x00, 0x00, 0x00, 0x0e, 0x02, 0x20, 0x00, 0x00, 0x00,
   0x00, 0x02, 0x00, 0x00, 0x04, 0x07, 0x00, 0x00, 0x00, 0x80, 0x00, 0x00,
   0x00, 0x00, 0x00, 0x00, 0x02, 0x01, 0x20, 0x00, 0x00, 0x00, 0x00, 0x02,
   0x00, 0x00, 0x84, 0x0c, 0x00, 0x00, 0x00, 0x80, 0x00, 0x00, 0x00, 0x00,
   0x00, 0x00, 0x81, 0x04, 0x20, 0x00, 0x00, 0x00, 0x00, 0x02, 0x00, 0x00,
   0xc2, 0x18, 0x00, 0x00, 0x00, 0x00, 0x01, 0x00, 0x00, 0x00, 0x00, 0x00,
   0xc1, 0x03, 0x20, 0x00, 0x00, 0x00, 0x00, 0x02, 0x00, 0x00, 0xc2, 0x18,
   0x00, 0x00, 0x00, 0x00, 0x01, 0x00, 0x00, 0x00, 0x00, 0x00, 0x01, 0x00,
   0x20, 0x1e, 0x1e, 0x70, 0x06, 0xc2, 0xc3, 0x03, 0x02, 0x18, 0x00, 0x00,
   0x70, 0x0e, 0x01, 0x00, 0x00, 0x00, 0x00, 0x80, 0x01, 0x00, 0x20, 0x21,
   0x11, 0x60, 0x02, 0x22, 0x24, 0x02, 0x01, 0x0c, 0x00, 0x00, 0x60, 0x02,
   0x02, 0x00, 0x00, 0x00, 0x00, 0x80, 0x01, 0x00, 0x20, 0x21, 0x11, 0xc0,
   0x01, 0x22, 0x24, 0x02, 0x01, 0x06, 0x00, 0x00, 0xc0, 0x01, 0x02, 0x00,
   0x00, 0x00, 0x00, 0x80, 0x00, 0x00, 0x20, 0x21, 0x11, 0x80, 0x01, 0x22,
   0x24, 0x02, 0x01, 0x02, 0xc0, 0x0f, 0x80, 0x01, 0x02, 0x00, 0x00, 0x00,
   0x00, 0x80, 0x00, 0x00, 0x20, 0x21, 0x0e, 0x40, 0x03, 0x22, 0xc4, 0x01,
   0x01, 0x11, 0x00, 0x00, 0x40, 0x03, 0x02, 0x00, 0x00, 0x00, 0x00, 0xc0,
   0x00, 0x00, 0x20, 0x21, 0x01, 0x20, 0x06, 0x22, 0x24, 0x00, 0x82, 0x1f,
   0x00, 0x00, 0x20, 0x06, 0x01, 0x00, 0x00, 0x00, 0x00, 0xc0, 0x00, 0x00,
   0x70, 0x1e, 0x1f, 0x30, 0x0e, 0xc7, 0xe3, 0x03, 0xc2, 0x1f, 0x00, 0x00,
   0x30, 0x0e, 0x01, 0x00, 0x00, 0x00, 0x00, 0xc0, 0x00, 0x00, 0x00, 0x80,
   0x20, 0x00, 0x00, 0x00, 0x10, 0x04, 0x02, 0x00, 0x00, 0x00, 0x00, 0x00,
   0x01, 0x80, 0x01, 0x00, 0x00, 0x40, 0x00, 0x00, 0x00, 0x80, 0x20, 0x00,
   0x00, 0x00, 0x10, 0x04, 0x04, 0x00, 0x00, 0x00, 0x00, 0x80, 0x00, 0x00,
   0x01, 0x00, 0x00, 0x60, 0x00, 0x00, 0x00, 0x00, 0x21, 0x00, 0x00, 0x00,
   0x20, 0x04, 0x04, 0x00, 0x00, 0x00, 0x00, 0x80, 0x00, 0x00, 0x01, 0x00,
   0x00, 0x60, 0x00, 0x00, 0x00, 0x00, 0x1e, 0x00, 0x00, 0x00, 0xc0, 0x03,
   0x00, 0x00, 0x00, 0x00, 0x00, 0x00, 0x00, 0x00, 0x01, 0x00, 0x00, 0x60,
   0x00, 0x00, 0x00, 0x00, 0x00, 0x00, 0x00, 0x00, 0x00, 0x00, 0x00, 0x00,
   0x00, 0x00, 0x00, 0x00, 0x00, 0x00, 0x01, 0x00, 0x00, 0x60, 0x00, 0x00,
   0x00, 0x00, 0x00, 0x00, 0x00, 0x00, 0x00, 0x00, 0x00, 0x00, 0x00, 0x00,
   0x00, 0x00, 0x00, 0xf8, 0xe1, 0x1c, 0x00, 0x60, 0x00, 0x00, 0x00, 0x00,
   0x00, 0x00, 0x00, 0x00, 0x00, 0x00, 0x00, 0x00, 0x00, 0x00, 0x00, 0x00,
   0x00, 0x0c, 0xc1, 0x04, 0x00, 0x30, 0x00, 0x00, 0xf8, 0xff, 0xff, 0xff,
   0xff, 0xff, 0xff, 0xff, 0xff, 0xff, 0xff, 0xff, 0xff, 0xff, 0x0f, 0x0c,
   0x81, 0x03, 0x00, 0x30, 0x00, 0x00, 0x00, 0x00, 0x00, 0x00, 0x00, 0x00,
   0x00, 0x00, 0x00, 0x00, 0x00, 0x00, 0x00, 0x00, 0x00, 0x0c, 0x01, 0x03,
   0x00, 0x30, 0x00, 0x00, 0x00, 0x00, 0x00, 0x00, 0x00, 0x00, 0x00, 0x00,
   0x00, 0x00, 0x00, 0x00, 0x00, 0x00, 0x00, 0x0c, 0x81, 0x06, 0x00, 0x30,
   0x00, 0x00, 0x00, 0x00, 0x00, 0x00, 0x00, 0x00, 0x00, 0x00, 0x00, 0x00,
   0x00, 0x00, 0x38, 0x00, 0x00, 0x8c, 0x41, 0x0c, 0x00, 0x30, 0x00, 0x00,
   0x00, 0x00, 0x00, 0x00, 0x00, 0x00, 0x06, 0x00, 0x00, 0x00, 0x00, 0x00,
   0x64, 0x00, 0x00, 0x70, 0x63, 0x1c, 0x00, 0x10, 0x00, 0x00, 0x00, 0x00,
   0x00, 0x00, 0x00, 0x00, 0x09, 0x00, 0x00, 0x00, 0x00, 0x00, 0x20, 0x00,
   0x00, 0x00, 0x00, 0x00, 0x00, 0x18, 0x00, 0x00, 0x00, 0x00, 0x00, 0x00,
   0x00, 0x00, 0x08, 0xfe, 0xff, 0xff, 0xff, 0xff, 0x21, 0x00, 0x00, 0x00,
   0x00, 0x00, 0x00, 0x18, 0x00, 0x00, 0x00, 0x00, 0x00, 0xf0, 0x3f, 0x00,
   0x0e, 0x01, 0x00, 0x00, 0x00, 0x00, 0x10, 0x00, 0x00, 0x00, 0x00, 0x00,
   0x00, 0x18, 0x00, 0x00, 0x00, 0x00, 0x00, 0x08, 0x00, 0x00, 0x08, 0x01,
   0x00, 0x00, 0x00, 0x00, 0x48, 0x00, 0x00, 0x00, 0x00, 0x00, 0x00, 0x08,
   0x00, 0x00, 0x00, 0x00, 0x00, 0x08, 0x00, 0x00, 0x89, 0x70, 0x00, 0x00,
   0x00, 0x00, 0x3c, 0x00, 0x00, 0x00, 0x00, 0x00, 0x00, 0x08, 0x00, 0x00,
   0x00, 0x00, 0x00, 0x04, 0x00, 0x00, 0x86, 0xc8, 0x00, 0x00, 0x00, 0x00,
   0x00, 0x00, 0x00, 0x00, 0x00, 0x00, 0x00, 0x08, 0x00, 0x00, 0x00, 0x00,
   0x00, 0x04, 0x00, 0x00, 0x40, 0x8c, 0x01, 0x00, 0x00, 0x00, 0x00, 0x00,
   0x00, 0x00, 0x00, 0x00, 0x00, 0x0c, 0x00, 0x00, 0x00, 0x00, 0x00, 0x02,
   0x00, 0x00, 0x40, 0x8c, 0x01, 0x00, 0x00, 0x00, 0x00, 0x00, 0x00, 0x00,
   0x00, 0x00, 0x00, 0x04, 0x03, 0x00, 0x00, 0x00, 0x00, 0xe2, 0x0c, 0x00,
   0x20, 0x80, 0x01, 0x00, 0x00, 0xc7, 0x00, 0x00, 0x00, 0x00, 0x00, 0x00,
   0x00, 0x84, 0x04, 0x00, 0x00, 0x00, 0x00, 0xc1, 0x04, 0x00, 0x20, 0xc0,
   0x00, 0x00, 0x00, 0x26, 0x00, 0x00, 0x00, 0x00, 0x00, 0x00, 0x00, 0x84,
   0x04, 0x00, 0x00, 0x00, 0x00, 0x81, 0x03, 0x60, 0x10, 0x60, 0x00, 0x00,
   0x00, 0x1c, 0x00, 0x00, 0x00, 0x00, 0x00, 0x00, 0xc0, 0x82, 0x04, 0x00,
   0x00, 0x00, 0x83, 0x00, 0x03, 0x40, 0x10, 0x20, 0x00, 0xfc, 0x00, 0x18,
   0x00, 0x00, 0x00, 0x00, 0x00, 0x00, 0x00, 0x81, 0x04, 0x00, 0x00, 0x00,
   0x82, 0x80, 0x06, 0xc0, 0x08, 0x10, 0x01, 0x00, 0x00, 0x34, 0x00, 0x00,
   0x00, 0x00, 0x00, 0x00, 0x00, 0x80, 0x04, 0x00, 0x00, 0x00, 0xc2, 0x40,
   0x0c, 0x80, 0x08, 0xf8, 0x01, 0x00, 0x00, 0x62, 0x00, 0x00, 0x00, 0x00,
   0x00, 0x00, 0x00, 0x00, 0x03, 0x00, 0x00, 0x00, 0x46, 0x60, 0x1c, 0x80,
   0x04, 0xfc, 0x01, 0x00, 0x00, 0xe3, 0x00, 0x00, 0x00, 0x00, 0x00, 0x00,
   0x00, 0x00, 0x00, 0x00, 0x00, 0x00, 0x2c, 0x00, 0x00, 0x80, 0x05, 0x00,
   0x00, 0x00, 0x00, 0x00, 0x00, 0x00, 0x00, 0x00, 0x00, 0x00, 0x00, 0x00,
   0x00, 0x00, 0x00, 0x00, 0x28, 0x00, 0x00, 0x00, 0x03, 0x00, 0x00, 0x00,
   0x00, 0x00, 0x00, 0x00, 0x00, 0x00, 0x00, 0x00, 0x00, 0x00, 0x00, 0x00,
   0x00, 0x00, 0x18, 0x00, 0x00, 0x00, 0x02, 0x00, 0x00, 0x00, 0x00, 0x00,
   0x00, 0x00, 0x00, 0x00, 0x00, 0x00, 0x00, 0x00, 0x00, 0x00, 0x00, 0x00,
   0x08, 0x00, 0x00, 0x00, 0x00, 0x00, 0x00, 0x00, 0x00, 0x00, 0x00, 0x00,
   0x00, 0x00, 0x00, 0x00, 0x00, 0x00, 0x00, 0x00, 0x00, 0x00, 0x00, 0x00,
   0x00, 0x00, 0x00, 0x00, 0x00, 0x00, 0x00, 0x00, 0x00, 0x00, 0x00, 0x00,
   0x00, 0x00, 0x00, 0x00, 0x00, 0x00, 0x00, 0x00, 0x00, 0x00, 0x00, 0x00,
   0x00, 0x00, 0x00, 0x00, 0x00, 0x00, 0x00, 0x00, 0x00, 0x00, 0x00, 0x00};
