#define opt2_width 454
#define opt2_height 24
static char opt2_bits[] = {
   0x00, 0x00, 0x00, 0x00, 0x00, 0x00, 0x00, 0x00, 0x00, 0x00, 0x00, 0x00,
   0x00, 0x00, 0x00, 0x00, 0x00, 0x00, 0x00, 0x00, 0x00, 0x00, 0x00, 0x00,
   0x00, 0x00, 0x00, 0x00, 0x00, 0x00, 0x00, 0x00, 0x00, 0x00, 0x00, 0x00,
   0x00, 0x00, 0x00, 0x00, 0x00, 0x00, 0x00, 0x00, 0x00, 0x00, 0x00, 0x00,
   0x00, 0x00, 0x00, 0x00, 0x00, 0x00, 0x00, 0x00, 0xc0, 0x00, 0x00, 0x00,
   0x00, 0x00, 0x00, 0x00, 0x00, 0x00, 0x00, 0x00, 0x00, 0x00, 0x00, 0x00,
   0x00, 0x00, 0x00, 0x00, 0x00, 0x00, 0x00, 0x00, 0x00, 0x00, 0x00, 0x00,
   0x00, 0x00, 0x00, 0x00, 0x00, 0x00, 0x00, 0x00, 0x00, 0x00, 0x00, 0x00,
   0x00, 0x00, 0x00, 0x00, 0x00, 0x00, 0x00, 0x00, 0x00, 0x00, 0x00, 0x00,
   0x00, 0x00, 0x00, 0x00, 0x00, 0xc0, 0x00, 0x00, 0x00, 0x00, 0x00, 0x00,
   0x00, 0x00, 0x00, 0x00, 0x00, 0x00, 0x00, 0x00, 0x00, 0x00, 0x00, 0x00,
   0x00, 0x00, 0x00, 0x00, 0x00, 0x00, 0x00, 0x00, 0x00, 0x00, 0x00, 0x00,
   0x00, 0x00, 0x00, 0x00, 0x00, 0x00, 0x00, 0x00, 0x00, 0x00, 0x00, 0x00,
   0x00, 0x00, 0x00, 0x00, 0x00, 0x00, 0x00, 0x00, 0x00, 0x00, 0x00, 0x00,
   0x00, 0x00, 0xc0, 0x00, 0x00, 0x00, 0x00, 0x00, 0x00, 0x00, 0x00, 0x00,
   0x00, 0x00, 0x00, 0x38, 0x00, 0x00, 0x00, 0x00, 0x00, 0x00, 0x00, 0x00,
   0x00, 0x00, 0x00, 0x00, 0x00, 0x70, 0x00, 0x00, 0x00, 0x00, 0x00, 0x00,
   0x00, 0x00, 0x00, 0x00, 0x00, 0x00, 0x00, 0x80, 0x00, 0x00, 0x00, 0x00,
   0x00, 0x00, 0x00, 0x00, 0x00, 0x00, 0x00, 0x00, 0x00, 0x00, 0x00, 0xc2,
   0x00, 0x00, 0x00, 0x00, 0x00, 0x00, 0x00, 0x00, 0x00, 0x00, 0x00, 0x00,
   0x64, 0x00, 0x00, 0x00, 0x00, 0x00, 0x00, 0x00, 0x00, 0x00, 0x00, 0x00,
   0x00, 0x00, 0xc8, 0x00, 0x00, 0x00, 0x00, 0x00, 0x00, 0x00, 0x00, 0x00,
   0x00, 0x00, 0x00, 0x00, 0xc0, 0x00, 0x00, 0x00, 0x00, 0x00, 0x00, 0x00,
   0x00, 0x00, 0x00, 0x00, 0x00, 0x00, 0x00, 0x00, 0xc3, 0x20, 0x00, 0x00,
   0x00, 0x00, 0x00, 0x00, 0x00, 0x00, 0x00, 0x00, 0x20, 0x60, 0x00, 0x00,
   0x00, 0x00, 0x00, 0x00, 0x00, 0x00, 0x00, 0x00, 0x00, 0x00, 0x40, 0xc0,
   0x00, 0x00, 0x00, 0x01, 0x00, 0x00, 0x00, 0x00, 0x00, 0x00, 0x00, 0x00,
   0x40, 0xa0, 0x00, 0x00, 0x00, 0x00, 0x00, 0x10, 0x00, 0x00, 0x00, 0x00,
   0x00, 0x00, 0x00, 0x00, 0x82, 0xc2, 0x20, 0x78, 0x0c, 0x00, 0x00, 0x00,
   0xc0, 0x80, 0x83, 0xc7, 0x00, 0x20, 0x30, 0x00, 0x00, 0x00, 0x00, 0xc2,
   0x63, 0x00, 0x00, 0x00, 0x00, 0x8f, 0x01, 0x40, 0x60, 0x00, 0x00, 0x00,
   0xc1, 0x63, 0x00, 0x00, 0x00, 0x00, 0x0f, 0x1e, 0x03, 0x40, 0x90, 0x00,
   0x00, 0x00, 0x0c, 0x38, 0x10, 0x1e, 0x03, 0x00, 0x00, 0x00, 0x78, 0x0c,
   0x00, 0x42, 0xc2, 0x10, 0x70, 0x04, 0x00, 0x00, 0x00, 0xe0, 0x40, 0x04,
   0x47, 0x00, 0x40, 0x18, 0x00, 0x00, 0xc0, 0x07, 0x80, 0x23, 0x00, 0x00,
   0x00, 0x00, 0x8e, 0x00, 0x80, 0x30, 0x00, 0x00, 0x80, 0x80, 0x23, 0x00,
   0x00, 0x00, 0x80, 0x19, 0x1c, 0x01, 0x80, 0xf0, 0x01, 0x00, 0x00, 0x0e,
   0x44, 0x08, 0x1c, 0x01, 0x00, 0x00, 0x00, 0x70, 0x04, 0x00, 0xc4, 0xc7,
   0x10, 0x60, 0x02, 0x00, 0x00, 0x00, 0xc0, 0x60, 0x0c, 0x26, 0x00, 0x40,
   0x4c, 0x00, 0x00, 0xc0, 0x03, 0x01, 0x13, 0x00, 0x00, 0x00, 0x00, 0x4c,
   0x00, 0x80, 0x98, 0x00, 0x00, 0x80, 0x00, 0x13, 0x00, 0x00, 0x00, 0x80,
   0x31, 0x98, 0x00, 0x80, 0x80, 0x00, 0x00, 0x00, 0x0c, 0xc6, 0x08, 0x98,
   0x00, 0x00, 0x00, 0x00, 0x60, 0x02, 0x00, 0x04, 0xc2, 0x10, 0xe0, 0x01,
   0x00, 0x00, 0x01, 0xc0, 0x60, 0x0c, 0x1e, 0x00, 0x40, 0x3c, 0x00, 0x04,
   0x40, 0x00, 0x01, 0x0f, 0x00, 0x00, 0x00, 0x00, 0x3c, 0x00, 0x80, 0x79,
   0x00, 0x08, 0x80, 0x00, 0x0f, 0x00, 0x00, 0x00, 0x00, 0x30, 0x78, 0x00,
   0x80, 0xc0, 0x01, 0x10, 0x00, 0x0c, 0xc6, 0x08, 0x78, 0x00, 0x00, 0x00,
   0x00, 0xe0, 0x01, 0x00, 0x04, 0xc7, 0x08, 0xc0, 0x01, 0x00, 0x00, 0x01,
   0xc0, 0x60, 0x0c, 0x1c, 0x00, 0x80, 0x00, 0x00, 0x04, 0xc0, 0x03, 0x00,
   0x0e, 0x00, 0x00, 0x00, 0x00, 0x38, 0x00, 0x00, 0x01, 0x00, 0x08, 0x40,
   0x00, 0x0e, 0x00, 0x00, 0x00, 0x00, 0x30, 0x70, 0x00, 0x00, 0x01, 0x00,
   0x10, 0x00, 0x0c, 0xc6, 0x04, 0x70, 0x00, 0x00, 0x00, 0x00, 0xc0, 0x01,
   0x00, 0x08, 0xc0, 0x08, 0x80, 0x01, 0x00, 0x00, 0x01, 0xc0, 0x60, 0x0c,
   0x18, 0x00, 0x80, 0x00, 0x00, 0x04, 0xc0, 0x84, 0x00, 0x0c, 0x00, 0x00,
   0x00, 0x00, 0x30, 0x00, 0x00, 0x01, 0x00, 0x08, 0x40, 0x00, 0x0c, 0x00,
   0x00, 0x00, 0x00, 0x18, 0x60, 0x00, 0x00, 0x01, 0x00, 0x10, 0x00, 0x0c,
   0xc6, 0x04, 0x60, 0x00, 0x00, 0x00, 0x00, 0x80, 0x01, 0x00, 0x08, 0xc0,
   0x08, 0xc0, 0x03, 0x04, 0x00, 0x01, 0xc0, 0x60, 0x0c, 0x3c, 0xe0, 0x80,
   0x00, 0x00, 0x04, 0x00, 0x8c, 0x00, 0x1e, 0x70, 0x00, 0x00, 0x00, 0x78,
   0x00, 0x01, 0x01, 0x00, 0x08, 0x40, 0x00, 0x1e, 0x70, 0x00, 0x00, 0x00,
   0x0c, 0xf0, 0x80, 0x03, 0x01, 0x00, 0x10, 0x00, 0x0c, 0xc6, 0x04, 0xf0,
   0x00, 0x01, 0x00, 0x00, 0xc0, 0x03, 0x08, 0x08, 0xc0, 0x08, 0x20, 0x07,
   0x06, 0xf0, 0x1f, 0xc0, 0x60, 0x0c, 0x72, 0x90, 0x81, 0x00, 0xc0, 0x7f,
   0x00, 0x8c, 0x00, 0x39, 0xc8, 0x00, 0x7f, 0x00, 0xe4, 0x80, 0x01, 0x01,
   0x80, 0xff, 0x40, 0x00, 0x39, 0xc8, 0x00, 0x7f, 0x00, 0x06, 0xc8, 0x41,
   0x06, 0x01, 0x00, 0xff, 0x01, 0x0c, 0xc6, 0x04, 0xc8, 0x81, 0x01, 0xf0,
   0x07, 0x20, 0x07, 0x0c, 0x08, 0xc0, 0x08, 0x10, 0x06, 0x04, 0x00, 0x01,
   0xc0, 0x60, 0x0c, 0x61, 0x80, 0x81, 0x00, 0x00, 0x04, 0x40, 0x8c, 0x80,
   0x30, 0xc0, 0x00, 0x00, 0x00, 0xc2, 0x40, 0x01, 0x01, 0x00, 0x08, 0x40,
   0x80, 0x30, 0xc0, 0x00, 0x00, 0x00, 0x23, 0x84, 0x01, 0x06, 0x01, 0x00,
   0x10, 0x00, 0x0c, 0xc6, 0x04, 0x84, 0x01, 0x01, 0x00, 0x00, 0x10, 0x06,
   0x0a, 0x08, 0xc0, 0x08, 0x18, 0x0e, 0x04, 0x00, 0x01, 0xc0, 0x40, 0x84,
   0xe1, 0xc0, 0x80, 0x00, 0x00, 0x04, 0xc0, 0x06, 0xc0, 0x70, 0xf0, 0x00,
   0x00, 0x00, 0xc3, 0x21, 0x01, 0x01, 0x00, 0x08, 0x40, 0xc0, 0x70, 0x60,
   0x00, 0x00, 0x80, 0x3f, 0x86, 0x83, 0x07, 0x01, 0x00, 0x10, 0x00, 0x0c,
   0x44, 0x04, 0x86, 0x03, 0x01, 0x00, 0x00, 0x18, 0x0e, 0x09, 0x08, 0xc0,
   0x10, 0x3c, 0x3e, 0x04, 0x00, 0x01, 0xe0, 0x81, 0xc3, 0xe3, 0x63, 0x40,
   0x00, 0x00, 0x04, 0x80, 0x03, 0xf1, 0xf1, 0xc1, 0x00, 0x00, 0x80, 0xc7,
   0xe7, 0x83, 0x00, 0x00, 0x08, 0x80, 0xe0, 0xf1, 0x31, 0x00, 0x00, 0x80,
   0x3f, 0x8f, 0x0f, 0x86, 0x00, 0x00, 0x10, 0x00, 0x1e, 0x38, 0x08, 0x8f,
   0x0f, 0x01, 0x00, 0x00, 0x3c, 0x3e, 0x1f, 0x04, 0xc0, 0x10, 0x00, 0x00,
   0x04, 0x00, 0x01, 0x00, 0x00, 0x00, 0x00, 0x30, 0x41, 0x00, 0x00, 0x04,
   0x00, 0x00, 0x01, 0x00, 0xc8, 0x00, 0x00, 0x00, 0x00, 0x00, 0x81, 0x00,
   0x00, 0x08, 0x80, 0x00, 0x00, 0x98, 0x00, 0x00, 0x00, 0x00, 0x00, 0x40,
   0x86, 0x00, 0x00, 0x10, 0x00, 0x00, 0x00, 0x08, 0x00, 0x00, 0x01, 0x00,
   0x00, 0x00, 0x00, 0x08, 0x04, 0xc0, 0x10, 0x00, 0x00, 0x0e, 0x00, 0x00,
   0x00, 0x00, 0x00, 0x00, 0xf0, 0x40, 0x00, 0x00, 0x00, 0x00, 0x00, 0x00,
   0x00, 0x70, 0x00, 0x00, 0x00, 0x00, 0x80, 0x83, 0x00, 0x00, 0x00, 0x80,
   0x00, 0x00, 0x78, 0x00, 0x00, 0x00, 0x00, 0x00, 0x80, 0x83, 0x00, 0x00,
   0x00, 0x00, 0x00, 0x00, 0x08, 0x00, 0x80, 0x03, 0x00, 0x00, 0x00, 0x00,
   0x1c, 0x04, 0xc0, 0x20, 0x00, 0x00, 0x00, 0x00, 0x00, 0x00, 0x00, 0x00,
   0x00, 0x00, 0x20, 0x00, 0x00, 0x00, 0x00, 0x00, 0x02, 0x00, 0x00, 0x00,
   0x00, 0x00, 0x00, 0x00, 0x40, 0x00, 0x00, 0x00, 0x00, 0x01, 0x00, 0x00,
   0x00, 0x00, 0x00, 0x00, 0x00, 0x00, 0x40, 0x00, 0x00, 0x00, 0x00, 0x00,
   0x00, 0x10, 0x00, 0x00, 0x00, 0x00, 0x00, 0x00, 0x00, 0x00, 0x02, 0xc0,
   0x20, 0x00, 0x00, 0x00, 0x00, 0x00, 0x00, 0x00, 0x00, 0x00, 0x00, 0x20,
   0x00, 0x00, 0x00, 0x00, 0x00, 0x00, 0x00, 0x00, 0x00, 0x00, 0x00, 0x00,
   0x00, 0x40, 0x00, 0x00, 0x00, 0x00, 0x01, 0x00, 0x00, 0x00, 0x00, 0x00,
   0x00, 0x00, 0x00, 0x40, 0x00, 0x00, 0x00, 0x00, 0x00, 0x00, 0x10, 0x00,
   0x00, 0x00, 0x00, 0x00, 0x00, 0x00, 0x00, 0x02, 0xc0, 0x00, 0x00, 0x00,
   0x00, 0x00, 0x00, 0x00, 0x00, 0x00, 0x00, 0x00, 0x00, 0x00, 0x00, 0x00,
   0x00, 0x00, 0x00, 0x00, 0x00, 0x00, 0x00, 0x00, 0x00, 0x00, 0x00, 0x00,
   0x00, 0x00, 0x00, 0x00, 0x00, 0x00, 0x00, 0x00, 0x00, 0x00, 0x00, 0x00,
   0x00, 0x00, 0x00, 0x00, 0x00, 0x00, 0x00, 0x00, 0x00, 0x00, 0x00, 0x00,
   0x00, 0x00, 0x00, 0x00, 0x00, 0xc0, 0x00, 0x00, 0x00, 0x00, 0x00, 0x00,
   0x00, 0x00, 0x00, 0x00, 0x00, 0x00, 0x00, 0x00, 0x00, 0x00, 0x00, 0x00,
   0x00, 0x00, 0x00, 0x00, 0x00, 0x00, 0x00, 0x00, 0x00, 0x00, 0x00, 0x00,
   0x00, 0x00, 0x00, 0x00, 0x00, 0x00, 0x00, 0x00, 0x00, 0x00, 0x00, 0x00,
   0x00, 0x00, 0x00, 0x00, 0x00, 0x00, 0x00, 0x00, 0x00, 0x00, 0x00, 0x00,
   0x00, 0x00, 0xc0, 0x00, 0x00, 0x00, 0x00, 0x00, 0x00, 0x00, 0x00, 0x00,
   0x00, 0x00, 0x00, 0x00, 0x00, 0x00, 0x00, 0x00, 0x00, 0x00, 0x00, 0x00,
   0x00, 0x00, 0x00, 0x00, 0x00, 0x00, 0x00, 0x00, 0x00, 0x00, 0x00, 0x00,
   0x00, 0x00, 0x00, 0x00, 0x00, 0x00, 0x00, 0x00, 0x00, 0x00, 0x00, 0x00,
   0x00, 0x00, 0x00, 0x00, 0x00, 0x00, 0x00, 0x00, 0x00, 0x00, 0x00, 0xc0};
