#define opt3c1_width 91
#define opt3c1_height 104
static char opt3c1_bits[] = {
   0x00, 0x00, 0x00, 0x00, 0x00, 0x00, 0x00, 0x00, 0x00, 0x00, 0x00, 0xf8,
   0x00, 0x00, 0x00, 0x00, 0x00, 0x00, 0x00, 0x00, 0x00, 0x00, 0x00, 0xf8,
   0x00, 0x00, 0x00, 0x00, 0x00, 0x00, 0x00, 0x00, 0x00, 0x00, 0x00, 0xf8,
   0x00, 0x00, 0x00, 0x00, 0x00, 0x00, 0x00, 0x00, 0x00, 0x00, 0x00, 0xf8,
   0x80, 0x01, 0x00, 0x00, 0xf0, 0x18, 0x00, 0x00, 0x00, 0x00, 0x00, 0xf8,
   0xe0, 0x01, 0x00, 0x0c, 0xe0, 0x08, 0x00, 0x00, 0x60, 0x80, 0x0f, 0xf8,
   0x80, 0x01, 0x00, 0x03, 0xc0, 0x04, 0x00, 0x00, 0x18, 0x80, 0x07, 0xf8,
   0x80, 0x01, 0xc0, 0x00, 0xc0, 0x03, 0x00, 0x00, 0x06, 0x80, 0x00, 0xf8,
   0x80, 0x01, 0x30, 0x00, 0x80, 0x03, 0x00, 0x80, 0x01, 0x80, 0x03, 0xf8,
   0x80, 0x01, 0x08, 0x00, 0x00, 0x03, 0x00, 0x40, 0x00, 0x80, 0x0c, 0xf8,
   0x80, 0x01, 0x08, 0x00, 0x80, 0x07, 0x00, 0x40, 0x00, 0x00, 0x18, 0xf8,
   0x80, 0x01, 0x30, 0x00, 0x40, 0x0e, 0x08, 0x80, 0x01, 0x80, 0x18, 0xf8,
   0x80, 0x01, 0xc0, 0x00, 0x20, 0x0c, 0x0c, 0x00, 0x06, 0xc0, 0x18, 0xf8,
   0x80, 0x01, 0x00, 0x03, 0x30, 0x1c, 0x08, 0x00, 0x18, 0x40, 0x0c, 0xf8,
   0xe0, 0x03, 0x00, 0x0c, 0x78, 0x7c, 0x08, 0x00, 0x60, 0x80, 0x07, 0xf8,
   0x00, 0x00, 0x00, 0x00, 0x00, 0x00, 0x08, 0x00, 0x00, 0x00, 0x00, 0xf8,
   0x00, 0x00, 0x00, 0x00, 0x00, 0x00, 0x08, 0x00, 0x00, 0x00, 0x00, 0xf8,
   0x00, 0x00, 0x00, 0x00, 0x00, 0x00, 0x1c, 0x00, 0x00, 0x00, 0x00, 0xf8,
   0x00, 0x00, 0x00, 0x00, 0x00, 0x00, 0x00, 0x00, 0x00, 0x00, 0x00, 0xf8,
   0x00, 0x00, 0x00, 0x00, 0x00, 0x00, 0x00, 0x00, 0x00, 0x00, 0x00, 0xf8,
   0x00, 0x00, 0x00, 0x00, 0x00, 0x00, 0x00, 0x00, 0x00, 0x00, 0x00, 0xf8,
   0x00, 0x00, 0x00, 0x00, 0x00, 0x00, 0x00, 0x00, 0x00, 0x00, 0x00, 0xf8,
   0x00, 0x00, 0x00, 0x00, 0x00, 0x00, 0x00, 0x00, 0x00, 0x00, 0x00, 0xf8,
   0x00, 0x00, 0x00, 0x00, 0x00, 0x00, 0x00, 0x00, 0x00, 0x00, 0x00, 0xf8,
   0x00, 0x00, 0x00, 0x00, 0x00, 0x00, 0x00, 0x00, 0x00, 0x00, 0x00, 0xf8,
   0x00, 0x00, 0x00, 0x00, 0x00, 0x00, 0x00, 0x00, 0x00, 0x00, 0x00, 0xf8,
   0x00, 0x00, 0x00, 0x00, 0x00, 0x00, 0x00, 0x00, 0x00, 0x00, 0x00, 0xf8,
   0x00, 0x00, 0x00, 0x00, 0x00, 0x00, 0x00, 0x00, 0x00, 0x00, 0x00, 0xf8,
   0x00, 0x00, 0x00, 0x00, 0x00, 0x00, 0x00, 0x00, 0x00, 0x00, 0x00, 0xf8,
   0x00, 0x00, 0x00, 0x00, 0x00, 0x00, 0x00, 0x00, 0x00, 0x00, 0x00, 0xf8,
   0x00, 0x00, 0x00, 0x00, 0x00, 0x00, 0x00, 0x00, 0x00, 0x00, 0x00, 0xf8,
   0x00, 0x00, 0x00, 0x00, 0x00, 0x00, 0x00, 0x00, 0x00, 0x00, 0x00, 0xf8,
   0x80, 0x01, 0x00, 0x00, 0xf0, 0x18, 0x00, 0x00, 0x00, 0x00, 0x00, 0xf8,
   0xe0, 0x01, 0x00, 0x0c, 0xe0, 0x08, 0x00, 0x00, 0x60, 0x80, 0x0f, 0xf8,
   0x80, 0x01, 0x00, 0x03, 0xc0, 0x04, 0x00, 0x00, 0x18, 0x80, 0x07, 0xf8,
   0x80, 0x01, 0xc0, 0x00, 0xc0, 0x03, 0x00, 0x00, 0x06, 0x80, 0x00, 0xf8,
   0x80, 0x01, 0x30, 0x00, 0x80, 0x03, 0x00, 0x80, 0x01, 0x80, 0x03, 0xf8,
   0x80, 0x01, 0x08, 0x00, 0x00, 0x03, 0x00, 0x40, 0x00, 0x80, 0x0c, 0xf8,
   0x80, 0x01, 0x08, 0x00, 0x80, 0x07, 0x1e, 0x40, 0x00, 0x00, 0x18, 0xf8,
   0x80, 0x01, 0x30, 0x00, 0x40, 0x0e, 0x12, 0x80, 0x01, 0x80, 0x18, 0xf8,
   0x80, 0x01, 0xc0, 0x00, 0x20, 0x0c, 0x30, 0x00, 0x06, 0xc0, 0x18, 0xf8,
   0x80, 0x01, 0x00, 0x03, 0x30, 0x1c, 0x10, 0x00, 0x18, 0x40, 0x0c, 0xf8,
   0xe0, 0x03, 0x00, 0x0c, 0x78, 0x7c, 0x08, 0x00, 0x60, 0x80, 0x07, 0xf8,
   0x00, 0x00, 0x00, 0x00, 0x00, 0x00, 0x24, 0x00, 0x00, 0x00, 0x00, 0xf8,
   0x00, 0x00, 0x00, 0x00, 0x00, 0x00, 0x1e, 0x00, 0x00, 0x00, 0x00, 0xf8,
   0x00, 0x00, 0x00, 0x00, 0x00, 0x00, 0x00, 0x00, 0x00, 0x00, 0x00, 0xf8,
   0x00, 0x00, 0x00, 0x00, 0x00, 0x00, 0x00, 0x00, 0x00, 0x00, 0x00, 0xf8,
   0x00, 0x00, 0x00, 0x00, 0x00, 0x00, 0x00, 0x00, 0x00, 0x00, 0x00, 0xf8,
   0x00, 0x00, 0x00, 0x00, 0x00, 0x00, 0x00, 0x00, 0x00, 0x00, 0x00, 0xf8,
   0x00, 0x00, 0x00, 0x00, 0x00, 0x00, 0x00, 0x00, 0x00, 0x00, 0x00, 0xf8,
   0x00, 0x00, 0x00, 0x00, 0x00, 0x00, 0x00, 0x00, 0x00, 0x00, 0x00, 0xf8,
   0x00, 0x00, 0x00, 0x00, 0x00, 0x00, 0x00, 0x00, 0x00, 0x00, 0x00, 0xf8,
   0x00, 0x00, 0x00, 0x00, 0x00, 0x00, 0x00, 0x00, 0x00, 0x00, 0x00, 0xf8,
   0x00, 0x00, 0x00, 0x00, 0x00, 0x00, 0x00, 0x00, 0x00, 0x00, 0x00, 0xf8,
   0x00, 0x00, 0x00, 0x00, 0x00, 0x00, 0x00, 0x00, 0x00, 0x00, 0x00, 0xf8,
   0x00, 0x00, 0x00, 0x00, 0x00, 0x00, 0x00, 0x00, 0x00, 0x00, 0x00, 0xf8,
   0x00, 0x00, 0x00, 0x00, 0x00, 0x00, 0x00, 0x00, 0x00, 0x00, 0x00, 0xf8,
   0x00, 0x00, 0x00, 0x00, 0x00, 0x00, 0x00, 0x00, 0x00, 0x00, 0x00, 0xf8,
   0x00, 0x00, 0x00, 0x00, 0x00, 0x00, 0x00, 0x00, 0x00, 0x00, 0x00, 0xf8,
   0x80, 0x01, 0x00, 0x00, 0xf0, 0x18, 0x00, 0x00, 0x00, 0x00, 0x00, 0xf8,
   0xe0, 0x01, 0x00, 0x0c, 0xe0, 0x08, 0x00, 0x00, 0x60, 0x80, 0x0f, 0xf8,
   0x80, 0x01, 0x00, 0x03, 0xc0, 0x04, 0x00, 0x00, 0x18, 0x80, 0x07, 0xf8,
   0x80, 0x01, 0xc0, 0x00, 0xc0, 0x03, 0x00, 0x00, 0x06, 0x80, 0x00, 0xf8,
   0x80, 0x01, 0x30, 0x00, 0x80, 0x03, 0x00, 0x80, 0x01, 0x80, 0x03, 0xf8,
   0x80, 0x01, 0x08, 0x00, 0x00, 0x03, 0x00, 0x40, 0x00, 0x80, 0x0c, 0xf8,
   0x80, 0x01, 0x08, 0x00, 0x80, 0x07, 0x00, 0x40, 0x00, 0x00, 0x18, 0xf8,
   0x80, 0x01, 0x30, 0x00, 0x40, 0x0e, 0x0c, 0x80, 0x01, 0x80, 0x18, 0xf8,
   0x80, 0x01, 0xc0, 0x00, 0x20, 0x0c, 0x12, 0x00, 0x06, 0xc0, 0x18, 0xf8,
   0x80, 0x01, 0x00, 0x03, 0x30, 0x1c, 0x10, 0x00, 0x18, 0x40, 0x0c, 0xf8,
   0xe0, 0x03, 0x00, 0x0c, 0x78, 0x7c, 0x0c, 0x00, 0x60, 0x80, 0x07, 0xf8,
   0x00, 0x00, 0x00, 0x00, 0x00, 0x00, 0x10, 0x00, 0x00, 0x00, 0x00, 0xf8,
   0x00, 0x00, 0x00, 0x00, 0x00, 0x00, 0x12, 0x00, 0x00, 0x00, 0x00, 0xf8,
   0x00, 0x00, 0x00, 0x00, 0x00, 0x00, 0x0c, 0x00, 0x00, 0x00, 0x00, 0xf8,
   0x00, 0x00, 0x00, 0x00, 0x00, 0x00, 0x00, 0x00, 0x00, 0x00, 0x00, 0xf8,
   0x00, 0x00, 0x00, 0x00, 0x00, 0x00, 0x00, 0x00, 0x00, 0x00, 0x00, 0xf8,
   0x00, 0x00, 0x00, 0x00, 0x00, 0x00, 0x00, 0x00, 0x00, 0x00, 0x00, 0xf8,
   0x00, 0x00, 0x00, 0x00, 0x00, 0x00, 0x00, 0x00, 0x00, 0x00, 0x00, 0xf8,
   0x00, 0x00, 0x00, 0x00, 0x00, 0x00, 0x00, 0x00, 0x00, 0x00, 0x00, 0xf8,
   0x00, 0x00, 0x00, 0x00, 0x00, 0x00, 0x00, 0x00, 0x00, 0x00, 0x00, 0xf8,
   0x00, 0x00, 0x00, 0x00, 0x00, 0x00, 0x00, 0x00, 0x00, 0x00, 0x00, 0xf8,
   0x00, 0x00, 0x00, 0x00, 0x00, 0x00, 0x00, 0x00, 0x00, 0x00, 0x00, 0xf8,
   0x00, 0x00, 0x00, 0x00, 0x00, 0x00, 0x00, 0x00, 0x00, 0x00, 0x00, 0xf8,
   0x00, 0x00, 0x00, 0x00, 0x00, 0x00, 0x00, 0x00, 0x00, 0x00, 0x00, 0xf8,
   0x00, 0x00, 0x00, 0x00, 0x00, 0x00, 0x00, 0x00, 0x00, 0x00, 0x00, 0xf8,
   0x00, 0x00, 0x00, 0x00, 0x00, 0x00, 0x00, 0x00, 0x00, 0x00, 0x00, 0xf8,
   0x00, 0x00, 0x00, 0x00, 0x00, 0x00, 0x00, 0x00, 0x00, 0x00, 0x00, 0xf8,
   0x00, 0x00, 0x00, 0x00, 0x00, 0x00, 0x00, 0x00, 0x00, 0x00, 0x00, 0xf8,
   0x80, 0x01, 0x00, 0x00, 0xf0, 0x18, 0x00, 0x00, 0x00, 0x00, 0x00, 0xf8,
   0xe0, 0x01, 0x00, 0x0c, 0xe0, 0x08, 0x00, 0x00, 0x60, 0x80, 0x0f, 0xf8,
   0x80, 0x01, 0x00, 0x03, 0xc0, 0x04, 0x00, 0x00, 0x18, 0x80, 0x07, 0xf8,
   0x80, 0x01, 0xc0, 0x00, 0xc0, 0x03, 0x00, 0x00, 0x06, 0x80, 0x00, 0xf8,
   0x80, 0x01, 0x30, 0x00, 0x80, 0x03, 0x00, 0x80, 0x01, 0x80, 0x03, 0xf8,
   0x80, 0x01, 0x08, 0x00, 0x00, 0x03, 0x00, 0x40, 0x00, 0x80, 0x0c, 0xf8,
   0x80, 0x01, 0x08, 0x00, 0x80, 0x07, 0x00, 0x40, 0x00, 0x00, 0x18, 0xf8,
   0x80, 0x01, 0x30, 0x00, 0x40, 0x0e, 0x10, 0x80, 0x01, 0x80, 0x18, 0xf8,
   0x80, 0x01, 0xc0, 0x00, 0x20, 0x0c, 0x18, 0x00, 0x06, 0xc0, 0x18, 0xf8,
   0x80, 0x01, 0x00, 0x03, 0x30, 0x1c, 0x14, 0x00, 0x18, 0x40, 0x0c, 0xf8,
   0xe0, 0x03, 0x00, 0x0c, 0x78, 0x7c, 0x12, 0x00, 0x60, 0x80, 0x07, 0xf8,
   0x00, 0x00, 0x00, 0x00, 0x00, 0x00, 0x3e, 0x00, 0x00, 0x00, 0x00, 0xf8,
   0x00, 0x00, 0x00, 0x00, 0x00, 0x00, 0x10, 0x00, 0x00, 0x00, 0x00, 0xf8,
   0x00, 0x00, 0x00, 0x00, 0x00, 0x00, 0x38, 0x00, 0x00, 0x00, 0x00, 0xf8,
   0x00, 0x00, 0x00, 0x00, 0x00, 0x00, 0x00, 0x00, 0x00, 0x00, 0x00, 0xf8,
   0x00, 0x00, 0x00, 0x00, 0x00, 0x00, 0x00, 0x00, 0x00, 0x00, 0x00, 0xf8,
   0x00, 0x00, 0x00, 0x00, 0x00, 0x00, 0x00, 0x00, 0x00, 0x00, 0x00, 0xf8};
