#define opt3_width 211
#define opt3_height 21
static char opt3_bits[] = {
   0x00, 0x00, 0x00, 0x00, 0x00, 0x00, 0x00, 0x00, 0x00, 0x00, 0x00, 0x00,
   0x00, 0x00, 0x00, 0x00, 0x00, 0x00, 0x00, 0x00, 0x00, 0x00, 0x00, 0x00,
   0x00, 0x00, 0xf8, 0x00, 0x00, 0x00, 0x00, 0x00, 0x00, 0x00, 0x00, 0x00,
   0x00, 0x00, 0x00, 0x00, 0x00, 0x00, 0x00, 0x00, 0x00, 0x00, 0x00, 0x00,
   0x00, 0x00, 0x00, 0x00, 0x00, 0xf8, 0x00, 0x00, 0x00, 0x00, 0x00, 0x00,
   0x20, 0x00, 0x00, 0x00, 0x00, 0x00, 0x00, 0x00, 0x00, 0x00, 0x00, 0x00,
   0x00, 0x00, 0x08, 0x00, 0x00, 0x00, 0x00, 0x00, 0xf8, 0x00, 0x00, 0x00,
   0x00, 0x00, 0x00, 0x20, 0x00, 0x00, 0x00, 0x00, 0x00, 0x00, 0x00, 0x00,
   0x00, 0x00, 0x00, 0x00, 0x00, 0x08, 0x00, 0x00, 0x00, 0x00, 0x00, 0xf8,
   0x00, 0x8f, 0x01, 0xc0, 0x63, 0x00, 0x20, 0x3c, 0x06, 0x00, 0x00, 0x00,
   0x78, 0x0c, 0x00, 0x00, 0x00, 0xe0, 0x31, 0x00, 0x08, 0x00, 0x00, 0xe0,
   0x31, 0x00, 0xf8, 0x00, 0x8e, 0x00, 0x80, 0x23, 0x00, 0x10, 0x38, 0x02,
   0x00, 0x00, 0x00, 0x70, 0x04, 0x00, 0x00, 0x00, 0xc0, 0x11, 0x00, 0x10,
   0x00, 0x00, 0xc0, 0x11, 0x00, 0xf8, 0x00, 0x4c, 0x00, 0x00, 0x13, 0x00,
   0x10, 0x30, 0x01, 0x00, 0x00, 0x00, 0x60, 0x02, 0x00, 0x00, 0x00, 0x80,
   0x09, 0x00, 0x10, 0x00, 0x00, 0x80, 0x09, 0x00, 0xf8, 0x00, 0x3c, 0x00,
   0x00, 0x0f, 0x00, 0x10, 0xf0, 0x00, 0x00, 0x80, 0x00, 0xe0, 0x01, 0x00,
   0x00, 0x02, 0x80, 0x07, 0x00, 0x30, 0x00, 0x02, 0x80, 0x07, 0x00, 0xf8,
   0x00, 0x38, 0x00, 0x00, 0x0e, 0x00, 0x08, 0xe0, 0x00, 0x00, 0x80, 0x00,
   0xc0, 0x01, 0x00, 0x00, 0x02, 0x00, 0x07, 0x00, 0x20, 0x00, 0x02, 0x00,
   0x07, 0x00, 0xf8, 0x00, 0x30, 0x00, 0x00, 0x0c, 0x00, 0x08, 0xc0, 0x00,
   0x00, 0x80, 0x00, 0x80, 0x01, 0x00, 0x00, 0x02, 0x00, 0x06, 0x00, 0x20,
   0x00, 0x02, 0x00, 0x06, 0x00, 0xf8, 0x00, 0x78, 0x00, 0x00, 0x1e, 0x00,
   0x08, 0xe0, 0x01, 0x00, 0x80, 0x00, 0xc0, 0x03, 0x00, 0x00, 0x02, 0x00,
   0x0f, 0x00, 0x20, 0x00, 0x02, 0x00, 0x0f, 0x00, 0xf8, 0x00, 0xe4, 0x80,
   0x00, 0x39, 0x40, 0x08, 0x90, 0x03, 0x02, 0xf8, 0x0f, 0x20, 0x07, 0x1c,
   0xe0, 0x3f, 0x80, 0x1c, 0x38, 0x20, 0xe0, 0x3f, 0x80, 0x1c, 0x38, 0xf8,
   0x00, 0xc2, 0xc0, 0x80, 0x30, 0x60, 0x08, 0x08, 0x03, 0x03, 0x80, 0x00,
   0x10, 0x06, 0x32, 0x00, 0x02, 0x40, 0x18, 0x64, 0x20, 0x00, 0x02, 0x40,
   0x18, 0x64, 0xf8, 0x00, 0xc3, 0x81, 0xc0, 0x70, 0x50, 0x08, 0x0c, 0x07,
   0x02, 0x80, 0x00, 0x18, 0x0e, 0x30, 0x00, 0x02, 0x60, 0x38, 0x60, 0x20,
   0x00, 0x02, 0x60, 0x38, 0x60, 0xf8, 0x80, 0xc7, 0x83, 0xe0, 0xf1, 0x48,
   0x10, 0x1e, 0x0f, 0x02, 0x80, 0x00, 0x3c, 0x1e, 0x3c, 0x00, 0x02, 0xf0,
   0xf8, 0x78, 0x10, 0x00, 0x02, 0xf0, 0xf8, 0x78, 0xf8, 0x00, 0x00, 0x80,
   0x00, 0x00, 0xf8, 0x10, 0x00, 0x00, 0x02, 0x80, 0x00, 0x00, 0x00, 0x30,
   0x00, 0x02, 0x00, 0x00, 0x60, 0x10, 0x00, 0x02, 0x00, 0x00, 0x60, 0xf8,
   0x00, 0x00, 0x80, 0x00, 0x00, 0x40, 0x10, 0x00, 0x00, 0x02, 0x00, 0x00,
   0x00, 0x00, 0x32, 0x00, 0x00, 0x00, 0x00, 0x64, 0x10, 0x00, 0x00, 0x00,
   0x00, 0x64, 0xf8, 0x00, 0x00, 0xc0, 0x01, 0x00, 0xe0, 0x20, 0x00, 0x00,
   0x07, 0x00, 0x00, 0x00, 0x00, 0x1c, 0x00, 0x00, 0x00, 0x00, 0x38, 0x08,
   0x00, 0x00, 0x00, 0x00, 0x38, 0xf8, 0x00, 0x00, 0x00, 0x00, 0x00, 0x00,
   0x20, 0x00, 0x00, 0x00, 0x00, 0x00, 0x00, 0x00, 0x00, 0x00, 0x00, 0x00,
   0x00, 0x00, 0x08, 0x00, 0x00, 0x00, 0x00, 0x00, 0xf8, 0x00, 0x00, 0x00,
   0x00, 0x00, 0x00, 0x00, 0x00, 0x00, 0x00, 0x00, 0x00, 0x00, 0x00, 0x00,
   0x00, 0x00, 0x00, 0x00, 0x00, 0x00, 0x00, 0x00, 0x00, 0x00, 0x00, 0xf8,
   0x00, 0x00, 0x00, 0x00, 0x00, 0x00, 0x00, 0x00, 0x00, 0x00, 0x00, 0x00,
   0x00, 0x00, 0x00, 0x00, 0x00, 0x00, 0x00, 0x00, 0x00, 0x00, 0x00, 0x00,
   0x00, 0x00, 0xf8};
