#define opt4c1_width 154
#define opt4c1_height 188
static char opt4c1_bits[] = {
   0x00, 0x00, 0x00, 0x00, 0x00, 0x00, 0x00, 0x00, 0x00, 0x00, 0x00, 0x00,
   0x00, 0x00, 0x00, 0x00, 0x00, 0x00, 0x00, 0xfc, 0x00, 0x00, 0x00, 0x00,
   0x00, 0x00, 0x00, 0x00, 0x00, 0x00, 0x00, 0x00, 0x00, 0x00, 0x00, 0x00,
   0x00, 0x00, 0x00, 0xfc, 0x00, 0x00, 0x00, 0x00, 0x00, 0x00, 0x00, 0x00,
   0x00, 0x00, 0x00, 0x00, 0x00, 0x00, 0x00, 0x00, 0x00, 0x00, 0x00, 0xfc,
   0x00, 0x00, 0x00, 0x00, 0x00, 0x00, 0x00, 0x00, 0x00, 0x00, 0x00, 0x00,
   0x00, 0x00, 0x00, 0x00, 0x00, 0x00, 0x00, 0xfc, 0x00, 0x00, 0x00, 0x00,
   0x00, 0x00, 0x00, 0x00, 0x00, 0x00, 0x00, 0x00, 0x00, 0x00, 0x00, 0x00,
   0x00, 0x00, 0x00, 0xfc, 0x00, 0x00, 0xe0, 0x00, 0x38, 0x60, 0x00, 0x00,
   0x00, 0x3c, 0x06, 0x00, 0x00, 0x00, 0x80, 0x03, 0xe0, 0x80, 0x01, 0xfc,
   0x00, 0x00, 0x10, 0x01, 0x44, 0x78, 0x00, 0x00, 0x03, 0x18, 0x02, 0x00,
   0x00, 0x30, 0x40, 0x04, 0x10, 0xe1, 0x01, 0xfc, 0x00, 0x00, 0x18, 0x03,
   0xc6, 0x60, 0x00, 0xc0, 0x00, 0x30, 0x01, 0x00, 0x00, 0x0c, 0x60, 0x0c,
   0x18, 0x83, 0x01, 0xfc, 0x00, 0x00, 0x18, 0x03, 0xc6, 0x60, 0x00, 0x30,
   0x00, 0xf0, 0x00, 0x00, 0x00, 0x03, 0x60, 0x0c, 0x18, 0x83, 0x01, 0xfc,
   0x00, 0x00, 0x18, 0x03, 0xc6, 0x60, 0x00, 0x0c, 0x00, 0xe0, 0x00, 0x00,
   0xc0, 0x00, 0x60, 0x0c, 0x18, 0x83, 0x01, 0xfc, 0x00, 0x00, 0x18, 0x03,
   0xc6, 0x60, 0x00, 0x02, 0x00, 0xc0, 0x00, 0x00, 0x20, 0x00, 0x60, 0x0c,
   0x18, 0x83, 0x01, 0xfc, 0x00, 0x00, 0x18, 0x03, 0xc6, 0x60, 0x00, 0x02,
   0x00, 0xe0, 0x01, 0x00, 0x20, 0x00, 0x60, 0x0c, 0x18, 0x83, 0x01, 0xfc,
   0x00, 0x7e, 0x18, 0x03, 0xc6, 0x60, 0x00, 0x0c, 0x00, 0x90, 0x03, 0x04,
   0xc0, 0x00, 0x60, 0x0c, 0x18, 0x83, 0x01, 0xfc, 0x00, 0x00, 0x18, 0x03,
   0xc6, 0x60, 0x00, 0x30, 0x00, 0x08, 0x03, 0x06, 0x00, 0x03, 0x60, 0x0c,
   0x18, 0x83, 0x01, 0xfc, 0x00, 0x00, 0x10, 0x31, 0x44, 0x60, 0x00, 0xc0,
   0x00, 0x0c, 0x07, 0x04, 0x00, 0x0c, 0x40, 0xc4, 0x10, 0x81, 0x01, 0xfc,
   0x00, 0x00, 0xe0, 0x30, 0x38, 0xf8, 0x00, 0x00, 0x03, 0x1e, 0x1f, 0x04,
   0x00, 0x30, 0x80, 0xc3, 0xe0, 0xe0, 0x03, 0xfc, 0x00, 0x00, 0x00, 0x00,
   0x00, 0x00, 0x00, 0x00, 0x00, 0x00, 0x00, 0x04, 0x00, 0x00, 0x00, 0x00,
   0x00, 0x00, 0x00, 0xfc, 0x00, 0x00, 0x00, 0x00, 0x00, 0x00, 0x00, 0x00,
   0x00, 0x00, 0x00, 0x04, 0x00, 0x00, 0x00, 0x00, 0x00, 0x00, 0x00, 0xfc,
   0x00, 0x00, 0x00, 0x00, 0x00, 0x00, 0x00, 0x00, 0x00, 0x00, 0x00, 0x0e,
   0x00, 0x00, 0x00, 0x00, 0x00, 0x00, 0x00, 0xfc, 0x00, 0x00, 0x00, 0x00,
   0x00, 0x00, 0x00, 0x00, 0x00, 0x00, 0x00, 0x00, 0x00, 0x00, 0x00, 0x00,
   0x00, 0x00, 0x00, 0xfc, 0x00, 0x00, 0x00, 0x00, 0x00, 0x00, 0x00, 0x00,
   0x00, 0x00, 0x00, 0x00, 0x00, 0x00, 0x00, 0x00, 0x00, 0x00, 0x00, 0xfc,
   0x00, 0x00, 0x00, 0x00, 0x00, 0x00, 0x00, 0x00, 0x00, 0x00, 0x00, 0x00,
   0x00, 0x00, 0x00, 0x00, 0x00, 0x00, 0x00, 0xfc, 0x00, 0x00, 0x00, 0x00,
   0x00, 0x00, 0x00, 0x00, 0x00, 0x00, 0x00, 0x00, 0x00, 0x00, 0x00, 0x00,
   0x00, 0x00, 0x00, 0xfc, 0x00, 0x00, 0x00, 0x00, 0x00, 0x00, 0x00, 0x00,
   0x00, 0x00, 0x00, 0x00, 0x00, 0x00, 0x00, 0x00, 0x00, 0x00, 0x00, 0xfc,
   0x00, 0x00, 0x00, 0x00, 0x00, 0x00, 0x00, 0x00, 0x00, 0x00, 0x00, 0x00,
   0x00, 0x00, 0x00, 0x00, 0x00, 0x00, 0x00, 0xfc, 0x00, 0x00, 0x00, 0x00,
   0x00, 0x00, 0x00, 0x00, 0x00, 0x00, 0x00, 0x00, 0x00, 0x00, 0x00, 0x00,
   0x00, 0x00, 0x00, 0xfc, 0x00, 0x00, 0x00, 0x00, 0x00, 0x00, 0x00, 0x00,
   0x00, 0x00, 0x00, 0x00, 0x00, 0x00, 0x00, 0x00, 0x00, 0x00, 0x00, 0xfc,
   0x00, 0x00, 0x00, 0x00, 0x00, 0x00, 0x00, 0x00, 0x00, 0x00, 0x00, 0x00,
   0x00, 0x00, 0x00, 0x00, 0x00, 0x00, 0x00, 0xfc, 0x00, 0x00, 0x00, 0x00,
   0x00, 0x00, 0x00, 0x00, 0x00, 0x00, 0x00, 0x00, 0x00, 0x00, 0x00, 0x00,
   0x00, 0x00, 0x00, 0xfc, 0x00, 0x00, 0x00, 0x00, 0x00, 0x00, 0x00, 0x00,
   0x00, 0x00, 0x00, 0x00, 0x00, 0x00, 0x00, 0x00, 0x00, 0x00, 0x00, 0xfc,
   0x00, 0x00, 0x00, 0x00, 0x00, 0x00, 0x00, 0x00, 0x00, 0x00, 0x00, 0x00,
   0x00, 0x00, 0x00, 0x00, 0x00, 0x00, 0x00, 0xfc, 0x00, 0x00, 0x00, 0x00,
   0x00, 0x00, 0x00, 0x00, 0x00, 0x00, 0x00, 0x00, 0x00, 0x00, 0x00, 0x00,
   0x00, 0x00, 0x00, 0xfc, 0x00, 0x00, 0x00, 0x00, 0x00, 0x00, 0x00, 0x00,
   0x00, 0x00, 0x00, 0x00, 0x00, 0x00, 0x00, 0x00, 0x00, 0x00, 0x00, 0xfc,
   0x00, 0x00, 0x00, 0xc0, 0x01, 0x60, 0x00, 0x00, 0x00, 0x3c, 0x06, 0x00,
   0x00, 0x00, 0xc0, 0x01, 0x60, 0xf0, 0x03, 0xfc, 0x00, 0x00, 0x00, 0x20,
   0x02, 0x78, 0x00, 0x80, 0x01, 0x18, 0x02, 0x00, 0x00, 0x18, 0x20, 0x02,
   0x78, 0xf0, 0x01, 0xfc, 0x00, 0x00, 0x00, 0x30, 0x06, 0x60, 0x00, 0x60,
   0x00, 0x30, 0x01, 0x00, 0x00, 0x06, 0x30, 0x06, 0x60, 0x10, 0x00, 0xfc,
   0x00, 0x00, 0x00, 0x30, 0x06, 0x60, 0x00, 0x18, 0x00, 0xf0, 0x00, 0x00,
   0x80, 0x01, 0x30, 0x06, 0x60, 0x10, 0x00, 0xfc, 0x00, 0x00, 0x00, 0x30,
   0x06, 0x60, 0x00, 0x06, 0x00, 0xe0, 0x00, 0x00, 0x60, 0x00, 0x30, 0x06,
   0x60, 0x70, 0x00, 0xfc, 0x00, 0x00, 0x00, 0x30, 0x06, 0x60, 0x00, 0x01,
   0x00, 0xc0, 0x00, 0x00, 0x10, 0x00, 0x30, 0x06, 0x60, 0x90, 0x01, 0xfc,
   0x00, 0x00, 0x00, 0x30, 0x06, 0x60, 0x00, 0x01, 0x00, 0xe0, 0x01, 0x00,
   0x10, 0x00, 0x30, 0x06, 0x60, 0x00, 0x03, 0xfc, 0x00, 0x00, 0xfc, 0x30,
   0x06, 0x60, 0x00, 0x06, 0x00, 0x90, 0x03, 0x07, 0x60, 0x00, 0x30, 0x06,
   0x60, 0x10, 0x03, 0xfc, 0x00, 0x00, 0x00, 0x30, 0x06, 0x60, 0x00, 0x18,
   0x00, 0x08, 0x83, 0x0c, 0x80, 0x01, 0x30, 0x06, 0x60, 0x18, 0x03, 0xfc,
   0x00, 0x00, 0x00, 0x20, 0x62, 0x70, 0x00, 0x60, 0x00, 0x0c, 0x07, 0x0c,
   0x00, 0x06, 0x20, 0xc2, 0x60, 0x88, 0x01, 0xfc, 0x00, 0x00, 0x00, 0xc0,
   0x61, 0xf8, 0x00, 0x80, 0x01, 0x1e, 0x1f, 0x04, 0x00, 0x18, 0xc0, 0xc1,
   0xf8, 0xf0, 0x00, 0xfc, 0x00, 0x00, 0x00, 0x00, 0x00, 0x00, 0x00, 0x00,
   0x00, 0x00, 0x00, 0x02, 0x00, 0x00, 0x00, 0x00, 0x00, 0x00, 0x00, 0xfc,
   0x00, 0x00, 0x00, 0x00, 0x00, 0x00, 0x00, 0x00, 0x00, 0x00, 0x00, 0x09,
   0x00, 0x00, 0x00, 0x00, 0x00, 0x00, 0x00, 0xfc, 0x00, 0x00, 0x00, 0x00,
   0x00, 0x00, 0x00, 0x00, 0x00, 0x00, 0x80, 0x07, 0x00, 0x00, 0x00, 0x00,
   0x00, 0x00, 0x00, 0xfc, 0x00, 0x00, 0x00, 0x00, 0x00, 0x00, 0x00, 0x00,
   0x00, 0x00, 0x00, 0x00, 0x00, 0x00, 0x00, 0x00, 0x00, 0x00, 0x00, 0xfc,
   0x00, 0x00, 0x00, 0x00, 0x00, 0x00, 0x00, 0x00, 0x00, 0x00, 0x00, 0x00,
   0x00, 0x00, 0x00, 0x00, 0x00, 0x00, 0x00, 0xfc, 0x00, 0x00, 0x00, 0x00,
   0x00, 0x00, 0x00, 0x00, 0x00, 0x00, 0x00, 0x00, 0x00, 0x00, 0x00, 0x00,
   0x00, 0x00, 0x00, 0xfc, 0x00, 0x00, 0x00, 0x00, 0x00, 0x00, 0x00, 0x00,
   0x00, 0x00, 0x00, 0x00, 0x00, 0x00, 0x00, 0x00, 0x00, 0x00, 0x00, 0xfc,
   0x00, 0x00, 0x00, 0x00, 0x00, 0x00, 0x00, 0x00, 0x00, 0x00, 0x00, 0x00,
   0x00, 0x00, 0x00, 0x00, 0x00, 0x00, 0x00, 0xfc, 0x00, 0x00, 0x00, 0x00,
   0x00, 0x00, 0x00, 0x00, 0x00, 0x00, 0x00, 0x00, 0x00, 0x00, 0x00, 0x00,
   0x00, 0x00, 0x00, 0xfc, 0x00, 0x00, 0x00, 0x00, 0x00, 0x00, 0x00, 0x00,
   0x00, 0x00, 0x00, 0x00, 0x00, 0x00, 0x00, 0x00, 0x00, 0x00, 0x00, 0xfc,
   0x00, 0x00, 0x00, 0x00, 0x00, 0x00, 0x00, 0x00, 0x00, 0x00, 0x00, 0x00,
   0x00, 0x00, 0x00, 0x00, 0x00, 0x00, 0x00, 0xfc, 0x00, 0x00, 0x00, 0x00,
   0x00, 0x00, 0x00, 0x00, 0x00, 0x00, 0x00, 0x00, 0x00, 0x00, 0x00, 0x00,
   0x00, 0x00, 0x00, 0xfc, 0x00, 0x00, 0x00, 0x00, 0x00, 0x00, 0x00, 0x00,
   0x00, 0x00, 0x00, 0x00, 0x00, 0x00, 0x00, 0x00, 0x00, 0x00, 0x00, 0xfc,
   0x00, 0x00, 0x00, 0x00, 0x00, 0x00, 0x00, 0x00, 0x00, 0x00, 0x00, 0x00,
   0x00, 0x00, 0x00, 0x00, 0x00, 0x00, 0x00, 0xfc, 0x00, 0x00, 0x00, 0x00,
   0x00, 0x00, 0x00, 0x00, 0x00, 0x00, 0x00, 0x00, 0x00, 0x00, 0x00, 0x00,
   0x00, 0x00, 0x00, 0xfc, 0x00, 0x00, 0x00, 0x00, 0x00, 0x00, 0x00, 0x00,
   0x00, 0x00, 0x00, 0x00, 0x00, 0x00, 0x00, 0x00, 0x00, 0x00, 0x00, 0xfc,
   0x00, 0x00, 0x00, 0x00, 0x00, 0x00, 0x00, 0x00, 0x00, 0x00, 0x00, 0x00,
   0x00, 0x00, 0x00, 0x00, 0x00, 0x00, 0x00, 0xfc, 0x00, 0x00, 0xe0, 0x00,
   0x38, 0x60, 0x00, 0x00, 0x00, 0x3c, 0x06, 0x00, 0x00, 0x00, 0x80, 0x03,
   0xe0, 0xc0, 0x00, 0xfc, 0x00, 0x00, 0x10, 0x01, 0x44, 0x78, 0x00, 0x00,
   0x03, 0x38, 0x02, 0x00, 0x00, 0x30, 0x40, 0x04, 0x10, 0x21, 0x03, 0xfc,
   0x00, 0x00, 0x18, 0x03, 0xc6, 0x60, 0x00, 0xc0, 0x00, 0x30, 0x01, 0x00,
   0x00, 0x0c, 0x60, 0x0c, 0x18, 0x73, 0x06, 0xfc, 0x00, 0x00, 0x18, 0x03,
   0xc6, 0x60, 0x00, 0x30, 0x00, 0xf0, 0x00, 0x00, 0x00, 0x03, 0x60, 0x0c,
   0x18, 0x23, 0x03, 0xfc, 0x00, 0x00, 0x18, 0x03, 0xc6, 0x60, 0x00, 0x0c,
   0x00, 0xe0, 0x00, 0x00, 0xc0, 0x00, 0x60, 0x0c, 0x18, 0x03, 0x03, 0xfc,
   0x00, 0x00, 0x18, 0x03, 0xc6, 0x60, 0x00, 0x02, 0x00, 0xc0, 0x00, 0x00,
   0x20, 0x00, 0x60, 0x0c, 0x18, 0xc3, 0x01, 0xfc, 0x00, 0x00, 0x18, 0x03,
   0xc6, 0x60, 0x00, 0x02, 0x00, 0xe0, 0x01, 0x06, 0x20, 0x00, 0x60, 0x0c,
   0x18, 0x03, 0x06, 0xfc, 0x00, 0x7e, 0x18, 0x03, 0xc6, 0x60, 0x00, 0x0c,
   0x00, 0x90, 0x03, 0x09, 0xc0, 0x00, 0x60, 0x0c, 0x18, 0x13, 0x06, 0xfc,
   0x00, 0x00, 0x18, 0x03, 0xc6, 0x60, 0x00, 0x30, 0x00, 0x08, 0x03, 0x08,
   0x00, 0x03, 0x60, 0x0c, 0x18, 0x33, 0x06, 0xfc, 0x00, 0x00, 0x10, 0x31,
   0x44, 0x60, 0x00, 0xc0, 0x00, 0x0c, 0x07, 0x06, 0x00, 0x0c, 0x40, 0xc4,
   0x10, 0x31, 0x06, 0xfc, 0x00, 0x00, 0xe0, 0x30, 0x38, 0xf8, 0x00, 0x00,
   0x03, 0x1e, 0x1f, 0x08, 0x00, 0x30, 0x80, 0xc3, 0xe0, 0xe0, 0x03, 0xfc,
   0x00, 0x00, 0x00, 0x00, 0x00, 0x00, 0x00, 0x00, 0x00, 0x00, 0x00, 0x09,
   0x00, 0x00, 0x00, 0x00, 0x00, 0x00, 0x00, 0xfc, 0x00, 0x00, 0x00, 0x00,
   0x00, 0x00, 0x00, 0x00, 0x00, 0x00, 0x00, 0x06, 0x00, 0x00, 0x00, 0x00,
   0x00, 0x00, 0x00, 0xfc, 0x00, 0x00, 0x00, 0x00, 0x00, 0x00, 0x00, 0x00,
   0x00, 0x00, 0x00, 0x00, 0x00, 0x00, 0x00, 0x00, 0x00, 0x00, 0x00, 0xfc,
   0x00, 0x00, 0x00, 0x00, 0x00, 0x00, 0x00, 0x00, 0x00, 0x00, 0x00, 0x00,
   0x00, 0x00, 0x00, 0x00, 0x00, 0x00, 0x00, 0xfc, 0x00, 0x00, 0x00, 0x00,
   0x00, 0x00, 0x00, 0x00, 0x00, 0x00, 0x00, 0x00, 0x00, 0x00, 0x00, 0x00,
   0x00, 0x00, 0x00, 0xfc, 0x00, 0x00, 0x00, 0x00, 0x00, 0x00, 0x00, 0x00,
   0x00, 0x00, 0x00, 0x00, 0x00, 0x00, 0x00, 0x00, 0x00, 0x00, 0x00, 0xfc,
   0x00, 0x00, 0x00, 0x00, 0x00, 0x00, 0x00, 0x00, 0x00, 0x00, 0x00, 0x00,
   0x00, 0x00, 0x00, 0x00, 0x00, 0x00, 0x00, 0xfc, 0x00, 0x00, 0x00, 0x00,
   0x00, 0x00, 0x00, 0x00, 0x00, 0x00, 0x00, 0x00, 0x00, 0x00, 0x00, 0x00,
   0x00, 0x00, 0x00, 0xfc, 0x00, 0x00, 0x00, 0x00, 0x00, 0x00, 0x00, 0x00,
   0x00, 0x00, 0x00, 0x00, 0x00, 0x00, 0x00, 0x00, 0x00, 0x00, 0x00, 0xfc,
   0x00, 0x00, 0x00, 0x00, 0x00, 0x00, 0x00, 0x00, 0x00, 0x00, 0x00, 0x00,
   0x00, 0x00, 0x00, 0x00, 0x00, 0x00, 0x00, 0xfc, 0x00, 0x00, 0x00, 0x00,
   0x00, 0x00, 0x00, 0x00, 0x00, 0x00, 0x00, 0x00, 0x00, 0x00, 0x00, 0x00,
   0x00, 0x00, 0x00, 0xfc, 0x00, 0x00, 0x00, 0x00, 0x00, 0x00, 0x00, 0x00,
   0x00, 0x00, 0x00, 0x00, 0x00, 0x00, 0x00, 0x00, 0x00, 0x00, 0x00, 0xfc,
   0x00, 0x00, 0x00, 0x00, 0x00, 0x00, 0x00, 0x00, 0x00, 0x00, 0x00, 0x00,
   0x00, 0x00, 0x00, 0x00, 0x00, 0x00, 0x00, 0xfc, 0x00, 0x00, 0x00, 0x00,
   0x00, 0x00, 0x00, 0x00, 0x00, 0x00, 0x00, 0x00, 0x00, 0x00, 0x00, 0x00,
   0x00, 0x00, 0x00, 0xfc, 0x00, 0x00, 0x00, 0x00, 0x00, 0x00, 0x00, 0x00,
   0x00, 0x00, 0x00, 0x00, 0x00, 0x00, 0x00, 0x00, 0x00, 0x00, 0x00, 0xfc,
   0x00, 0x00, 0x00, 0x00, 0x00, 0x00, 0x00, 0x00, 0x00, 0x00, 0x00, 0x00,
   0x00, 0x00, 0x00, 0x00, 0x00, 0x00, 0x00, 0xfc, 0x00, 0x00, 0xe0, 0x00,
   0x38, 0x80, 0x00, 0x00, 0x00, 0x3c, 0x06, 0x00, 0x00, 0x00, 0x80, 0x03,
   0xe0, 0xc0, 0x00, 0xfc, 0x00, 0x00, 0x10, 0x01, 0x44, 0xc0, 0x00, 0x00,
   0x03, 0x38, 0x02, 0x00, 0x00, 0x30, 0x40, 0x04, 0x10, 0x31, 0x03, 0xfc,
   0x00, 0x00, 0x18, 0x03, 0xc6, 0xe0, 0x00, 0xc0, 0x00, 0x30, 0x01, 0x00,
   0x00, 0x0c, 0x60, 0x0c, 0x18, 0x33, 0x06, 0xfc, 0x00, 0x00, 0x18, 0x03,
   0xc6, 0xd0, 0x00, 0x30, 0x00, 0xf0, 0x00, 0x00, 0x00, 0x03, 0x60, 0x0c,
   0x18, 0x03, 0x06, 0xfc, 0x00, 0x00, 0x18, 0x03, 0xc6, 0xc8, 0x00, 0x0c,
   0x00, 0xe0, 0x00, 0x00, 0xc0, 0x00, 0x60, 0x0c, 0x18, 0x03, 0x06, 0xfc,
   0x00, 0x00, 0x18, 0x03, 0xc6, 0xc4, 0x00, 0x02, 0x00, 0xc0, 0x00, 0x00,
   0x20, 0x00, 0x60, 0x0c, 0x18, 0x03, 0x03, 0xfc, 0x00, 0x00, 0x18, 0x03,
   0xc6, 0xc4, 0x00, 0x02, 0x00, 0xe0, 0x01, 0x00, 0x20, 0x00, 0x60, 0x0c,
   0x18, 0x83, 0x01, 0xfc, 0x00, 0x7e, 0x18, 0x03, 0xc6, 0xfc, 0x01, 0x0c,
   0x00, 0x90, 0x03, 0x08, 0xc0, 0x00, 0x60, 0x0c, 0x18, 0xc3, 0x00, 0xfc,
   0x00, 0x00, 0x18, 0x03, 0xc6, 0xc0, 0x00, 0x30, 0x00, 0x08, 0x03, 0x0c,
   0x00, 0x03, 0x60, 0x0c, 0x18, 0x63, 0x04, 0xfc, 0x00, 0x00, 0x10, 0x31,
   0x44, 0xc0, 0x00, 0xc0, 0x00, 0x0c, 0x07, 0x0a, 0x00, 0x0c, 0x40, 0xc4,
   0x10, 0xf1, 0x07, 0xfc, 0x00, 0x00, 0xe0, 0x30, 0x38, 0xe0, 0x01, 0x00,
   0x03, 0x1e, 0x1f, 0x09, 0x00, 0x30, 0x80, 0xc3, 0xe0, 0xf0, 0x07, 0xfc,
   0x00, 0x00, 0x00, 0x00, 0x00, 0x00, 0x00, 0x00, 0x00, 0x00, 0x00, 0x1f,
   0x00, 0x00, 0x00, 0x00, 0x00, 0x00, 0x00, 0xfc, 0x00, 0x00, 0x00, 0x00,
   0x00, 0x00, 0x00, 0x00, 0x00, 0x00, 0x00, 0x08, 0x00, 0x00, 0x00, 0x00,
   0x00, 0x00, 0x00, 0xfc, 0x00, 0x00, 0x00, 0x00, 0x00, 0x00, 0x00, 0x00,
   0x00, 0x00, 0x00, 0x1c, 0x00, 0x00, 0x00, 0x00, 0x00, 0x00, 0x00, 0xfc,
   0x00, 0x00, 0x00, 0x00, 0x00, 0x00, 0x00, 0x00, 0x00, 0x00, 0x00, 0x00,
   0x00, 0x00, 0x00, 0x00, 0x00, 0x00, 0x00, 0xfc, 0x00, 0x00, 0x00, 0x00,
   0x00, 0x00, 0x00, 0x00, 0x00, 0x00, 0x00, 0x00, 0x00, 0x00, 0x00, 0x00,
   0x00, 0x00, 0x00, 0xfc, 0x00, 0x00, 0x00, 0x00, 0x00, 0x00, 0x00, 0x00,
   0x00, 0x00, 0x00, 0x00, 0x00, 0x00, 0x00, 0x00, 0x00, 0x00, 0x00, 0xfc,
   0x00, 0x00, 0x00, 0x00, 0x00, 0x00, 0x00, 0x00, 0x00, 0x00, 0x00, 0x00,
   0x00, 0x00, 0x00, 0x00, 0x00, 0x00, 0x00, 0xfc, 0x00, 0x00, 0x00, 0x00,
   0x00, 0x00, 0x00, 0x00, 0x00, 0x00, 0x00, 0x00, 0x00, 0x00, 0x00, 0x00,
   0x00, 0x00, 0x00, 0xfc, 0x00, 0x00, 0x00, 0x00, 0x00, 0x00, 0x00, 0x00,
   0x00, 0x00, 0x00, 0x00, 0x00, 0x00, 0x00, 0x00, 0x00, 0x00, 0x00, 0xfc,
   0x00, 0x00, 0x00, 0x00, 0x00, 0x00, 0x00, 0x00, 0x00, 0x00, 0x00, 0x00,
   0x00, 0x00, 0x00, 0x00, 0x00, 0x00, 0x00, 0xfc, 0x00, 0x00, 0x00, 0x00,
   0x00, 0x00, 0x00, 0x00, 0x00, 0x00, 0x00, 0x00, 0x00, 0x00, 0x00, 0x00,
   0x00, 0x00, 0x00, 0xfc, 0x00, 0x00, 0x00, 0x00, 0x00, 0x00, 0x00, 0x00,
   0x00, 0x00, 0x00, 0x00, 0x00, 0x00, 0x00, 0x00, 0x00, 0x00, 0x00, 0xfc,
   0x00, 0x00, 0x00, 0x00, 0x00, 0x00, 0x00, 0x00, 0x00, 0x00, 0x00, 0x00,
   0x00, 0x00, 0x00, 0x00, 0x00, 0x00, 0x00, 0xfc, 0x00, 0x00, 0x00, 0x00,
   0x00, 0x00, 0x00, 0x00, 0x00, 0x00, 0x00, 0x00, 0x00, 0x00, 0x00, 0x00,
   0x00, 0x00, 0x00, 0xfc, 0x00, 0x00, 0x00, 0x00, 0x00, 0x00, 0x00, 0x00,
   0x00, 0x00, 0x00, 0x00, 0x00, 0x00, 0x00, 0x00, 0x00, 0x00, 0x00, 0xfc,
   0x00, 0x00, 0x00, 0x00, 0x00, 0x00, 0x00, 0x00, 0x00, 0x00, 0x00, 0x00,
   0x00, 0x00, 0x00, 0x00, 0x00, 0x00, 0x00, 0xfc, 0x00, 0x00, 0x00, 0x00,
   0x00, 0x00, 0x00, 0x00, 0x00, 0x00, 0x00, 0x00, 0x00, 0x00, 0x00, 0x00,
   0x00, 0x00, 0x00, 0xfc, 0x00, 0x00, 0x00, 0xc0, 0x01, 0x60, 0x00, 0x00,
   0x00, 0x3c, 0x06, 0x00, 0x00, 0x00, 0xc0, 0x01, 0x70, 0xf0, 0x03, 0xfc,
   0x00, 0x00, 0x00, 0x20, 0x02, 0x78, 0x00, 0x80, 0x01, 0x38, 0x02, 0x00,
   0x00, 0x18, 0x20, 0x02, 0x88, 0xf0, 0x01, 0xfc, 0x00, 0x00, 0x00, 0x30,
   0x06, 0x60, 0x00, 0x60, 0x00, 0x30, 0x01, 0x00, 0x00, 0x06, 0x30, 0x06,
   0x8c, 0x11, 0x00, 0xfc, 0x00, 0x00, 0x00, 0x30, 0x06, 0x60, 0x00, 0x18,
   0x00, 0xf0, 0x00, 0x00, 0x80, 0x01, 0x30, 0x06, 0x8c, 0x11, 0x00, 0xfc,
   0x00, 0x00, 0x00, 0x30, 0x06, 0x60, 0x00, 0x06, 0x00, 0xe0, 0x00, 0x00,
   0x60, 0x00, 0x30, 0x06, 0x8c, 0x71, 0x00, 0xfc, 0x00, 0x00, 0x00, 0x30,
   0x06, 0x60, 0x00, 0x01, 0x00, 0xc0, 0x00, 0x00, 0x10, 0x00, 0x30, 0x06,
   0x8c, 0x91, 0x01, 0xfc, 0x00, 0x00, 0x00, 0x30, 0x06, 0x60, 0x00, 0x01,
   0x00, 0xe0, 0x01, 0x00, 0x10, 0x00, 0x30, 0x06, 0x8c, 0x01, 0x03, 0xfc,
   0x00, 0x00, 0xfc, 0x30, 0x06, 0x60, 0x00, 0x06, 0x00, 0x90, 0x83, 0x07,
   0x60, 0x00, 0x30, 0x06, 0x8c, 0x11, 0x03, 0xfc, 0x00, 0x00, 0x00, 0x30,
   0x06, 0x60, 0x00, 0x18, 0x00, 0x08, 0x83, 0x00, 0x80, 0x01, 0x30, 0x06,
   0x8c, 0x19, 0x03, 0xfc, 0x00, 0x00, 0x00, 0x20, 0x62, 0x60, 0x00, 0x60,
   0x00, 0x0c, 0x87, 0x03, 0x00, 0x06, 0x20, 0xc2, 0x88, 0x88, 0x01, 0xfc,
   0x00, 0x00, 0x00, 0xc0, 0x61, 0xf8, 0x00, 0x80, 0x01, 0x1e, 0x9f, 0x04,
   0x00, 0x18, 0xc0, 0xc1, 0x70, 0xf0, 0x00, 0xfc, 0x00, 0x00, 0x00, 0x00,
   0x00, 0x00, 0x00, 0x00, 0x00, 0x00, 0x00, 0x04, 0x00, 0x00, 0x00, 0x00,
   0x00, 0x00, 0x00, 0xfc, 0x00, 0x00, 0x00, 0x00, 0x00, 0x00, 0x00, 0x00,
   0x00, 0x00, 0x80, 0x04, 0x00, 0x00, 0x00, 0x00, 0x00, 0x00, 0x00, 0xfc,
   0x00, 0x00, 0x00, 0x00, 0x00, 0x00, 0x00, 0x00, 0x00, 0x00, 0x00, 0x03,
   0x00, 0x00, 0x00, 0x00, 0x00, 0x00, 0x00, 0xfc, 0x00, 0x00, 0x00, 0x00,
   0x00, 0x00, 0x00, 0x00, 0x00, 0x00, 0x00, 0x00, 0x00, 0x00, 0x00, 0x00,
   0x00, 0x00, 0x00, 0xfc, 0x00, 0x00, 0x00, 0x00, 0x00, 0x00, 0x00, 0x00,
   0x00, 0x00, 0x00, 0x00, 0x00, 0x00, 0x00, 0x00, 0x00, 0x00, 0x00, 0xfc,
   0x00, 0x00, 0x00, 0x00, 0x00, 0x00, 0x00, 0x00, 0x00, 0x00, 0x00, 0x00,
   0x00, 0x00, 0x00, 0x00, 0x00, 0x00, 0x00, 0xfc, 0x00, 0x00, 0x00, 0x00,
   0x00, 0x00, 0x00, 0x00, 0x00, 0x00, 0x00, 0x00, 0x00, 0x00, 0x00, 0x00,
   0x00, 0x00, 0x00, 0xfc, 0x00, 0x00, 0x00, 0x00, 0x00, 0x00, 0x00, 0x00,
   0x00, 0x00, 0x00, 0x00, 0x00, 0x00, 0x00, 0x00, 0x00, 0x00, 0x00, 0xfc,
   0x00, 0x00, 0x00, 0x00, 0x00, 0x00, 0x00, 0x00, 0x00, 0x00, 0x00, 0x00,
   0x00, 0x00, 0x00, 0x00, 0x00, 0x00, 0x00, 0xfc, 0x00, 0x00, 0x00, 0x00,
   0x00, 0x00, 0x00, 0x00, 0x00, 0x00, 0x00, 0x00, 0x00, 0x00, 0x00, 0x00,
   0x00, 0x00, 0x00, 0xfc, 0x00, 0x00, 0x00, 0x00, 0x00, 0x00, 0x00, 0x00,
   0x00, 0x00, 0x00, 0x00, 0x00, 0x00, 0x00, 0x00, 0x00, 0x00, 0x00, 0xfc,
   0x00, 0x00, 0x00, 0x00, 0x00, 0x00, 0x00, 0x00, 0x00, 0x00, 0x00, 0x00,
   0x00, 0x00, 0x00, 0x00, 0x00, 0x00, 0x00, 0xfc, 0x00, 0x00, 0x00, 0x00,
   0x00, 0x00, 0x00, 0x00, 0x00, 0x00, 0x00, 0x00, 0x00, 0x00, 0x00, 0x00,
   0x00, 0x00, 0x00, 0xfc, 0x00, 0x00, 0x00, 0x00, 0x00, 0x00, 0x00, 0x00,
   0x00, 0x00, 0x00, 0x00, 0x00, 0x00, 0x00, 0x00, 0x00, 0x00, 0x00, 0xfc,
   0x00, 0x00, 0x00, 0x00, 0x00, 0x00, 0x00, 0x00, 0x00, 0x00, 0x00, 0x00,
   0x00, 0x00, 0x00, 0x00, 0x00, 0x00, 0x00, 0xfc, 0x00, 0x00, 0x00, 0x00,
   0x00, 0x00, 0x00, 0x00, 0x00, 0x00, 0x00, 0x00, 0x00, 0x00, 0x00, 0x00,
   0x00, 0x00, 0x00, 0xfc, 0x00, 0x00, 0x00, 0x00, 0x00, 0x00, 0x00, 0x00,
   0x00, 0x00, 0x00, 0x00, 0x00, 0x00, 0x00, 0x00, 0x00, 0x00, 0x00, 0xfc,
   0x00, 0x00, 0xe0, 0x00, 0x38, 0x60, 0x00, 0x00, 0x00, 0x3c, 0x06, 0x00,
   0x00, 0x00, 0x00, 0x00, 0x00, 0x00, 0x00, 0xfc, 0x00, 0x00, 0x10, 0x01,
   0x44, 0x78, 0x00, 0x00, 0x03, 0x38, 0x02, 0x00, 0x00, 0x30, 0x00, 0x00,
   0x00, 0x00, 0x00, 0xfc, 0x00, 0x00, 0x18, 0x03, 0xc6, 0x60, 0x00, 0xc0,
   0x00, 0x30, 0x01, 0x00, 0x00, 0x0c, 0x00, 0x00, 0x00, 0x00, 0x00, 0xfc,
   0x00, 0x00, 0x18, 0x03, 0xc6, 0x60, 0x00, 0x30, 0x00, 0xf0, 0x00, 0x00,
   0x00, 0x03, 0x00, 0x00, 0x00, 0x00, 0x00, 0xfc, 0x00, 0x00, 0x18, 0x03,
   0xc6, 0x60, 0x00, 0x0c, 0x00, 0xe0, 0x00, 0x00, 0xc0, 0x00, 0xc0, 0xc3,
   0x03, 0x00, 0x00, 0xfc, 0x00, 0x00, 0x18, 0x03, 0xc6, 0x60, 0x00, 0x02,
   0x00, 0xc0, 0x00, 0x00, 0x20, 0x00, 0x20, 0x66, 0x04, 0x00, 0x00, 0xfc,
   0x00, 0x00, 0x18, 0x03, 0xc6, 0x60, 0x00, 0x02, 0x00, 0xe0, 0x01, 0x03,
   0x20, 0x00, 0x10, 0x3c, 0x08, 0x00, 0x00, 0xfc, 0x00, 0x7e, 0x18, 0x03,
   0xc6, 0x60, 0x00, 0x0c, 0x00, 0x90, 0x83, 0x04, 0xc0, 0x00, 0x10, 0x18,
   0x08, 0x00, 0x00, 0xfc, 0x00, 0x00, 0x18, 0x03, 0xc6, 0x60, 0x00, 0x30,
   0x00, 0x08, 0x83, 0x00, 0x00, 0x03, 0x10, 0x3c, 0x08, 0x00, 0x00, 0xfc,
   0x00, 0x00, 0x10, 0x31, 0x44, 0x60, 0x00, 0xc0, 0x00, 0x0c, 0x87, 0x03,
   0x00, 0x0c, 0x20, 0x66, 0x04, 0x00, 0x00, 0xfc, 0x00, 0x00, 0xe0, 0x30,
   0x38, 0xf8, 0x00, 0x00, 0x03, 0x1e, 0x9f, 0x04, 0x00, 0x30, 0xc0, 0xc3,
   0x03, 0x00, 0x00, 0xfc, 0x00, 0x00, 0x00, 0x00, 0x00, 0x00, 0x00, 0x00,
   0x00, 0x00, 0x80, 0x04, 0x00, 0x00, 0x00, 0x00, 0x00, 0x00, 0x00, 0xfc,
   0x00, 0x00, 0x00, 0x00, 0x00, 0x00, 0x00, 0x00, 0x00, 0x00, 0x00, 0x03,
   0x00, 0x00, 0x00, 0x00, 0x00, 0x00, 0x00, 0xfc, 0x00, 0x00, 0x00, 0x00,
   0x00, 0x00, 0x00, 0x00, 0x00, 0x00, 0x00, 0x00, 0x00, 0x00, 0x00, 0x00,
   0x00, 0x00, 0x00, 0xfc, 0x00, 0x00, 0x00, 0x00, 0x00, 0x00, 0x00, 0x00,
   0x00, 0x00, 0x00, 0x00, 0x00, 0x00, 0x00, 0x00, 0x00, 0x00, 0x00, 0xfc,
   0x00, 0x00, 0x00, 0x00, 0x00, 0x00, 0x00, 0x00, 0x00, 0x00, 0x00, 0x00,
   0x00, 0x00, 0x00, 0x00, 0x00, 0x00, 0x00, 0xfc, 0x00, 0x00, 0x00, 0x00,
   0x00, 0x00, 0x00, 0x00, 0x00, 0x00, 0x00, 0x00, 0x00, 0x00, 0x00, 0x00,
   0x00, 0x00, 0x00, 0xfc, 0x00, 0x00, 0x00, 0x00, 0x00, 0x00, 0x00, 0x00,
   0x00, 0x00, 0x00, 0x00, 0x00, 0x00, 0x00, 0x00, 0x00, 0x00, 0x00, 0xfc,
   0x00, 0x00, 0x00, 0x00, 0x00, 0x00, 0x00, 0x00, 0x00, 0x00, 0x00, 0x00,
   0x00, 0x00, 0x00, 0x00, 0x00, 0x00, 0x00, 0xfc, 0x00, 0x00, 0x00, 0x00,
   0x00, 0x00, 0x00, 0x00, 0x00, 0x00, 0x00, 0x00, 0x00, 0x00, 0x00, 0x00,
   0x00, 0x00, 0x00, 0xfc, 0x00, 0x00, 0x00, 0x00, 0x00, 0x00, 0x00, 0x00,
   0x00, 0x00, 0x00, 0x00, 0x00, 0x00, 0x00, 0x00, 0x00, 0x00, 0x00, 0xfc,
   0x00, 0x00, 0x00, 0x00, 0x00, 0x00, 0x00, 0x00, 0x00, 0x00, 0x00, 0x00,
   0x00, 0x00, 0x00, 0x00, 0x00, 0x00, 0x00, 0xfc, 0x00, 0x00, 0x00, 0x00,
   0x00, 0x00, 0x00, 0x00, 0x00, 0x00, 0x00, 0x00, 0x00, 0x00, 0x00, 0x00,
   0x00, 0x00, 0x00, 0xfc, 0x00, 0x00, 0x00, 0x00, 0x00, 0x00, 0x00, 0x00,
   0x00, 0x00, 0x00, 0x00, 0x00, 0x00, 0x00, 0x00, 0x00, 0x00, 0x00, 0xfc,
   0x00, 0x00, 0x00, 0x00, 0x00, 0x00, 0x00, 0x00, 0x00, 0x00, 0x00, 0x00,
   0x00, 0x00, 0x00, 0x00, 0x00, 0x00, 0x00, 0xfc, 0x00, 0x00, 0x00, 0x00,
   0x00, 0x00, 0x00, 0x00, 0x00, 0x00, 0x00, 0x00, 0x00, 0x00, 0x00, 0x00,
   0x00, 0x00, 0x00, 0xfc, 0x00, 0x00, 0x00, 0x00, 0x00, 0x00, 0x00, 0x00,
   0x00, 0x00, 0x00, 0x00, 0x00, 0x00, 0x00, 0x00, 0x00, 0x00, 0x00, 0xfc,
   0x00, 0x00, 0xe0, 0x00, 0x38, 0x60, 0x00, 0x00, 0x00, 0x3c, 0x06, 0x00,
   0x00, 0x00, 0x00, 0x00, 0x00, 0x00, 0x00, 0xfc, 0x00, 0x00, 0x10, 0x01,
   0x44, 0x78, 0x00, 0x00, 0x03, 0x38, 0x02, 0x00, 0x00, 0x30, 0x00, 0x00,
   0x00, 0x00, 0x00, 0xfc, 0x00, 0x00, 0x18, 0x03, 0xc6, 0x60, 0x00, 0xc0,
   0x00, 0x30, 0x01, 0x00, 0x00, 0x0c, 0x00, 0x00, 0x00, 0x00, 0x00, 0xfc,
   0x00, 0x00, 0x18, 0x03, 0xc6, 0x60, 0x00, 0x30, 0x00, 0xf0, 0x00, 0x00,
   0x00, 0x03, 0x00, 0x00, 0x00, 0x00, 0x00, 0xfc, 0x00, 0x00, 0x18, 0x03,
   0xc6, 0x60, 0x00, 0x0c, 0x00, 0xe0, 0x00, 0x00, 0xc0, 0x00, 0xc0, 0xc3,
   0x03, 0x00, 0x00, 0xfc, 0x00, 0x00, 0x18, 0x03, 0xc6, 0x60, 0x00, 0x02,
   0x00, 0xc0, 0x00, 0x00, 0x20, 0x00, 0x20, 0x66, 0x04, 0x00, 0x00, 0xfc,
   0x00, 0x00, 0x18, 0x03, 0xc6, 0x60, 0x00, 0x02, 0x00, 0xe0, 0x81, 0x07,
   0x20, 0x00, 0x10, 0x3c, 0x08, 0x00, 0x00, 0xfc, 0x00, 0x7e, 0x18, 0x03,
   0xc6, 0x60, 0x00, 0x0c, 0x00, 0x90, 0x83, 0x04, 0xc0, 0x00, 0x10, 0x18,
   0x08, 0x00, 0x00, 0xfc, 0x00, 0x00, 0x18, 0x03, 0xc6, 0x60, 0x00, 0x30,
   0x00, 0x08, 0x03, 0x02, 0x00, 0x03, 0x10, 0x3c, 0x08, 0x00, 0x00, 0xfc,
   0x00, 0x00, 0x10, 0x31, 0x44, 0x60, 0x00, 0xc0, 0x00, 0x0c, 0x07, 0x02,
   0x00, 0x0c, 0x20, 0x66, 0x04, 0x00, 0x00, 0xfc, 0x00, 0x00, 0xe0, 0x30,
   0x38, 0xf8, 0x00, 0x00, 0x03, 0x1e, 0x1f, 0x01, 0x00, 0x30, 0xc0, 0xc3,
   0x03, 0x00, 0x00, 0xfc, 0x00, 0x00, 0x00, 0x00, 0x00, 0x00, 0x00, 0x00,
   0x00, 0x00, 0x00, 0x01, 0x00, 0x00, 0x00, 0x00, 0x00, 0x00, 0x00, 0xfc,
   0x00, 0x00, 0x00, 0x00, 0x00, 0x00, 0x00, 0x00, 0x00, 0x00, 0x00, 0x00,
   0x00, 0x00, 0x00, 0x00, 0x00, 0x00, 0x00, 0xfc, 0x00, 0x00, 0x00, 0x00,
   0x00, 0x00, 0x00, 0x00, 0x00, 0x00, 0x00, 0x00, 0x00, 0x00, 0x00, 0x00,
   0x00, 0x00, 0x00, 0xfc, 0x00, 0x00, 0x00, 0x00, 0x00, 0x00, 0x00, 0x00,
   0x00, 0x00, 0x00, 0x00, 0x00, 0x00, 0x00, 0x00, 0x00, 0x00, 0x00, 0xfc,
   0x00, 0x00, 0x00, 0x00, 0x00, 0x00, 0x00, 0x00, 0x00, 0x00, 0x00, 0x00,
   0x00, 0x00, 0x00, 0x00, 0x00, 0x00, 0x00, 0xfc, 0x00, 0x00, 0x00, 0x00,
   0x00, 0x00, 0x00, 0x00, 0x00, 0x00, 0x00, 0x00, 0x00, 0x00, 0x00, 0x00,
   0x00, 0x00, 0x00, 0xfc};
