#define xe_width 47
#define xe_height 22
static char xe_bits[] = {
   0x00, 0x00, 0x00, 0x00, 0x00, 0x80, 0x00, 0x00, 0x00, 0x00, 0x00, 0x80,
   0x00, 0x00, 0x00, 0x00, 0x00, 0x80, 0xf0, 0x30, 0x00, 0x00, 0x00, 0x80,
   0xe0, 0x10, 0x00, 0x00, 0x00, 0x80, 0xc0, 0x09, 0x00, 0x00, 0x00, 0x80,
   0xc0, 0x05, 0x00, 0x00, 0x00, 0x80, 0x80, 0x03, 0x00, 0x00, 0x00, 0x80,
   0x00, 0x07, 0x00, 0x00, 0x00, 0x81, 0x80, 0x07, 0x00, 0x00, 0x80, 0x81,
   0x40, 0x0e, 0x00, 0x00, 0x80, 0x81, 0x20, 0x0c, 0x00, 0x00, 0x80, 0x81,
   0x10, 0x1c, 0x00, 0x00, 0x80, 0x81, 0x38, 0x78, 0x7c, 0x77, 0xf8, 0x81,
   0x00, 0x00, 0x46, 0xce, 0x8c, 0x81, 0x00, 0x00, 0x46, 0xc6, 0x8c, 0x81,
   0x00, 0x00, 0x3e, 0xc6, 0x8c, 0x81, 0x00, 0x00, 0x06, 0xc6, 0x8c, 0x81,
   0x00, 0x00, 0x46, 0xc6, 0x8c, 0x81, 0x00, 0x00, 0x3c, 0x8e, 0x79, 0x83,
   0x00, 0x00, 0x00, 0x00, 0x00, 0x80, 0x00, 0x00, 0x00, 0x00, 0x00, 0x80};
