#define y3_width 123
#define y3_height 44
static char y3_bits[] = {
   0x00, 0x00, 0x00, 0x00, 0x00, 0x00, 0x00, 0x00, 0x00, 0x00, 0x00, 0x00,
   0x00, 0x00, 0x00, 0xf8, 0x00, 0x00, 0x00, 0x00, 0x00, 0x00, 0x00, 0x00,
   0x00, 0x00, 0x00, 0x00, 0x00, 0x00, 0x00, 0xf8, 0x00, 0x3c, 0x00, 0x00,
   0x3c, 0x00, 0x00, 0xe0, 0x01, 0x00, 0xe0, 0x01, 0x00, 0x00, 0x00, 0xf8,
   0x00, 0x04, 0x00, 0x00, 0x20, 0x00, 0x00, 0x20, 0x00, 0x00, 0x00, 0x01,
   0x00, 0x00, 0x00, 0xf8, 0x00, 0x04, 0x00, 0x00, 0x20, 0x00, 0x00, 0x20,
   0x00, 0x00, 0x00, 0x01, 0x00, 0x00, 0x00, 0xf8, 0x00, 0x04, 0x00, 0x00,
   0x20, 0x00, 0x00, 0x20, 0x00, 0x00, 0x00, 0x01, 0x00, 0x00, 0x00, 0xf8,
   0x00, 0x04, 0x00, 0x00, 0x20, 0x00, 0x00, 0x20, 0x00, 0x0c, 0x00, 0x01,
   0x00, 0x00, 0x00, 0xf8, 0x00, 0x04, 0x8e, 0x01, 0x20, 0x00, 0x00, 0x20,
   0x00, 0x0f, 0x00, 0x01, 0x00, 0x00, 0x00, 0xf8, 0x00, 0x04, 0x8c, 0x00,
   0x20, 0x00, 0x00, 0x20, 0x00, 0x0c, 0x00, 0x01, 0x00, 0x00, 0x00, 0xf8,
   0x00, 0x04, 0x4c, 0x00, 0x20, 0x00, 0x00, 0x20, 0x00, 0x0c, 0x00, 0x01,
   0x00, 0x00, 0x00, 0xf8, 0x00, 0x04, 0x48, 0x00, 0x20, 0x00, 0x00, 0x20,
   0x00, 0x0c, 0x00, 0x01, 0x00, 0x00, 0x00, 0xf8, 0x00, 0x04, 0x38, 0x10,
   0x20, 0x00, 0x00, 0x20, 0x00, 0x0c, 0x00, 0x01, 0x00, 0x00, 0x00, 0xf8,
   0x00, 0x04, 0x30, 0x18, 0x20, 0x00, 0x00, 0x20, 0x00, 0x0c, 0x00, 0x01,
   0x00, 0x00, 0x00, 0xf8, 0x00, 0x04, 0x10, 0x10, 0x20, 0x00, 0x00, 0x20,
   0x00, 0x0c, 0x00, 0x01, 0x00, 0x00, 0x00, 0xf8, 0x00, 0x04, 0x10, 0x10,
   0x20, 0x00, 0x00, 0x20, 0x00, 0x0c, 0x00, 0x01, 0x00, 0x00, 0x00, 0xf8,
   0x00, 0x04, 0x13, 0x10, 0x20, 0x00, 0x00, 0x20, 0x00, 0x0c, 0x00, 0x01,
   0x00, 0x00, 0x00, 0xf8, 0x00, 0x04, 0x0e, 0x10, 0x20, 0x00, 0x00, 0x20,
   0x00, 0x1f, 0x00, 0x01, 0x00, 0x00, 0x00, 0xf8, 0x00, 0x04, 0x00, 0x38,
   0x20, 0x00, 0x00, 0x20, 0x00, 0x00, 0x00, 0x01, 0x00, 0x00, 0x00, 0xf8,
   0x00, 0x04, 0x00, 0x00, 0x20, 0x00, 0x00, 0x20, 0x00, 0x00, 0x00, 0x01,
   0x00, 0x00, 0x00, 0xf8, 0x00, 0x04, 0x00, 0x00, 0x20, 0x00, 0x00, 0x20,
   0x00, 0x00, 0x00, 0x01, 0x00, 0x00, 0x00, 0xf8, 0x00, 0x04, 0x00, 0x00,
   0x20, 0x00, 0x00, 0x20, 0x00, 0x00, 0x00, 0x01, 0x00, 0x00, 0x00, 0xf8,
   0x00, 0x04, 0x00, 0x00, 0x20, 0xe0, 0x3f, 0x20, 0x00, 0x00, 0x00, 0x01,
   0x00, 0x00, 0x00, 0xf8, 0x00, 0x04, 0x00, 0x00, 0x20, 0x00, 0x00, 0x20,
   0x00, 0x00, 0x00, 0x01, 0x00, 0x00, 0x00, 0xf8, 0x00, 0x04, 0x00, 0x00,
   0x20, 0x00, 0x00, 0x20, 0x00, 0x00, 0x00, 0x01, 0x00, 0x00, 0x00, 0xf8,
   0x00, 0x04, 0x00, 0x00, 0x20, 0xe0, 0x3f, 0x20, 0x00, 0x00, 0x00, 0x01,
   0x00, 0x00, 0x00, 0xf8, 0x00, 0x04, 0x00, 0x00, 0x20, 0x00, 0x00, 0x20,
   0x00, 0x00, 0x00, 0x01, 0x00, 0x00, 0x00, 0xf8, 0x00, 0x04, 0x00, 0x00,
   0x20, 0x00, 0x00, 0x20, 0x00, 0x80, 0x01, 0x01, 0x00, 0x00, 0x00, 0xf8,
   0x00, 0x04, 0x8e, 0x01, 0x20, 0x00, 0x00, 0x20, 0x00, 0xe0, 0x01, 0x01,
   0x00, 0x00, 0x00, 0xf8, 0x00, 0x04, 0x8c, 0x00, 0x20, 0x00, 0x00, 0x20,
   0x00, 0x80, 0x01, 0x01, 0x00, 0x00, 0x00, 0xf8, 0x00, 0x04, 0x4c, 0x00,
   0x20, 0x00, 0x00, 0x20, 0x00, 0x80, 0x01, 0x01, 0x00, 0x00, 0x00, 0xf8,
   0x00, 0x04, 0x48, 0x00, 0x20, 0x00, 0x00, 0x20, 0x00, 0x80, 0x01, 0x01,
   0x00, 0x00, 0x00, 0xf8, 0x00, 0x04, 0x38, 0x38, 0x20, 0x00, 0x00, 0x20,
   0x00, 0x80, 0x01, 0x01, 0x00, 0x00, 0x00, 0xf8, 0x00, 0x04, 0x30, 0x64,
   0x20, 0x00, 0x00, 0x20, 0xf0, 0x83, 0x01, 0x01, 0x00, 0x00, 0x00, 0xf8,
   0x00, 0x04, 0x10, 0x20, 0x20, 0x00, 0x00, 0x20, 0x00, 0x80, 0x01, 0x01,
   0x00, 0x00, 0x00, 0xf8, 0x00, 0x04, 0x10, 0x20, 0x20, 0x00, 0x00, 0x20,
   0x00, 0x80, 0x01, 0x01, 0x00, 0x00, 0x00, 0xf8, 0x00, 0x04, 0x13, 0x10,
   0x20, 0x00, 0x00, 0x20, 0x00, 0x80, 0x01, 0x01, 0x00, 0x00, 0x00, 0xf8,
   0x00, 0x04, 0x0e, 0x48, 0x20, 0x00, 0x00, 0x20, 0x00, 0xe0, 0x03, 0x01,
   0x00, 0x00, 0x00, 0xf8, 0x00, 0x04, 0x00, 0x3c, 0x20, 0x00, 0x00, 0x20,
   0x00, 0x00, 0x00, 0x01, 0x00, 0x00, 0x00, 0xf8, 0x00, 0x04, 0x00, 0x00,
   0x20, 0x00, 0x00, 0x20, 0x00, 0x00, 0x00, 0x01, 0x00, 0x00, 0x00, 0xf8,
   0x00, 0x04, 0x00, 0x00, 0x20, 0x00, 0x00, 0x20, 0x00, 0x00, 0x00, 0x01,
   0x00, 0x00, 0x00, 0xf8, 0x00, 0x04, 0x00, 0x00, 0x20, 0x00, 0x00, 0x20,
   0x00, 0x00, 0x00, 0x01, 0x00, 0x00, 0x00, 0xf8, 0x00, 0x3c, 0x00, 0x00,
   0x3c, 0x00, 0x00, 0xe0, 0x01, 0x00, 0xe0, 0x01, 0x00, 0x00, 0x00, 0xf8,
   0x00, 0x00, 0x00, 0x00, 0x00, 0x00, 0x00, 0x00, 0x00, 0x00, 0x00, 0x00,
   0x00, 0x00, 0x00, 0xf8, 0x00, 0x00, 0x00, 0x00, 0x00, 0x00, 0x00, 0x00,
   0x00, 0x00, 0x00, 0x00, 0x00, 0x00, 0x00, 0xf8};
