#define ye_width 46
#define ye_height 24
static char ye_bits[] = {
   0x00, 0x00, 0x00, 0x00, 0x00, 0xc0, 0x00, 0x00, 0x00, 0x00, 0x00, 0xc0,
   0x00, 0x00, 0x00, 0x00, 0x00, 0xc0, 0x00, 0x00, 0x00, 0x00, 0x00, 0xc0,
   0x78, 0x30, 0x00, 0x00, 0x00, 0xc0, 0x70, 0x10, 0x00, 0x00, 0x00, 0xc0,
   0xe0, 0x08, 0x00, 0x00, 0x00, 0xc0, 0xc0, 0x09, 0x00, 0x00, 0x00, 0xc0,
   0xc0, 0x05, 0x00, 0x00, 0x00, 0xc0, 0x80, 0x03, 0x00, 0x00, 0x80, 0xc0,
   0x00, 0x03, 0x00, 0x00, 0xc0, 0xc0, 0x00, 0x03, 0x00, 0x00, 0xc0, 0xc0,
   0x00, 0x03, 0x00, 0x00, 0xc0, 0xc0, 0x80, 0x03, 0x00, 0x00, 0xc0, 0xc0,
   0xc0, 0x87, 0xc7, 0x1d, 0xfc, 0xc0, 0x00, 0xc0, 0x88, 0x33, 0xc6, 0xc0,
   0x00, 0xc0, 0x88, 0x31, 0xc6, 0xc0, 0x00, 0xc0, 0x87, 0x31, 0xc6, 0xc0,
   0x00, 0xc0, 0x80, 0x31, 0xc6, 0xc0, 0x00, 0xc0, 0x88, 0x31, 0xc6, 0xc0,
   0x00, 0x80, 0x87, 0x73, 0xb8, 0xc1, 0x00, 0x00, 0x00, 0x00, 0x00, 0xc0,
   0x00, 0x00, 0x00, 0x00, 0x00, 0xc0, 0x00, 0x00, 0x00, 0x00, 0x00, 0xc0};
