#define ys_width 56
#define ys_height 21
static char ys_bits[] = {
   0x00, 0x00, 0x00, 0x00, 0x00, 0x00, 0x00, 0x00, 0x00, 0x00, 0x00, 0x00,
   0x00, 0x00, 0x00, 0x00, 0x00, 0x00, 0x00, 0x00, 0x00, 0x78, 0x30, 0x00,
   0x00, 0x00, 0x00, 0x00, 0x70, 0x10, 0x00, 0x00, 0x00, 0x00, 0x00, 0xe0,
   0x08, 0x00, 0x00, 0x00, 0x00, 0x00, 0xc0, 0x09, 0x00, 0x00, 0x00, 0x00,
   0x00, 0xc0, 0x05, 0x00, 0x00, 0x00, 0x00, 0x00, 0x80, 0x03, 0x00, 0x00,
   0x00, 0x00, 0x00, 0x00, 0x03, 0x40, 0x00, 0x00, 0x40, 0x00, 0x00, 0x03,
   0x60, 0x00, 0x00, 0x60, 0x00, 0x00, 0x03, 0xf0, 0x00, 0x00, 0xf0, 0x00,
   0x80, 0x83, 0xf7, 0xf0, 0x71, 0xf7, 0x00, 0xc0, 0x47, 0x64, 0x08, 0xe3,
   0x66, 0x00, 0x00, 0xc0, 0x61, 0x80, 0x63, 0x60, 0x00, 0x00, 0x80, 0x67,
   0x70, 0x63, 0x60, 0x00, 0x00, 0x00, 0x66, 0x1a, 0x63, 0x60, 0x02, 0x00,
   0x40, 0x64, 0x9a, 0x63, 0x60, 0x02, 0x00, 0xc0, 0xc3, 0x71, 0xf7, 0xc1,
   0x01, 0x00, 0x00, 0x00, 0x00, 0x00, 0x00, 0x00, 0x00, 0x00, 0x00, 0x00,
   0x00, 0x00, 0x00};
