<?xml version="1.0" encoding="UTF-8" standalone="no"?>
<!DOCTYPE svg PUBLIC "-//W3C//DTD SVG 1.0//EN"
 "http://www.w3.org/TR/2001/REC-SVG-20010904/DTD/svg10.dtd" [
 <!ATTLIST svg xmlns:xlink CDATA #FIXED "http://www.w3.org/1999/xlink">
]>
<!-- Generated by dot version 2.8 (Thu Sep 14 20:34:11 UTC 2006)
     For user: (root) root -->
<!-- Title: dotabb Pages: 1 -->
<svg width="1537pt" height="1178pt"
 viewBox = "0 0 1537 1178"
 xmlns="http://www.w3.org/2000/svg" xmlns:xlink="http://www.w3.org/1999/xlink"
 onload="RunScript(evt)">
<script type="text/ecmascript">
<![CDATA[
var g_element;
var SVGDoc;
var SVGRoot;
function setDimension(w,h) {
  SVGDoc.documentElement.setAttribute("width",w);
  SVGDoc.documentElement.setAttribute("height",h);
}
function setScale(sw,sh) {
  g_element.setAttribute("transform","scale("+sw+" "+sh+")");
}
function RunScript(LoadEvent) {
  top.SVGsetDimension=setDimension;
  top.SVGsetScale=setScale;
  SVGDoc=LoadEvent.target.ownerDocument;
  g_element=SVGDoc.getElementById("graph0");
}
]]>
</script>
<g id="graph0" class="graph" style="font-family:Times-Roman;font-size:14.00;">
<title>dotabb</title>
<polygon style="fill:#ECEA81;stroke:#ECEA81;" points="-2,1180 -2,-2 1539,-2 1539,1180 -2,1180"/>
<!-- CATEGORY -->
<g id="node1" class="node"><title>CATEGORY</title>
<a xlink:href="bookvol10.2.pdf#nameddest=CATEGORY" xlink:title="CATEGORY">
<polygon style="fill:lightblue;stroke:lightblue;" points="1160,1138 1070,1138 1070,1174 1160,1174 1160,1138"/>
<text text-anchor="middle" x="1115" y="1161">CATEGORY</text>
</a>
</g>
<!-- ABELGRP -->
<g id="node2" class="node"><title>ABELGRP</title>
<a xlink:href="bookvol10.2.pdf#nameddest=ABELGRP" xlink:title="ABELGRP">
<polygon style="fill:lightblue;stroke:lightblue;" points="1180,382 1100,382 1100,418 1180,418 1180,382"/>
<text text-anchor="middle" x="1140" y="405">ABELGRP</text>
</a>
</g>
<!-- CABMON -->
<g id="node4" class="node"><title>CABMON</title>
<a xlink:href="bookvol10.2.pdf#nameddest=CABMON" xlink:title="CABMON">
<polygon style="fill:lightblue;stroke:lightblue;" points="1183,508 1105,508 1105,544 1183,544 1183,508"/>
<text text-anchor="middle" x="1144" y="531">CABMON</text>
</a>
</g>
<!-- ABELGRP&#45;&gt;CABMON -->
<g id="edge2" class="edge"><title>ABELGRP&#45;&gt;CABMON</title>
<path style="fill:none;stroke:black;" d="M1141,418C1142,439 1143,473 1143,498"/>
<polygon style="fill:black;stroke:black;" points="1147,498 1143,508 1140,498 1147,498"/>
</g>
<!-- ABELMON -->
<g id="node5" class="node"><title>ABELMON</title>
<a xlink:href="bookvol10.2.pdf#nameddest=ABELMON" xlink:title="ABELMON">
<polygon style="fill:lightblue;stroke:lightblue;" points="1226,634 1140,634 1140,670 1226,670 1226,634"/>
<text text-anchor="middle" x="1183" y="657">ABELMON</text>
</a>
</g>
<!-- CABMON&#45;&gt;ABELMON -->
<g id="edge34" class="edge"><title>CABMON&#45;&gt;ABELMON</title>
<path style="fill:none;stroke:black;" d="M1150,544C1156,565 1167,600 1174,624"/>
<polygon style="fill:black;stroke:black;" points="1177,623 1177,634 1171,625 1177,623"/>
</g>
<!-- ABELSG -->
<g id="node7" class="node"><title>ABELSG</title>
<a xlink:href="bookvol10.2.pdf#nameddest=ABELSG" xlink:title="ABELSG">
<polygon style="fill:lightblue;stroke:lightblue;" points="1219,760 1147,760 1147,796 1219,796 1219,760"/>
<text text-anchor="middle" x="1183" y="783">ABELSG</text>
</a>
</g>
<!-- ABELMON&#45;&gt;ABELSG -->
<g id="edge4" class="edge"><title>ABELMON&#45;&gt;ABELSG</title>
<path style="fill:none;stroke:black;" d="M1183,670C1183,691 1183,725 1183,750"/>
<polygon style="fill:black;stroke:black;" points="1187,750 1183,760 1180,750 1187,750"/>
</g>
<!-- SETCAT -->
<g id="node9" class="node"><title>SETCAT</title>
<a xlink:href="bookvol10.2.pdf#nameddest=SETCAT" xlink:title="SETCAT">
<polygon style="fill:lightblue;stroke:lightblue;" points="1290,886 1222,886 1222,922 1290,922 1290,886"/>
<text text-anchor="middle" x="1256" y="909">SETCAT</text>
</a>
</g>
<!-- ABELSG&#45;&gt;SETCAT -->
<g id="edge6" class="edge"><title>ABELSG&#45;&gt;SETCAT</title>
<path style="fill:none;stroke:black;" d="M1193,796C1205,817 1226,853 1240,877"/>
<polygon style="fill:black;stroke:black;" points="1243,876 1245,886 1237,879 1243,876"/>
</g>
<!-- REPDB -->
<g id="node11" class="node"><title>REPDB</title>
<polygon style="fill:white;stroke:white;" points="1204,886 1142,886 1142,922 1204,922 1204,886"/>
<text text-anchor="middle" x="1173" y="909">REPDB</text>
</g>
<!-- ABELSG&#45;&gt;REPDB -->
<g id="edge8" class="edge"><title>ABELSG&#45;&gt;REPDB</title>
<path style="fill:none;stroke:black;" d="M1182,796C1180,817 1177,851 1176,876"/>
<polygon style="fill:black;stroke:black;" points="1179,876 1175,886 1173,876 1179,876"/>
</g>
<!-- BASTYPE -->
<g id="node23" class="node"><title>BASTYPE</title>
<a xlink:href="bookvol10.2.pdf#nameddest=BASTYPE" xlink:title="BASTYPE">
<polygon style="fill:lightblue;stroke:lightblue;" points="1108,1012 1030,1012 1030,1048 1108,1048 1108,1012"/>
<text text-anchor="middle" x="1069" y="1035">BASTYPE</text>
</a>
</g>
<!-- SETCAT&#45;&gt;BASTYPE -->
<g id="edge156" class="edge"><title>SETCAT&#45;&gt;BASTYPE</title>
<path style="fill:none;stroke:black;" d="M1229,922C1197,944 1141,982 1104,1006"/>
<polygon style="fill:black;stroke:black;" points="1106,1009 1096,1012 1102,1003 1106,1009"/>
</g>
<!-- KOERCE -->
<g id="node77" class="node"><title>KOERCE</title>
<a xlink:href="bookvol10.2.pdf#nameddest=KOERCE" xlink:title="KOERCE">
<polygon style="fill:lightblue;stroke:lightblue;" points="1198,1012 1126,1012 1126,1048 1198,1048 1198,1012"/>
<text text-anchor="middle" x="1162" y="1035">KOERCE</text>
</a>
</g>
<!-- SETCAT&#45;&gt;KOERCE -->
<g id="edge158" class="edge"><title>SETCAT&#45;&gt;KOERCE</title>
<path style="fill:none;stroke:black;" d="M1243,922C1227,943 1200,979 1182,1004"/>
<polygon style="fill:black;stroke:black;" points="1185,1006 1176,1012 1179,1002 1185,1006"/>
</g>
<!-- AGG -->
<g id="node12" class="node"><title>AGG</title>
<a xlink:href="bookvol10.2.pdf#nameddest=AGG" xlink:title="AGG">
<polygon style="fill:lightblue;stroke:lightblue;" points="619,886 565,886 565,922 619,922 619,886"/>
<text text-anchor="middle" x="592" y="909">AGG</text>
</a>
</g>
<!-- TYPE -->
<g id="node14" class="node"><title>TYPE</title>
<a xlink:href="bookvol10.2.pdf#nameddest=TYPE" xlink:title="TYPE">
<polygon style="fill:lightblue;stroke:lightblue;" points="684,1012 630,1012 630,1048 684,1048 684,1012"/>
<text text-anchor="middle" x="657" y="1035">TYPE</text>
</a>
</g>
<!-- AGG&#45;&gt;TYPE -->
<g id="edge10" class="edge"><title>AGG&#45;&gt;TYPE</title>
<path style="fill:none;stroke:black;" d="M601,922C612,943 630,978 642,1003"/>
<polygon style="fill:black;stroke:black;" points="645,1002 647,1012 639,1005 645,1002"/>
</g>
<!-- TYPE&#45;&gt;CATEGORY -->
<g id="edge172" class="edge"><title>TYPE&#45;&gt;CATEGORY</title>
<path style="fill:none;stroke:black;" d="M684,1038C757,1058 961,1114 1060,1141"/>
<polygon style="fill:black;stroke:black;" points="1061,1138 1070,1144 1059,1144 1061,1138"/>
</g>
<!-- ALAGG -->
<g id="node15" class="node"><title>ALAGG</title>
<a xlink:href="bookvol10.2.pdf#nameddest=ALAGG" xlink:title="ALAGG">
<polygon style="fill:lightblue;stroke:lightblue;" points="655,4 589,4 589,40 655,40 655,4"/>
<text text-anchor="middle" x="622" y="27">ALAGG</text>
</a>
</g>
<!-- TBAGG -->
<g id="node17" class="node"><title>TBAGG</title>
<a xlink:href="bookvol10.2.pdf#nameddest=TBAGG" xlink:title="TBAGG">
<polygon style="fill:lightblue;stroke:lightblue;" points="462,130 400,130 400,166 462,166 462,130"/>
<text text-anchor="middle" x="431" y="153">TBAGG</text>
</a>
</g>
<!-- ALAGG&#45;&gt;TBAGG -->
<g id="edge12" class="edge"><title>ALAGG&#45;&gt;TBAGG</title>
<path style="fill:none;stroke:black;" d="M595,40C562,62 504,100 467,124"/>
<polygon style="fill:black;stroke:black;" points="469,127 459,130 465,121 469,127"/>
</g>
<!-- LSAGG -->
<g id="node19" class="node"><title>LSAGG</title>
<a xlink:href="bookvol10.2.pdf#nameddest=LSAGG" xlink:title="LSAGG">
<polygon style="fill:lightblue;stroke:lightblue;" points="855,256 793,256 793,292 855,292 855,256"/>
<text text-anchor="middle" x="824" y="279">LSAGG</text>
</a>
</g>
<!-- ALAGG&#45;&gt;LSAGG -->
<g id="edge14" class="edge"><title>ALAGG&#45;&gt;LSAGG</title>
<path style="fill:none;stroke:black;" d="M655,36C692,53 750,85 783,130 809,165 818,215 822,246"/>
<polygon style="fill:black;stroke:black;" points="825,246 823,256 819,246 825,246"/>
</g>
<!-- IXAGG -->
<g id="node72" class="node"><title>IXAGG</title>
<a xlink:href="bookvol10.2.pdf#nameddest=IXAGG" xlink:title="IXAGG">
<polygon style="fill:lightblue;stroke:lightblue;" points="708,634 646,634 646,670 708,670 708,634"/>
<text text-anchor="middle" x="677" y="657">IXAGG</text>
</a>
</g>
<!-- TBAGG&#45;&gt;IXAGG -->
<g id="edge176" class="edge"><title>TBAGG&#45;&gt;IXAGG</title>
<path style="fill:none;stroke:black;" d="M428,166C422,211 411,331 450,418 493,512 589,590 642,628"/>
<polygon style="fill:black;stroke:black;" points="644,625 650,634 640,631 644,625"/>
</g>
<!-- KDAGG -->
<g id="node75" class="node"><title>KDAGG</title>
<a xlink:href="bookvol10.2.pdf#nameddest=KDAGG" xlink:title="KDAGG">
<polygon style="fill:lightblue;stroke:lightblue;" points="325,256 259,256 259,292 325,292 325,256"/>
<text text-anchor="middle" x="292" y="279">KDAGG</text>
</a>
</g>
<!-- TBAGG&#45;&gt;KDAGG -->
<g id="edge174" class="edge"><title>TBAGG&#45;&gt;KDAGG</title>
<path style="fill:none;stroke:black;" d="M411,166C387,188 347,225 320,249"/>
<polygon style="fill:black;stroke:black;" points="322,252 312,256 317,247 322,252"/>
</g>
<!-- FLAGG -->
<g id="node22" class="node"><title>FLAGG</title>
<a xlink:href="bookvol10.2.pdf#nameddest=FLAGG" xlink:title="FLAGG">
<polygon style="fill:lightblue;stroke:lightblue;" points="853,382 791,382 791,418 853,418 853,382"/>
<text text-anchor="middle" x="822" y="405">FLAGG</text>
</a>
</g>
<!-- LSAGG&#45;&gt;FLAGG -->
<g id="edge82" class="edge"><title>LSAGG&#45;&gt;FLAGG</title>
<path style="fill:none;stroke:black;" d="M824,292C823,313 823,347 822,372"/>
<polygon style="fill:black;stroke:black;" points="826,372 822,382 819,372 826,372"/>
</g>
<!-- ELAGG -->
<g id="node57" class="node"><title>ELAGG</title>
<a xlink:href="bookvol10.2.pdf#nameddest=ELAGG" xlink:title="ELAGG">
<polygon style="fill:lightblue;stroke:lightblue;" points="933,382 871,382 871,418 933,418 933,382"/>
<text text-anchor="middle" x="902" y="405">ELAGG</text>
</a>
</g>
<!-- LSAGG&#45;&gt;ELAGG -->
<g id="edge84" class="edge"><title>LSAGG&#45;&gt;ELAGG</title>
<path style="fill:none;stroke:black;" d="M835,292C848,313 870,349 886,373"/>
<polygon style="fill:black;stroke:black;" points="889,372 891,382 883,375 889,372"/>
</g>
<!-- A1AGG -->
<g id="node20" class="node"><title>A1AGG</title>
<a xlink:href="bookvol10.2.pdf#nameddest=A1AGG" xlink:title="A1AGG">
<polygon style="fill:lightblue;stroke:lightblue;" points="775,256 711,256 711,292 775,292 775,256"/>
<text text-anchor="middle" x="743" y="279">A1AGG</text>
</a>
</g>
<!-- A1AGG&#45;&gt;FLAGG -->
<g id="edge16" class="edge"><title>A1AGG&#45;&gt;FLAGG</title>
<path style="fill:none;stroke:black;" d="M754,292C767,313 789,349 805,373"/>
<polygon style="fill:black;stroke:black;" points="808,372 810,382 802,375 808,372"/>
</g>
<!-- LNAGG -->
<g id="node59" class="node"><title>LNAGG</title>
<a xlink:href="bookvol10.2.pdf#nameddest=LNAGG" xlink:title="LNAGG">
<polygon style="fill:lightblue;stroke:lightblue;" points="774,508 710,508 710,544 774,544 774,508"/>
<text text-anchor="middle" x="742" y="531">LNAGG</text>
</a>
</g>
<!-- FLAGG&#45;&gt;LNAGG -->
<g id="edge58" class="edge"><title>FLAGG&#45;&gt;LNAGG</title>
<path style="fill:none;stroke:black;" d="M811,418C797,439 775,475 759,499"/>
<polygon style="fill:black;stroke:black;" points="762,501 754,508 756,498 762,501"/>
</g>
<!-- BASTYPE&#45;&gt;CATEGORY -->
<g id="edge18" class="edge"><title>BASTYPE&#45;&gt;CATEGORY</title>
<path style="fill:none;stroke:black;" d="M1076,1048C1083,1069 1095,1104 1104,1129"/>
<polygon style="fill:black;stroke:black;" points="1107,1127 1108,1138 1101,1130 1107,1127"/>
</g>
<!-- BGAGG -->
<g id="node25" class="node"><title>BGAGG</title>
<a xlink:href="bookvol10.2.pdf#nameddest=BGAGG" xlink:title="BGAGG">
<polygon style="fill:lightblue;stroke:lightblue;" points="243,634 177,634 177,670 243,670 243,634"/>
<text text-anchor="middle" x="210" y="657">BGAGG</text>
</a>
</g>
<!-- HOAGG -->
<g id="node27" class="node"><title>HOAGG</title>
<a xlink:href="bookvol10.2.pdf#nameddest=HOAGG" xlink:title="HOAGG">
<polygon style="fill:lightblue;stroke:lightblue;" points="564,760 498,760 498,796 564,796 564,760"/>
<text text-anchor="middle" x="531" y="783">HOAGG</text>
</a>
</g>
<!-- BGAGG&#45;&gt;HOAGG -->
<g id="edge20" class="edge"><title>BGAGG&#45;&gt;HOAGG</title>
<path style="fill:none;stroke:black;" d="M243,665C301,688 423,736 488,761"/>
<polygon style="fill:black;stroke:black;" points="490,758 498,765 487,765 490,758"/>
</g>
<!-- HOAGG&#45;&gt;AGG -->
<g id="edge64" class="edge"><title>HOAGG&#45;&gt;AGG</title>
<path style="fill:none;stroke:black;" d="M540,796C551,817 567,852 579,877"/>
<polygon style="fill:black;stroke:black;" points="582,875 583,886 576,878 582,875"/>
</g>
<!-- BMODULE -->
<g id="node28" class="node"><title>BMODULE</title>
<a xlink:href="bookvol10.2.pdf#nameddest=BMODULE" xlink:title="BMODULE">
<polygon style="fill:lightblue;stroke:lightblue;" points="1094,130 1008,130 1008,166 1094,166 1094,130"/>
<text text-anchor="middle" x="1051" y="153">BMODULE</text>
</a>
</g>
<!-- LMODULE -->
<g id="node30" class="node"><title>LMODULE</title>
<a xlink:href="bookvol10.2.pdf#nameddest=LMODULE" xlink:title="LMODULE">
<polygon style="fill:lightblue;stroke:lightblue;" points="1213,256 1129,256 1129,292 1213,292 1213,256"/>
<text text-anchor="middle" x="1171" y="279">LMODULE</text>
</a>
</g>
<!-- BMODULE&#45;&gt;LMODULE -->
<g id="edge22" class="edge"><title>BMODULE&#45;&gt;LMODULE</title>
<path style="fill:none;stroke:black;" d="M1068,166C1089,188 1123,224 1146,248"/>
<polygon style="fill:black;stroke:black;" points="1149,246 1153,256 1144,251 1149,246"/>
</g>
<!-- RMODULE -->
<g id="node32" class="node"><title>RMODULE</title>
<a xlink:href="bookvol10.2.pdf#nameddest=RMODULE" xlink:title="RMODULE">
<polygon style="fill:lightblue;stroke:lightblue;" points="1073,256 987,256 987,292 1073,292 1073,256"/>
<text text-anchor="middle" x="1030" y="279">RMODULE</text>
</a>
</g>
<!-- BMODULE&#45;&gt;RMODULE -->
<g id="edge24" class="edge"><title>BMODULE&#45;&gt;RMODULE</title>
<path style="fill:none;stroke:black;" d="M1048,166C1045,187 1039,221 1035,246"/>
<polygon style="fill:black;stroke:black;" points="1038,247 1033,256 1032,246 1038,247"/>
</g>
<!-- LMODULE&#45;&gt;ABELGRP -->
<g id="edge76" class="edge"><title>LMODULE&#45;&gt;ABELGRP</title>
<path style="fill:none;stroke:black;" d="M1167,292C1162,313 1153,348 1147,372"/>
<polygon style="fill:black;stroke:black;" points="1150,373 1145,382 1144,372 1150,373"/>
</g>
<!-- RMODULE&#45;&gt;ABELGRP -->
<g id="edge146" class="edge"><title>RMODULE&#45;&gt;ABELGRP</title>
<path style="fill:none;stroke:black;" d="M1046,292C1065,314 1096,350 1117,374"/>
<polygon style="fill:black;stroke:black;" points="1120,372 1124,382 1115,377 1120,372"/>
</g>
<!-- BRAGG -->
<g id="node33" class="node"><title>BRAGG</title>
<a xlink:href="bookvol10.2.pdf#nameddest=BRAGG" xlink:title="BRAGG">
<polygon style="fill:lightblue;stroke:lightblue;" points="693,382 627,382 627,418 693,418 693,382"/>
<text text-anchor="middle" x="660" y="405">BRAGG</text>
</a>
</g>
<!-- RCAGG -->
<g id="node35" class="node"><title>RCAGG</title>
<a xlink:href="bookvol10.2.pdf#nameddest=RCAGG" xlink:title="RCAGG">
<polygon style="fill:lightblue;stroke:lightblue;" points="650,508 586,508 586,544 650,544 650,508"/>
<text text-anchor="middle" x="618" y="531">RCAGG</text>
</a>
</g>
<!-- BRAGG&#45;&gt;RCAGG -->
<g id="edge26" class="edge"><title>BRAGG&#45;&gt;RCAGG</title>
<path style="fill:none;stroke:black;" d="M654,418C647,439 635,474 627,498"/>
<polygon style="fill:black;stroke:black;" points="630,499 624,508 624,497 630,499"/>
</g>
<!-- RCAGG&#45;&gt;HOAGG -->
<g id="edge136" class="edge"><title>RCAGG&#45;&gt;HOAGG</title>
<path style="fill:none;stroke:black;" d="M612,544C597,588 558,698 540,750"/>
<polygon style="fill:black;stroke:black;" points="543,751 537,760 537,749 543,751"/>
</g>
<!-- BTAGG -->
<g id="node36" class="node"><title>BTAGG</title>
<a xlink:href="bookvol10.2.pdf#nameddest=BTAGG" xlink:title="BTAGG">
<polygon style="fill:lightblue;stroke:lightblue;" points="934,130 870,130 870,166 934,166 934,130"/>
<text text-anchor="middle" x="902" y="153">BTAGG</text>
</a>
</g>
<!-- BTAGG&#45;&gt;A1AGG -->
<g id="edge32" class="edge"><title>BTAGG&#45;&gt;A1AGG</title>
<path style="fill:none;stroke:black;" d="M879,166C851,188 805,225 774,250"/>
<polygon style="fill:black;stroke:black;" points="776,253 766,256 772,247 776,253"/>
</g>
<!-- ORDSET -->
<g id="node38" class="node"><title>ORDSET</title>
<a xlink:href="bookvol10.2.pdf#nameddest=ORDSET" xlink:title="ORDSET">
<polygon style="fill:lightblue;stroke:lightblue;" points="1314,634 1244,634 1244,670 1314,670 1314,634"/>
<text text-anchor="middle" x="1279" y="657">ORDSET</text>
</a>
</g>
<!-- BTAGG&#45;&gt;ORDSET -->
<g id="edge28" class="edge"><title>BTAGG&#45;&gt;ORDSET</title>
<path style="fill:none;stroke:black;" d="M909,166C937,236 1039,483 1096,544 1118,566 1188,606 1235,629"/>
<polygon style="fill:black;stroke:black;" points="1237,626 1244,634 1234,632 1237,626"/>
</g>
<!-- LOGIC -->
<g id="node40" class="node"><title>LOGIC</title>
<polygon style="fill:white;stroke:white;" points="931,256 873,256 873,292 931,292 931,256"/>
<text text-anchor="middle" x="902" y="279">LOGIC</text>
</g>
<!-- BTAGG&#45;&gt;LOGIC -->
<g id="edge30" class="edge"><title>BTAGG&#45;&gt;LOGIC</title>
<path style="fill:none;stroke:black;" d="M902,166C902,187 902,221 902,246"/>
<polygon style="fill:black;stroke:black;" points="906,246 902,256 899,246 906,246"/>
</g>
<!-- ORDSET&#45;&gt;SETCAT -->
<g id="edge130" class="edge"><title>ORDSET&#45;&gt;SETCAT</title>
<path style="fill:none;stroke:black;" d="M1277,670C1273,714 1263,824 1259,876"/>
<polygon style="fill:black;stroke:black;" points="1262,876 1258,886 1256,876 1262,876"/>
</g>
<!-- CLAGG -->
<g id="node43" class="node"><title>CLAGG</title>
<a xlink:href="bookvol10.2.pdf#nameddest=CLAGG" xlink:title="CLAGG">
<polygon style="fill:lightblue;stroke:lightblue;" points="503,634 439,634 439,670 503,670 503,634"/>
<text text-anchor="middle" x="471" y="657">CLAGG</text>
</a>
</g>
<!-- CLAGG&#45;&gt;HOAGG -->
<g id="edge36" class="edge"><title>CLAGG&#45;&gt;HOAGG</title>
<path style="fill:none;stroke:black;" d="M480,670C490,691 506,726 518,751"/>
<polygon style="fill:black;stroke:black;" points="521,749 522,760 515,752 521,749"/>
</g>
<!-- DIAGG -->
<g id="node45" class="node"><title>DIAGG</title>
<a xlink:href="bookvol10.2.pdf#nameddest=DIAGG" xlink:title="DIAGG">
<polygon style="fill:lightblue;stroke:lightblue;" points="348,382 286,382 286,418 348,418 348,382"/>
<text text-anchor="middle" x="317" y="405">DIAGG</text>
</a>
</g>
<!-- DIOPS -->
<g id="node47" class="node"><title>DIOPS</title>
<a xlink:href="bookvol10.2.pdf#nameddest=DIOPS" xlink:title="DIOPS">
<polygon style="fill:lightblue;stroke:lightblue;" points="318,508 260,508 260,544 318,544 318,508"/>
<text text-anchor="middle" x="289" y="531">DIOPS</text>
</a>
</g>
<!-- DIAGG&#45;&gt;DIOPS -->
<g id="edge38" class="edge"><title>DIAGG&#45;&gt;DIOPS</title>
<path style="fill:none;stroke:black;" d="M313,418C309,439 300,473 295,498"/>
<polygon style="fill:black;stroke:black;" points="298,499 293,508 292,498 298,499"/>
</g>
<!-- DIOPS&#45;&gt;BGAGG -->
<g id="edge40" class="edge"><title>DIOPS&#45;&gt;BGAGG</title>
<path style="fill:none;stroke:black;" d="M278,544C265,565 243,601 227,625"/>
<polygon style="fill:black;stroke:black;" points="230,627 222,634 224,624 230,627"/>
</g>
<!-- DIOPS&#45;&gt;CLAGG -->
<g id="edge42" class="edge"><title>DIOPS&#45;&gt;CLAGG</title>
<path style="fill:none;stroke:black;" d="M315,544C346,566 401,604 436,628"/>
<polygon style="fill:black;stroke:black;" points="439,626 445,634 435,631 439,626"/>
</g>
<!-- DLAGG -->
<g id="node50" class="node"><title>DLAGG</title>
<a xlink:href="bookvol10.2.pdf#nameddest=DLAGG" xlink:title="DLAGG">
<polygon style="fill:lightblue;stroke:lightblue;" points="525,382 459,382 459,418 525,418 525,382"/>
<text text-anchor="middle" x="492" y="405">DLAGG</text>
</a>
</g>
<!-- DLAGG&#45;&gt;RCAGG -->
<g id="edge44" class="edge"><title>DLAGG&#45;&gt;RCAGG</title>
<path style="fill:none;stroke:black;" d="M510,418C532,440 568,476 593,501"/>
<polygon style="fill:black;stroke:black;" points="595,498 600,508 590,503 595,498"/>
</g>
<!-- DQAGG -->
<g id="node52" class="node"><title>DQAGG</title>
<a xlink:href="bookvol10.2.pdf#nameddest=DQAGG" xlink:title="DQAGG">
<polygon style="fill:lightblue;stroke:lightblue;" points="144,382 78,382 78,418 144,418 144,382"/>
<text text-anchor="middle" x="111" y="405">DQAGG</text>
</a>
</g>
<!-- SKAGG -->
<g id="node54" class="node"><title>SKAGG</title>
<a xlink:href="bookvol10.2.pdf#nameddest=SKAGG" xlink:title="SKAGG">
<polygon style="fill:lightblue;stroke:lightblue;" points="160,508 96,508 96,544 160,544 160,508"/>
<text text-anchor="middle" x="128" y="531">SKAGG</text>
</a>
</g>
<!-- DQAGG&#45;&gt;SKAGG -->
<g id="edge46" class="edge"><title>DQAGG&#45;&gt;SKAGG</title>
<path style="fill:none;stroke:black;" d="M113,418C116,439 121,473 124,498"/>
<polygon style="fill:black;stroke:black;" points="127,498 125,508 121,498 127,498"/>
</g>
<!-- QUAGG -->
<g id="node56" class="node"><title>QUAGG</title>
<a xlink:href="bookvol10.2.pdf#nameddest=QUAGG" xlink:title="QUAGG">
<polygon style="fill:lightblue;stroke:lightblue;" points="242,508 178,508 178,544 242,544 242,508"/>
<text text-anchor="middle" x="210" y="531">QUAGG</text>
</a>
</g>
<!-- DQAGG&#45;&gt;QUAGG -->
<g id="edge48" class="edge"><title>DQAGG&#45;&gt;QUAGG</title>
<path style="fill:none;stroke:black;" d="M125,418C142,439 170,475 190,500"/>
<polygon style="fill:black;stroke:black;" points="193,498 196,508 187,502 193,498"/>
</g>
<!-- SKAGG&#45;&gt;BGAGG -->
<g id="edge162" class="edge"><title>SKAGG&#45;&gt;BGAGG</title>
<path style="fill:none;stroke:black;" d="M140,544C153,565 176,601 192,626"/>
<polygon style="fill:black;stroke:black;" points="195,624 198,634 189,628 195,624"/>
</g>
<!-- QUAGG&#45;&gt;BGAGG -->
<g id="edge134" class="edge"><title>QUAGG&#45;&gt;BGAGG</title>
<path style="fill:none;stroke:black;" d="M210,544C210,565 210,599 210,624"/>
<polygon style="fill:black;stroke:black;" points="214,624 210,634 207,624 214,624"/>
</g>
<!-- ELAGG&#45;&gt;LNAGG -->
<g id="edge50" class="edge"><title>ELAGG&#45;&gt;LNAGG</title>
<path style="fill:none;stroke:black;" d="M879,418C851,440 805,477 773,502"/>
<polygon style="fill:black;stroke:black;" points="775,505 765,508 771,499 775,505"/>
</g>
<!-- LNAGG&#45;&gt;CLAGG -->
<g id="edge80" class="edge"><title>LNAGG&#45;&gt;CLAGG</title>
<path style="fill:none;stroke:black;" d="M710,541C661,564 567,608 512,633"/>
<polygon style="fill:black;stroke:black;" points="514,636 503,637 511,630 514,636"/>
</g>
<!-- LNAGG&#45;&gt;IXAGG -->
<g id="edge78" class="edge"><title>LNAGG&#45;&gt;IXAGG</title>
<path style="fill:none;stroke:black;" d="M733,544C722,565 704,600 692,625"/>
<polygon style="fill:black;stroke:black;" points="695,627 687,634 689,624 695,627"/>
</g>
<!-- ELTAB -->
<g id="node60" class="node"><title>ELTAB</title>
<a xlink:href="bookvol10.2.pdf#nameddest=ELTAB" xlink:title="ELTAB">
<polygon style="fill:lightblue;stroke:lightblue;" points="702,886 642,886 642,922 702,922 702,886"/>
<text text-anchor="middle" x="672" y="909">ELTAB</text>
</a>
</g>
<!-- ELTAB&#45;&gt;CATEGORY -->
<g id="edge52" class="edge"><title>ELTAB&#45;&gt;CATEGORY</title>
<path style="fill:none;stroke:black;" d="M702,921C779,965 986,1083 1074,1133"/>
<polygon style="fill:black;stroke:black;" points="1076,1130 1083,1138 1073,1136 1076,1130"/>
</g>
<!-- ELTAGG -->
<g id="node62" class="node"><title>ELTAGG</title>
<a xlink:href="bookvol10.2.pdf#nameddest=ELTAGG" xlink:title="ELTAGG">
<polygon style="fill:lightblue;stroke:lightblue;" points="652,760 582,760 582,796 652,796 652,760"/>
<text text-anchor="middle" x="617" y="783">ELTAGG</text>
</a>
</g>
<!-- ELTAGG&#45;&gt;ELTAB -->
<g id="edge54" class="edge"><title>ELTAGG&#45;&gt;ELTAB</title>
<path style="fill:none;stroke:black;" d="M625,796C634,817 649,852 660,877"/>
<polygon style="fill:black;stroke:black;" points="663,875 664,886 657,878 663,875"/>
</g>
<!-- FINITE -->
<g id="node64" class="node"><title>FINITE</title>
<a xlink:href="bookvol10.2.pdf#nameddest=FINITE" xlink:title="FINITE">
<polygon style="fill:lightblue;stroke:lightblue;" points="1344,760 1284,760 1284,796 1344,796 1344,760"/>
<text text-anchor="middle" x="1314" y="783">FINITE</text>
</a>
</g>
<!-- FINITE&#45;&gt;SETCAT -->
<g id="edge56" class="edge"><title>FINITE&#45;&gt;SETCAT</title>
<path style="fill:none;stroke:black;" d="M1306,796C1296,817 1280,852 1269,877"/>
<polygon style="fill:black;stroke:black;" points="1272,878 1265,886 1266,875 1272,878"/>
</g>
<!-- FSAGG -->
<g id="node67" class="node"><title>FSAGG</title>
<a xlink:href="bookvol10.2.pdf#nameddest=FSAGG" xlink:title="FSAGG">
<polygon style="fill:lightblue;stroke:lightblue;" points="403,256 343,256 343,292 403,292 403,256"/>
<text text-anchor="middle" x="373" y="279">FSAGG</text>
</a>
</g>
<!-- FSAGG&#45;&gt;DIAGG -->
<g id="edge60" class="edge"><title>FSAGG&#45;&gt;DIAGG</title>
<path style="fill:none;stroke:black;" d="M365,292C355,313 340,348 329,373"/>
<polygon style="fill:black;stroke:black;" points="332,374 325,382 326,371 332,374"/>
</g>
<!-- SETAGG -->
<g id="node70" class="node"><title>SETAGG</title>
<a xlink:href="bookvol10.2.pdf#nameddest=SETAGG" xlink:title="SETAGG">
<polygon style="fill:lightblue;stroke:lightblue;" points="406,508 336,508 336,544 406,544 406,508"/>
<text text-anchor="middle" x="371" y="531">SETAGG</text>
</a>
</g>
<!-- FSAGG&#45;&gt;SETAGG -->
<g id="edge62" class="edge"><title>FSAGG&#45;&gt;SETAGG</title>
<path style="fill:none;stroke:black;" d="M373,292C372,336 371,445 371,498"/>
<polygon style="fill:black;stroke:black;" points="375,498 371,508 368,498 375,498"/>
</g>
<!-- SETAGG&#45;&gt;SETCAT -->
<g id="edge152" class="edge"><title>SETAGG&#45;&gt;SETCAT</title>
<path style="fill:none;stroke:black;" d="M401,544C450,573 549,630 637,670 883,783 957,786 1212,886"/>
<polygon style="fill:black;stroke:black;" points="1214,883 1222,890 1211,890 1214,883"/>
</g>
<!-- SETAGG&#45;&gt;CLAGG -->
<g id="edge154" class="edge"><title>SETAGG&#45;&gt;CLAGG</title>
<path style="fill:none;stroke:black;" d="M385,544C402,565 430,601 450,626"/>
<polygon style="fill:black;stroke:black;" points="453,624 456,634 447,628 453,624"/>
</g>
<!-- IXAGG&#45;&gt;HOAGG -->
<g id="edge66" class="edge"><title>IXAGG&#45;&gt;HOAGG</title>
<path style="fill:none;stroke:black;" d="M656,670C631,692 588,729 560,753"/>
<polygon style="fill:black;stroke:black;" points="562,756 552,760 557,751 562,756"/>
</g>
<!-- IXAGG&#45;&gt;ELTAGG -->
<g id="edge68" class="edge"><title>IXAGG&#45;&gt;ELTAGG</title>
<path style="fill:none;stroke:black;" d="M668,670C658,691 642,726 630,751"/>
<polygon style="fill:black;stroke:black;" points="633,752 626,760 627,749 633,752"/>
</g>
<!-- KDAGG&#45;&gt;DIAGG -->
<g id="edge70" class="edge"><title>KDAGG&#45;&gt;DIAGG</title>
<path style="fill:none;stroke:black;" d="M296,292C299,313 306,347 311,372"/>
<polygon style="fill:black;stroke:black;" points="314,372 313,382 308,373 314,372"/>
</g>
<!-- KOERCE&#45;&gt;CATEGORY -->
<g id="edge72" class="edge"><title>KOERCE&#45;&gt;CATEGORY</title>
<path style="fill:none;stroke:black;" d="M1155,1048C1147,1069 1135,1104 1126,1129"/>
<polygon style="fill:black;stroke:black;" points="1129,1130 1122,1138 1123,1127 1129,1130"/>
</g>
<!-- KONVERT -->
<g id="node79" class="node"><title>KONVERT</title>
<a xlink:href="bookvol10.2.pdf#nameddest=KONVERT" xlink:title="KONVERT">
<polygon style="fill:lightblue;stroke:lightblue;" points="1298,1012 1216,1012 1216,1048 1298,1048 1298,1012"/>
<text text-anchor="middle" x="1257" y="1035">KONVERT</text>
</a>
</g>
<!-- KONVERT&#45;&gt;CATEGORY -->
<g id="edge74" class="edge"><title>KONVERT&#45;&gt;CATEGORY</title>
<path style="fill:none;stroke:black;" d="M1237,1048C1212,1070 1171,1107 1144,1131"/>
<polygon style="fill:black;stroke:black;" points="1146,1134 1136,1138 1141,1129 1146,1134"/>
</g>
<!-- MDAGG -->
<g id="node86" class="node"><title>MDAGG</title>
<a xlink:href="bookvol10.2.pdf#nameddest=MDAGG" xlink:title="MDAGG">
<polygon style="fill:lightblue;stroke:lightblue;" points="230,382 162,382 162,418 230,418 230,382"/>
<text text-anchor="middle" x="196" y="405">MDAGG</text>
</a>
</g>
<!-- MDAGG&#45;&gt;DIOPS -->
<g id="edge86" class="edge"><title>MDAGG&#45;&gt;DIOPS</title>
<path style="fill:none;stroke:black;" d="M209,418C225,439 252,475 269,500"/>
<polygon style="fill:black;stroke:black;" points="272,498 275,508 266,502 272,498"/>
</g>
<!-- MONOID -->
<g id="node88" class="node"><title>MONOID</title>
<a xlink:href="bookvol10.2.pdf#nameddest=MONOID" xlink:title="MONOID">
<polygon style="fill:lightblue;stroke:lightblue;" points="1473,256 1399,256 1399,292 1473,292 1473,256"/>
<text text-anchor="middle" x="1436" y="279">MONOID</text>
</a>
</g>
<!-- SGROUP -->
<g id="node90" class="node"><title>SGROUP</title>
<a xlink:href="bookvol10.2.pdf#nameddest=SGROUP" xlink:title="SGROUP">
<polygon style="fill:lightblue;stroke:lightblue;" points="1471,382 1401,382 1401,418 1471,418 1471,382"/>
<text text-anchor="middle" x="1436" y="405">SGROUP</text>
</a>
</g>
<!-- MONOID&#45;&gt;SGROUP -->
<g id="edge88" class="edge"><title>MONOID&#45;&gt;SGROUP</title>
<path style="fill:none;stroke:black;" d="M1436,292C1436,313 1436,347 1436,372"/>
<polygon style="fill:black;stroke:black;" points="1440,372 1436,382 1433,372 1440,372"/>
</g>
<!-- SGROUP&#45;&gt;SETCAT -->
<g id="edge160" class="edge"><title>SGROUP&#45;&gt;SETCAT</title>
<path style="fill:none;stroke:black;" d="M1441,418C1457,478 1498,669 1425,796 1397,844 1340,873 1300,889"/>
<polygon style="fill:black;stroke:black;" points="1301,893 1290,893 1298,886 1301,893"/>
</g>
<!-- MSETAGG -->
<g id="node91" class="node"><title>MSETAGG</title>
<a xlink:href="bookvol10.2.pdf#nameddest=MSETAGG" xlink:title="MSETAGG">
<polygon style="fill:lightblue;stroke:lightblue;" points="238,256 154,256 154,292 238,292 238,256"/>
<text text-anchor="middle" x="196" y="279">MSETAGG</text>
</a>
</g>
<!-- MSETAGG&#45;&gt;SETAGG -->
<g id="edge92" class="edge"><title>MSETAGG&#45;&gt;SETAGG</title>
<path style="fill:none;stroke:black;" d="M205,292C219,321 247,375 277,418 298,448 326,479 346,501"/>
<polygon style="fill:black;stroke:black;" points="348,498 353,508 343,503 348,498"/>
</g>
<!-- MSETAGG&#45;&gt;MDAGG -->
<g id="edge90" class="edge"><title>MSETAGG&#45;&gt;MDAGG</title>
<path style="fill:none;stroke:black;" d="M196,292C196,313 196,347 196,372"/>
<polygon style="fill:black;stroke:black;" points="200,372 196,382 193,372 200,372"/>
</g>
<!-- OAGROUP -->
<g id="node94" class="node"><title>OAGROUP</title>
<a xlink:href="bookvol10.2.pdf#nameddest=OAGROUP" xlink:title="OAGROUP">
<polygon style="fill:lightblue;stroke:lightblue;" points="1215,130 1133,130 1133,166 1215,166 1215,130"/>
<text text-anchor="middle" x="1174" y="153">OAGROUP</text>
</a>
</g>
<!-- OAGROUP&#45;&gt;ABELGRP -->
<g id="edge96" class="edge"><title>OAGROUP&#45;&gt;ABELGRP</title>
<path style="fill:none;stroke:black;" d="M1162,166C1149,187 1128,222 1120,256 1111,296 1121,343 1130,372"/>
<polygon style="fill:black;stroke:black;" points="1133,371 1133,382 1127,373 1133,371"/>
</g>
<!-- OCAMON -->
<g id="node96" class="node"><title>OCAMON</title>
<a xlink:href="bookvol10.2.pdf#nameddest=OCAMON" xlink:title="OCAMON">
<polygon style="fill:lightblue;stroke:lightblue;" points="1309,256 1231,256 1231,292 1309,292 1309,256"/>
<text text-anchor="middle" x="1270" y="279">OCAMON</text>
</a>
</g>
<!-- OAGROUP&#45;&gt;OCAMON -->
<g id="edge94" class="edge"><title>OAGROUP&#45;&gt;OCAMON</title>
<path style="fill:none;stroke:black;" d="M1188,166C1204,187 1231,223 1250,248"/>
<polygon style="fill:black;stroke:black;" points="1253,246 1256,256 1247,250 1253,246"/>
</g>
<!-- OCAMON&#45;&gt;CABMON -->
<g id="edge110" class="edge"><title>OCAMON&#45;&gt;CABMON</title>
<path style="fill:none;stroke:black;" d="M1261,292C1239,336 1183,447 1157,499"/>
<polygon style="fill:black;stroke:black;" points="1160,500 1153,508 1154,497 1160,500"/>
</g>
<!-- OAMON -->
<g id="node98" class="node"><title>OAMON</title>
<a xlink:href="bookvol10.2.pdf#nameddest=OAMON" xlink:title="OAMON">
<polygon style="fill:lightblue;stroke:lightblue;" points="1304,382 1236,382 1236,418 1304,418 1304,382"/>
<text text-anchor="middle" x="1270" y="405">OAMON</text>
</a>
</g>
<!-- OCAMON&#45;&gt;OAMON -->
<g id="edge108" class="edge"><title>OCAMON&#45;&gt;OAMON</title>
<path style="fill:none;stroke:black;" d="M1270,292C1270,313 1270,347 1270,372"/>
<polygon style="fill:black;stroke:black;" points="1274,372 1270,382 1267,372 1274,372"/>
</g>
<!-- OAMON&#45;&gt;ABELMON -->
<g id="edge100" class="edge"><title>OAMON&#45;&gt;ABELMON</title>
<path style="fill:none;stroke:black;" d="M1263,418C1254,440 1241,476 1230,508 1216,548 1201,595 1192,624"/>
<polygon style="fill:black;stroke:black;" points="1195,625 1189,634 1189,623 1195,625"/>
</g>
<!-- OASGP -->
<g id="node100" class="node"><title>OASGP</title>
<a xlink:href="bookvol10.2.pdf#nameddest=OASGP" xlink:title="OASGP">
<polygon style="fill:lightblue;stroke:lightblue;" points="1301,508 1239,508 1239,544 1301,544 1301,508"/>
<text text-anchor="middle" x="1270" y="531">OASGP</text>
</a>
</g>
<!-- OAMON&#45;&gt;OASGP -->
<g id="edge98" class="edge"><title>OAMON&#45;&gt;OASGP</title>
<path style="fill:none;stroke:black;" d="M1270,418C1270,439 1270,473 1270,498"/>
<polygon style="fill:black;stroke:black;" points="1274,498 1270,508 1267,498 1274,498"/>
</g>
<!-- OASGP&#45;&gt;ABELMON -->
<g id="edge106" class="edge"><title>OASGP&#45;&gt;ABELMON</title>
<path style="fill:none;stroke:black;" d="M1258,544C1243,565 1218,601 1202,626"/>
<polygon style="fill:black;stroke:black;" points="1205,628 1196,634 1199,624 1205,628"/>
</g>
<!-- OASGP&#45;&gt;ORDSET -->
<g id="edge104" class="edge"><title>OASGP&#45;&gt;ORDSET</title>
<path style="fill:none;stroke:black;" d="M1271,544C1273,565 1275,599 1277,624"/>
<polygon style="fill:black;stroke:black;" points="1280,624 1278,634 1274,624 1280,624"/>
</g>
<!-- OAMONS -->
<g id="node102" class="node"><title>OAMONS</title>
<a xlink:href="bookvol10.2.pdf#nameddest=OAMONS" xlink:title="OAMONS">
<polygon style="fill:lightblue;stroke:lightblue;" points="1309,130 1233,130 1233,166 1309,166 1309,130"/>
<text text-anchor="middle" x="1271" y="153">OAMONS</text>
</a>
</g>
<!-- OAMONS&#45;&gt;OCAMON -->
<g id="edge102" class="edge"><title>OAMONS&#45;&gt;OCAMON</title>
<path style="fill:none;stroke:black;" d="M1271,166C1271,187 1271,221 1270,246"/>
<polygon style="fill:black;stroke:black;" points="1274,246 1270,256 1267,246 1274,246"/>
</g>
<!-- OMSAGG -->
<g id="node108" class="node"><title>OMSAGG</title>
<a xlink:href="bookvol10.2.pdf#nameddest=OMSAGG" xlink:title="OMSAGG">
<polygon style="fill:lightblue;stroke:lightblue;" points="160,130 84,130 84,166 160,166 160,130"/>
<text text-anchor="middle" x="122" y="153">OMSAGG</text>
</a>
</g>
<!-- OMSAGG&#45;&gt;MSETAGG -->
<g id="edge112" class="edge"><title>OMSAGG&#45;&gt;MSETAGG</title>
<path style="fill:none;stroke:black;" d="M133,166C145,187 166,223 180,247"/>
<polygon style="fill:black;stroke:black;" points="183,246 185,256 177,249 183,246"/>
</g>
<!-- PRQAGG -->
<g id="node111" class="node"><title>PRQAGG</title>
<a xlink:href="bookvol10.2.pdf#nameddest=PRQAGG" xlink:title="PRQAGG">
<polygon style="fill:lightblue;stroke:lightblue;" points="78,508 4,508 4,544 78,544 78,508"/>
<text text-anchor="middle" x="41" y="531">PRQAGG</text>
</a>
</g>
<!-- OMSAGG&#45;&gt;PRQAGG -->
<g id="edge114" class="edge"><title>OMSAGG&#45;&gt;PRQAGG</title>
<path style="fill:none;stroke:black;" d="M118,166C108,206 86,302 69,382 61,422 52,469 46,498"/>
<polygon style="fill:black;stroke:black;" points="49,499 44,508 43,498 49,499"/>
</g>
<!-- PRQAGG&#45;&gt;BGAGG -->
<g id="edge132" class="edge"><title>PRQAGG&#45;&gt;BGAGG</title>
<path style="fill:none;stroke:black;" d="M65,544C94,566 144,604 178,628"/>
<polygon style="fill:black;stroke:black;" points="180,625 186,634 176,631 180,625"/>
</g>
<!-- ORDFIN -->
<g id="node112" class="node"><title>ORDFIN</title>
<a xlink:href="bookvol10.2.pdf#nameddest=ORDFIN" xlink:title="ORDFIN">
<polygon style="fill:lightblue;stroke:lightblue;" points="1425,508 1357,508 1357,544 1425,544 1425,508"/>
<text text-anchor="middle" x="1391" y="531">ORDFIN</text>
</a>
</g>
<!-- ORDFIN&#45;&gt;ORDSET -->
<g id="edge116" class="edge"><title>ORDFIN&#45;&gt;ORDSET</title>
<path style="fill:none;stroke:black;" d="M1375,544C1356,566 1324,602 1302,626"/>
<polygon style="fill:black;stroke:black;" points="1304,629 1295,634 1299,624 1304,629"/>
</g>
<!-- ORDFIN&#45;&gt;FINITE -->
<g id="edge118" class="edge"><title>ORDFIN&#45;&gt;FINITE</title>
<path style="fill:none;stroke:black;" d="M1385,544C1372,588 1339,698 1323,750"/>
<polygon style="fill:black;stroke:black;" points="1326,751 1320,760 1320,749 1326,751"/>
</g>
<!-- ORDMON -->
<g id="node115" class="node"><title>ORDMON</title>
<a xlink:href="bookvol10.2.pdf#nameddest=ORDMON" xlink:title="ORDMON">
<polygon style="fill:lightblue;stroke:lightblue;" points="1533,130 1455,130 1455,166 1533,166 1533,130"/>
<text text-anchor="middle" x="1494" y="153">ORDMON</text>
</a>
</g>
<!-- ORDMON&#45;&gt;ORDSET -->
<g id="edge120" class="edge"><title>ORDMON&#45;&gt;ORDSET</title>
<path style="fill:none;stroke:black;" d="M1498,166C1508,212 1526,335 1480,418 1445,480 1394,455 1348,508 1317,543 1297,593 1287,624"/>
<polygon style="fill:black;stroke:black;" points="1290,625 1284,634 1284,623 1290,625"/>
</g>
<!-- ORDMON&#45;&gt;MONOID -->
<g id="edge122" class="edge"><title>ORDMON&#45;&gt;MONOID</title>
<path style="fill:none;stroke:black;" d="M1486,166C1476,187 1460,222 1449,247"/>
<polygon style="fill:black;stroke:black;" points="1452,248 1445,256 1446,245 1452,248"/>
</g>
<!-- ORDRING -->
<g id="node118" class="node"><title>ORDRING</title>
<a xlink:href="bookvol10.2.pdf#nameddest=ORDRING" xlink:title="ORDRING">
<polygon style="fill:lightblue;stroke:lightblue;" points="1394,4 1314,4 1314,40 1394,40 1394,4"/>
<text text-anchor="middle" x="1354" y="27">ORDRING</text>
</a>
</g>
<!-- ORDRING&#45;&gt;MONOID -->
<g id="edge128" class="edge"><title>ORDRING&#45;&gt;MONOID</title>
<path style="fill:none;stroke:black;" d="M1360,40C1367,62 1380,98 1390,130 1403,170 1417,217 1427,246"/>
<polygon style="fill:black;stroke:black;" points="1430,245 1430,256 1424,247 1430,245"/>
</g>
<!-- ORDRING&#45;&gt;OAGROUP -->
<g id="edge124" class="edge"><title>ORDRING&#45;&gt;OAGROUP</title>
<path style="fill:none;stroke:black;" d="M1328,40C1297,62 1243,100 1208,124"/>
<polygon style="fill:black;stroke:black;" points="1210,127 1200,130 1206,121 1210,127"/>
</g>
<!-- RING -->
<g id="node121" class="node"><title>RING</title>
<a xlink:href="bookvol10.2.pdf#nameddest=RING" xlink:title="RING">
<polygon style="fill:lightblue;stroke:lightblue;" points="1381,130 1327,130 1327,166 1381,166 1381,130"/>
<text text-anchor="middle" x="1354" y="153">RING</text>
</a>
</g>
<!-- ORDRING&#45;&gt;RING -->
<g id="edge126" class="edge"><title>ORDRING&#45;&gt;RING</title>
<path style="fill:none;stroke:black;" d="M1354,40C1354,61 1354,95 1354,120"/>
<polygon style="fill:black;stroke:black;" points="1358,120 1354,130 1351,120 1358,120"/>
</g>
<!-- RING&#45;&gt;LMODULE -->
<g id="edge144" class="edge"><title>RING&#45;&gt;LMODULE</title>
<path style="fill:none;stroke:black;" d="M1328,166C1296,188 1241,226 1206,250"/>
<polygon style="fill:black;stroke:black;" points="1207,253 1197,256 1203,248 1207,253"/>
</g>
<!-- RING&#45;&gt;MONOID -->
<g id="edge142" class="edge"><title>RING&#45;&gt;MONOID</title>
<path style="fill:none;stroke:black;" d="M1366,166C1379,187 1402,223 1418,248"/>
<polygon style="fill:black;stroke:black;" points="1421,246 1424,256 1415,250 1421,246"/>
</g>
<!-- RNG -->
<g id="node130" class="node"><title>RNG</title>
<a xlink:href="bookvol10.2.pdf#nameddest=RNG" xlink:title="RNG">
<polygon style="fill:lightblue;stroke:lightblue;" points="1381,256 1327,256 1327,292 1381,292 1381,256"/>
<text text-anchor="middle" x="1354" y="279">RNG</text>
</a>
</g>
<!-- RING&#45;&gt;RNG -->
<g id="edge140" class="edge"><title>RING&#45;&gt;RNG</title>
<path style="fill:none;stroke:black;" d="M1354,166C1354,187 1354,221 1354,246"/>
<polygon style="fill:black;stroke:black;" points="1358,246 1354,256 1351,246 1358,246"/>
</g>
<!-- RETRACT -->
<g id="node127" class="node"><title>RETRACT</title>
<a xlink:href="bookvol10.2.pdf#nameddest=RETRACT" xlink:title="RETRACT">
<polygon style="fill:lightblue;stroke:lightblue;" points="1396,1012 1316,1012 1316,1048 1396,1048 1396,1012"/>
<text text-anchor="middle" x="1356" y="1035">RETRACT</text>
</a>
</g>
<!-- RETRACT&#45;&gt;CATEGORY -->
<g id="edge138" class="edge"><title>RETRACT&#45;&gt;CATEGORY</title>
<path style="fill:none;stroke:black;" d="M1321,1048C1279,1070 1206,1109 1159,1133"/>
<polygon style="fill:black;stroke:black;" points="1160,1136 1150,1138 1157,1130 1160,1136"/>
</g>
<!-- RNG&#45;&gt;ABELGRP -->
<g id="edge148" class="edge"><title>RNG&#45;&gt;ABELGRP</title>
<path style="fill:none;stroke:black;" d="M1327,290C1290,312 1222,351 1180,377"/>
<polygon style="fill:black;stroke:black;" points="1181,380 1171,382 1178,374 1181,380"/>
</g>
<!-- RNG&#45;&gt;SGROUP -->
<g id="edge150" class="edge"><title>RNG&#45;&gt;SGROUP</title>
<path style="fill:none;stroke:black;" d="M1366,292C1379,313 1402,349 1418,374"/>
<polygon style="fill:black;stroke:black;" points="1421,372 1424,382 1415,376 1421,372"/>
</g>
<!-- SRAGG -->
<g id="node142" class="node"><title>SRAGG</title>
<a xlink:href="bookvol10.2.pdf#nameddest=SRAGG" xlink:title="SRAGG">
<polygon style="fill:lightblue;stroke:lightblue;" points="774,130 712,130 712,166 774,166 774,130"/>
<text text-anchor="middle" x="743" y="153">SRAGG</text>
</a>
</g>
<!-- SRAGG&#45;&gt;A1AGG -->
<g id="edge164" class="edge"><title>SRAGG&#45;&gt;A1AGG</title>
<path style="fill:none;stroke:black;" d="M743,166C743,187 743,221 743,246"/>
<polygon style="fill:black;stroke:black;" points="747,246 743,256 740,246 747,246"/>
</g>
<!-- STAGG -->
<g id="node144" class="node"><title>STAGG</title>
<a xlink:href="bookvol10.2.pdf#nameddest=STAGG" xlink:title="STAGG">
<polygon style="fill:lightblue;stroke:lightblue;" points="773,382 711,382 711,418 773,418 773,382"/>
<text text-anchor="middle" x="742" y="405">STAGG</text>
</a>
</g>
<!-- STAGG&#45;&gt;RCAGG -->
<g id="edge166" class="edge"><title>STAGG&#45;&gt;RCAGG</title>
<path style="fill:none;stroke:black;" d="M724,418C703,440 668,476 643,501"/>
<polygon style="fill:black;stroke:black;" points="646,503 636,508 641,498 646,503"/>
</g>
<!-- STAGG&#45;&gt;LNAGG -->
<g id="edge168" class="edge"><title>STAGG&#45;&gt;LNAGG</title>
<path style="fill:none;stroke:black;" d="M742,418C742,439 742,473 742,498"/>
<polygon style="fill:black;stroke:black;" points="746,498 742,508 739,498 746,498"/>
</g>
<!-- STEP -->
<g id="node147" class="node"><title>STEP</title>
<a xlink:href="bookvol10.2.pdf#nameddest=STEP" xlink:title="STEP">
<polygon style="fill:lightblue;stroke:lightblue;" points="1416,760 1362,760 1362,796 1416,796 1416,760"/>
<text text-anchor="middle" x="1389" y="783">STEP</text>
</a>
</g>
<!-- STEP&#45;&gt;SETCAT -->
<g id="edge170" class="edge"><title>STEP&#45;&gt;SETCAT</title>
<path style="fill:none;stroke:black;" d="M1370,796C1347,818 1309,855 1282,879"/>
<polygon style="fill:black;stroke:black;" points="1285,881 1275,886 1280,876 1285,881"/>
</g>
<!-- URAGG -->
<g id="node152" class="node"><title>URAGG</title>
<a xlink:href="bookvol10.2.pdf#nameddest=URAGG" xlink:title="URAGG">
<polygon style="fill:lightblue;stroke:lightblue;" points="609,382 543,382 543,418 609,418 609,382"/>
<text text-anchor="middle" x="576" y="405">URAGG</text>
</a>
</g>
<!-- URAGG&#45;&gt;RCAGG -->
<g id="edge178" class="edge"><title>URAGG&#45;&gt;RCAGG</title>
<path style="fill:none;stroke:black;" d="M582,418C589,439 601,474 609,498"/>
<polygon style="fill:black;stroke:black;" points="612,497 612,508 606,499 612,497"/>
</g>
</g>
</svg>
