#define opt4c2_width 344
#define opt4c2_height 20
static char opt4c2_bits[] = {
   0x00, 0x00, 0x00, 0x00, 0x00, 0x00, 0x00, 0x00, 0x00, 0x00, 0x00, 0x00,
   0x00, 0x00, 0x00, 0x00, 0x00, 0x00, 0x00, 0x00, 0x00, 0x00, 0x00, 0x00,
   0x00, 0x00, 0x00, 0x00, 0x00, 0x00, 0x00, 0x00, 0x00, 0x00, 0x00, 0x00,
   0x00, 0x00, 0x00, 0x00, 0x00, 0x00, 0x00, 0x00, 0x00, 0x00, 0x00, 0x00,
   0x00, 0x00, 0x00, 0x00, 0x00, 0x00, 0x00, 0x00, 0x00, 0x00, 0x00, 0x00,
   0x00, 0x00, 0x00, 0x00, 0x00, 0x00, 0x00, 0x00, 0x00, 0x00, 0x00, 0x00,
   0x00, 0x00, 0x00, 0x00, 0x00, 0x00, 0x00, 0x00, 0x00, 0x00, 0x00, 0x00,
   0x00, 0x00, 0x00, 0x00, 0x00, 0x00, 0x00, 0x00, 0x00, 0x00, 0x00, 0x00,
   0x00, 0x00, 0x00, 0x00, 0x00, 0x00, 0x00, 0x00, 0x00, 0x00, 0x00, 0x00,
   0x00, 0x00, 0x00, 0x00, 0x00, 0x00, 0x00, 0x00, 0x00, 0x00, 0x00, 0x00,
   0x00, 0x00, 0x00, 0x00, 0x00, 0x00, 0x00, 0x00, 0x00, 0x00, 0x00, 0x00,
   0x00, 0x00, 0x00, 0x00, 0x00, 0x00, 0x00, 0x00, 0x00, 0x00, 0x00, 0x00,
   0x00, 0x00, 0x00, 0x00, 0x00, 0x00, 0x00, 0x00, 0x00, 0x00, 0x00, 0x00,
   0x00, 0x00, 0x00, 0x00, 0x00, 0x00, 0x00, 0x00, 0x00, 0x00, 0x00, 0x00,
   0x00, 0x00, 0x00, 0x00, 0xe0, 0x31, 0x00, 0x00, 0x00, 0x80, 0xc7, 0x00,
   0x00, 0x00, 0x00, 0x1e, 0x03, 0x00, 0x00, 0x00, 0x3c, 0x06, 0x00, 0x00,
   0x00, 0xf0, 0x18, 0x00, 0x00, 0x00, 0xc0, 0x63, 0x00, 0x00, 0x00, 0x80,
   0xc7, 0x00, 0x00, 0x00, 0x00, 0x00, 0x00, 0x07, 0x80, 0x01, 0x03, 0xc0,
   0x11, 0x00, 0x00, 0x00, 0x00, 0x47, 0x00, 0x00, 0x00, 0x00, 0x1c, 0x01,
   0x00, 0x00, 0x00, 0x38, 0x02, 0x00, 0x00, 0x00, 0xe0, 0x08, 0x00, 0x00,
   0x00, 0x80, 0x23, 0x00, 0x00, 0x00, 0x00, 0x47, 0x00, 0x00, 0x00, 0x00,
   0x00, 0x80, 0x08, 0xe0, 0x81, 0x0c, 0x80, 0x09, 0x00, 0x00, 0x00, 0x00,
   0x26, 0x00, 0x00, 0x00, 0x00, 0x98, 0x00, 0x00, 0x40, 0x00, 0x30, 0x01,
   0x00, 0x00, 0x00, 0xc0, 0x04, 0x00, 0x00, 0x00, 0x00, 0x13, 0x00, 0x00,
   0x00, 0x00, 0x26, 0x00, 0x00, 0x00, 0x00, 0x00, 0xc0, 0x18, 0x80, 0xc1,
   0x19, 0x80, 0x07, 0x00, 0x00, 0x08, 0x00, 0x1e, 0x00, 0x00, 0x10, 0x00,
   0x78, 0x00, 0x00, 0x40, 0x00, 0xf0, 0x00, 0x00, 0x00, 0x01, 0xc0, 0x03,
   0x00, 0x00, 0x02, 0x00, 0x0f, 0x00, 0x00, 0x08, 0x00, 0x1e, 0x00, 0x00,
   0x00, 0x00, 0x00, 0xc0, 0x18, 0x80, 0x81, 0x0c, 0x00, 0x07, 0x00, 0x00,
   0x08, 0x00, 0x1c, 0x00, 0x00, 0x10, 0x00, 0x70, 0x00, 0x00, 0x40, 0x00,
   0xe0, 0x00, 0x00, 0x00, 0x01, 0x80, 0x03, 0x00, 0x00, 0x02, 0x00, 0x0e,
   0x00, 0x00, 0x08, 0x00, 0x1c, 0x00, 0x00, 0x00, 0x00, 0x00, 0xc0, 0x18,
   0x80, 0x01, 0x0c, 0x00, 0x06, 0x00, 0x00, 0x08, 0x00, 0x18, 0x00, 0x00,
   0x10, 0x00, 0x60, 0x00, 0x00, 0x40, 0x00, 0xc0, 0x00, 0x00, 0x00, 0x01,
   0x00, 0x03, 0x00, 0x00, 0x02, 0x00, 0x0c, 0x00, 0x00, 0x08, 0x00, 0x18,
   0x00, 0x00, 0xff, 0x03, 0x00, 0xc0, 0x18, 0x80, 0x01, 0x07, 0x00, 0x0f,
   0x00, 0x00, 0x08, 0x00, 0x3c, 0x00, 0x00, 0x10, 0x00, 0xf0, 0x00, 0x00,
   0x40, 0x00, 0xe0, 0x01, 0x00, 0x00, 0x01, 0x80, 0x07, 0x00, 0x00, 0x02,
   0x00, 0x1e, 0x00, 0x00, 0x08, 0x00, 0x3c, 0x00, 0x00, 0x00, 0x00, 0x00,
   0xc0, 0x18, 0x80, 0x01, 0x18, 0x80, 0x1c, 0x20, 0x80, 0xff, 0x00, 0x72,
   0xe0, 0x00, 0xff, 0x01, 0xc8, 0x81, 0x03, 0x64, 0x02, 0x90, 0x03, 0x04,
   0xf0, 0x1f, 0x40, 0x0e, 0x1e, 0xe0, 0x3f, 0x00, 0x39, 0x30, 0x80, 0xff,
   0x00, 0x72, 0xf0, 0x01, 0x00, 0x00, 0xf0, 0xc7, 0x18, 0x80, 0x41, 0x18,
   0x40, 0x18, 0x30, 0x00, 0x08, 0x00, 0x61, 0x90, 0x00, 0x10, 0x00, 0x80,
   0x41, 0x02, 0x40, 0x00, 0x08, 0x03, 0x06, 0x00, 0x01, 0x20, 0x0c, 0x02,
   0x00, 0x02, 0x80, 0x30, 0x48, 0x00, 0x08, 0x00, 0x61, 0x90, 0x00, 0xff,
   0x03, 0x00, 0xc0, 0x18, 0x80, 0xc1, 0x18, 0x60, 0x38, 0x20, 0x00, 0x08,
   0x80, 0xe1, 0x80, 0x01, 0x10, 0x00, 0x84, 0x03, 0x02, 0x40, 0x00, 0x0c,
   0x07, 0x05, 0x00, 0x01, 0x30, 0x1c, 0x0e, 0x00, 0x02, 0xc0, 0x70, 0x08,
   0x00, 0x08, 0x80, 0xe1, 0x80, 0x00, 0x00, 0x00, 0x00, 0x80, 0x08, 0x83,
   0xc1, 0x18, 0xf0, 0xf8, 0x20, 0x00, 0x08, 0xc0, 0xe3, 0x83, 0x00, 0x10,
   0x00, 0x8f, 0x0f, 0x03, 0x40, 0x00, 0x1e, 0x9f, 0x04, 0x00, 0x01, 0x78,
   0x7c, 0x12, 0x00, 0x02, 0xe0, 0xf1, 0x39, 0x00, 0x08, 0xc0, 0xe3, 0x41,
   0x00, 0x00, 0x00, 0x00, 0x00, 0x07, 0xe3, 0x83, 0x07, 0x00, 0x00, 0x20,
   0x00, 0x08, 0x00, 0x00, 0x40, 0x00, 0x10, 0x00, 0x00, 0x00, 0x06, 0x40,
   0x00, 0x00, 0x80, 0x0f, 0x00, 0x01, 0x00, 0x00, 0x10, 0x00, 0x02, 0x00,
   0x00, 0x48, 0x00, 0x08, 0x00, 0x00, 0x60, 0x00, 0x00, 0x00, 0x00, 0x00,
   0x00, 0x00, 0x00, 0x00, 0x00, 0x00, 0x20, 0x00, 0x00, 0x00, 0x00, 0x20,
   0x01, 0x00, 0x00, 0x00, 0x40, 0x02, 0x00, 0x00, 0x00, 0x00, 0x04, 0x00,
   0x00, 0x00, 0x00, 0x12, 0x00, 0x00, 0x00, 0x00, 0x48, 0x00, 0x00, 0x00,
   0x00, 0x20, 0x00, 0x00, 0x00, 0x00, 0x00, 0x00, 0x00, 0x00, 0x00, 0x00,
   0x00, 0x70, 0x00, 0x00, 0x00, 0x00, 0xf0, 0x00, 0x00, 0x00, 0x00, 0xc0,
   0x03, 0x00, 0x00, 0x00, 0x00, 0x0e, 0x00, 0x00, 0x00, 0x00, 0x0c, 0x00,
   0x00, 0x00, 0x00, 0x30, 0x00, 0x00, 0x00, 0x00, 0x20, 0x00, 0x00, 0x00,
   0x00, 0x00, 0x00, 0x00, 0x00, 0x00, 0x00, 0x00, 0x00, 0x00, 0x00, 0x00,
   0x00, 0x00, 0x00, 0x00, 0x00, 0x00, 0x00, 0x00, 0x00, 0x00, 0x00, 0x00,
   0x00, 0x00, 0x00, 0x00, 0x00, 0x00, 0x00, 0x00, 0x00, 0x00, 0x00, 0x00,
   0x00, 0x00, 0x00, 0x00, 0x00, 0x00, 0x00, 0x00, 0x00, 0x00, 0x00, 0x00,
   0x00, 0x00, 0x00, 0x00, 0x00, 0x00, 0x00, 0x00, 0x00, 0x00, 0x00, 0x00,
   0x00, 0x00, 0x00, 0x00, 0x00, 0x00, 0x00, 0x00, 0x00, 0x00, 0x00, 0x00,
   0x00, 0x00, 0x00, 0x00, 0x00, 0x00, 0x00, 0x00, 0x00, 0x00, 0x00, 0x00,
   0x00, 0x00, 0x00, 0x00, 0x00, 0x00, 0x00, 0x00};
