#define opt5c2_width 253
#define opt5c2_height 116
static char opt5c2_bits[] = {
   0x00, 0x00, 0x00, 0x00, 0x00, 0x00, 0x00, 0x00, 0x00, 0x00, 0x00, 0x00,
   0x00, 0x00, 0x00, 0x00, 0x00, 0x00, 0x00, 0x00, 0x00, 0x00, 0x00, 0x00,
   0x00, 0x00, 0x00, 0x00, 0x00, 0x00, 0x00, 0xe0, 0x00, 0x00, 0x00, 0x00,
   0x00, 0x00, 0x00, 0x00, 0x00, 0x00, 0x00, 0x00, 0x00, 0x00, 0x00, 0x00,
   0x00, 0x00, 0x00, 0x00, 0x00, 0x00, 0x00, 0x00, 0x00, 0x00, 0x00, 0x00,
   0x00, 0x00, 0x00, 0xe0, 0x00, 0x00, 0x00, 0x00, 0x00, 0x00, 0x00, 0x00,
   0x00, 0x00, 0x00, 0x00, 0x00, 0x00, 0x00, 0x00, 0x00, 0x00, 0x00, 0x00,
   0x00, 0x00, 0x00, 0x00, 0x00, 0x00, 0x00, 0x00, 0x00, 0x00, 0x00, 0xe0,
   0x00, 0x00, 0x00, 0x00, 0x00, 0x00, 0x00, 0x00, 0x00, 0x00, 0x00, 0x00,
   0x00, 0x00, 0x00, 0x00, 0x08, 0x00, 0x00, 0x00, 0x00, 0x00, 0x00, 0x00,
   0x00, 0x00, 0x00, 0x00, 0x00, 0x00, 0x00, 0xe0, 0x00, 0x00, 0x00, 0x00,
   0x00, 0x00, 0x00, 0x00, 0x00, 0x00, 0x00, 0x00, 0x00, 0x00, 0x00, 0x00,
   0x0c, 0x00, 0x00, 0x00, 0x00, 0x00, 0x00, 0x00, 0x00, 0x00, 0x00, 0x00,
   0x00, 0x00, 0x00, 0xe0, 0x00, 0x00, 0x40, 0x00, 0x00, 0x00, 0x00, 0x00,
   0x00, 0x00, 0x00, 0x00, 0x00, 0x00, 0x04, 0x00, 0x08, 0x00, 0x00, 0x00,
   0x00, 0x00, 0x00, 0x00, 0x00, 0x00, 0x00, 0x00, 0x00, 0x00, 0x00, 0xe0,
   0x00, 0x60, 0x40, 0x60, 0xf0, 0x18, 0x00, 0x00, 0x00, 0x30, 0x70, 0xe0,
   0x31, 0x00, 0x04, 0x00, 0x08, 0x00, 0x00, 0x00, 0x00, 0x00, 0x3c, 0x06,
   0x00, 0x00, 0x00, 0x70, 0x00, 0x0c, 0x30, 0xe0, 0x00, 0x98, 0x21, 0x98,
   0xe1, 0x08, 0x00, 0x00, 0x00, 0x3c, 0x88, 0xc0, 0x11, 0x00, 0x08, 0x3f,
   0x08, 0x00, 0x00, 0x00, 0x00, 0x00, 0x38, 0x02, 0x00, 0x00, 0x00, 0x88,
   0x00, 0x32, 0xcc, 0xe0, 0x00, 0x0c, 0x21, 0x0c, 0xc1, 0x04, 0x00, 0x00,
   0x00, 0x30, 0x8c, 0x81, 0x09, 0x00, 0x08, 0x00, 0x08, 0x00, 0x00, 0x00,
   0x00, 0x00, 0x30, 0x01, 0x00, 0x00, 0x00, 0x8c, 0x01, 0x67, 0x8c, 0xe1,
   0x00, 0x0c, 0x20, 0x0c, 0xc0, 0x03, 0x00, 0x00, 0x01, 0x30, 0x8c, 0x81,
   0x07, 0x00, 0x08, 0x00, 0x1c, 0x00, 0x00, 0x08, 0x00, 0x00, 0xf0, 0x00,
   0x00, 0x00, 0x00, 0x8c, 0x01, 0x32, 0x80, 0xe1, 0x00, 0x6c, 0x10, 0x6c,
   0x80, 0x03, 0x00, 0x00, 0x01, 0x30, 0x8c, 0x01, 0x07, 0x00, 0x10, 0x00,
   0x00, 0x00, 0x00, 0x08, 0x00, 0x00, 0xe0, 0x00, 0x00, 0x00, 0x00, 0x8c,
   0x01, 0x30, 0x80, 0xe1, 0x00, 0x9c, 0x11, 0x9c, 0x01, 0x03, 0x00, 0x00,
   0x01, 0x30, 0x8c, 0x01, 0x06, 0x00, 0x10, 0x00, 0x00, 0x00, 0x00, 0x08,
   0x00, 0x00, 0xc0, 0x00, 0x00, 0x00, 0x00, 0x8c, 0x01, 0x1c, 0xc0, 0xe0,
   0x00, 0x8c, 0x11, 0x8c, 0x81, 0x07, 0x18, 0x00, 0x01, 0x30, 0x8c, 0x01,
   0x0f, 0x18, 0x10, 0x00, 0x00, 0x00, 0x00, 0x08, 0x00, 0x00, 0xe0, 0x01,
   0x02, 0x00, 0x00, 0x8c, 0x01, 0x60, 0x60, 0xe0, 0x00, 0x8c, 0x11, 0x8c,
   0x41, 0x0e, 0x24, 0xf0, 0x1f, 0x30, 0x8c, 0x81, 0x1c, 0x24, 0x10, 0x00,
   0x00, 0x00, 0x80, 0xff, 0x00, 0x00, 0x90, 0x03, 0x03, 0xf0, 0x07, 0x8c,
   0x01, 0x61, 0x30, 0xe0, 0x00, 0x8c, 0x11, 0x8c, 0x21, 0x0c, 0x20, 0x00,
   0x01, 0x30, 0x8c, 0x41, 0x18, 0x60, 0x10, 0x00, 0x00, 0x00, 0x00, 0x08,
   0x00, 0x00, 0x08, 0x03, 0x02, 0x00, 0x00, 0x8c, 0x01, 0x63, 0x18, 0xe1,
   0x00, 0x88, 0x21, 0x88, 0x31, 0x1c, 0x18, 0x00, 0x01, 0x30, 0x88, 0x60,
   0x38, 0x20, 0x10, 0x00, 0x00, 0x00, 0x00, 0x08, 0x00, 0x00, 0x0c, 0x07,
   0x02, 0x00, 0x00, 0x88, 0x30, 0x63, 0xfc, 0xe1, 0x00, 0x70, 0x20, 0x70,
   0x78, 0x7c, 0x20, 0x00, 0x01, 0x7c, 0x70, 0xf0, 0xf8, 0x10, 0x08, 0x00,
   0x00, 0x00, 0x00, 0x08, 0x00, 0x00, 0x1e, 0x1f, 0x02, 0x00, 0x00, 0x70,
   0x30, 0x1e, 0xfc, 0xe1, 0x00, 0x00, 0x20, 0x00, 0x00, 0x00, 0x24, 0x00,
   0x01, 0x00, 0x00, 0x00, 0x00, 0x48, 0x08, 0x00, 0x00, 0x00, 0x00, 0x08,
   0x00, 0x00, 0x00, 0x00, 0x02, 0x00, 0x00, 0x00, 0x00, 0x00, 0x00, 0xe0,
   0x00, 0x00, 0x40, 0x00, 0x00, 0x00, 0x18, 0x00, 0x00, 0x00, 0x00, 0x00,
   0x00, 0x3c, 0x08, 0x00, 0x00, 0x00, 0x00, 0x00, 0x00, 0x00, 0x00, 0x00,
   0x07, 0x00, 0x00, 0x00, 0x00, 0x00, 0x00, 0xe0, 0x00, 0x00, 0x40, 0x00,
   0x00, 0x00, 0x00, 0x00, 0x00, 0x00, 0x00, 0x00, 0x00, 0x00, 0x04, 0x00,
   0x00, 0x00, 0x00, 0x00, 0x00, 0x00, 0x00, 0x00, 0x00, 0x00, 0x00, 0x00,
   0x00, 0x00, 0x00, 0xe0, 0x00, 0x00, 0x00, 0x00, 0x00, 0x00, 0x00, 0x00,
   0x00, 0x00, 0x00, 0x00, 0x00, 0x00, 0x04, 0x00, 0x00, 0x00, 0x00, 0x00,
   0x00, 0x00, 0x00, 0x00, 0x00, 0x00, 0x00, 0x00, 0x00, 0x00, 0x00, 0xe0,
   0x00, 0x00, 0x00, 0x00, 0x00, 0x00, 0x00, 0x00, 0x00, 0x00, 0x00, 0x00,
   0x00, 0x00, 0x00, 0x00, 0x00, 0x00, 0x00, 0x00, 0x00, 0x00, 0x00, 0x00,
   0x00, 0x00, 0x00, 0x00, 0x00, 0x00, 0x00, 0xe0, 0x00, 0x00, 0x00, 0x00,
   0x00, 0x00, 0x00, 0x00, 0x00, 0x00, 0x00, 0x00, 0x00, 0x00, 0x00, 0x00,
   0x00, 0x00, 0x00, 0x00, 0x00, 0x00, 0x00, 0x00, 0x00, 0x00, 0x00, 0x00,
   0x00, 0x00, 0x00, 0xe0, 0x00, 0x00, 0x00, 0x00, 0x00, 0x00, 0x00, 0x00,
   0x00, 0x00, 0x00, 0x00, 0x00, 0x00, 0x00, 0x00, 0x00, 0x00, 0x00, 0x00,
   0x00, 0x00, 0x00, 0x00, 0x00, 0x00, 0x00, 0x00, 0x00, 0x00, 0x00, 0xe0,
   0x00, 0x00, 0x00, 0x00, 0x00, 0x00, 0x00, 0x00, 0x00, 0x00, 0x00, 0x00,
   0x00, 0x00, 0x00, 0x00, 0x00, 0x00, 0x00, 0x00, 0x00, 0x00, 0x00, 0x00,
   0x00, 0x00, 0x00, 0x00, 0x00, 0x00, 0x00, 0xe0, 0x00, 0x00, 0x00, 0x00,
   0x00, 0x00, 0x00, 0x00, 0x00, 0x00, 0x00, 0x00, 0x00, 0x00, 0x00, 0x00,
   0x00, 0x00, 0x00, 0x00, 0x00, 0x00, 0x00, 0x00, 0x00, 0x00, 0x00, 0x00,
   0x00, 0x00, 0x00, 0xe0, 0x00, 0x00, 0x00, 0x00, 0x00, 0x00, 0x00, 0x00,
   0x00, 0x00, 0x00, 0x00, 0x00, 0x00, 0x00, 0x00, 0x00, 0x00, 0x00, 0x00,
   0x00, 0x00, 0x00, 0x00, 0x00, 0x00, 0x00, 0x00, 0x00, 0x00, 0x00, 0xe0,
   0x00, 0x00, 0x00, 0x00, 0x00, 0x00, 0x00, 0x00, 0x00, 0x00, 0x00, 0x00,
   0x00, 0x00, 0x00, 0x00, 0x08, 0x00, 0x00, 0x00, 0x00, 0x00, 0x00, 0x00,
   0x00, 0x00, 0x00, 0x00, 0x00, 0x00, 0x00, 0xe0, 0x00, 0x00, 0x20, 0x00,
   0x00, 0x00, 0x00, 0x00, 0x00, 0x00, 0x00, 0x00, 0x00, 0x00, 0x04, 0x00,
   0x0c, 0x00, 0x00, 0x00, 0x00, 0x00, 0x00, 0x00, 0x00, 0x00, 0x00, 0x00,
   0x00, 0x00, 0x00, 0xe0, 0x00, 0xfc, 0x21, 0xfe, 0xf0, 0x18, 0x00, 0x00,
   0x00, 0x00, 0x70, 0xe0, 0x31, 0x00, 0x04, 0x00, 0x08, 0x00, 0x00, 0x00,
   0x00, 0x00, 0x3c, 0x06, 0x00, 0x00, 0x00, 0x70, 0x00, 0x0c, 0x00, 0xe0,
   0x00, 0xfc, 0x11, 0xfe, 0xe0, 0x08, 0x00, 0x00, 0x00, 0x00, 0x88, 0xc0,
   0x11, 0x00, 0x08, 0x00, 0x08, 0x00, 0x00, 0x00, 0x00, 0x00, 0x38, 0x02,
   0x00, 0x00, 0x00, 0x88, 0x00, 0x32, 0xf8, 0xe0, 0x00, 0x84, 0x10, 0x42,
   0xc0, 0x04, 0x00, 0x00, 0x00, 0x00, 0x8c, 0x81, 0x09, 0x00, 0x08, 0x3f,
   0x08, 0x00, 0x00, 0x00, 0x00, 0x00, 0x30, 0x01, 0x00, 0x00, 0x00, 0x8c,
   0x01, 0x67, 0x78, 0xe0, 0x00, 0x44, 0x10, 0x22, 0xc0, 0x03, 0x00, 0x00,
   0x01, 0x00, 0x8c, 0x81, 0x07, 0x00, 0x08, 0x00, 0x08, 0x00, 0x00, 0x08,
   0x00, 0x00, 0xf0, 0x00, 0x00, 0x00, 0x00, 0x8c, 0x01, 0x32, 0x08, 0xe0,
   0x00, 0x40, 0x08, 0x20, 0x80, 0x03, 0x00, 0x00, 0x01, 0x00, 0x8c, 0x01,
   0x07, 0x00, 0x10, 0x00, 0x1c, 0x00, 0x00, 0x08, 0x00, 0x00, 0xe0, 0x00,
   0x00, 0x00, 0x00, 0x8c, 0x01, 0x30, 0x38, 0xe0, 0x00, 0x20, 0x08, 0x10,
   0x00, 0x03, 0x00, 0x00, 0x01, 0x00, 0x8c, 0x01, 0x06, 0x00, 0x10, 0x00,
   0x00, 0x00, 0x00, 0x08, 0x00, 0x00, 0xc0, 0x00, 0x00, 0x00, 0x00, 0x8c,
   0x01, 0x1c, 0xc8, 0xe0, 0x00, 0x20, 0x08, 0x10, 0x80, 0x07, 0x00, 0x00,
   0x01, 0x00, 0xf8, 0x01, 0x0f, 0x00, 0x10, 0x00, 0x00, 0x00, 0x00, 0x08,
   0x00, 0x00, 0xe0, 0x01, 0x00, 0x00, 0x00, 0x8c, 0x01, 0x60, 0x80, 0xe1,
   0x00, 0x30, 0x08, 0x18, 0x40, 0x0e, 0x0c, 0xf0, 0x1f, 0x00, 0x80, 0x81,
   0x1c, 0x18, 0x10, 0x00, 0x00, 0x00, 0x80, 0xff, 0x00, 0x00, 0x90, 0x03,
   0x02, 0xf0, 0x07, 0x8c, 0x01, 0x61, 0x88, 0xe1, 0x00, 0x30, 0x08, 0x18,
   0x20, 0x0c, 0x12, 0x00, 0x01, 0x00, 0x84, 0x41, 0x18, 0x24, 0x10, 0x00,
   0x00, 0x00, 0x00, 0x08, 0x00, 0x00, 0x08, 0x03, 0x03, 0x00, 0x00, 0x8c,
   0x01, 0x63, 0x8c, 0xe1, 0x00, 0x30, 0x10, 0x18, 0x30, 0x1c, 0x10, 0x00,
   0x01, 0x00, 0x8c, 0x60, 0x38, 0x60, 0x10, 0x00, 0x00, 0x00, 0x00, 0x08,
   0x00, 0x00, 0x0c, 0x07, 0x02, 0x00, 0x00, 0x88, 0x30, 0x63, 0xc4, 0xe0,
   0x00, 0x30, 0x10, 0x18, 0x78, 0x7c, 0x0c, 0x00, 0x01, 0x00, 0x78, 0xf0,
   0xf8, 0x20, 0x08, 0x00, 0x00, 0x00, 0x00, 0x08, 0x00, 0x00, 0x1e, 0x1f,
   0x02, 0x00, 0x00, 0x70, 0x30, 0x1e, 0x78, 0xe0, 0x00, 0x00, 0x10, 0x00,
   0x00, 0x00, 0x10, 0x00, 0x01, 0x00, 0x00, 0x00, 0x00, 0x10, 0x08, 0x00,
   0x00, 0x00, 0x00, 0x08, 0x00, 0x00, 0x00, 0x00, 0x02, 0x00, 0x00, 0x00,
   0x00, 0x00, 0x00, 0xe0, 0x00, 0x00, 0x20, 0x00, 0x00, 0x00, 0x12, 0x00,
   0x00, 0x00, 0x00, 0x00, 0x00, 0x48, 0x08, 0x00, 0x00, 0x00, 0x00, 0x00,
   0x00, 0x00, 0x00, 0x00, 0x02, 0x00, 0x00, 0x00, 0x00, 0x00, 0x00, 0xe0,
   0x00, 0x00, 0x20, 0x00, 0x00, 0x00, 0x0c, 0x00, 0x00, 0x00, 0x00, 0x00,
   0x00, 0x3c, 0x04, 0x00, 0x00, 0x00, 0x00, 0x00, 0x00, 0x00, 0x00, 0x00,
   0x07, 0x00, 0x00, 0x00, 0x00, 0x00, 0x00, 0xe0, 0x00, 0x00, 0x00, 0x00,
   0x00, 0x00, 0x00, 0x00, 0x00, 0x00, 0x00, 0x00, 0x00, 0x00, 0x04, 0x00,
   0x00, 0x00, 0x00, 0x00, 0x00, 0x00, 0x00, 0x00, 0x00, 0x00, 0x00, 0x00,
   0x00, 0x00, 0x00, 0xe0, 0x00, 0x00, 0x00, 0x00, 0x00, 0x00, 0x00, 0x00,
   0x00, 0x00, 0x00, 0x00, 0x00, 0x00, 0x00, 0x00, 0x00, 0x00, 0x00, 0x00,
   0x00, 0x00, 0x00, 0x00, 0x00, 0x00, 0x00, 0x00, 0x00, 0x00, 0x00, 0xe0,
   0x00, 0x00, 0x00, 0x00, 0x00, 0x00, 0x00, 0x00, 0x00, 0x00, 0x00, 0x00,
   0x00, 0x00, 0x00, 0x00, 0x00, 0x00, 0x00, 0x00, 0x00, 0x00, 0x00, 0x00,
   0x00, 0x00, 0x00, 0x00, 0x00, 0x00, 0x00, 0xe0, 0x00, 0x00, 0x00, 0x00,
   0x00, 0x00, 0x00, 0x00, 0x00, 0x00, 0x00, 0x00, 0x00, 0x00, 0x00, 0x00,
   0x00, 0x00, 0x00, 0x00, 0x00, 0x00, 0x00, 0x00, 0x00, 0x00, 0x00, 0x00,
   0x00, 0x00, 0x00, 0xe0, 0x00, 0x00, 0x00, 0x00, 0x00, 0x00, 0x00, 0x00,
   0x00, 0x00, 0x00, 0x00, 0x00, 0x00, 0x00, 0x00, 0x00, 0x00, 0x00, 0x00,
   0x00, 0x00, 0x00, 0x00, 0x00, 0x00, 0x00, 0x00, 0x00, 0x00, 0x00, 0xe0,
   0x00, 0x00, 0x00, 0x00, 0x00, 0x00, 0x00, 0x00, 0x00, 0x00, 0x00, 0x00,
   0x00, 0x00, 0x00, 0x00, 0x00, 0x00, 0x00, 0x00, 0x00, 0x00, 0x00, 0x00,
   0x00, 0x00, 0x00, 0x00, 0x00, 0x00, 0x00, 0xe0, 0x00, 0x00, 0x00, 0x00,
   0x00, 0x00, 0x00, 0x00, 0x00, 0x00, 0x00, 0x00, 0x00, 0x00, 0x00, 0x00,
   0x00, 0x00, 0x00, 0x00, 0x00, 0x00, 0x00, 0x00, 0x00, 0x00, 0x00, 0x00,
   0x00, 0x00, 0x00, 0xe0, 0x00, 0x00, 0x00, 0x00, 0x00, 0x00, 0x00, 0x00,
   0x00, 0x00, 0x00, 0x00, 0x00, 0x00, 0x00, 0x00, 0x08, 0x00, 0x00, 0x00,
   0x00, 0x00, 0x00, 0x00, 0x00, 0x00, 0x00, 0x00, 0x00, 0x00, 0x00, 0xe0,
   0x00, 0x00, 0x00, 0x00, 0x00, 0x00, 0x00, 0x00, 0x00, 0x00, 0x00, 0x00,
   0x00, 0x00, 0x00, 0x00, 0x0c, 0x00, 0x00, 0x00, 0x00, 0x00, 0x00, 0x00,
   0x00, 0x00, 0x00, 0x00, 0x00, 0x00, 0x00, 0xe0, 0x00, 0x00, 0x20, 0x00,
   0x00, 0x00, 0x00, 0x00, 0x00, 0x00, 0x00, 0x00, 0x00, 0x00, 0x04, 0x00,
   0x08, 0x00, 0x00, 0x00, 0x00, 0x00, 0x00, 0x00, 0x00, 0x00, 0x00, 0x00,
   0x00, 0x00, 0x00, 0xe0, 0x00, 0x70, 0x20, 0x38, 0xf0, 0x18, 0x00, 0x00,
   0x00, 0x00, 0x70, 0xe0, 0x31, 0x00, 0x04, 0x00, 0x08, 0x00, 0x00, 0x00,
   0x00, 0x00, 0x3c, 0x06, 0x00, 0x00, 0x00, 0x70, 0x00, 0x0c, 0x70, 0xe0,
   0x00, 0x88, 0x10, 0x44, 0xe0, 0x08, 0x00, 0x00, 0x00, 0x00, 0x88, 0xc0,
   0x11, 0x00, 0x08, 0x3f, 0x08, 0x00, 0x00, 0x00, 0x00, 0x00, 0x38, 0x02,
   0x00, 0x00, 0x00, 0x88, 0x00, 0x32, 0x88, 0xe0, 0x00, 0x8c, 0x11, 0xc6,
   0xc0, 0x04, 0x00, 0x00, 0x00, 0x00, 0x8c, 0x81, 0x09, 0x00, 0x08, 0x00,
   0x08, 0x00, 0x00, 0x00, 0x00, 0x00, 0x30, 0x01, 0x00, 0x00, 0x00, 0x8c,
   0x01, 0x67, 0x8c, 0xe1, 0x00, 0x9c, 0x10, 0x4e, 0xc0, 0x03, 0x00, 0x00,
   0x01, 0x00, 0x9c, 0x80, 0x07, 0x00, 0x08, 0x00, 0x1c, 0x00, 0x00, 0x08,
   0x00, 0x00, 0xf0, 0x00, 0x00, 0x00, 0x00, 0x8c, 0x01, 0x32, 0x8c, 0xe1,
   0x00, 0xf8, 0x08, 0x7c, 0x80, 0x03, 0x00, 0x00, 0x01, 0x00, 0xf8, 0x00,
   0x07, 0x00, 0x10, 0x00, 0x00, 0x00, 0x00, 0x08, 0x00, 0x00, 0xe0, 0x00,
   0x00, 0x00, 0x00, 0x8c, 0x01, 0x30, 0x8c, 0xe1, 0x00, 0xf0, 0x08, 0x78,
   0x00, 0x03, 0x00, 0x00, 0x01, 0x00, 0xf0, 0x00, 0x06, 0x00, 0x10, 0x00,
   0x00, 0x00, 0x00, 0x08, 0x00, 0x00, 0xc0, 0x00, 0x00, 0x00, 0x00, 0x8c,
   0x01, 0x1c, 0x8c, 0xe1, 0x00, 0xcc, 0x09, 0xe6, 0x80, 0x07, 0x0c, 0x00,
   0x01, 0x00, 0xcc, 0x01, 0x0f, 0x18, 0x10, 0x00, 0x00, 0x00, 0x00, 0x08,
   0x00, 0x00, 0xe0, 0x01, 0x02, 0x00, 0x00, 0x8c, 0x01, 0x60, 0xf8, 0xe1,
   0x00, 0x84, 0x09, 0xc2, 0x40, 0x0e, 0x12, 0xf0, 0x1f, 0x00, 0x84, 0x81,
   0x1c, 0x24, 0x10, 0x00, 0x00, 0x00, 0x80, 0xff, 0x00, 0x00, 0x90, 0x03,
   0x03, 0xf0, 0x07, 0x8c, 0x01, 0x61, 0x80, 0xe1, 0x00, 0x04, 0x09, 0x82,
   0x20, 0x0c, 0x10, 0x00, 0x01, 0x00, 0x04, 0x41, 0x18, 0x60, 0x10, 0x00,
   0x00, 0x00, 0x00, 0x08, 0x00, 0x00, 0x08, 0x03, 0x02, 0x00, 0x00, 0x8c,
   0x01, 0x63, 0x84, 0xe1, 0x00, 0x04, 0x11, 0x82, 0x30, 0x1c, 0x0c, 0x00,
   0x01, 0x00, 0x04, 0x61, 0x38, 0x20, 0x10, 0x00, 0x00, 0x00, 0x00, 0x08,
   0x00, 0x00, 0x0c, 0x07, 0x02, 0x00, 0x00, 0x88, 0x30, 0x63, 0x8c, 0xe0,
   0x00, 0xf8, 0x10, 0x7c, 0x78, 0x7c, 0x10, 0x00, 0x01, 0x00, 0xf8, 0xf0,
   0xf8, 0x10, 0x08, 0x00, 0x00, 0x00, 0x00, 0x08, 0x00, 0x00, 0x1e, 0x1f,
   0x02, 0x00, 0x00, 0x70, 0x30, 0x1e, 0x78, 0xe0, 0x00, 0x00, 0x10, 0x00,
   0x00, 0x00, 0x12, 0x00, 0x01, 0x00, 0x00, 0x00, 0x00, 0x48, 0x08, 0x00,
   0x00, 0x00, 0x00, 0x08, 0x00, 0x00, 0x00, 0x00, 0x02, 0x00, 0x00, 0x00,
   0x00, 0x00, 0x00, 0xe0, 0x00, 0x00, 0x20, 0x00, 0x00, 0x00, 0x0c, 0x00,
   0x00, 0x00, 0x00, 0x00, 0x00, 0x3c, 0x08, 0x00, 0x00, 0x00, 0x00, 0x00,
   0x00, 0x00, 0x00, 0x00, 0x07, 0x00, 0x00, 0x00, 0x00, 0x00, 0x00, 0xe0,
   0x00, 0x00, 0x20, 0x00, 0x00, 0x00, 0x00, 0x00, 0x00, 0x00, 0x00, 0x00,
   0x00, 0x00, 0x04, 0x00, 0x00, 0x00, 0x00, 0x00, 0x00, 0x00, 0x00, 0x00,
   0x00, 0x00, 0x00, 0x00, 0x00, 0x00, 0x00, 0xe0, 0x00, 0x00, 0x00, 0x00,
   0x00, 0x00, 0x00, 0x00, 0x00, 0x00, 0x00, 0x00, 0x00, 0x00, 0x04, 0x00,
   0x00, 0x00, 0x00, 0x00, 0x00, 0x00, 0x00, 0x00, 0x00, 0x00, 0x00, 0x00,
   0x00, 0x00, 0x00, 0xe0, 0x00, 0x00, 0x00, 0x00, 0x00, 0x00, 0x00, 0x00,
   0x00, 0x00, 0x00, 0x00, 0x00, 0x00, 0x00, 0x00, 0x00, 0x00, 0x00, 0x00,
   0x00, 0x00, 0x00, 0x00, 0x00, 0x00, 0x00, 0x00, 0x00, 0x00, 0x00, 0xe0,
   0x00, 0x00, 0x00, 0x00, 0x00, 0x00, 0x00, 0x00, 0x00, 0x00, 0x00, 0x00,
   0x00, 0x00, 0x00, 0x00, 0x00, 0x00, 0x00, 0x00, 0x00, 0x00, 0x00, 0x00,
   0x00, 0x00, 0x00, 0x00, 0x00, 0x00, 0x00, 0xe0, 0x00, 0x00, 0x00, 0x00,
   0x00, 0x00, 0x00, 0x00, 0x00, 0x00, 0x00, 0x00, 0x00, 0x00, 0x00, 0x00,
   0x00, 0x00, 0x00, 0x00, 0x00, 0x00, 0x00, 0x00, 0x00, 0x00, 0x00, 0x00,
   0x00, 0x00, 0x00, 0xe0, 0x00, 0x00, 0x00, 0x00, 0x00, 0x00, 0x00, 0x00,
   0x00, 0x00, 0x00, 0x00, 0x00, 0x00, 0x00, 0x00, 0x00, 0x00, 0x00, 0x00,
   0x00, 0x00, 0x00, 0x00, 0x00, 0x00, 0x00, 0x00, 0x00, 0x00, 0x00, 0xe0,
   0x00, 0x00, 0x00, 0x00, 0x00, 0x00, 0x00, 0x00, 0x00, 0x00, 0x00, 0x00,
   0x00, 0x00, 0x00, 0x00, 0x00, 0x00, 0x00, 0x00, 0x00, 0x00, 0x00, 0x00,
   0x00, 0x00, 0x00, 0x00, 0x00, 0x00, 0x00, 0xe0, 0x00, 0x00, 0x00, 0x00,
   0x00, 0x00, 0x00, 0x00, 0x00, 0x00, 0x00, 0x00, 0x00, 0x00, 0x00, 0x00,
   0x00, 0x00, 0x00, 0x00, 0x00, 0x00, 0x00, 0x00, 0x00, 0x00, 0x00, 0x00,
   0x00, 0x00, 0x00, 0xe0, 0x00, 0x00, 0x00, 0x00, 0x00, 0x00, 0x00, 0x00,
   0x00, 0x00, 0x00, 0x00, 0x00, 0x00, 0x00, 0x00, 0x08, 0x00, 0x00, 0x00,
   0x00, 0x00, 0x00, 0x00, 0x00, 0x00, 0x00, 0x00, 0x00, 0x00, 0x00, 0xe0,
   0x00, 0x00, 0x20, 0x00, 0x00, 0x00, 0x00, 0x00, 0x00, 0x00, 0x00, 0x00,
   0x00, 0x00, 0x04, 0x00, 0x0c, 0x00, 0x00, 0x00, 0x00, 0x00, 0x00, 0x00,
   0x00, 0x00, 0x00, 0x00, 0x00, 0x00, 0x00, 0xe0, 0x00, 0x70, 0x20, 0xfe,
   0xf0, 0x18, 0x00, 0x00, 0x00, 0x00, 0xfc, 0xe1, 0x31, 0x00, 0x04, 0x00,
   0x08, 0x00, 0x00, 0x00, 0x00, 0x00, 0x3c, 0x06, 0x00, 0x00, 0x00, 0x70,
   0x00, 0x0c, 0xfc, 0xe1, 0x00, 0x88, 0x10, 0xfe, 0xe0, 0x08, 0x00, 0x00,
   0x00, 0x00, 0xfc, 0xc1, 0x11, 0x00, 0x08, 0x00, 0x08, 0x00, 0x00, 0x00,
   0x00, 0x00, 0x38, 0x02, 0x00, 0x00, 0x00, 0x88, 0x00, 0x32, 0xfc, 0xe1,
   0x00, 0x8c, 0x11, 0x42, 0xc0, 0x04, 0x00, 0x00, 0x00, 0x00, 0x84, 0x80,
   0x09, 0x00, 0x08, 0x3f, 0x08, 0x00, 0x00, 0x00, 0x00, 0x00, 0x30, 0x01,
   0x00, 0x00, 0x00, 0x8c, 0x01, 0x67, 0x84, 0xe0, 0x00, 0x8c, 0x11, 0x22,
   0xc0, 0x03, 0x00, 0x00, 0x01, 0x00, 0x44, 0x80, 0x07, 0x00, 0x08, 0x00,
   0x08, 0x00, 0x00, 0x08, 0x00, 0x00, 0xf0, 0x00, 0x00, 0x00, 0x00, 0x8c,
   0x01, 0x32, 0x04, 0xe0, 0x00, 0x8c, 0x09, 0x20, 0x80, 0x03, 0x00, 0x00,
   0x01, 0x00, 0x40, 0x00, 0x07, 0x00, 0x10, 0x00, 0x1c, 0x00, 0x00, 0x08,
   0x00, 0x00, 0xe0, 0x00, 0x00, 0x00, 0x00, 0x8c, 0x01, 0x30, 0x40, 0xe0,
   0x00, 0x8c, 0x09, 0x10, 0x00, 0x03, 0x00, 0x00, 0x01, 0x00, 0x20, 0x00,
   0x06, 0x00, 0x10, 0x00, 0x00, 0x00, 0x00, 0x08, 0x00, 0x00, 0xc0, 0x00,
   0x00, 0x00, 0x00, 0x8c, 0x01, 0x1c, 0x20, 0xe0, 0x00, 0xf8, 0x09, 0x10,
   0x80, 0x07, 0x00, 0x00, 0x01, 0x00, 0x20, 0x00, 0x0f, 0x00, 0x10, 0x00,
   0x00, 0x00, 0x00, 0x08, 0x00, 0x00, 0xe0, 0x01, 0x00, 0x00, 0x00, 0x8c,
   0x01, 0x60, 0x20, 0xe0, 0x00, 0x80, 0x09, 0x18, 0x40, 0x0e, 0x0c, 0xf0,
   0x1f, 0x00, 0x30, 0x80, 0x1c, 0x18, 0x10, 0x00, 0x00, 0x00, 0x80, 0xff,
   0x00, 0x00, 0x90, 0x03, 0x02, 0xf0, 0x07, 0x8c, 0x01, 0x61, 0x30, 0xe0,
   0x00, 0x84, 0x09, 0x18, 0x20, 0x0c, 0x12, 0x00, 0x01, 0x00, 0x30, 0x40,
   0x18, 0x24, 0x10, 0x00, 0x00, 0x00, 0x00, 0x08, 0x00, 0x00, 0x08, 0x03,
   0x03, 0x00, 0x00, 0x8c, 0x01, 0x63, 0x30, 0xe0, 0x00, 0x8c, 0x10, 0x18,
   0x30, 0x1c, 0x10, 0x00, 0x01, 0x00, 0x30, 0x60, 0x38, 0x60, 0x10, 0x00,
   0x00, 0x00, 0x00, 0x08, 0x00, 0x00, 0x0c, 0x07, 0x02, 0x00, 0x00, 0x88,
   0x30, 0x63, 0x30, 0xe0, 0x00, 0x78, 0x10, 0x18, 0x78, 0x7c, 0x0c, 0x00,
   0x01, 0x00, 0x30, 0xf0, 0xf8, 0x20, 0x08, 0x00, 0x00, 0x00, 0x00, 0x08,
   0x00, 0x00, 0x1e, 0x1f, 0x02, 0x00, 0x00, 0x70, 0x30, 0x1e, 0x30, 0xe0,
   0x00, 0x00, 0x10, 0x00, 0x00, 0x00, 0x10, 0x00, 0x01, 0x00, 0x00, 0x00,
   0x00, 0x10, 0x08, 0x00, 0x00, 0x00, 0x00, 0x08, 0x00, 0x00, 0x00, 0x00,
   0x02, 0x00, 0x00, 0x00, 0x00, 0x00, 0x00, 0xe0, 0x00, 0x00, 0x20, 0x00,
   0x00, 0x00, 0x12, 0x00, 0x00, 0x00, 0x00, 0x00, 0x00, 0x48, 0x08, 0x00,
   0x00, 0x00, 0x00, 0x00, 0x00, 0x00, 0x00, 0x00, 0x02, 0x00, 0x00, 0x00,
   0x00, 0x00, 0x00, 0xe0, 0x00, 0x00, 0x20, 0x00, 0x00, 0x00, 0x0c, 0x00,
   0x00, 0x00, 0x00, 0x00, 0x00, 0x3c, 0x04, 0x00, 0x00, 0x00, 0x00, 0x00,
   0x00, 0x00, 0x00, 0x00, 0x07, 0x00, 0x00, 0x00, 0x00, 0x00, 0x00, 0xe0,
   0x00, 0x00, 0x00, 0x00, 0x00, 0x00, 0x00, 0x00, 0x00, 0x00, 0x00, 0x00,
   0x00, 0x00, 0x04, 0x00, 0x00, 0x00, 0x00, 0x00, 0x00, 0x00, 0x00, 0x00,
   0x00, 0x00, 0x00, 0x00, 0x00, 0x00, 0x00, 0xe0, 0x00, 0x00, 0x00, 0x00,
   0x00, 0x00, 0x00, 0x00, 0x00, 0x00, 0x00, 0x00, 0x00, 0x00, 0x00, 0x00,
   0x00, 0x00, 0x00, 0x00, 0x00, 0x00, 0x00, 0x00, 0x00, 0x00, 0x00, 0x00,
   0x00, 0x00, 0x00, 0xe0, 0x00, 0x00, 0x00, 0x00, 0x00, 0x00, 0x00, 0x00,
   0x00, 0x00, 0x00, 0x00, 0x00, 0x00, 0x00, 0x00, 0x00, 0x00, 0x00, 0x00,
   0x00, 0x00, 0x00, 0x00, 0x00, 0x00, 0x00, 0x00, 0x00, 0x00, 0x00, 0xe0,
   0x00, 0x00, 0x00, 0x00, 0x00, 0x00, 0x00, 0x00, 0x00, 0x00, 0x00, 0x00,
   0x00, 0x00, 0x00, 0x00, 0x00, 0x00, 0x00, 0x00, 0x00, 0x00, 0x00, 0x00,
   0x00, 0x00, 0x00, 0x00, 0x00, 0x00, 0x00, 0xe0, 0x00, 0x00, 0x00, 0x00,
   0x00, 0x00, 0x00, 0x00, 0x00, 0x00, 0x00, 0x00, 0x00, 0x00, 0x00, 0x00,
   0x00, 0x00, 0x00, 0x00, 0x00, 0x00, 0x00, 0x00, 0x00, 0x00, 0x00, 0x00,
   0x00, 0x00, 0x00, 0xe0, 0x00, 0x00, 0x00, 0x00, 0x00, 0x00, 0x00, 0x00,
   0x00, 0x00, 0x00, 0x00, 0x00, 0x00, 0x00, 0x00, 0x00, 0x00, 0x00, 0x00,
   0x00, 0x00, 0x00, 0x00, 0x00, 0x00, 0x00, 0x00, 0x00, 0x00, 0x00, 0xe0,
   0x00, 0x00, 0x00, 0x00, 0x00, 0x00, 0x00, 0x00, 0x00, 0x00, 0x00, 0x00,
   0x00, 0x00, 0x00, 0x00, 0x00, 0x00, 0x00, 0x00, 0x00, 0x00, 0x00, 0x00,
   0x00, 0x00, 0x00, 0x00, 0x00, 0x00, 0x00, 0xe0, 0x00, 0x00, 0x00, 0x00,
   0x00, 0x00, 0x00, 0x00, 0x00, 0x00, 0x00, 0x00, 0x00, 0x00, 0x00, 0x00,
   0x08, 0x00, 0x00, 0x00, 0x00, 0x00, 0x00, 0x00, 0x00, 0x00, 0x00, 0x00,
   0x00, 0x00, 0x00, 0xe0, 0x00, 0x00, 0x00, 0x00, 0x00, 0x00, 0x00, 0x00,
   0x00, 0x00, 0x00, 0x00, 0x00, 0x00, 0x00, 0x00, 0x0c, 0x00, 0x00, 0x00,
   0x00, 0x00, 0x00, 0x00, 0x00, 0x00, 0x00, 0x00, 0x00, 0x00, 0x00, 0xe0,
   0x00, 0x00, 0x20, 0x00, 0x00, 0x00, 0x00, 0x00, 0x00, 0x00, 0x00, 0x00,
   0x00, 0x00, 0x04, 0x00, 0x08, 0x00, 0x00, 0x00, 0x00, 0x00, 0x00, 0x00,
   0x00, 0x00, 0x00, 0x00, 0x00, 0x00, 0x00, 0xe0, 0x18, 0x70, 0x20, 0x30,
   0xf0, 0x18, 0x00, 0x00, 0x00, 0x00, 0x60, 0xe0, 0x31, 0x00, 0x04, 0x00,
   0x08, 0x00, 0x00, 0x00, 0x00, 0x00, 0x3c, 0x06, 0x00, 0x00, 0x00, 0x70,
   0x00, 0x00, 0x70, 0xe0, 0x1e, 0x88, 0x10, 0xcc, 0xe0, 0x08, 0x00, 0x00,
   0x00, 0x00, 0x98, 0xc1, 0x11, 0x00, 0x08, 0x3f, 0x08, 0x00, 0x00, 0x00,
   0x00, 0x00, 0x38, 0x02, 0x00, 0x00, 0x00, 0x88, 0x00, 0x3e, 0x88, 0xe0,
   0x18, 0x8c, 0x11, 0xc6, 0xc0, 0x04, 0x00, 0x00, 0x00, 0x00, 0x0c, 0x81,
   0x09, 0x00, 0x08, 0x00, 0x08, 0x00, 0x00, 0x00, 0x00, 0x00, 0x30, 0x01,
   0x00, 0x00, 0x00, 0x8c, 0x01, 0x1e, 0x8c, 0xe1, 0x18, 0x8c, 0x11, 0x06,
   0xc0, 0x03, 0x00, 0x00, 0x01, 0x00, 0x0c, 0x80, 0x07, 0x00, 0x08, 0x00,
   0x1c, 0x00, 0x00, 0x08, 0x00, 0x00, 0xf0, 0x00, 0x00, 0x00, 0x00, 0x8c,
   0x01, 0x02, 0x9c, 0xe0, 0x18, 0x8c, 0x09, 0x36, 0x80, 0x03, 0x00, 0x00,
   0x01, 0x00, 0x6c, 0x00, 0x07, 0x00, 0x10, 0x00, 0x00, 0x00, 0x00, 0x08,
   0x00, 0x00, 0xe0, 0x00, 0x00, 0x00, 0x00, 0x8c, 0x01, 0x0e, 0xf8, 0xe0,
   0x18, 0x8c, 0x09, 0xc6, 0x00, 0x03, 0x00, 0x00, 0x01, 0x00, 0x9c, 0x01,
   0x06, 0x00, 0x10, 0x00, 0x00, 0x00, 0x00, 0x08, 0x00, 0x00, 0xc0, 0x00,
   0x00, 0x00, 0x00, 0x8c, 0x01, 0x32, 0xf0, 0xe0, 0x18, 0x8c, 0x09, 0xc6,
   0x80, 0x07, 0x0c, 0x00, 0x01, 0x00, 0x8c, 0x01, 0x0f, 0x18, 0x10, 0x00,
   0x00, 0x00, 0x00, 0x08, 0x00, 0x00, 0xe0, 0x01, 0x02, 0x00, 0x00, 0x8c,
   0x01, 0x60, 0xcc, 0xe1, 0x18, 0x8c, 0x09, 0xc6, 0x40, 0x0e, 0x12, 0xf0,
   0x1f, 0x00, 0x8c, 0x81, 0x1c, 0x24, 0x10, 0x00, 0x00, 0x00, 0x80, 0xff,
   0x00, 0x00, 0x90, 0x03, 0x03, 0xf0, 0x07, 0x8c, 0x01, 0x62, 0x84, 0xe1,
   0x18, 0x8c, 0x09, 0xc6, 0x20, 0x0c, 0x10, 0x00, 0x01, 0x00, 0x8c, 0x41,
   0x18, 0x60, 0x10, 0x00, 0x00, 0x00, 0x00, 0x08, 0x00, 0x00, 0x08, 0x03,
   0x02, 0x00, 0x00, 0x8c, 0x01, 0x63, 0x04, 0xe1, 0x18, 0x88, 0x08, 0xc4,
   0x30, 0x1c, 0x0c, 0x00, 0x01, 0x00, 0x88, 0x61, 0x38, 0x20, 0x10, 0x00,
   0x00, 0x00, 0x00, 0x08, 0x00, 0x00, 0x0c, 0x07, 0x02, 0x00, 0x00, 0x88,
   0x30, 0x31, 0x04, 0xe1, 0x3e, 0x70, 0x10, 0x38, 0x78, 0x7c, 0x10, 0x00,
   0x01, 0x00, 0x70, 0xf0, 0xf8, 0x10, 0x08, 0x00, 0x00, 0x00, 0x00, 0x08,
   0x00, 0x00, 0x1e, 0x1f, 0x02, 0x00, 0x00, 0x70, 0x30, 0x1e, 0xf8, 0xe0,
   0x00, 0x00, 0x10, 0x00, 0x00, 0x00, 0x12, 0x00, 0x01, 0x00, 0x00, 0x00,
   0x00, 0x48, 0x08, 0x00, 0x00, 0x00, 0x00, 0x08, 0x00, 0x00, 0x00, 0x00,
   0x02, 0x00, 0x00, 0x00, 0x00, 0x00, 0x00, 0xe0, 0x00, 0x00, 0x20, 0x00,
   0x00, 0x00, 0x0c, 0x00, 0x00, 0x00, 0x00, 0x00, 0x00, 0x3c, 0x08, 0x00,
   0x00, 0x00, 0x00, 0x00, 0x00, 0x00, 0x00, 0x00, 0x07, 0x00, 0x00, 0x00,
   0x00, 0x00, 0x00, 0xe0, 0x00, 0x00, 0x20, 0x00, 0x00, 0x00, 0x00, 0x00,
   0x00, 0x00, 0x00, 0x00, 0x00, 0x00, 0x04, 0x00, 0x00, 0x00, 0x00, 0x00,
   0x00, 0x00, 0x00, 0x00, 0x00, 0x00, 0x00, 0x00, 0x00, 0x00, 0x00, 0xe0,
   0x00, 0x00, 0x00, 0x00, 0x00, 0x00, 0x00, 0x00, 0x00, 0x00, 0x00, 0x00,
   0x00, 0x00, 0x04, 0x00, 0x00, 0x00, 0x00, 0x00, 0x00, 0x00, 0x00, 0x00,
   0x00, 0x00, 0x00, 0x00, 0x00, 0x00, 0x00, 0xe0, 0x00, 0x00, 0x00, 0x00,
   0x00, 0x00, 0x00, 0x00, 0x00, 0x00, 0x00, 0x00, 0x00, 0x00, 0x00, 0x00,
   0x00, 0x00, 0x00, 0x00, 0x00, 0x00, 0x00, 0x00, 0x00, 0x00, 0x00, 0x00,
   0x00, 0x00, 0x00, 0xe0};
