#define psi_width 15
#define psi_height 20
static char psi_bits[] = {
   0x00, 0x80, 0x00, 0x84, 0x00, 0x84, 0x00, 0x84, 0x00, 0x82, 0x38, 0xb2,
   0x24, 0xb2, 0x30, 0x91, 0x30, 0x91, 0x18, 0x91, 0x98, 0x88, 0x98, 0x88,
   0x98, 0x84, 0xf0, 0x83, 0x40, 0x80, 0x40, 0x80, 0x20, 0x80, 0x20, 0x80,
   0x00, 0x80, 0x00, 0x80};
